<svg xmlns="http://www.w3.org/2000/svg" width="17.657" height="15.946" viewBox="0 0 17.657 15.946">
  <g id="Group_1128" data-name="Group 1128" transform="translate(0.261)">
    <rect id="Rectangle_2281" data-name="Rectangle 2281" width="11" height="4" rx="1" transform="translate(0.739 0.282)" fill="#eda537"/>
    <rect id="Rectangle_2282" data-name="Rectangle 2282" width="10" height="9" transform="translate(-0.261 6.282)" fill="#eceff1"/>
    <g id="information_1_" data-name="information (1)">
      <g id="Group_1117" data-name="Group 1117" transform="translate(13.047)">
        <g id="Group_1115" data-name="Group 1115">
          <path id="Path_1626" data-name="Path 1626" d="M19.812,3.624a1.812,1.812,0,1,1,1.812-1.812A1.814,1.814,0,0,1,19.812,3.624Zm0-2.9A1.087,1.087,0,1,0,20.9,1.812,1.089,1.089,0,0,0,19.812.725Z" transform="translate(-18)" fill="#0f88fc"/>
        </g>
        <g id="Group_1116" data-name="Group 1116" transform="translate(2.537 2.537)">
          <path id="Path_1627" data-name="Path 1627" d="M22.95,5.312a.364.364,0,0,1-.257-.106L21.606,4.119a.362.362,0,0,1,.512-.512l1.087,1.087a.362.362,0,0,1-.256.618Z" transform="translate(-21.5 -3.501)" fill="#0f88fc"/>
        </g>
      </g>
      <g id="Group_1118" data-name="Group 1118">
        <path id="Path_1628" data-name="Path 1628" d="M10.51,4.349H1.087A1.089,1.089,0,0,1,0,3.262V1.087A1.089,1.089,0,0,1,1.087,0H10.51A1.089,1.089,0,0,1,11.6,1.087V3.262A1.089,1.089,0,0,1,10.51,4.349ZM1.087.725a.363.363,0,0,0-.362.362V3.262a.363.363,0,0,0,.362.362H10.51a.363.363,0,0,0,.362-.362V1.087A.363.363,0,0,0,10.51.725Z" fill="#0f88fc"/>
      </g>
      <g id="Group_1119" data-name="Group 1119" transform="translate(11.597 6.523)">
        <path id="Path_1629" data-name="Path 1629" d="M21.436,9.725H16.362a.362.362,0,0,1,0-.725h5.074a.362.362,0,1,1,0,.725Z" transform="translate(-16 -9)" fill="#0f88fc"/>
      </g>
      <g id="Group_1120" data-name="Group 1120" transform="translate(11.597 8.698)">
        <path id="Path_1630" data-name="Path 1630" d="M21.436,12.725H16.362a.362.362,0,0,1,0-.725h5.074a.362.362,0,1,1,0,.725Z" transform="translate(-16 -12)" fill="#0f88fc"/>
      </g>
      <g id="Group_1121" data-name="Group 1121" transform="translate(11.597 10.872)">
        <path id="Path_1631" data-name="Path 1631" d="M21.436,15.725H16.362a.362.362,0,0,1,0-.725h5.074a.362.362,0,1,1,0,.725Z" transform="translate(-16 -15)" fill="#0f88fc"/>
      </g>
      <g id="Group_1122" data-name="Group 1122" transform="translate(11.597 13.047)">
        <path id="Path_1632" data-name="Path 1632" d="M21.436,18.725H16.362a.362.362,0,0,1,0-.725h5.074a.362.362,0,1,1,0,.725Z" transform="translate(-16 -18)" fill="#0f88fc"/>
      </g>
      <g id="Group_1123" data-name="Group 1123" transform="translate(11.597 15.221)">
        <path id="Path_1633" data-name="Path 1633" d="M21.436,21.725H16.362a.362.362,0,0,1,0-.725h5.074a.362.362,0,1,1,0,.725Z" transform="translate(-16 -21)" fill="#0f88fc"/>
      </g>
      <g id="Group_1124" data-name="Group 1124" transform="translate(0 6.523)">
        <path id="Path_1634" data-name="Path 1634" d="M9.06,18.423H1.087A1.089,1.089,0,0,1,0,17.335V10.087A1.089,1.089,0,0,1,1.087,9H9.06a1.089,1.089,0,0,1,1.087,1.087v7.248A1.089,1.089,0,0,1,9.06,18.423Zm-7.973-8.7a.363.363,0,0,0-.362.362v7.248a.363.363,0,0,0,.362.362H9.06a.363.363,0,0,0,.362-.362V10.087a.363.363,0,0,0-.362-.362Z" transform="translate(0 -9)" fill="#0f88fc"/>
      </g>
      <g id="Group_1127" data-name="Group 1127" transform="translate(2.899 8.698)">
        <g id="Group_1125" data-name="Group 1125" transform="translate(1.087)">
          <path id="Path_1635" data-name="Path 1635" d="M6.587,14.174a1.087,1.087,0,1,1,1.087-1.087A1.089,1.089,0,0,1,6.587,14.174Zm0-1.45a.362.362,0,1,0,.362.362A.363.363,0,0,0,6.587,12.725Z" transform="translate(-5.5 -12)" fill="#0f88fc"/>
        </g>
        <g id="Group_1126" data-name="Group 1126" transform="translate(0 2.899)">
          <path id="Path_1636" data-name="Path 1636" d="M7.987,18.174a.363.363,0,0,1-.362-.362V17.45a.726.726,0,0,0-.725-.725H5.45a.726.726,0,0,0-.725.725v.362a.362.362,0,1,1-.725,0V17.45A1.451,1.451,0,0,1,5.45,16H6.9a1.451,1.451,0,0,1,1.45,1.45v.362A.363.363,0,0,1,7.987,18.174Z" transform="translate(-4 -16)" fill="#0f88fc"/>
        </g>
      </g>
    </g>
  </g>
</svg>
