<svg xmlns="http://www.w3.org/2000/svg" width="58.379" height="54.5" viewBox="0 0 58.379 54.5">
  <g id="Add_patient" data-name="Add patient" transform="translate(-3890.621 342)">
    <path id="Path_1873" data-name="Path 1873" d="M3899.621-325.179c1.684.631,2.947,5.262,2.947,5.262l-6.693,5.473-2.063,6.043-1.326,11.422v8.106l37.362-.59-5.674-4.79-2.948-7.59,3.316-8.4,3.021-2.653,9.285-1.916-6.19-5.9,3.611-8.99-3.021-7.664-7.738-2.8-5.453,1.621-6.043-1.621-7.59,1.253-3.611,5.306Z" fill="#eceff1"/>
    <path id="Path_1874" data-name="Path 1874" d="M3933.015-314.172s4.84.392,5.014.48,4.884,1.962,4.884,1.962l3.009,4.36,1.4,5.756s-1.264,5.538-1.4,5.712-3.445,3.75-3.619,3.837-4.666,2.224-4.84,2.311-6.759.828-7.064.828-4.535-3.488-4.535-3.488l-4.4-7.151,1.4-8.067,3.009-4.491Z" fill="#eda537"/>
    <g id="add-friend" transform="translate(3890.621 152.842)">
      <path id="Path_1871" data-name="Path 1871" d="M17.519-494.689a12.935,12.935,0,0,0-9.638,8.474,10.725,10.725,0,0,0-.616,3.958,11.99,11.99,0,0,0,2.5,7.664,10.446,10.446,0,0,1,.616.878,2.132,2.132,0,0,1-.536.376A20.659,20.659,0,0,0,1.266-462.3C.091-458.773,0-457.747,0-448.132v7.79H22.685c19.583,0,22.811-.023,23.655-.171a14.372,14.372,0,0,0,7.459-3.752,14.437,14.437,0,0,0,3.98-14.69,14.706,14.706,0,0,0-9.307-9.626c-.969-.319-.969-.331-2.258-1.665a16.943,16.943,0,0,0-3.707-3.022l-.764-.468.388-.468a13.456,13.456,0,0,0,2.475-4.984,9.222,9.222,0,0,0,.262-3.068,10.022,10.022,0,0,0-.833-4.676,13,13,0,0,0-6.227-6.684,11.307,11.307,0,0,0-5.053-1.209,11.2,11.2,0,0,0-5.748,1.072l-.867.4-1-.422a10.486,10.486,0,0,0-4.893-1.038A13.547,13.547,0,0,0,17.519-494.689Zm4.574,3.479a8.886,8.886,0,0,1,4.619,2.715,8.886,8.886,0,0,1,2.464,5.851,9.151,9.151,0,0,1-5.361,8.885,9.276,9.276,0,0,1-7.893-.08,9.331,9.331,0,0,1-5.053-6.262,11.128,11.128,0,0,1,.068-4.425,9.522,9.522,0,0,1,6.741-6.684A10.856,10.856,0,0,1,22.092-491.211Zm12.318,0a9.249,9.249,0,0,1,7.106,9.01,9.24,9.24,0,0,1-7.014,9.022,8.061,8.061,0,0,1-2.292.24c-1.369.011-1.38.011-2.087-.388l-.707-.4.4-.479a13.569,13.569,0,0,0,2.464-4.916,15.326,15.326,0,0,0,.182-5.212,12.963,12.963,0,0,0-2.589-5.76c-.753-.947-.753-.924.388-1.175A11.549,11.549,0,0,1,34.41-491.211Zm-20.1,20.4a11.949,11.949,0,0,0,5.532,1.289,11.871,11.871,0,0,0,5.737-1.3l.992-.468.707.331a15.432,15.432,0,0,1,5.361,4.437c1.038,1.369,1.026,1.277.274,2.167a15.151,15.151,0,0,0-3.33,6.843,18.883,18.883,0,0,0-.057,5.075,14.946,14.946,0,0,0,3.946,7.721l.912.947H3.422v-5.919c0-3.33.057-6.433.125-7.094a17.994,17.994,0,0,1,7.573-13.3,10.763,10.763,0,0,1,2.156-1.175A9.3,9.3,0,0,1,14.314-470.806Zm25.411-.091a16.077,16.077,0,0,1,2.475,1.585,3.379,3.379,0,0,1-.867.205,16.512,16.512,0,0,0-4.152,1.4l-.855.468-.171-.274c-.091-.137-.49-.684-.89-1.209-.445-.582-.662-.958-.57-.981a15.23,15.23,0,0,0,3-1.038,8.233,8.233,0,0,1,1.175-.5A3.407,3.407,0,0,1,39.725-470.9Zm6.98,5.338a12.662,12.662,0,0,1,4.129,2.11A11.081,11.081,0,0,1,54.8-452.991a11.131,11.131,0,0,1-7.893,8.851,7.736,7.736,0,0,1-3,.308A8.445,8.445,0,0,1,41-444.083a11.264,11.264,0,0,1-8.223-10,11.724,11.724,0,0,1,1.175-5.7,11.282,11.282,0,0,1,7.071-5.748,7.6,7.6,0,0,1,3.114-.3A9.976,9.976,0,0,1,46.705-465.56Z" fill="#0f88fc"/>
      <path id="Path_1872" data-name="Path 1872" d="M331.9-198.6v2.4H327v3.422h4.9v4.916l1.688-.034,1.677-.034.034-2.429.023-2.418h4.79v-3.422h-4.79V-201H331.9Z" transform="translate(-289.704 -260.328)" fill="#0f88fc"/>
    </g>
  </g>
</svg>
