<svg id="Outline" xmlns="http://www.w3.org/2000/svg" width="37.44" height="37.44" viewBox="0 0 37.44 37.44">
  <circle id="Ellipse_80" data-name="Ellipse 80" cx="1.44" cy="1.44" r="1.44" transform="translate(2.88 12.613)" fill="#eda537"/>
  <circle id="Ellipse_81" data-name="Ellipse 81" cx="1.44" cy="1.44" r="1.44" transform="translate(7.68 10.693)" fill="#eda537"/>
  <circle id="Ellipse_82" data-name="Ellipse 82" cx="1.44" cy="1.44" r="1.44" transform="translate(2.88 19.333)" fill="#eda537"/>
  <circle id="Ellipse_83" data-name="Ellipse 83" cx="0.96" cy="0.96" r="0.96" transform="translate(8.64 22.213)" fill="#eda537"/>
  <circle id="Ellipse_84" data-name="Ellipse 84" cx="0.96" cy="0.96" r="0.96" transform="translate(13.44 19.333)" fill="#eda537"/>
  <path id="Path_1459" data-name="Path 1459" d="M16,50.32V27.856h1.248V50.32a1.874,1.874,0,0,0,1.872,1.872H29.728V53.44H19.12A3.124,3.124,0,0,1,16,50.32Zm1.248-24.96a1.874,1.874,0,0,1,1.872-1.872h2.11l.452.9a.624.624,0,0,0,.558.345h6.24a.624.624,0,0,0,.558-.345l.452-.9h.862V22.24H19.12A3.124,3.124,0,0,0,16,25.36v1.248h1.248ZM39.712,53.44V44.383a4.34,4.34,0,0,0-1.279-3.089L34.72,37.581V35.968H33.472V41.95l-1.538-1.538a2.389,2.389,0,1,0-3.379,3.379l2.285,2.285-.044.087a7.217,7.217,0,0,0,.179,6.822v.455h1.248v-.624a.625.625,0,0,0-.089-.321,5.976,5.976,0,0,1-.222-5.774l.245-.49a.624.624,0,0,0-.117-.72l-2.6-2.6a1.141,1.141,0,1,1,1.614-1.614l4.475,4.475.882-.882L34.72,43.2V39.346l2.83,2.83a3.1,3.1,0,0,1,.914,2.206V53.44ZM19.744,34.827V32.117a1.872,1.872,0,1,1,1.922-3.112l1.837-.918a1.872,1.872,0,1,1,3.714,0L29.054,29a1.863,1.863,0,0,1,.362-.274l.625,1.08a.624.624,0,0,0,.312,1.165v1.248a1.862,1.862,0,0,1-1.165-.408l-2,1.25a1.861,1.861,0,0,1,0,.812l2,1.25a1.872,1.872,0,0,1,.541-.3V33.472h1.248v1.355a1.872,1.872,0,1,1-1.922,3.112l-1.837.918a1.872,1.872,0,1,1-3.714,0l-1.837-.918a1.871,1.871,0,1,1-1.922-3.112Zm9.984,1.765a.624.624,0,1,0,.624-.624A.624.624,0,0,0,29.728,36.592Zm-5.666,1.149a1.876,1.876,0,0,1,.674-.418V35.237a1.872,1.872,0,0,1-.541-.3l-2,1.25a1.842,1.842,0,0,1,.03.637Zm1.922,1.347a.624.624,0,1,0-.624.624.624.624,0,0,0,.624-.624ZM25.36,34.1a.624.624,0,1,0-.624-.624A.624.624,0,0,0,25.36,34.1Zm1.165.84a1.871,1.871,0,0,1-.541.3v2.087a1.876,1.876,0,0,1,.674.418l1.837-.918a1.842,1.842,0,0,1,.03-.637Zm.133-5.733a1.876,1.876,0,0,1-.674.418v2.087a1.872,1.872,0,0,1,.541.3l2-1.25a1.839,1.839,0,0,1-.03-.637Zm-1.922-1.347a.624.624,0,1,0,.624-.624.624.624,0,0,0-.624.624Zm-2.5,2.5a1.873,1.873,0,0,1-.045.406l2,1.25a1.872,1.872,0,0,1,.541-.3V29.621a1.876,1.876,0,0,1-.674-.418l-1.837.918A1.869,1.869,0,0,1,22.24,30.352Zm-.707,1.464a1.872,1.872,0,0,1-.541.3v2.711a1.872,1.872,0,0,1,.541.3l2-1.25a1.861,1.861,0,0,1,0-.812Zm-1.789-1.464a.624.624,0,1,0,.624-.624A.624.624,0,0,0,19.744,30.352Zm0,6.24a.624.624,0,1,0,.624-.624A.624.624,0,0,0,19.744,36.592ZM28.48,49.7H22.24v1.248h6.24Zm-9.36-7.488v1.248h1.248V42.208Zm2.5,0v1.248h4.992V42.208Zm-2.5,3.744h8.736V44.7H19.12ZM22.864,47.2H19.12v1.248h3.744Zm5.616,0H24.112v1.248H28.48ZM53.44,27.232V19.12A3.124,3.124,0,0,0,50.32,16H34.72a3.124,3.124,0,0,0-3.12,3.12V31.6a3.124,3.124,0,0,0,3.12,3.12h1.735l-.475,2.374a.624.624,0,0,0,.915.668L42.37,34.72h7.95a3.124,3.124,0,0,0,3.12-3.12V28.48H52.192V31.6a1.874,1.874,0,0,1-1.872,1.872H42.208a.624.624,0,0,0-.3.079l-4.436,2.465.359-1.8a.624.624,0,0,0-.612-.747h-2.5A1.874,1.874,0,0,1,32.848,31.6V19.12a1.874,1.874,0,0,1,1.872-1.872h15.6a1.874,1.874,0,0,1,1.872,1.872v8.112Zm-2.5,1.248H50.32V19.12H49.072v9.36H47.824V22.864H46.576V28.48H45.328V23.488H44.08V28.48H42.832V25.36H41.584v3.12H40.336V24.736H39.088V28.48H37.84V26.608H36.592V28.48H35.344V19.12H34.1V29.1a.624.624,0,0,0,.624.624H50.944ZM40.777,20.551a.624.624,0,0,0-.787-.078l-3.744,2.5.692,1.038,3.318-2.212,1.51,1.51a.624.624,0,0,0,.8.067l2.949-2.106.161.222a.624.624,0,0,0,.505.258l.047,0a.624.624,0,0,0,.508-.337l.884-1.716A.624.624,0,0,0,47,18.785l-1.976.208a.624.624,0,0,0-.44.987l.2.275-2.512,1.794ZM34.1,32.224h1.248V30.976H34.1Zm3.744,0V30.976H36.592v1.248Zm2.5,0V30.976H39.088v1.248Zm2.5,0V30.976H41.584v1.248Zm2.5,0V30.976H44.08v1.248Zm2.5,0V30.976H46.576v1.248Zm2.5,0V30.976H49.072v1.248Z" transform="translate(-16 -16)" fill="#fff"/>
</svg>
