<?xml version="1.0" standalone="no"?>
<!DOCTYPE svg PUBLIC "-//W3C//DTD SVG 20010904//EN"
 "http://www.w3.org/TR/2001/REC-SVG-20010904/DTD/svg10.dtd">
<svg version="1.0" xmlns="http://www.w3.org/2000/svg"
 width="840.000000pt" height="859.000000pt" viewBox="0 0 840.000000 859.000000"
 preserveAspectRatio="xMidYMid meet">

<g transform="translate(0.000000,859.000000) scale(0.100000,-0.100000)"
fill="#000000" stroke="none">
<path d="M4077 6675 c-97 -23 -116 -30 -232 -87 -228 -112 -406 -338 -475
-603 -42 -164 -25 -409 44 -610 181 -531 729 -1096 1504 -1549 l112 -65 88 51
c610 357 1090 784 1352 1203 60 96 143 267 168 345 58 181 66 228 66 405 1
183 -9 236 -72 380 -88 203 -287 395 -502 484 -180 75 -393 91 -591 46 -61
-14 -118 -30 -127 -35 -9 -5 -50 -25 -91 -45 -82 -40 -197 -122 -250 -179 -19
-20 -38 -36 -41 -36 -4 0 -32 25 -63 55 -231 221 -577 315 -890 240z"/>
</g>
</svg>
