<svg xmlns="http://www.w3.org/2000/svg" width="18" height="17.986" viewBox="0 0 18 17.986">
  <g id="bank" transform="translate(0 511.6)">
    <path id="Path_1986" data-name="Path 1986" d="M4.489-509.934,0-508.257v.9H18v-.9l-4.472-1.666c-2.461-.914-4.489-1.666-4.511-1.673S6.961-510.855,4.489-509.934Zm5.038.991v.527H8.473v-1.055H9.527Z" transform="translate(0 0)" fill="#1089fe"/>
    <path id="Path_1987" data-name="Path 1987" d="M31-359.945v1.055H46.82V-361H31Z" transform="translate(-29.91 -145.306)" fill="#1089fe"/>
    <path id="Path_1988" data-name="Path 1988" d="M61-267.818v3.182h3.164V-271H61Z" transform="translate(-58.855 -232.142)" fill="#1089fe"/>
    <path id="Path_1989" data-name="Path 1989" d="M211-267.818v3.182h3.164V-271H211Z" transform="translate(-203.582 -232.142)" fill="#1089fe"/>
    <path id="Path_1990" data-name="Path 1990" d="M361-267.818v3.182h3.164V-271H361Z" transform="translate(-348.309 -232.142)" fill="#1089fe"/>
    <path id="Path_1991" data-name="Path 1991" d="M1.09-59.473v.527H0v1.055H18v-1.055H16.91V-60H1.09Z" transform="translate(0 -435.724)" fill="#1089fe"/>
  </g>
</svg>
