<svg xmlns="http://www.w3.org/2000/svg" width="18.178" height="18.208" viewBox="0 0 18.178 18.208">
  <g id="bar-graph" opacity="0.49">
    <path id="Path_1632" data-name="Path 1632" d="M66.262-511.972a1.023,1.023,0,0,0-.59.5,1.057,1.057,0,0,0,.014.793.464.464,0,0,1,.068.213c-.011.021-.5.779-1.084,1.678l-1.063,1.636-.245,0a.918.918,0,0,0-.594.2c-.053.036-.178-.014-.86-.366l-.8-.409v-.178a.888.888,0,0,0-.91-.871.918.918,0,0,0-.871.651,1.174,1.174,0,0,0,.046.651l.053.1-1.013,1.227c-.555.676-1.02,1.227-1.035,1.227s-.1-.018-.192-.032a.925.925,0,0,0-.64.142l-.135.089-.789-.423-.789-.423-.025-.238a.88.88,0,0,0-.907-.839.887.887,0,0,0-.9.907.908.908,0,0,0,1.476.715c.064-.046.142-.011.868.38l.793.434.011.2a.9.9,0,0,0,.484.761.909.909,0,0,0,1.294-.53.816.816,0,0,0-.014-.587l-.068-.192,1-1.216,1-1.216.252.018a.886.886,0,0,0,.636-.156l.128-.085.8.412.8.412v.181a.9.9,0,0,0,1.5.636.9.9,0,0,0,.22-1.074l-.092-.206,1.084-1.664,1.084-1.668.228,0a.9.9,0,0,0,.846-1.287A.926.926,0,0,0,66.262-511.972Zm.391.59a.3.3,0,0,1,.178.313.34.34,0,0,1-.5.274.339.339,0,0,1-.057-.523A.28.28,0,0,1,66.653-511.382ZM60.435-508.1a.3.3,0,0,1,.1.235.342.342,0,0,1-.519.284.391.391,0,0,1-.142-.359A.328.328,0,0,1,60.435-508.1Zm3.172,1.643a.323.323,0,0,1,.1.21.407.407,0,0,1-.267.324.329.329,0,0,1-.32-.1.341.341,0,0,1,.124-.544A.33.33,0,0,1,63.606-506.454Zm-9.518.441a.391.391,0,0,1,.142.359.368.368,0,0,1-.331.263.346.346,0,0,1-.331-.338A.342.342,0,0,1,54.088-506.013Zm3.2,1.732a.334.334,0,0,1-.11.544.312.312,0,0,1-.427-.178A.332.332,0,0,1,57.288-504.281Z" transform="translate(-51.129 512.004)"/>
    <path id="Path_1633" data-name="Path 1633" d="M14.536-388.709a1.04,1.04,0,0,0-.533.491l-.085.181v4.185l-.1-.028a22.534,22.534,0,0,0-2.4,0l-.1.028v-.441a2.083,2.083,0,0,0-.057-.608,1.041,1.041,0,0,0-.519-.562c-.181-.082-.231-.085-1.124-.1-1.074-.014-1.344.014-1.582.174a1.123,1.123,0,0,0-.388.476,10.888,10.888,0,0,0-.057,1.682l-.011,1.575-.078-.028c-.1-.036-2.251-.039-2.375,0l-.1.028-.014-.526c-.011-.448-.025-.544-.089-.668a.956.956,0,0,0-.466-.466l-.2-.1h-1.1c-1.045,0-1.109,0-1.262.075a.975.975,0,0,0-.491.455l-.1.181-.011,3.1-.007,3.1-.178.021a.78.78,0,0,0-.711.956.878.878,0,0,0,.516.558c.2.057,12.228.057,12.388,0a.3.3,0,0,0,.146-.1.341.341,0,0,0-.036-.356c-.071-.071-.117-.071-6.2-.071H1.085l-.071-.092c-.1-.121-.092-.142.014-.245l.085-.089h8.37c9.052,0,8.494-.011,8.5.188s.078.2-1.973.21l-1.884.011-.085.1a.254.254,0,0,0,0,.37l.085.1h3.829l.171-.085a.786.786,0,0,0,.43-.807.8.8,0,0,0-.747-.654h-.149l-.011-4.1-.014-4.1-.085-.092a.272.272,0,0,0-.469.107c-.028.075-.036,1.148-.028,4.139l.014,4.036-1.287.011-1.291.007v-5.717c0-5.124.007-5.724.057-5.8.121-.174.192-.185,1.223-.185a3.747,3.747,0,0,1,1.067.053c.213.11.213.1.213,1.38s.007,1.333.206,1.4a.3.3,0,0,0,.341-.117c.011-.032.021-.622.021-1.308,0-1.237,0-1.255-.085-1.429a1.079,1.079,0,0,0-.459-.469c-.1-.057-.238-.064-1.252-.071A5.417,5.417,0,0,0,14.536-388.709Zm-3.918,3.851.117.1.011,4.128.007,4.128H8.2l-.014-4.028c-.007-2.212,0-4.071,0-4.124a.447.447,0,0,1,.117-.2l.107-.107H10.5Zm3.065,1.55c.231.11.217-.114.228,3.509l.007,3.3h-2.6l.007-3.3c.011-3.612,0-3.4.224-3.509A9.694,9.694,0,0,1,13.682-383.308Zm-9.39.551a.48.48,0,0,1,.132.206c.021.085.036,1.173.036,3.09v2.962h-2.6v-2.987c0-3.214,0-3.154.181-3.285.071-.05.22-.057,1.12-.057C4.154-382.828,4.2-382.824,4.292-382.757Zm3.079,1.646a.47.47,0,0,1,.149.132,9.693,9.693,0,0,1,.085,2.283l.025,2.2h-2.6v-2.169c0-2.4-.007-2.336.224-2.436A11.109,11.109,0,0,1,7.371-381.111Z" transform="translate(-0.384 393.139)"/>
  </g>
</svg>
