<svg id="blood" xmlns="http://www.w3.org/2000/svg" width="18.616" height="18.614" viewBox="0 0 18.616 18.614">
  <path id="Path_1370" data-name="Path 1370" d="M361.6,180.967a.545.545,0,0,0-.545.545V182.6a.545.545,0,1,0,1.091,0v-1.091A.545.545,0,0,0,361.6,180.967Z" transform="translate(-347.922 -174.388)" fill="#5ece8b"/>
  <path id="Path_1371" data-name="Path 1371" d="M332.05,480.967h3.269v1.127H332.05Z" transform="translate(-319.977 -463.48)" fill="#5ece8b"/>
  <path id="Path_1372" data-name="Path 1372" d="M249.866,274.276h-1.274v-2.763a.546.546,0,0,0-.545-.545h-2.178a.546.546,0,0,0-.545.545v2.763H244.05a2,2,0,0,0-2,2v2.909a.545.545,0,0,0,.545.545h1.636v-1.673a.545.545,0,0,1,.545-.545h4.36a.545.545,0,0,1,.545.545v1.673h1.638a.545.545,0,0,0,.545-.545v-2.909A2,2,0,0,0,249.866,274.276Z" transform="translate(-233.249 -261.116)" fill="#5ece8b"/>
  <path id="Path_1373" data-name="Path 1373" d="M210.987,135.105a.819.819,0,0,0-.818-.818h-2.4a.818.818,0,1,0,0,1.636h2.4A.819.819,0,0,0,210.987,135.105Z" transform="translate(-199.424 -129.406)" fill="#5ece8b"/>
  <path id="Path_1374" data-name="Path 1374" d="M183.671,285.606a.819.819,0,0,0-.818-.818h-1.545a.818.818,0,1,0,0,1.636h1.545A.819.819,0,0,0,183.671,285.606Z" transform="translate(-173.927 -274.434)" fill="#5ece8b"/>
  <path id="Path_1375" data-name="Path 1375" d="M6.576,9.475A1.9,1.9,0,0,1,6.944,7.03,1.91,1.91,0,0,1,8.327,3.824v-.01h5.745a.909.909,0,1,0,0-1.818H9.419a2.514,2.514,0,0,1-.4.5,3.466,3.466,0,0,1-2.7.8A4.009,4.009,0,0,1,5.206,5.664v0A3.422,3.422,0,0,1,3.115,6.6.545.545,0,0,1,3,5.518a2.357,2.357,0,0,0,2.091-1.7,3.559,3.559,0,0,0,.185-1.059.513.513,0,0,1,.545-.55H7.1A1.55,1.55,0,0,0,7.9,2h0A1.626,1.626,0,0,0,8.728.578V.033L3.282.046A1.639,1.639,0,0,0,1.861.88L.81,2.751H.545A.545.545,0,0,0,0,3.3v7.09a.545.545,0,0,0,.545.545h.3l.616.613a1.626,1.626,0,0,0,1.155.477l3.032-.013a1.912,1.912,0,0,1,.928-2.535Z" transform="translate(0 -0.033)" fill="#5ece8b"/>
  <path id="Path_1376" data-name="Path 1376" d="M203.767,209.537a.818.818,0,0,0,0,1.636h1.092a.818.818,0,0,0,0-1.636Z" transform="translate(-195.57 -201.919)" fill="#5ece8b"/>
</svg>
