<svg xmlns="http://www.w3.org/2000/svg" width="33" height="33" viewBox="0 0 33 33">
  <g id="Group_988" data-name="Group 988" transform="translate(-0.48 -0.16)">
    <circle id="Ellipse_90" data-name="Ellipse 90" cx="16.5" cy="16.5" r="16.5" transform="translate(0.48 0.16)" fill="#ffedd4"/>
    <path id="BP_chart" data-name="BP chart" d="M68.638,517.647v7.128a4.093,4.093,0,0,1-8.177.281c-.973.081-1.9.091-2.248.091-.87,0-5.213-.054-5.213-1.117V513.606c0-1.063,4.342-1.117,5.213-1.117s5.213.054,5.213,1.117v2.177a3.716,3.716,0,0,1,0,6.815v1.433c0,.522-1.046.8-2.213.948a3.344,3.344,0,0,0,6.681-.2v-7.128c-1.33-.347-2.234-2.471-2.234-3.669a2.63,2.63,0,1,1,5.213,0C70.872,515.177,69.968,517.3,68.638,517.647Zm-10.425-4.414a19.522,19.522,0,0,0-4.068.372,22.422,22.422,0,0,0,8.137,0A19.522,19.522,0,0,0,58.213,513.234Zm3.723,8.936a2.979,2.979,0,1,0-2.979-2.978A2.982,2.982,0,0,0,61.936,522.169Zm-.372-3.609v-1.231a.372.372,0,1,1,.745,0v1.231a.735.735,0,0,1,.372.63.745.745,0,0,1-1.489,0A.735.735,0,0,1,61.563,518.561Z" transform="translate(-44.88 -503.32)" fill="#f6a329"/>
  </g>
</svg>
