<svg xmlns="http://www.w3.org/2000/svg" width="11.616" height="11.616" viewBox="0 0 11.616 11.616">
  <path id="BP_chart" data-name="BP chart" d="M63.164,515.32v4.633a2.661,2.661,0,0,1-5.315.183c-.632.053-1.232.059-1.461.059-.566,0-3.388-.035-3.388-.726v-6.776c0-.691,2.822-.726,3.388-.726s3.388.035,3.388.726v1.415a2.415,2.415,0,0,1,0,4.43v.931c0,.339-.68.52-1.439.616a2.173,2.173,0,0,0,4.343-.132V515.32c-.864-.226-1.452-1.606-1.452-2.385a1.709,1.709,0,1,1,3.388,0C64.616,513.715,64.029,515.095,63.164,515.32Zm-6.776-2.869a12.691,12.691,0,0,0-2.644.242,14.572,14.572,0,0,0,5.289,0A12.691,12.691,0,0,0,56.388,512.452Zm2.42,5.808a1.936,1.936,0,1,0-1.936-1.936A1.938,1.938,0,0,0,58.808,518.26Zm-.242-2.346v-.8a.242.242,0,0,1,.484,0v.8a.478.478,0,0,1,.242.41.484.484,0,0,1-.968,0A.478.478,0,0,1,58.566,515.914Z" transform="translate(-53 -510.999)" fill="#0f88fc"/>
</svg>
