<svg xmlns="http://www.w3.org/2000/svg" width="18.617" height="18.617" viewBox="0 0 18.617 18.617">
  <path id="BP_chart" data-name="BP chart" d="M69.289,517.924v7.425a4.264,4.264,0,0,1-8.518.293c-1.013.085-1.975.1-2.342.1-.907,0-5.43-.056-5.43-1.164v-10.86c0-1.108,4.523-1.164,5.43-1.164s5.43.056,5.43,1.164v2.268a3.871,3.871,0,0,1,0,7.1v1.492c0,.543-1.089.833-2.306.987a3.483,3.483,0,0,0,6.96-.212v-7.425c-1.385-.362-2.327-2.574-2.327-3.822a2.739,2.739,0,1,1,5.43,0C71.616,515.351,70.675,517.563,69.289,517.924Zm-10.86-4.6a20.336,20.336,0,0,0-4.238.388,23.352,23.352,0,0,0,8.476,0A20.336,20.336,0,0,0,58.43,513.327Zm3.878,9.308a3.1,3.1,0,1,0-3.1-3.1A3.106,3.106,0,0,0,62.308,522.635Zm-.388-3.759v-1.283a.388.388,0,1,1,.776,0v1.283a.765.765,0,0,1,.388.656.776.776,0,0,1-1.551,0A.765.765,0,0,1,61.92,518.876Z" transform="translate(-53 -510.999)" fill="#f6a329"/>
</svg>
