<svg id="cake" xmlns="http://www.w3.org/2000/svg" width="9.175" height="11.207" viewBox="0 0 9.175 11.207">
  <g id="Group_635" data-name="Group 635" transform="translate(0)">
    <g id="Group_634" data-name="Group 634" transform="translate(0)">
      <path id="Path_1166" data-name="Path 1166" d="M192.912,3.057a1.019,1.019,0,0,0,.874-1.544L192.912,0l-.874,1.513a1.019,1.019,0,0,0,.874,1.544Z" transform="translate(-188.327)" fill="#0f88fc"/>
      <path id="Path_1167" data-name="Path 1167" d="M50.2,150.352H47.654v-1.019H46.635v1.019H44.088a1.529,1.529,0,0,0-1.528,1.528v.785a1,1,0,0,0,1.7.706l1.09-1.088,1.088,1.085a1.022,1.022,0,0,0,1.411,0l1.09-1.085,1.088,1.085a1,1,0,0,0,1.7-.706v-.782A1.537,1.537,0,0,0,50.2,150.352Z" transform="translate(-42.56 -145.767)" fill="#0f88fc"/>
      <path id="Path_1168" data-name="Path 1168" d="M49.486,318.628h0l-.548-.548-.55.548a1.8,1.8,0,0,1-2.491,0l-.548-.548-.55.548a1.727,1.727,0,0,1-1.24.517,1.759,1.759,0,0,1-1-.313v2.351a.511.511,0,0,0,.509.509H51.22a.511.511,0,0,0,.509-.509v-2.351a1.754,1.754,0,0,1-2.244-.2Z" transform="translate(-42.56 -310.484)" fill="#0f88fc"/>
    </g>
  </g>
</svg>
