<svg xmlns="http://www.w3.org/2000/svg" width="17.809" height="17.809" viewBox="0 0 17.809 17.809">
  <path id="Shape_31" data-name="Shape 31" d="M1013.323,901.366h0a.938.938,0,0,0,0,1.875h0a.938.938,0,0,0,0-1.875Zm-2.812-.937a.937.937,0,1,0-.937-.937A.938.938,0,0,0,1010.511,900.43Zm2.812-1.875h0a.937.937,0,0,0,0,1.875h0a.937.937,0,0,0,0-1.875Zm.937-4.687h-4.687v1.875h4.687Zm1.875,6.561a.937.937,0,1,0-.937-.937A.938.938,0,0,0,1016.135,900.43Zm0,2.812a.937.937,0,1,0-.937-.937A.938.938,0,0,0,1016.135,903.241Zm-5.624,0a.938.938,0,1,0-.937-.937A.938.938,0,0,0,1010.511,903.241Zm-2.812,2.812a.937.937,0,1,0-.937-.937A.938.938,0,0,0,1007.7,906.053Zm11.248-12.185h-.937v1.875h.937v12.185h-14.06V895.743h.937v-1.875h-.937a1.875,1.875,0,0,0-1.875,1.875v12.185a1.875,1.875,0,0,0,1.875,1.875h14.06a1.875,1.875,0,0,0,1.875-1.875V895.743A1.875,1.875,0,0,0,1018.947,893.868Zm-11.248,9.373a.938.938,0,1,0-.937-.937A.938.938,0,0,0,1007.7,903.241Zm0-2.812a.937.937,0,1,0-.937-.937A.938.938,0,0,0,1007.7,900.43Zm2.812,5.624a.937.937,0,1,0-.937-.937A.938.938,0,0,0,1010.511,906.053Zm-2.812-10.31a.938.938,0,0,0,.937-.937v-1.875a.937.937,0,0,0-1.875,0v1.875A.938.938,0,0,0,1007.7,895.743Zm8.436,0a.938.938,0,0,0,.937-.937v-1.875a.937.937,0,1,0-1.875,0v1.875A.938.938,0,0,0,1016.135,895.743Z" transform="translate(-1003.013 -891.994)" fill="#9babaf"/>
</svg>
