<svg xmlns="http://www.w3.org/2000/svg" width="79.284" height="79.265" viewBox="0 0 79.284 79.265">
  <g id="Group_3515" data-name="Group 3515" transform="translate(-226.361 -837.343)">
    <g id="Ellipse_6_copy_7" data-name="Ellipse 6 copy 7" transform="translate(226.361 837.343)" fill="#fff" stroke="#67c7cb" stroke-width="0.667">
      <ellipse cx="39.642" cy="39.632" rx="39.642" ry="39.632" stroke="none"/>
      <ellipse cx="39.642" cy="39.632" rx="39.309" ry="39.299" fill="none"/>
    </g>
    <g id="_114-1148111_ear-nose-and-throat-ent-specialist-icon-hd" data-name="114-1148111_ear-nose-and-throat-ent-specialist-icon-hd" transform="translate(246.503 852.689)">
      <path id="Path_1585" data-name="Path 1585" d="M50.769-1019.695c-6.481.464-11.911,3.548-14.536,8.26a14.841,14.841,0,0,0-1.779,7.766,7.379,7.379,0,0,1-.332,2.615,34.3,34.3,0,0,1-2.517,6.437,6.321,6.321,0,0,0-.821,2.209,1.794,1.794,0,0,0,1.52,2.131c.518.122.5.132.621-.342a23.947,23.947,0,0,1,.782-2.434,10.881,10.881,0,0,1,4.477-5.42,9.6,9.6,0,0,1,2.918-1.354,6.636,6.636,0,0,1,2.014-.254,8.98,8.98,0,0,1,3.71.8,4.208,4.208,0,0,1,1.2.665,10.872,10.872,0,0,0,1.549,1.017,6.557,6.557,0,0,0,3.47.7,12.363,12.363,0,0,0,2.043-.508,12.782,12.782,0,0,0,2.81-1.481,10.659,10.659,0,0,1,.987-.572,1.308,1.308,0,0,1,.806-.2,1.622,1.622,0,0,1,1.525.89c.127.264.137.313.137.938,0,.728-.044.87-.381,1.256a7.735,7.735,0,0,1-2.625,1.525c-1.642.513-2.752,1.862-3.3,4.013-.327,1.286-.323,1.222-.367,6.916-.02,2.849-.044,6.72-.054,8.6l-.015,3.421,5.753.015,5.753.01v-9.277c0-6.1.02-9.419.049-9.687a4.943,4.943,0,0,1,.347-1.329,1.955,1.955,0,0,1,.308-.4,5.823,5.823,0,0,0,.968-1.681c1.212-2.7,2.053-5.831,1.916-7.141a5.08,5.08,0,0,1,.029-.865,15.332,15.332,0,0,0-.494-5.46c-1.74-6.188-7.659-10.811-14.976-11.7A34.83,34.83,0,0,0,50.769-1019.695Z" transform="translate(-30.767 1019.71)" fill="#67c7cb"/>
      <path id="Path_1586" data-name="Path 1586" d="M93.646-495.87a7.064,7.064,0,0,0-3.68,1.833l-.425.406-1.153,2.248c-.631,1.237-1.163,2.331-1.178,2.429a1.1,1.1,0,0,0,.464.885,4.637,4.637,0,0,0,1.936.743c.391.073.547.127.557.181s-.152.2-.425.4c-.875.65-1.158,1.114-1.041,1.686.1.459.43.753,1.124.987l.308.1-.034.611c-.02.337-.034,1.051-.039,1.593l0,.987.156.323a2.6,2.6,0,0,0,1.579,1.241c.249.083.464.088,3.372.059,3.011-.029,3.113-.029,3.26.064a.842.842,0,0,1,.254.283c.176.347.2.723.171,2.5-.02.929-.02,1.857,0,2.063l.039.381h5.186l-.029-3.265c-.083-8.006-.22-10.474-.655-11.8a10.764,10.764,0,0,0-3.118-4.34,10.811,10.811,0,0,0-4.751-2.566A9.667,9.667,0,0,0,93.646-495.87Z" transform="translate(-84.446 521.501)" fill="#67c7cb"/>
    </g>
  </g>
</svg>
