<svg xmlns="http://www.w3.org/2000/svg" width="24.125" height="28" viewBox="0 0 24.125 28">
  <g id="Clinical_Features" data-name="Clinical Features" transform="translate(-178.162 -146.415)">
    <path id="Path_11697" data-name="Path 11697" d="M330.179,149.6A3.183,3.183,0,1,1,327,146.415a3.183,3.183,0,0,1,3.183,3.183" transform="translate(-136.77)" fill="#fff"/>
    <path id="Path_11698" data-name="Path 11698" d="M236.352,272.427a1.591,1.591,0,1,1-1.591-1.591,1.591,1.591,0,0,1,1.591,1.591" transform="translate(-51.654 -116.834)" fill="#fff"/>
    <path id="Path_11699" data-name="Path 11699" d="M415.652,362.061a1.591,1.591,0,1,1-1.591-1.591,1.591,1.591,0,0,1,1.591,1.591" transform="translate(-220.02 -201.003)" fill="#fff"/>
    <path id="Path_11700" data-name="Path 11700" d="M181.766,278.483a2.171,2.171,0,0,1,.361-1.2l-1.822.206a1.4,1.4,0,1,0,.315,2.783l1.834-.208a2.175,2.175,0,0,1-.688-1.583Z" transform="translate(-0.845 -122.89)" fill="#fff"/>
    <path id="Path_11701" data-name="Path 11701" d="M300.384,267.13l-7.576-.857c-1.166-.136-1.838.42-3.19.42s-2.024-.557-3.19-.42l-2.42.275a2.172,2.172,0,0,1,.307,2.783l1-.113.347,5.6c0,.215.046,2.119.046,2.338v1.723a2.185,2.185,0,1,1,0,3.99v2.4a1.668,1.668,0,1,0,3.336,0v-7.207h1.142v7.207a1.667,1.667,0,1,0,3.334,0v-8.117c0-.125.016-.8.029-1.4-.041,0-.079.012-.12.012a2.185,2.185,0,0,1,0-4.37,2.378,2.378,0,0,1,.348.034l.136-2.218,6.151.7a1.4,1.4,0,0,0,.317-2.783Z" transform="translate(-99.392 -112.528)" fill="#fff"/>
    <path id="Path_11702" data-name="Path 11702" d="M303.542,481.611a1.591,1.591,0,1,1-1.591-1.591,1.591,1.591,0,0,1,1.591,1.591" transform="translate(-114.746 -313.263)" fill="#fff"/>
    <path id="Path_11703" data-name="Path 11703" d="M217.368,195.244a10.422,10.422,0,0,1,2.83-2.019,4.656,4.656,0,0,1-.242-1.42c0-.151.031-.294.045-.441a12.154,12.154,0,0,0-5.185,4.173Z" transform="translate(-34.418 -42.208)" fill="#fff"/>
    <path id="Path_11704" data-name="Path 11704" d="M451.71,195.247l2.553.292a12.139,12.139,0,0,0-5.186-4.172c.014.147.045.291.045.441a4.607,4.607,0,0,1-.244,1.42,10.453,10.453,0,0,1,2.832,2.019Z" transform="translate(-254.209 -42.211)" fill="#fff"/>
    <path id="Path_11705" data-name="Path 11705" d="M184.974,355.6a10.269,10.269,0,0,1-5.044-8.821,9.788,9.788,0,0,1,.172-1.743l-1.82.208a11.091,11.091,0,0,0-.12,1.535,12.061,12.061,0,0,0,6.811,10.841V355.6Z" transform="translate(0 -186.508)" fill="#fff"/>
    <path id="Path_11706" data-name="Path 11706" d="M468.806,345.244l-1.82-.208a9.978,9.978,0,0,1,.171,1.743,10.275,10.275,0,0,1-5.042,8.828v2.014a12.061,12.061,0,0,0,6.811-10.841,11.054,11.054,0,0,0-.119-1.535Z" transform="translate(-266.637 -186.51)" fill="#fff"/>
  </g>
</svg>
