<svg xmlns="http://www.w3.org/2000/svg" width="16.173" height="21.223" viewBox="0 0 16.173 21.223">
  <g id="Concerns" transform="translate(-61 511.776)">
    <path id="Path_11722" data-name="Path 11722" d="M181.85-511.71a1.157,1.157,0,0,0-.605.435,1.582,1.582,0,0,0-.245,1.033c0,.543.07.73.332.863.158.079.241.083,2.778.083s2.621,0,2.779-.083a.563.563,0,0,0,.253-.257c.079-.153.087-.224.07-.693a1.8,1.8,0,0,0-.1-.713,1.247,1.247,0,0,0-.589-.605l-.236-.116-2.115-.008A10.235,10.235,0,0,0,181.85-511.71Z" transform="translate(-115.024)" fill="#fff"/>
    <path id="Path_11723" data-name="Path 11723" d="M61.323-481.913a.6.6,0,0,0-.241.245c-.083.162-.083.228-.083,9.663s0,9.5.083,9.663a.555.555,0,0,0,.249.249c.162.083.228.083,7.755.083s7.593,0,7.755-.083a.555.555,0,0,0,.249-.249c.083-.162.083-.224.083-9.663s0-9.5-.083-9.663a.556.556,0,0,0-.249-.249C76.688-482,76.6-482,75.058-482H73.441v.394a2.131,2.131,0,0,1-.216,1.074,1.915,1.915,0,0,1-1.269.975c-.307.062-5.437.062-5.739,0a1.811,1.811,0,0,1-.925-.514,1.9,1.9,0,0,1-.56-1.534V-482H63.107C61.564-482,61.469-481.992,61.323-481.913Zm4.893,4.371c.116.046.257.182.51.489a9.756,9.756,0,0,1,1.406,2.065,2.179,2.179,0,0,1,.249,1.713,2.257,2.257,0,0,1-.664,1.145,2.257,2.257,0,0,1-1.145.664,2.51,2.51,0,0,1-1.771-.216,3.13,3.13,0,0,1-1.016-1.016,2.9,2.9,0,0,1-.3-1.128,6.274,6.274,0,0,1,1.783-3.284C65.665-477.579,65.877-477.675,66.217-477.542Zm6.892.021c.249.129.332.323.332.788v.373h.373a1.062,1.062,0,0,1,.539.083.655.655,0,0,1,.332.539.655.655,0,0,1-.332.539,1.062,1.062,0,0,1-.539.083h-.373v.373c0,.465-.083.659-.332.788a.567.567,0,0,1-.589-.008c-.249-.141-.323-.323-.323-.78v-.373H71.82a.953.953,0,0,1-.543-.091.6.6,0,0,1-.241-.821c.129-.249.323-.332.788-.332H72.2v-.373c0-.456.083-.659.323-.784A.586.586,0,0,1,73.109-477.521Zm1.244,4.976a.655.655,0,0,1,.332.539.655.655,0,0,1-.332.539c-.158.079-.241.083-2.161.083-1.991,0-1.995,0-2.161-.091a.655.655,0,0,1-.323-.531.664.664,0,0,1,.323-.535c.145-.079.245-.083,2.156-.087C74.117-472.628,74.2-472.624,74.353-472.545Zm0,2.488a.655.655,0,0,1,.332.539.655.655,0,0,1-.332.539c-.162.083-.232.083-5.271.083h-5.1l-.166-.091a.6.6,0,0,1-.008-1.053l.162-.1h5.113C74.121-470.14,74.192-470.14,74.353-470.057Zm0,2.488a.655.655,0,0,1,.332.539.655.655,0,0,1-.332.539c-.162.083-.232.083-5.271.083h-5.1l-.166-.091a.6.6,0,0,1-.008-1.053l.162-.1h5.113C74.121-467.651,74.192-467.651,74.353-467.568Zm0,2.488a.655.655,0,0,1,.332.539.655.655,0,0,1-.332.539c-.162.083-.232.083-5.271.083h-5.1l-.166-.091a.6.6,0,0,1-.008-1.053l.162-.1h5.113C74.121-465.163,74.192-465.163,74.353-465.08Z" transform="translate(0 -28.541)" fill="#fff"/>
    <path id="Path_11724" data-name="Path 11724" d="M152.108-336.577c-.659.908-.925,1.447-.887,1.8a1.219,1.219,0,0,0,.684,1,1.267,1.267,0,0,0,1.095,0,1.155,1.155,0,0,0,.672-1.066,1.022,1.022,0,0,0-.17-.61A8.107,8.107,0,0,0,152.452-337,2.772,2.772,0,0,0,152.108-336.577Z" transform="translate(-86.476 -167.528)" fill="#fff"/>
  </g>
</svg>
