<svg xmlns="http://www.w3.org/2000/svg" width="18.822" height="23.165" viewBox="0 0 18.822 23.165">
  <g id="cough" transform="translate(-47.7 511.75)">
    <path id="Path_1924" data-name="Path 1924" d="M145.217-511.734c-.063.009-.294.041-.516.068a25.311,25.311,0,0,0-3.377.824c-.91.263-1.888.53-2.177.593-1.326.294-2.064.222-2.386-.244-.208-.3-.5-.33-.67-.068-.068.1-.072.208-.05.874a8.529,8.529,0,0,0,.118,1.19,5.038,5.038,0,0,0,1.43,2.788l.249.213v2.236l-.308.4c-.167.222-.435.561-.588.756-.281.353-.33.489-.235.665a3.106,3.106,0,0,0,.584.4,5.874,5.874,0,0,1,.579.38,2.662,2.662,0,0,1,.149.416,4,4,0,0,0,.149.439c.081.131.235.168.579.14.407-.032.634.05.742.254l.068.14-.448.226c-.466.231-.548.312-.548.53a1.768,1.768,0,0,0,1.023,1.191,2.147,2.147,0,0,0,1.525-.036l.711-.177v1.172l-.208.272-.208.272.217-.032a15.875,15.875,0,0,0,3.829-.923,18.394,18.394,0,0,0,1.869-.837l.272-.149.023-.29a.8.8,0,0,1,.231-.561,22.378,22.378,0,0,0,1.394-2.173,14.127,14.127,0,0,0,1.525-4.345,10.12,10.12,0,0,0,0-2.616,3.057,3.057,0,0,0-1.919-2.58c-.308-.091-.344-.113-.471-.312a2.617,2.617,0,0,0-1.512-1.009A7.824,7.824,0,0,0,145.217-511.734Z" transform="translate(-84.331)" fill="#7bc375"/>
    <path id="Path_1925" data-name="Path 1925" d="M128.113-255.887a.353.353,0,0,0-.113.249.353.353,0,0,0,.113.249c.1.109.14.113.611.113s.507,0,.611-.113a.353.353,0,0,0,.113-.249.353.353,0,0,0-.113-.249c-.1-.109-.14-.113-.611-.113S128.217-256,128.113-255.887Z" transform="translate(-76.665 -244.174)" fill="#7bc375"/>
    <path id="Path_1926" data-name="Path 1926" d="M48.981-231.843c-.091.045-.208.312-.7,1.611l-.584,1.557.552,2.4.552,2.4,0,1.231v1.236h3.449l-.027-.376c-.018-.2-.059-.747-.1-1.209l-.063-.837.154-.231a6.323,6.323,0,0,0,.819-2.028,9.378,9.378,0,0,0,.063-2.132,1.217,1.217,0,0,0-.665-.72.987.987,0,0,0-1.123.267c-.29.285-.339.453-.339,1.127,0,.466-.009.534-.091.616a.229.229,0,0,1-.33.032,5.1,5.1,0,0,1-.362-.914l-.285-.86.235-.951c.131-.525.24-1,.244-1.068a1.615,1.615,0,0,0-.072-.353C50.144-231.612,49.407-232.056,48.981-231.843Z" transform="translate(0 -267.185)" fill="#7bc375"/>
    <path id="Path_1927" data-name="Path 1927" d="M136.466-223.534c-.4.4-.466.489-.466.611a.379.379,0,0,0,.371.371c.122,0,.213-.068.611-.466s.466-.489.466-.611a.357.357,0,0,0-.113-.258.357.357,0,0,0-.258-.113C136.955-224,136.865-223.932,136.466-223.534Z" transform="translate(-84.303 -274.725)" fill="#7bc375"/>
    <path id="Path_1928" data-name="Path 1928" d="M176.113-199.887c-.109.1-.113.14-.113.611s0,.507.113.611a.353.353,0,0,0,.249.113.353.353,0,0,0,.249-.113c.109-.1.113-.14.113-.611s0-.507-.113-.611a.353.353,0,0,0-.249-.113A.353.353,0,0,0,176.113-199.887Z" transform="translate(-122.492 -297.639)" fill="#7bc375"/>
    <path id="Path_1929" data-name="Path 1929" d="M208.664-179.781a5.477,5.477,0,0,1-1.919.9,19.856,19.856,0,0,1-4.481.865H201.9l-.136.213a19.244,19.244,0,0,0-.946,1.888,10.6,10.6,0,0,0-.819,3.829v.407h3.983v-1.734a14.615,14.615,0,0,1,.063-2.028,2.655,2.655,0,0,1,1.693-1.906,2.92,2.92,0,0,1,1.5-.018,2.617,2.617,0,0,1,1.041.625,2.434,2.434,0,0,1,.629.982l.118.3.014,1.888.014,1.892h2.177l-.023-1.258a9.878,9.878,0,0,0-.326-2.779,10.723,10.723,0,0,0-1.783-3.694C208.781-179.831,208.723-179.876,208.664-179.781Z" transform="translate(-145.406 -316.902)" fill="#7bc375"/>
  </g>
</svg>
