<svg xmlns="http://www.w3.org/2000/svg" width="20" height="24.679" viewBox="0 0 20 24.679">
  <g id="trash-_1_" transform="translate(-48.5 512.063)">
    <path id="Path_432" data-name="Path 432" d="M56.384-511.983a2.379,2.379,0,0,0-1.08.641,2.381,2.381,0,0,0-.66,1.846v.516l-2.347.014-2.352.014-.323.154a1.852,1.852,0,0,0-.945.92l-.178.366v1.142c0,1.08,0,1.152.1,1.277a1.313,1.313,0,0,0,.231.231l.13.1H68.037l.13-.1a1.313,1.313,0,0,0,.231-.231c.1-.125.1-.2.1-1.277v-1.142l-.178-.366a1.852,1.852,0,0,0-.945-.92l-.323-.154-2.347-.014-2.352-.014v-.516a2.381,2.381,0,0,0-.66-1.846,2.359,2.359,0,0,0-1.1-.646A28.576,28.576,0,0,0,56.384-511.983Zm4.072,1.59c.289.212.333.323.347.892l.019.525H56.187v-.453c0-.492.043-.66.207-.843.222-.241.27-.246,2.164-.231C60.259-510.493,60.331-510.489,60.457-510.392Z" fill="#df0000"/>
    <path id="Path_433" data-name="Path 433" d="M74.131-327.894c-.058.1-.024,1,.26,6.906.183,3.735.352,6.9.386,7.036a2.382,2.382,0,0,0,1.773,1.706c.361.072,12.284.072,12.646,0a2.365,2.365,0,0,0,1.759-1.653c.048-.173.164-2.231.4-7.065.289-5.928.323-6.834.265-6.93L91.548-328H74.2Zm5.311,1.181a1.238,1.238,0,0,1,.222.227c.1.13.1.154.1,5.427s0,5.3-.1,5.427a.68.68,0,0,1-.646.333.68.68,0,0,1-.646-.333c-.1-.13-.1-.169-.116-5.3,0-2.843,0-5.234.014-5.32a.834.834,0,0,1,.434-.525A.892.892,0,0,1,79.442-326.713Zm3.855,0a1.238,1.238,0,0,1,.222.227c.1.13.1.154.1,5.427s0,5.3-.1,5.427a.68.68,0,0,1-.646.333.68.68,0,0,1-.646-.333c-.1-.13-.1-.169-.116-5.3,0-2.843,0-5.234.014-5.32a.834.834,0,0,1,.434-.525A.892.892,0,0,1,83.3-326.713Zm3.855,0a1.238,1.238,0,0,1,.222.227c.1.13.1.154.1,5.427s0,5.3-.1,5.427a.68.68,0,0,1-.646.333.68.68,0,0,1-.646-.333c-.1-.13-.1-.169-.116-5.3,0-2.843,0-5.234.014-5.32a.834.834,0,0,1,.434-.525A.892.892,0,0,1,87.153-326.713Z" transform="translate(-24.373 -175.192)" fill="#df0000"/>
  </g>
</svg>
