<svg xmlns="http://www.w3.org/2000/svg" width="17.022" height="27.129" viewBox="0 0 17.022 27.129">
  <g id="Diagnostics" transform="translate(-120.123 473)">
    <path id="Path_11707" data-name="Path 11707" d="M200-470.993v2.007h7.025V-473H200Z" transform="translate(-74.867)" fill="#fff"/>
    <path id="Path_11708" data-name="Path 11708" d="M121.351-440.006a1.835,1.835,0,0,0-1.135,1.2c-.094.282-.1,1.349-.088,11.385l.019,11.071.144.295a2.133,2.133,0,0,0,.847.884l.263.138h14.49l.263-.138a2.133,2.133,0,0,0,.847-.884l.144-.295v-22.393L137-439.04a2.133,2.133,0,0,0-.847-.884c-.245-.125-.358-.138-1.625-.157l-1.367-.019v2.71l-.157.151-.151.157h-8.418l-.151-.157c-.157-.151-.157-.151-.157-1.505v-1.349h-1.267A7.194,7.194,0,0,0,121.351-440.006Zm11.654,4.083c.151.144.157.182.157,1v.847h.847c.822,0,.859.006,1,.157a.461.461,0,0,1,0,.69c-.144.151-.182.157-1,.157h-.847v.847c0,.822-.006.859-.157,1a.489.489,0,0,1-.345.157.489.489,0,0,1-.345-.157c-.151-.144-.157-.182-.157-1v-.847h-.847c-.822,0-.859-.006-1-.157a.489.489,0,0,1-.157-.345.489.489,0,0,1,.157-.345c.144-.151.182-.157,1-.157h.847v-.847c0-.822.006-.859.157-1a.489.489,0,0,1,.345-.157A.489.489,0,0,1,133.005-435.922Zm-8.336,5.024c.4.295.433.4.433,1.342,0,.778-.013.884-.132,1.041-.295.4-.4.433-1.342.433-.778,0-.884-.013-1.041-.132-.376-.276-.433-.414-.452-1.167-.031-.847.006-1.054.22-1.311.276-.326.458-.37,1.349-.357C124.393-431.03,124.519-431.011,124.669-430.9Zm8.336,1a.489.489,0,0,1,.157.345.489.489,0,0,1-.157.345l-.151.157h-6.411l-.151-.157a.489.489,0,0,1-.157-.345.489.489,0,0,1,.157-.345l.151-.157h6.411Zm-8.336,4.021c.4.295.433.4.433,1.342,0,.778-.013.884-.132,1.041-.295.4-.4.433-1.342.433-.778,0-.884-.013-1.041-.132-.376-.276-.433-.414-.452-1.167-.031-.847.006-1.054.22-1.311.276-.326.458-.37,1.349-.358C124.393-426.012,124.519-425.993,124.669-425.88Zm8.336,1a.489.489,0,0,1,.157.345.489.489,0,0,1-.157.345l-.151.157h-6.411l-.151-.157a.489.489,0,0,1-.157-.345.489.489,0,0,1,.157-.345l.151-.157h6.411Zm-5.068,2.948a3.358,3.358,0,0,1,.47,1.1l.326,1,.289-.552c.307-.6.47-.715.8-.6.138.044.251.213.565.828l.4.778.339-.32.339-.32h3.4l.151.157a.489.489,0,0,1,.157.345.489.489,0,0,1-.157.345l-.151.157h-2.979l-.514.5c-.753.734-.941.7-1.405-.245a3.377,3.377,0,0,0-.314-.571,3.381,3.381,0,0,0-.314.571c-.3.608-.427.746-.7.746-.289,0-.42-.182-.677-.941-.138-.408-.257-.677-.282-.627s-.163.6-.314,1.223c-.3,1.192-.376,1.349-.709,1.349-.289,0-.4-.132-.866-1.066l-.47-.941H122.43l-.151-.157a.461.461,0,0,1,0-.69l.151-.157H124.1a12.7,12.7,0,0,1,1.794.063,1.954,1.954,0,0,1,.345.508,1.745,1.745,0,0,0,.245.42c.013-.013.176-.64.37-1.4.37-1.468.433-1.6.784-1.6A.629.629,0,0,1,127.937-421.935Z" transform="translate(0 -30.836)" fill="#fff"/>
    <path id="Path_11709" data-name="Path 11709" d="M168-279.5v.5h1v-1h-1Z" transform="translate(-44.874 -180.894)" fill="#fff"/>
    <path id="Path_11710" data-name="Path 11710" d="M168-199.5v.5h1v-1h-1Z" transform="translate(-44.874 -255.876)" fill="#fff"/>
  </g>
</svg>
