<svg xmlns="http://www.w3.org/2000/svg" width="22.327" height="22.325" viewBox="0 0 22.327 22.325">
  <g id="Treatment" transform="translate(0 511.823)">
    <path id="Path_11711" data-name="Path 11711" d="M216.712-511.761a2.347,2.347,0,0,0-1.649,1.535,2.7,2.7,0,0,0,0,1.37,2.337,2.337,0,0,0,1.666,1.54,2.3,2.3,0,0,0,2.7-1.54,2.7,2.7,0,0,0,0-1.37A2.306,2.306,0,0,0,216.712-511.761Z" transform="translate(-205.598 0)" fill="#fff"/>
    <path id="Path_11712" data-name="Path 11712" d="M107.365-428.806a1.845,1.845,0,0,0-1.252,2.373,15.67,15.67,0,0,0,.942,1.714c.035.035,3.215-1.784,3.2-1.836a14.639,14.639,0,0,0-1.09-1.762A1.849,1.849,0,0,0,107.365-428.806Z" transform="translate(-101.39 -79.334)" fill="#fff"/>
    <path id="Path_11713" data-name="Path 11713" d="M302.177-381.9a2.961,2.961,0,0,0-2.024,2.124,3.779,3.779,0,0,0,0,1.383,2.521,2.521,0,0,0,.358.842c.048,0,4.026-3.982,4.026-4.026a2.519,2.519,0,0,0-.842-.358A3.538,3.538,0,0,0,302.177-381.9Z" transform="translate(-286.998 -124.158)" fill="#fff"/>
    <path id="Path_11714" data-name="Path 11714" d="M334.366-348c-1.1,1.1-1.989,2.02-1.972,2.046a3.059,3.059,0,0,0,.929.358,3.907,3.907,0,0,0,1.5-.078,2.96,2.96,0,0,0,1.156-.728,2.649,2.649,0,0,0,.842-1.941,2.761,2.761,0,0,0-.052-.794A2.5,2.5,0,0,0,336.4-350C336.385-350,335.465-349.1,334.366-348Z" transform="translate(-317.896 -154.764)" fill="#fff"/>
    <path id="Path_11715" data-name="Path 11715" d="M146.775-347.694l-1.575.916.458.794c.5.872.724,1.138,1.117,1.335a1.84,1.84,0,0,0,2.6-2.185,11.9,11.9,0,0,0-.986-1.767C148.371-348.605,147.643-348.2,146.775-347.694Z" transform="translate(-138.867 -156.102)" fill="#fff"/>
    <path id="Path_11716" data-name="Path 11716" d="M108.117-233.709a1.775,1.775,0,0,0-.794.432c-.109.1-.545.632-.964,1.182l-.768,1,0,.589a2.762,2.762,0,0,1-.318,1.474,3.141,3.141,0,0,1-1.418,1.418c-.637.314-.593.31-3.027.327-2.142.017-2.194.017-2.364-.074a.683.683,0,0,1-.353-.567.689.689,0,0,1,.349-.567c.166-.083.253-.087,2.172-.087,2.168,0,2.286-.009,2.722-.249a2.167,2.167,0,0,0,.728-.746,1.833,1.833,0,0,0-.868-2.534l-.327-.157-1.889-.013-1.889-.013-.27-.2a5.347,5.347,0,0,0-1.535-.72,3.509,3.509,0,0,0-1.112-.1,3.353,3.353,0,0,0-1.056.1,4.549,4.549,0,0,0-1.409.646l-.414.279H92v7.415h5.967c6.46,0,6.364,0,7.07-.24a4.709,4.709,0,0,0,2-1.326c.419-.493,3.062-4.624,3.184-4.977a1.736,1.736,0,0,0-.445-1.828A1.762,1.762,0,0,0,108.117-233.709Z" transform="translate(-87.987 -265.935)" fill="#fff"/>
    <path id="Path_11717" data-name="Path 11717" d="M.34-229.908a.625.625,0,0,0-.253.257C0-229.481,0-229.4,0-224.984s0,4.5.087,4.667c.157.31.3.349,1.265.349s1.108-.039,1.265-.349c.087-.17.087-.249.087-4.667s0-4.5-.087-4.667c-.157-.31-.3-.349-1.274-.349C.593-230,.484-229.987.34-229.908Z" transform="translate(0 -269.53)" fill="#fff"/>
  </g>
</svg>
