<svg xmlns="http://www.w3.org/2000/svg" xmlns:xlink="http://www.w3.org/1999/xlink" width="218.199" height="213.168" viewBox="0 0 218.199 213.168">
  <defs>
    <linearGradient id="linear-gradient" x1="42.428" y1="0.225" x2="45.832" y2="-1.251" gradientUnits="objectBoundingBox">
      <stop offset="0" stop-color="#febbba"/>
      <stop offset="1" stop-color="#ff928e"/>
    </linearGradient>
  </defs>
  <g id="Group_1381" data-name="Group 1381" transform="translate(2308.872 514.136)">
    <g id="Group_1376" data-name="Group 1376" transform="translate(-2289.238 -498.317)">
      <g id="Group_1" data-name="Group 1" transform="translate(0)">
        <path id="Path_1" data-name="Path 1" d="M277.6,231.345s4.468-3.09,10.22,7.653a142.236,142.236,0,0,1,7.986,16.97s1.521,2.234,3.042.713,3.613-5.8,6.275-5.086c2.757.713,3.755,3.8,3.28,8.319-.428,4.516-1.046,14.5-1.093,15.4s.475,2.187,1.711,1.331c1.188-.856,8.129-8.889,11.741-5.372s.285,15.925-.048,17.3-.048,1.949.618,2.282,2.71-2.567,4.8-4.8c2.044-2.187,4.849-4.373,6.75-2.187s2.662,11.456-5.847,26.668l-4.421,6.8-8.129-.285c-17.351-1.711-24.529-7.606-25.242-10.41s2.662-3.85,5.657-4.278,6.56-.475,6.655-1.188-.19-1.283-1.521-1.759c-1.331-.523-13.405-4.9-14.213-9.84s9.7-6.085,11.076-6.56c1.426-.523.666-1.664-.1-2.139s-9.27-5.657-13.263-7.891-5.942-4.754-4.944-7.463c.951-2.615,5.609-1.854,7.748-2.234s1.141-2.9,1.141-2.9a140.134,140.134,0,0,1-9.412-16.257c-5.562-10.838-.333-12.787-.333-12.787" transform="translate(-275.511 -230.933)" fill="#fff"/>
      </g>
      <g id="Group_3" data-name="Group 3" transform="translate(7.22 10.014)">
        <g id="Group_2" data-name="Group 2">
          <path id="Path_2" data-name="Path 2" d="M340.16,326.822c-4.088-7.939-9.888-18.919-16.3-30.994s-12.217-23.008-16.352-30.946c-2.044-3.945-3.755-7.178-4.9-9.412-.57-1.093-1.046-1.949-1.331-2.567-.143-.285-.285-.523-.333-.666A2.47,2.47,0,0,1,300.8,252a2,2,0,0,1,.1.238c.1.143.19.38.333.666q.428.927,1.284,2.567c1.141,2.234,2.757,5.467,4.849,9.46,4.088,7.939,9.887,18.919,16.3,30.994s12.217,23.008,16.352,30.946" transform="translate(-300.8 -252)" fill="#e1e1e1"/>
        </g>
      </g>
      <g id="Group_5" data-name="Group 5" transform="translate(23.601 26.795)">
        <g id="Group_4" data-name="Group 4" transform="translate(0)">
          <path id="Path_3" data-name="Path 3" d="M345.446,287.3a3.066,3.066,0,0,0-.19.57c-.1.38-.238.9-.428,1.521-.333,1.283-.761,3.137-1.188,5.134s-.808,3.755-1.093,5.134c-.143.618-.238,1.141-.333,1.569-.1.38-.143.57-.1.57a3.063,3.063,0,0,0,.19-.57c.1-.38.238-.9.428-1.521.333-1.283.713-3.137,1.188-5.134.428-2,.808-3.755,1.141-5.134.143-.618.238-1.141.333-1.569A3.977,3.977,0,0,1,345.446,287.3Z" transform="translate(-342.1 -287.3)" fill="#e1e1e1"/>
        </g>
      </g>
      <g id="Group_7" data-name="Group 7" transform="translate(6.221 37.061)">
        <g id="Group_6" data-name="Group 6">
          <path id="Path_4" data-name="Path 4" d="M367.39,313.319c0-.048-3.66-1.093-8.271-2.329-4.564-1.236-8.319-2.139-8.319-2.092s3.66,1.093,8.271,2.329C363.682,312.416,367.39,313.366,367.39,313.319Z" transform="translate(-350.8 -308.896)" fill="#e1e1e1"/>
        </g>
      </g>
      <g id="Group_9" data-name="Group 9" transform="translate(18.296 59.241)">
        <g id="Group_8" data-name="Group 8">
          <path id="Path_5" data-name="Path 5" d="M343.512,355.862h-.618c-.428,0-1,0-1.616.048-1.379.048-3.28.048-5.372,0s-3.993-.143-5.372-.238c-.665-.048-1.188-.048-1.616-.1-.38,0-.618-.048-.618,0a5.383,5.383,0,0,0,.57.1c.38.048.951.1,1.616.19,1.379.143,3.28.238,5.372.285s3.993,0,5.372-.1c.666-.048,1.236-.1,1.616-.1C343.321,355.909,343.512,355.909,343.512,355.862Z" transform="translate(-328.3 -355.556)" fill="#e1e1e1"/>
        </g>
      </g>
      <g id="Group_11" data-name="Group 11" transform="translate(33.412 47.14)">
        <g id="Group_10" data-name="Group 10" transform="translate(0)">
          <path id="Path_6" data-name="Path 6" d="M321.05,330.1a1.617,1.617,0,0,0-.285.475c-.19.333-.475.808-.761,1.283-.618,1.093-1.474,2.615-2.424,4.326s-1.759,3.232-2.377,4.373a11.472,11.472,0,0,0-.666,1.331c-.143.333-.238.475-.238.523a1.615,1.615,0,0,0,.285-.475c.19-.333.475-.808.761-1.283.618-1.093,1.474-2.615,2.424-4.326s1.759-3.232,2.377-4.373a11.484,11.484,0,0,0,.666-1.331C320.955,330.29,321.05,330.1,321.05,330.1Z" transform="translate(-314.3 -330.1)" fill="#e1e1e1"/>
        </g>
      </g>
      <g id="Group_13" data-name="Group 13" transform="translate(42.815 61.924)">
        <g id="Group_12" data-name="Group 12">
          <path id="Path_7" data-name="Path 7" d="M299,361.2s-.143.19-.38.57c-.238.428-.57,1-1,1.664-.808,1.426-1.949,3.375-3.137,5.514-1.236,2.187-2.329,4.136-3.09,5.562-.38.665-.666,1.236-.9,1.711-.19.38-.333.618-.285.618,0,0,.143-.19.38-.57.238-.428.57-1,1-1.664.808-1.426,1.949-3.375,3.137-5.514,1.236-2.187,2.329-4.136,3.09-5.562.38-.665.665-1.236.9-1.711C298.908,361.438,299,361.2,299,361.2Z" transform="translate(-290.2 -361.2)" fill="#e1e1e1"/>
        </g>
      </g>
      <g id="Group_15" data-name="Group 15" transform="translate(23.667 76.232)">
        <g id="Group_14" data-name="Group 14">
          <path id="Path_8" data-name="Path 8" d="M327.8,392.2a5.112,5.112,0,0,0-.761-.048c-.523,0-1.236,0-2.044-.048-1.759-.048-4.136-.048-6.8-.19s-5.039-.285-6.8-.428c-.856-.048-1.521-.1-2.044-.143-.475-.048-.761-.048-.761-.048s.285.048.761.143c.475.048,1.188.143,2.044.238,1.711.19,4.136.38,6.8.523s5.086.143,6.8.1c.856,0,1.569-.048,2.044-.048C327.567,392.251,327.8,392.251,327.8,392.2Z" transform="translate(-308.6 -391.3)" fill="#e1e1e1"/>
        </g>
      </g>
    </g>
    <path id="Path_1867" data-name="Path 1867" d="M1360.165,751.143l104.732,2.773a10.85,10.85,0,0,1,10.56,10.589l3.707,152.051a8,8,0,0,1-8.071,8.2l-120.094-1a7.6,7.6,0,0,1-7.531-7.8l4.05-152.825A12.325,12.325,0,0,1,1360.165,751.143Z" transform="translate(-3584.389 -1243.664)" fill="#1089fe"/>
    <path id="Path_1868" data-name="Path 1868" d="M1417.289,2712.384h-.007l-13.428-.533a8.249,8.249,0,0,1-7.889-8.429l.54-20.281a.249.249,0,0,1,.248-.241h.007a.246.246,0,0,1,.241.255l-.54,20.281a7.753,7.753,0,0,0,7.415,7.918l13.428.533a.24.24,0,0,1,.234.255A.255.255,0,0,1,1417.289,2712.384Z" transform="translate(-3633.055 -3034.448)" fill="#fff"/>
    <path id="Path_1869" data-name="Path 1869" d="M1405.848,2555.681h0a.248.248,0,0,1-.248-.256l.088-3.284a.249.249,0,0,1,.248-.241h.007a.246.246,0,0,1,.241.255l-.088,3.284A.245.245,0,0,1,1405.848,2555.681Z" transform="translate(-3641.99 -2913.009)" fill="#fff"/>
    <g id="Group_1331" data-name="Group 1331" transform="translate(-2231.325 -493.787)">
      <path id="Path_1870" data-name="Path 1870" d="M1482.451,733.9c14.253,2.321,63.273,9.619,104.017,7.575a3.31,3.31,0,0,1,3.481,3.211l4.065,152.737a3.814,3.814,0,0,1-3.685,3.912c-17.128.562-87.662,2.605-112.716-.693a3.016,3.016,0,0,1-2.62-3.058l3.3-160.225A3.586,3.586,0,0,1,1482.451,733.9Z" transform="translate(-1474.992 -733.85)" fill="#f7f9fe"/>
    </g>
    <g id="Group_1332" data-name="Group 1332" transform="translate(-2226.866 -485.806)">
      <path id="Path_1871" data-name="Path 1871" d="M1543.054,843.256c13.29,2.16,59,8.969,97,7.064a3.092,3.092,0,0,1,3.248,3l3.788,142.425a3.544,3.544,0,0,1-3.437,3.641c-15.975.518-81.751,2.43-105.111-.642a2.817,2.817,0,0,1-2.445-2.854l3.08-149.409A3.355,3.355,0,0,1,1543.054,843.256Z" transform="translate(-1536.092 -843.214)" fill="#ced0e5"/>
    </g>
    <path id="Path_1872" data-name="Path 1872" d="M2224.319,457.491c-3.714-2.729-7.006-2.766-9.341-2.146a4.613,4.613,0,0,0-3.408,4.766l.708,10.925,11.852,1.372C2224.136,472.408,2231.6,462.848,2224.319,457.491Zm-5.459,8.655a2.964,2.964,0,1,1,3.043-2.883A2.966,2.966,0,0,1,2218.86,466.146Z" transform="translate(-4389.131 -969.154)" fill="#1089fe"/>
    <path id="Path_1873" data-name="Path 1873" d="M2227.751,483.518a.593.593,0,0,1-.372-.511l-.109-1.737a.589.589,0,1,1,1.175-.08l.109,1.737a.593.593,0,0,1-.547.628A.439.439,0,0,1,2227.751,483.518Zm-.219-3.408a.592.592,0,0,1-.372-.511l-.088-1.321a4.709,4.709,0,0,1,3.474-4.853,9.187,9.187,0,0,1,4.5-.066.589.589,0,0,1-.27,1.146,8.032,8.032,0,0,0-3.927.058,3.535,3.535,0,0,0-2.6,3.642l.088,1.321a.593.593,0,0,1-.548.628A.692.692,0,0,1,2227.533,480.11Z" transform="translate(-4403.503 -985.927)" fill="#bdd0fb"/>
    <path id="Path_1874" data-name="Path 1874" d="M1996.6,654.246l.146-5.481a3.342,3.342,0,0,1,3.547-3.248l37.752,2.3a3.255,3.255,0,0,1,3.058,3.138l.175,5.276Z" transform="translate(-4189.86 -1145.745)" fill="#1089fe"/>
    <path id="Path_1875" data-name="Path 1875" d="M2017.669,668.388a.581.581,0,0,1-.372-.562l.058-2.219a3.415,3.415,0,0,1,3.5-3.321l5.977.161a.583.583,0,0,1,.569.606.589.589,0,0,1-.606.577l-5.977-.161a2.238,2.238,0,0,0-2.292,2.175l-.059,2.219a.589.589,0,0,1-.606.577A.655.655,0,0,1,2017.669,668.388Z" transform="translate(-4209.045 -1161.296)" fill="#bdd0fb"/>
    <path id="Path_1876" data-name="Path 1876" d="M1785.869,733.383l66.075,1.752a4.886,4.886,0,0,1,4.707,4.174l.044.321a4.2,4.2,0,0,1-4.262,4.8l-67.783-1.8a2.732,2.732,0,0,1-2.649-2.926l.227-3.029A3.558,3.558,0,0,1,1785.869,733.383Z" transform="translate(-3990.915 -1227.203)" fill="#1089fe"/>
    <g id="Group_1341" data-name="Group 1341" transform="translate(-2220.276 -474.765)" opacity="0.89">
      <g id="Group_1334" data-name="Group 1334" transform="translate(0 17.135)">
        <path id="Path_1877" data-name="Path 1877" d="M1722.47,1264.893l-.584-32.483a.633.633,0,0,0-.613-.62l-94.23-2.5a.65.65,0,0,0-.467.19.638.638,0,0,0-.183.474l1.6,33.541a.59.59,0,0,0,.62.562l93.216,1.489h.015a.6.6,0,0,0,.635-.591A.207.207,0,0,0,1722.47,1264.893Zm-1.839-31.855.117,6.641-92.741-2.35-.321-6.75Zm-91.406,29.8-1.153-24.251,92.705,2.35.423,23.4Z" transform="translate(-1626.392 -1229.293)" fill="#fff"/>
        <path id="Path_1878" data-name="Path 1878" d="M1718.595,1432.157l42.094.671a1.389,1.389,0,0,0,1.423-1.489l-.007-.161a1.651,1.651,0,0,0-1.591-1.532l-41.948-.65a1.446,1.446,0,0,0-1.467,1.474v.161A1.528,1.528,0,0,0,1718.595,1432.157Z" transform="translate(-1710.479 -1414.423)" fill="#fff"/>
        <path id="Path_1879" data-name="Path 1879" d="M1761.9,1542.905l-42.32-.708a1.463,1.463,0,0,0-1.482,1.5v.16a1.563,1.563,0,0,0,1.518,1.554l42.466.73a1.4,1.4,0,0,0,1.43-1.518l-.007-.161A1.673,1.673,0,0,0,1761.9,1542.905Z" transform="translate(-1711.406 -1519.361)" fill="#fff"/>
        <path id="Path_1880" data-name="Path 1880" d="M2536.6,1444.979a1.41,1.41,0,0,0,1.452-1.576,1.826,1.826,0,0,0-1.751-1.62l-18.486-.285a1.432,1.432,0,0,0-1.474,1.569,1.778,1.778,0,0,0,1.708,1.62Z" transform="translate(-2451.391 -1426.011)" fill="#fff"/>
        <path id="Path_1881" data-name="Path 1881" d="M2546.563,1557.568a1.868,1.868,0,0,0-1.766-1.656l-18.654-.314a1.457,1.457,0,0,0-1.489,1.591,1.814,1.814,0,0,0,1.723,1.657l18.712.321A1.422,1.422,0,0,0,2546.563,1557.568Z" transform="translate(-2459.097 -1531.784)" fill="#fff"/>
      </g>
      <path id="Path_1882" data-name="Path 1882" d="M1741.462,996.652a1.642,1.642,0,0,1-1.605,1.664l-86.3-.168a1.758,1.758,0,0,1-1.751-1.759v-.146a1.736,1.736,0,0,1,1.751-1.744l86.334.336a1.612,1.612,0,0,1,1.569,1.679Z" transform="translate(-1649.946 -994.499)" fill="#fff"/>
      <path id="Path_1883" data-name="Path 1883" d="M1741.389,1100.7a1.654,1.654,0,0,1-1.606,1.671l-86.239.182a1.744,1.744,0,0,1-1.744-1.744v-.146a1.747,1.747,0,0,1,1.751-1.751l86.268-.015a1.6,1.6,0,0,1,1.569,1.671Z" transform="translate(-1649.946 -1091.281)" fill="#fff"/>
      <g id="Group_1336" data-name="Group 1336" transform="translate(1.403 62.28)">
        <path id="Path_1884" data-name="Path 1884" d="M1662.543,1864.816h-.036l-12.312-.051a3.337,3.337,0,0,1-3.423-2.824l-1.139-10.319a2.289,2.289,0,0,1,.526-1.715,2.7,2.7,0,0,1,1.9-.949h0c1.036-.073,2.467-.2,4.043-.35,3.423-.314,7.305-.664,9.589-.708h.051a3.456,3.456,0,0,1,3.437,2.416c.657,2.372.628,6.86.533,11.647A3.063,3.063,0,0,1,1662.543,1864.816Zm-14.406-14.851a1.694,1.694,0,0,0-1.2.591,1.275,1.275,0,0,0-.3.963l1.139,10.319a2.344,2.344,0,0,0,2.43,1.927l12.311.051h.022a2.07,2.07,0,0,0,2.167-1.868c.095-4.707.124-9.115-.5-11.355a2.5,2.5,0,0,0-2.5-1.678c-2.248.044-6.276.409-9.516.7-1.576.146-3.014.27-4.058.35Z" transform="translate(-1645.621 -1847.9)" fill="#fff"/>
        <path id="Path_1885" data-name="Path 1885" d="M1678.261,1879.633c2.584-.19,8.2-.8,10.867-.839a2.379,2.379,0,0,1,2.394,1.635c.526,1.9.482,5.692.409,9.188a2.042,2.042,0,0,1-2.153,1.883l-9.838-.036a2.271,2.271,0,0,1-2.335-1.9l-.912-8.247A1.6,1.6,0,0,1,1678.261,1879.633Z" transform="translate(-1674.417 -1876.538)" fill="#fff" opacity="0.6"/>
        <g id="Group_1335" data-name="Group 1335" transform="translate(26.881 6.137)" opacity="0.6">
          <path id="Path_1886" data-name="Path 1886" d="M2014.726,1932a.7.7,0,0,0-.73.934l1.146,4.233a1.354,1.354,0,0,0,1.241.949l62.025-.35a.968.968,0,0,0,.963-.992l-.072-2.62a1.057,1.057,0,0,0-1.015-1.007Z" transform="translate(-2013.965 -1931.999)" fill="#fff"/>
        </g>
      </g>
      <g id="Group_1338" data-name="Group 1338" transform="translate(1.141 89.581)">
        <path id="Path_1887" data-name="Path 1887" d="M1658.943,2238.916h-.037l-12.312-.051a3.337,3.337,0,0,1-3.423-2.824l-1.138-10.319a2.289,2.289,0,0,1,.526-1.715,2.7,2.7,0,0,1,1.9-.948h0c1.036-.073,2.467-.2,4.043-.351,3.423-.314,7.305-.664,9.589-.708h.051a3.456,3.456,0,0,1,3.437,2.416c.657,2.372.628,6.86.533,11.647A3.083,3.083,0,0,1,1658.943,2238.916Zm-14.406-14.858a1.7,1.7,0,0,0-1.2.592,1.274,1.274,0,0,0-.3.963l1.138,10.319a2.344,2.344,0,0,0,2.43,1.926l12.311.052h.022a2.071,2.071,0,0,0,2.167-1.868c.095-4.707.124-9.115-.5-11.356a2.5,2.5,0,0,0-2.5-1.678c-2.248.044-6.276.409-9.516.7-1.576.146-3.014.277-4.058.35Z" transform="translate(-1642.021 -2222)" fill="#fff"/>
        <path id="Path_1888" data-name="Path 1888" d="M1674.661,2253.633c2.583-.189,8.2-.8,10.867-.839a2.38,2.38,0,0,1,2.394,1.635c.526,1.9.482,5.692.409,9.188a2.042,2.042,0,0,1-2.153,1.883l-9.838-.036a2.271,2.271,0,0,1-2.335-1.9l-.912-8.247A1.6,1.6,0,0,1,1674.661,2253.633Z" transform="translate(-1670.816 -2250.546)" fill="#fff" opacity="0.6"/>
        <g id="Group_1337" data-name="Group 1337" transform="translate(26.881 6.137)" opacity="0.6">
          <path id="Path_1889" data-name="Path 1889" d="M2011.126,2306.1a.705.705,0,0,0-.73.934l1.146,4.233a1.354,1.354,0,0,0,1.24.948l62.025-.35a.969.969,0,0,0,.963-.993l-.073-2.62a1.057,1.057,0,0,0-1.015-1.007Z" transform="translate(-2010.365 -2306.099)" fill="#fff"/>
        </g>
      </g>
      <g id="Group_1340" data-name="Group 1340" transform="translate(0.87 116.875)">
        <path id="Path_1890" data-name="Path 1890" d="M1655.243,2612.916h-.036l-12.312-.051a3.336,3.336,0,0,1-3.423-2.824l-1.138-10.319a2.292,2.292,0,0,1,.525-1.715,2.7,2.7,0,0,1,1.9-.948h0c1.036-.073,2.467-.2,4.043-.35,3.423-.314,7.305-.664,9.589-.708h.051a3.456,3.456,0,0,1,3.437,2.416c.657,2.372.628,6.86.533,11.647A3.063,3.063,0,0,1,1655.243,2612.916Zm-14.4-14.851a1.693,1.693,0,0,0-1.2.591,1.275,1.275,0,0,0-.3.964l1.139,10.319a2.344,2.344,0,0,0,2.43,1.927l12.312.051h.022a2.07,2.07,0,0,0,2.167-1.868c.095-4.707.124-9.115-.5-11.355a2.5,2.5,0,0,0-2.5-1.678c-2.248.043-6.276.408-9.516.7-1.584.139-3.021.27-4.058.35Z" transform="translate(-1638.321 -2596)" fill="#fff"/>
        <path id="Path_1891" data-name="Path 1891" d="M1671.06,2627.733c2.583-.19,8.2-.8,10.866-.84a2.379,2.379,0,0,1,2.394,1.635c.525,1.9.482,5.692.408,9.188a2.042,2.042,0,0,1-2.153,1.883l-9.838-.037a2.271,2.271,0,0,1-2.335-1.9l-.912-8.247A1.6,1.6,0,0,1,1671.06,2627.733Z" transform="translate(-1667.208 -2624.638)" fill="#fff" opacity="0.6"/>
        <g id="Group_1339" data-name="Group 1339" transform="translate(26.889 6.137)" opacity="0.6">
          <path id="Path_1892" data-name="Path 1892" d="M2007.526,2680.1a.7.7,0,0,0-.729.934l1.146,4.233a1.354,1.354,0,0,0,1.241.949l62.025-.35a.969.969,0,0,0,.963-.993l-.073-2.62a1.056,1.056,0,0,0-1.014-1.007Z" transform="translate(-2006.765 -2680.099)" fill="#fff"/>
        </g>
      </g>
    </g>
    <path id="Path_1897" data-name="Path 1897" d="M706.9,1813.719a3.091,3.091,0,0,1-3.087,3.079H536.974a3.091,3.091,0,0,1-3.087-3.079L532.5,1717.84a5.378,5.378,0,0,1,5.656-4.758l163.056-4.218a7.782,7.782,0,0,1,7.977,7.954Z" transform="translate(-2832.607 -2131.492)" fill="#1089fe"/>
    <path id="Path_1898" data-name="Path 1898" d="M758.085,1857.316a2.928,2.928,0,0,1-2.919,2.919H595.233a2.928,2.928,0,0,1-2.919-2.919L591,1770.274a7.174,7.174,0,0,1,7.531-7.006l156.269-4.189a5.463,5.463,0,0,1,5.6,5.59Z" transform="translate(-2886.838 -2178.045)" fill="#fff"/>
    <g id="Group_1345" data-name="Group 1345" transform="translate(-2293.692 -414.273)">
      <path id="Path_1899" data-name="Path 1899" d="M628.25,2440.242A.249.249,0,0,1,628,2440l-.1-7.057a.244.244,0,0,1,.241-.248.249.249,0,0,1,.248.241l.1,7.057a.24.24,0,0,1-.241.248Z" transform="translate(-627.353 -2388.23)" fill="#91b3fa"/>
      <path id="Path_1900" data-name="Path 1900" d="M621.042,1858.116a.25.25,0,0,1-.248-.241l-.394-27.031a5.738,5.738,0,0,1,1.657-4.3,7.891,7.891,0,0,1,5.218-1.8l49.9-1.343a.261.261,0,0,1,.255.241.251.251,0,0,1-.241.255l-49.917,1.343a7.335,7.335,0,0,0-4.875,1.664,5.25,5.25,0,0,0-1.5,3.941l.394,27.031a.249.249,0,0,1-.248.241Z" transform="translate(-620.4 -1823.4)" fill="#91b3fa"/>
    </g>
    <path id="Path_1901" data-name="Path 1901" d="M608.552,3148.022h-195.6a.551.551,0,0,1-.547-.547v-7.327a.552.552,0,0,1,.547-.548h195.6a.552.552,0,0,1,.547.548v7.327A.54.54,0,0,1,608.552,3148.022Z" transform="translate(-2721.272 -3457.819)" fill="#1089fe"/>
    <g id="Group_1360" data-name="Group 1360" transform="translate(-2278.404 -403.513)">
      <path id="Path_1902" data-name="Path 1902" d="M983.252,1989.135H901.676a1.112,1.112,0,0,1-.409-2.146l40.788-16.062a1.127,1.127,0,0,1,.817,0l40.788,16.063A1.112,1.112,0,0,1,983.252,1989.135Z" transform="translate(-895.407 -1970.85)" fill="#ced0e5"/>
      <g id="Group_1359" data-name="Group 1359" transform="translate(7.042 18.912)">
        <g id="Group_1348" data-name="Group 1348">
          <g id="Group_1347" data-name="Group 1347" transform="translate(1.927 1.751)">
            <rect id="Rectangle_2200" data-name="Rectangle 2200" width="1.751" height="32.184" fill="#ced0e5"/>
            <rect id="Rectangle_2201" data-name="Rectangle 2201" width="1.751" height="32.184" transform="translate(2.62)" fill="#ced0e5"/>
            <rect id="Rectangle_2202" data-name="Rectangle 2202" width="1.751" height="32.184" transform="translate(5.247)" fill="#ced0e5"/>
          </g>
          <path id="Path_1903" data-name="Path 1903" d="M937.245,2230H926.4v.474l1.576.752h7.692l1.576-.752Z" transform="translate(-926.4 -2230)" fill="#ced0e5"/>
          <path id="Path_1904" data-name="Path 1904" d="M938.445,2702.252H927.6v-1.7l1.576-.752h7.692l1.576.752Z" transform="translate(-927.512 -2665.515)" fill="#ced0e5"/>
        </g>
        <g id="Group_1350" data-name="Group 1350" transform="translate(13.822)">
          <g id="Group_1349" data-name="Group 1349" transform="translate(1.919 1.383)">
            <rect id="Rectangle_2203" data-name="Rectangle 2203" width="1.751" height="32.184" transform="translate(0 0.369)" fill="#ced0e5"/>
            <rect id="Rectangle_2204" data-name="Rectangle 2204" width="1.751" height="32.184" transform="translate(2.627 0.369)" fill="#ced0e5"/>
            <rect id="Rectangle_2205" data-name="Rectangle 2205" width="1.08" height="32.394" transform="translate(5.784)" fill="#ced0e5"/>
          </g>
          <path id="Path_1905" data-name="Path 1905" d="M1126.645,2230H1115.8v.474l1.569.752h7.7l1.576-.752Z" transform="translate(-1115.8 -2230)" fill="#ced0e5"/>
          <path id="Path_1906" data-name="Path 1906" d="M1127.845,2702.252H1117v-1.7l1.569-.752h7.7l1.576.752Z" transform="translate(-1116.912 -2665.515)" fill="#ced0e5"/>
        </g>
        <g id="Group_1352" data-name="Group 1352" transform="translate(27.637)">
          <g id="Group_1351" data-name="Group 1351" transform="translate(1.927 1.751)">
            <rect id="Rectangle_2206" data-name="Rectangle 2206" width="1.751" height="32.184" fill="#ced0e5"/>
            <rect id="Rectangle_2207" data-name="Rectangle 2207" width="1.751" height="32.184" transform="translate(2.62)" fill="#ced0e5"/>
            <rect id="Rectangle_2208" data-name="Rectangle 2208" width="1.751" height="32.184" transform="translate(5.247)" fill="#ced0e5"/>
          </g>
          <path id="Path_1907" data-name="Path 1907" d="M1315.945,2230H1305.1v.474l1.576.752h7.7l1.569-.752Z" transform="translate(-1305.1 -2230)" fill="#ced0e5"/>
          <path id="Path_1908" data-name="Path 1908" d="M1317.145,2702.252H1306.3v-1.7l1.576-.752h7.692l1.576.752Z" transform="translate(-1306.213 -2665.515)" fill="#ced0e5"/>
        </g>
        <g id="Group_1354" data-name="Group 1354" transform="translate(41.459)">
          <g id="Group_1353" data-name="Group 1353" transform="translate(1.919 1.751)">
            <rect id="Rectangle_2209" data-name="Rectangle 2209" width="1.751" height="32.184" fill="#ced0e5"/>
            <rect id="Rectangle_2210" data-name="Rectangle 2210" width="1.751" height="32.184" transform="translate(2.627)" fill="#ced0e5"/>
            <rect id="Rectangle_2211" data-name="Rectangle 2211" width="1.751" height="32.184" transform="translate(5.247)" fill="#ced0e5"/>
          </g>
          <path id="Path_1909" data-name="Path 1909" d="M1505.345,2230H1494.5v.474l1.569.752h7.7l1.576-.752Z" transform="translate(-1494.5 -2230)" fill="#ced0e5"/>
          <path id="Path_1910" data-name="Path 1910" d="M1506.545,2702.252H1495.7v-1.7l1.569-.752h7.7l1.576.752Z" transform="translate(-1495.612 -2665.515)" fill="#ced0e5"/>
        </g>
        <g id="Group_1356" data-name="Group 1356" transform="translate(55.274)">
          <g id="Group_1355" data-name="Group 1355" transform="translate(1.927 1.751)">
            <rect id="Rectangle_2212" data-name="Rectangle 2212" width="1.751" height="32.184" fill="#ced0e5"/>
            <rect id="Rectangle_2213" data-name="Rectangle 2213" width="1.751" height="32.184" transform="translate(2.62)" fill="#ced0e5"/>
            <rect id="Rectangle_2214" data-name="Rectangle 2214" width="1.751" height="32.184" transform="translate(5.247)" fill="#ced0e5"/>
          </g>
          <path id="Path_1911" data-name="Path 1911" d="M1694.645,2230H1683.8v.474l1.576.752h7.7l1.569-.752Z" transform="translate(-1683.8 -2230)" fill="#ced0e5"/>
          <path id="Path_1912" data-name="Path 1912" d="M1695.845,2702.252H1685v-1.7l1.576-.752h7.7l1.569.752Z" transform="translate(-1684.912 -2665.515)" fill="#ced0e5"/>
        </g>
        <g id="Group_1358" data-name="Group 1358" transform="translate(69.096)">
          <g id="Group_1357" data-name="Group 1357" transform="translate(1.927 1.751)">
            <rect id="Rectangle_2215" data-name="Rectangle 2215" width="1.751" height="32.184" fill="#ced0e5"/>
            <rect id="Rectangle_2216" data-name="Rectangle 2216" width="1.751" height="32.184" transform="translate(2.62)" fill="#ced0e5"/>
            <rect id="Rectangle_2217" data-name="Rectangle 2217" width="1.751" height="32.184" transform="translate(5.247)" fill="#ced0e5"/>
          </g>
          <path id="Path_1913" data-name="Path 1913" d="M1884.045,2230H1873.2v.474l1.576.752h7.692l1.576-.752Z" transform="translate(-1873.2 -2230)" fill="#ced0e5"/>
          <path id="Path_1914" data-name="Path 1914" d="M1885.245,2702.252H1874.4v-1.7l1.576-.752h7.692l1.576.752Z" transform="translate(-1874.313 -2665.515)" fill="#ced0e5"/>
        </g>
      </g>
      <path id="Path_1915" data-name="Path 1915" d="M973.832,2745.176H888.155a.259.259,0,0,1-.255-.256v-1.364a.259.259,0,0,1,.255-.256h85.677a.259.259,0,0,1,.255.256v1.364A.254.254,0,0,1,973.832,2745.176Z" transform="translate(-883.667 -2686.928)" fill="#ced0e5"/>
      <path id="Path_1916" data-name="Path 1916" d="M923.685,2786.6H830.229a.327.327,0,0,1-.328-.329v-4.145a.327.327,0,0,1,.328-.328h93.457a.327.327,0,0,1,.328.328v4.145A.327.327,0,0,1,923.685,2786.6Z" transform="translate(-829.9 -2722.618)" fill="#ced0e5"/>
    </g>
    <path id="Path_1917" data-name="Path 1917" d="M2256.538,1988.753H2226.3a4.5,4.5,0,0,1-4.5-4.5V1981.7a4.5,4.5,0,0,1,4.5-4.5h30.242a4.5,4.5,0,0,1,4.5,4.5v2.562A4.5,4.5,0,0,1,2256.538,1988.753Z" transform="translate(-4398.625 -2380.249)" fill="#ced0e5"/>
    <path id="Path_1918" data-name="Path 1918" d="M2256.538,2206.452H2226.3a4.5,4.5,0,0,1-4.5-4.5V2199.4a4.5,4.5,0,0,1,4.5-4.5h30.242a4.5,4.5,0,0,1,4.5,4.5v2.562A4.5,4.5,0,0,1,2256.538,2206.452Z" transform="translate(-4398.625 -2582.062)" fill="#ced0e5"/>
    <path id="Path_1919" data-name="Path 1919" d="M2256.538,2424.052H2226.3a4.5,4.5,0,0,1-4.5-4.5V2417a4.5,4.5,0,0,1,4.5-4.5h30.242a4.5,4.5,0,0,1,4.5,4.5v2.562A4.493,4.493,0,0,1,2256.538,2424.052Z" transform="translate(-4398.625 -2783.781)" fill="#ced0e5"/>
    <path id="Path_1920" data-name="Path 1920" d="M964.362,2892.452H831.1a4.5,4.5,0,0,1-4.5-4.5V2885.4a4.5,4.5,0,0,1,4.5-4.5H964.362a4.5,4.5,0,0,1,4.5,4.5v2.562A4.5,4.5,0,0,1,964.362,2892.452Z" transform="translate(-3105.244 -3217.998)" fill="#ced0e5"/>
    <path id="Path_1929" data-name="Path 1929" d="M959.279,1666.777c.022-.007,13.486-23.587,15.311-25.805a1.412,1.412,0,0,1,1.263-.5l3.759.445,4.415,9.553-7.356-4.284c.73,5.036-8.721,12.516-11.961,15.245a.747.747,0,0,0-.058,1.087l1.292,1.357a14.881,14.881,0,0,1-7.342,4.174Z" transform="translate(-3227.611 -2068.082)" fill="#febbba"/>
    <path id="Path_1930" data-name="Path 1930" d="M954.648,1951.1a1.911,1.911,0,0,1,1.1,1,.844.844,0,0,1-.314.97c-1.357.971-5.846,4.116-7.911,4.736a.234.234,0,0,1-.292-.277,7.579,7.579,0,0,1,1.554-2.846l-.1.2a.289.289,0,0,0,.4.38A21.948,21.948,0,0,0,954.648,1951.1Z" transform="translate(-3217.069 -2356.054)" fill="#57331f"/>
    <path id="Path_1931" data-name="Path 1931" d="M1034.609,1706.347c.022-.015,2.043-4.882,2.065-4.9a85.646,85.646,0,0,1,7.707-23.477,1.414,1.414,0,0,1,1.131-.752l3.773-.321,6.254,8.458-8.071-2.707c1.73,4.78-6.006,14.019-8.626,17.347a.749.749,0,0,0,.161,1.073l1.54,1.066a14.878,14.878,0,0,1-6.342,5.575Z" transform="translate(-3297.694 -2101.865)" fill="url(#linear-gradient)"/>
    <path id="Path_1932" data-name="Path 1932" d="M1033.17,2015.1a1.908,1.908,0,0,1,1.284.759.839.839,0,0,1-.117,1.014c-1.131,1.226-4.889,5.218-6.794,6.24a.238.238,0,0,1-.343-.212,7.418,7.418,0,0,1,.949-3.1l-.058.219a.288.288,0,0,0,.467.292A22.2,22.2,0,0,0,1033.17,2015.1Z" transform="translate(-3291.205 -2415.383)" fill="#57331f"/>
    <g id="Group_1371" data-name="Group 1371" transform="translate(-2254.766 -426.897)">
      <path id="Path_1933" data-name="Path 1933" d="M1177.8,1650.577s3.408,5.072,3.693,7.385-.941,3.116-4.517,3.408c-10.626.875-15.866-2.306-15.866-2.306-.73-4.634-1.241-5.817-7.313-8.334,0,0,7.677.613,9.225.008S1177.8,1650.577,1177.8,1650.577Z" transform="translate(-1153.8 -1650.426)" fill="#eebe44"/>
    </g>
    <path id="Path_1934" data-name="Path 1934" d="M1214.7,1162.191c-1.934-.015-3.948.489-4.773-.664-1.211-1.7.635-6.305,3.729-7.509,3.233-1.255,5.481,2.116,8.932.883,2.7-.963,2.488-3.437,5.006-5.305,4.174-3.1,12.494-2.043,15.61,2.087,5.087,6.75-3.649,21.843-10.268,22.025C1227.066,1173.867,1223.8,1162.263,1214.7,1162.191Z" transform="translate(-3460.252 -1611.377)" fill="#57331f"/>
    <path id="Path_1935" data-name="Path 1935" d="M1266.806,1409.6a77.377,77.377,0,0,1-5.926-6.291,5.319,5.319,0,0,1-.9-4.788,64.41,64.41,0,0,1,2.627-6.6c.219-.745,4.678-.715,4.678-.715s8.765,5.692,12.209,15.326l-3.868,1.2a45.824,45.824,0,0,0-4.547-6.283s3.911,5.167,4.05,7.283Z" transform="translate(-3506.794 -1837.013)" fill="#eebe44"/>
    <path id="Path_1936" data-name="Path 1936" d="M1252.6,1605.861l2.985-3.248,3.445.927s4.021.62,6.32,0l2.3-.62,5.2-1.62.817,2.306a1.4,1.4,0,0,1-.511,1.6,9.073,9.073,0,0,1-1.314.817c-.686.3-15.771.095-15.771.095Z" transform="translate(-3500.155 -2031.782)" fill="#febbba"/>
    <path id="Path_1937" data-name="Path 1937" d="M1287.462,1312.4l2.992,5.568c-.2,1.219-3.255,1.248-3.729.525a.73.73,0,0,1-.095-.248l-1.788-3.722c-.08-.365.919-1.584,1.248-1.759l1.189-.635C1287.732,1311.892,1285.82,1311.87,1287.462,1312.4Z" transform="translate(-3530.04 -1763.567)" fill="#febbba"/>
    <path id="Path_1938" data-name="Path 1938" d="M1237.383,1282.758a6.6,6.6,0,0,0,1.138,4.269c1.482,2.394,2.948,2.284,3.7,1.43a5.257,5.257,0,0,0,1.234-4.656C1243.046,1281.415,1237.894,1280.357,1237.383,1282.758Z" transform="translate(-3486.018 -1735.228)" fill="#febbba"/>
    <path id="Path_1939" data-name="Path 1939" d="M1228.517,1256.118s-2.394-3.145-4.233-.4l.029.949s-1.372.759-1.117-1.445,1.2-4.576,3.9-3.824,4.284,1.613,4.59,3.489-1.226,1.569-1.226,1.569-.584-1.3-1.292-1.387-.452.934-.452.934Z" transform="translate(-3472.869 -1707.282)" fill="#57331f"/>
    <path id="Path_1940" data-name="Path 1940" d="M1296.565,1291.544s-1.24-1.605-.109-1.941,1.087,1.576,1.014,2.284Z" transform="translate(-3540.37 -1742.795)" fill="#febbba"/>
    <path id="Path_1941" data-name="Path 1941" d="M1205.47,1665.639h-.029l-13.727-.015a.613.613,0,1,1,0-1.226l13.727.015a.613.613,0,0,1,.029,1.226Z" transform="translate(-3443.144 -2090.275)" fill="#ced0e5"/>
    <path id="Path_1942" data-name="Path 1942" d="M1018.646,1510.6h11.436a2.178,2.178,0,0,1,1.971,1.248l5.284,11.21h-14.209a1.339,1.339,0,0,1-1.233-.839l-4.1-10.371A.914.914,0,0,1,1018.646,1510.6Z" transform="translate(-3282.425 -1947.701)" fill="#ced0e5"/>
    <path id="Path_1943" data-name="Path 1943" d="M1117.507,1574.768c.248.766.066,1.518-.409,1.671s-1.058-.35-1.306-1.117-.066-1.518.409-1.671S1117.259,1574,1117.507,1574.768Z" transform="translate(-3373.229 -2006.125)" fill="#1089fe"/>
    <path id="Path_1944" data-name="Path 1944" d="M1311.43,1207.465h-.109a7.321,7.321,0,0,1-4.481-2.116c-2.474-2.153-3.408-2.51-5.364-2.51h-.175v-.08h.161c1.956,0,2.948.372,5.422,2.525a7.217,7.217,0,0,0,4.43,2.1,5.5,5.5,0,0,0,4.342-2.562,20.6,20.6,0,0,0,1.423-2.321,23.232,23.232,0,0,1,1.328-2.182,4.858,4.858,0,0,1,1.722-1.606,2.229,2.229,0,0,1,2.284.095l-.044.066a2.168,2.168,0,0,0-2.2-.088,4.895,4.895,0,0,0-1.693,1.584,23,23,0,0,0-1.321,2.175,22.68,22.68,0,0,1-1.43,2.328A5.613,5.613,0,0,1,1311.43,1207.465Z" transform="translate(-3545.302 -1658.33)" fill="#2c2121"/>
    <path id="Path_1945" data-name="Path 1945" d="M1410.981,1247.706c-.146,0-.3-.007-.445-.022a2.747,2.747,0,0,1-2.335-1.7l.073-.022a2.649,2.649,0,0,0,2.27,1.642,5.363,5.363,0,0,0,3.715-1.2,17.821,17.821,0,0,0,2.2-2.051c.226-.233.46-.482.7-.715a27.2,27.2,0,0,1,3.357-2.854,4.612,4.612,0,0,1,2.591-1.088h.095a2.068,2.068,0,0,1,1.5.788,1.351,1.351,0,0,1,.277,1.139l-.08-.015a1.288,1.288,0,0,0-.263-1.073,1.982,1.982,0,0,0-1.445-.752,4.428,4.428,0,0,0-2.635,1.073,27.1,27.1,0,0,0-3.35,2.846c-.234.234-.467.482-.7.715a17.487,17.487,0,0,1-2.219,2.058A5.7,5.7,0,0,1,1410.981,1247.706Z" transform="translate(-3644.4 -1696.571)" fill="#2c2121"/>
    <path id="Path_1946" data-name="Path 1946" d="M1445.48,1305.608a2.385,2.385,0,0,1-1.08-.248l.036-.073c1.263.642,2.78-.182,3.372-.562a20.292,20.292,0,0,0,1.89-1.452,11.492,11.492,0,0,1,3.262-2.146,3.45,3.45,0,0,1,1.722-.226,1.936,1.936,0,0,1,1.423.949l-.073.036a1.852,1.852,0,0,0-1.365-.9,3.381,3.381,0,0,0-1.686.219,11.443,11.443,0,0,0-3.24,2.131,20.444,20.444,0,0,1-1.9,1.46A4.623,4.623,0,0,1,1445.48,1305.608Z" transform="translate(-3677.958 -1753.277)" fill="#2c2121"/>
    <g id="Group_1380" data-name="Group 1380" transform="translate(-2193.259 -357.596)">
      <g id="rupee" transform="translate(58.192 5.939)">
        <circle id="Ellipse_113" data-name="Ellipse 113" cx="20.897" cy="20.897" r="20.897" transform="translate(1.301 1.301)" fill="#ffde46"/>
        <path id="Path_1947" data-name="Path 1947" d="M256,15V56.793A20.9,20.9,0,0,0,256,15Z" transform="translate(-233.8 -13.699)" fill="#ffcd00"/>
        <path id="Path_1948" data-name="Path 1948" d="M22.2,0A22.08,22.08,0,0,0,14,1.568h0A22.2,22.2,0,1,0,22.2,0ZM36.936,35.1l-.7-.7A1.3,1.3,0,0,0,34.4,36.238l.7.7a19.662,19.662,0,0,1-4.472,2.95l-.367-.924a1.3,1.3,0,1,0-2.417.961l.368.927a19.471,19.471,0,0,1-4.71.9v-1a1.3,1.3,0,1,0-2.6,0v1A19.462,19.462,0,0,1,15.735,40.7l.39-.917a1.3,1.3,0,0,0-2.393-1.019l-.389.915A19.672,19.672,0,0,1,9.3,36.936l.7-.7A1.3,1.3,0,0,0,8.157,34.4l-.7.7a19.663,19.663,0,0,1-2.95-4.472l.925-.367a1.3,1.3,0,1,0-.961-2.417l-.927.368a19.472,19.472,0,0,1-.9-4.71h1a1.3,1.3,0,0,0,0-2.6h-1A19.465,19.465,0,0,1,3.7,15.735l.917.391a1.3,1.3,0,1,0,1.019-2.393l-.915-.389A19.673,19.673,0,0,1,7.458,9.3l.7.7A1.3,1.3,0,0,0,10,8.157l-.7-.7a19.662,19.662,0,0,1,4.472-2.95l.367.925a1.3,1.3,0,1,0,2.417-.961l-.368-.927a19.472,19.472,0,0,1,4.71-.9v1a1.3,1.3,0,0,0,2.6,0v-1A19.462,19.462,0,0,1,28.659,3.7l-.391.917a1.3,1.3,0,1,0,2.393,1.019l.389-.915A19.673,19.673,0,0,1,35.1,7.459l-.7.7A1.3,1.3,0,1,0,36.238,10l.7-.7a19.661,19.661,0,0,1,2.95,4.472l-.925.367a1.3,1.3,0,1,0,.96,2.417l.927-.368a19.472,19.472,0,0,1,.9,4.71h-1a1.3,1.3,0,0,0,0,2.6h1A19.465,19.465,0,0,1,40.7,28.66l-.917-.391a1.3,1.3,0,0,0-1.019,2.393l.915.389A19.661,19.661,0,0,1,36.936,35.1Z" fill="#fdbf00"/>
        <path id="Path_1949" data-name="Path 1949" d="M256,0V4.942a1.3,1.3,0,0,0,1.3-1.3v-1A19.462,19.462,0,0,1,262.457,3.7l-.391.917a1.3,1.3,0,1,0,2.393,1.019l.389-.915a19.672,19.672,0,0,1,4.045,2.74l-.7.7A1.3,1.3,0,1,0,270.036,10l.7-.7a19.66,19.66,0,0,1,2.95,4.472l-.925.367a1.3,1.3,0,1,0,.96,2.417l.927-.368a19.473,19.473,0,0,1,.9,4.71h-1a1.3,1.3,0,0,0,0,2.6h1a19.465,19.465,0,0,1-1.052,5.162l-.917-.391a1.3,1.3,0,1,0-1.019,2.393l.915.389a19.671,19.671,0,0,1-2.74,4.045l-.7-.7a1.3,1.3,0,0,0-1.839,1.839l.7.7a19.664,19.664,0,0,1-4.472,2.95l-.367-.924a1.3,1.3,0,1,0-2.417.961l.368.927a19.471,19.471,0,0,1-4.71.9v-1a1.3,1.3,0,0,0-1.3-1.3v4.942A22.2,22.2,0,0,0,256,0Z" transform="translate(-233.798)" fill="#ff8856"/>
        <g id="Group_1377" data-name="Group 1377" transform="translate(12.963 10.925)">
          <path id="Path_1950" data-name="Path 1950" d="M166.665,131.2h-4.033a6.476,6.476,0,0,0-1.173-2.6h5.206a1.3,1.3,0,0,0,0-2.6H150.8a1.3,1.3,0,0,0,0,2.6h5.463a3.908,3.908,0,0,1,3.678,2.6H150.8a1.3,1.3,0,0,0,0,2.6h9.141a3.908,3.908,0,0,1-3.678,2.6h-5.376a1.3,1.3,0,0,0-.991,2.143l10.752,12.66a1.3,1.3,0,1,0,1.983-1.684L153.7,139.006h2.565a6.514,6.514,0,0,0,6.372-5.2h4.033a1.3,1.3,0,0,0,0-2.6Z" transform="translate(-149.497 -126)" fill="#fff9be"/>
        </g>
        <g id="Group_1379" data-name="Group 1379" transform="translate(22.197 10.925)">
          <g id="Group_1378" data-name="Group 1378">
            <path id="Path_1951" data-name="Path 1951" d="M256,344.384V348.4l1.913,2.253a1.3,1.3,0,1,0,1.983-1.684Z" transform="translate(-255.997 -325.448)" fill="#fff48b"/>
            <path id="Path_1952" data-name="Path 1952" d="M263.932,131.2H259.9a6.476,6.476,0,0,0-1.173-2.6h5.206a1.3,1.3,0,1,0,0-2.6H256v3.487A3.919,3.919,0,0,1,257.2,131.2H256v2.6H257.2A3.919,3.919,0,0,1,256,135.519v3a6.527,6.527,0,0,0,3.9-4.714h4.033a1.3,1.3,0,0,0,0-2.6Z" transform="translate(-255.998 -126)" fill="#fff48b"/>
          </g>
        </g>
      </g>
      <g id="rupee-2" data-name="rupee" transform="translate(31.008 2.699)">
        <circle id="Ellipse_113-2" data-name="Ellipse 113" cx="24.119" cy="24.119" r="24.119" transform="translate(1.501 1.501)" fill="#ffde46"/>
        <path id="Path_1947-2" data-name="Path 1947" d="M256,15V63.237A24.119,24.119,0,0,0,256,15Z" transform="translate(-230.377 -13.499)" fill="#ffcd00"/>
        <path id="Path_1948-2" data-name="Path 1948" d="M25.62,0a25.485,25.485,0,0,0-9.458,1.81h-.005A25.619,25.619,0,1,0,25.62,0ZM42.631,40.508l-.806-.806A1.5,1.5,0,1,0,39.7,41.826l.806.806a22.694,22.694,0,0,1-5.161,3.405l-.424-1.067a1.5,1.5,0,0,0-2.79,1.109l.425,1.07a22.474,22.474,0,0,1-5.437,1.039V47.037a1.5,1.5,0,1,0-3,0v1.149a22.463,22.463,0,0,1-5.957-1.214l.451-1.059a1.5,1.5,0,0,0-2.762-1.176L15.4,45.793a22.705,22.705,0,0,1-4.668-3.162l.806-.806A1.5,1.5,0,0,0,9.414,39.7l-.806.806A22.7,22.7,0,0,1,5.2,35.347l1.067-.424a1.5,1.5,0,0,0-1.109-2.79l-1.07.425a22.474,22.474,0,0,1-1.039-5.437H4.2a1.5,1.5,0,0,0,0-3H3.053a22.467,22.467,0,0,1,1.214-5.958l1.059.451A1.5,1.5,0,1,0,6.5,15.85L5.446,15.4a22.706,22.706,0,0,1,3.162-4.668l.806.806a1.5,1.5,0,0,0,2.123-2.123l-.806-.806A22.694,22.694,0,0,1,15.893,5.2l.424,1.067a1.5,1.5,0,1,0,2.79-1.109l-.425-1.07a22.474,22.474,0,0,1,5.437-1.039V4.2a1.5,1.5,0,0,0,3,0V3.053a22.463,22.463,0,0,1,5.958,1.214l-.451,1.059A1.5,1.5,0,1,0,35.39,6.5l.45-1.056a22.706,22.706,0,0,1,4.668,3.162l-.806.806a1.5,1.5,0,1,0,2.123,2.123l.806-.806a22.692,22.692,0,0,1,3.405,5.161l-1.067.424a1.5,1.5,0,1,0,1.109,2.79l1.07-.425a22.475,22.475,0,0,1,1.039,5.437h-1.15a1.5,1.5,0,1,0,0,3h1.15a22.466,22.466,0,0,1-1.214,5.957l-1.059-.451a1.5,1.5,0,1,0-1.176,2.762l1.056.449a22.693,22.693,0,0,1-3.162,4.668Z" fill="#fdbf00"/>
        <path id="Path_1949-2" data-name="Path 1949" d="M256,0V5.7a1.5,1.5,0,0,0,1.5-1.5V3.053a22.462,22.462,0,0,1,5.958,1.214L263,5.326A1.5,1.5,0,1,0,265.766,6.5l.45-1.056a22.708,22.708,0,0,1,4.668,3.162l-.806.806a1.5,1.5,0,1,0,2.123,2.123l.806-.806a22.692,22.692,0,0,1,3.405,5.161l-1.067.424a1.5,1.5,0,1,0,1.109,2.79l1.07-.425a22.475,22.475,0,0,1,1.039,5.437h-1.15a1.5,1.5,0,0,0,0,3h1.15a22.468,22.468,0,0,1-1.214,5.957l-1.059-.451a1.5,1.5,0,0,0-1.176,2.762l1.056.449a22.7,22.7,0,0,1-3.162,4.668L272.2,39.7a1.5,1.5,0,0,0-2.123,2.123l.806.806a22.693,22.693,0,0,1-5.161,3.405l-.424-1.067a1.5,1.5,0,1,0-2.79,1.109l.425,1.07a22.474,22.474,0,0,1-5.437,1.039V47.037a1.5,1.5,0,0,0-1.5-1.5v5.7A25.62,25.62,0,0,0,256,0Z" transform="translate(-230.375)" fill="#ff8856"/>
        <g id="Group_1377-2" data-name="Group 1377" transform="translate(14.961 12.61)">
          <path id="Path_1950-2" data-name="Path 1950" d="M169.313,132h-4.655a7.474,7.474,0,0,0-1.354-3h6.009a1.5,1.5,0,0,0,0-3H151a1.5,1.5,0,0,0,0,3h6.3a4.511,4.511,0,0,1,4.245,3H151a1.5,1.5,0,0,0,0,3h10.55a4.511,4.511,0,0,1-4.245,3h-6.2a1.5,1.5,0,0,0-1.144,2.473l12.41,14.611a1.5,1.5,0,1,0,2.288-1.944l-10.309-12.139h2.96a7.519,7.519,0,0,0,7.355-6h4.655a1.5,1.5,0,0,0,0-3Z" transform="translate(-149.497 -126)" fill="#fff9be"/>
        </g>
        <g id="Group_1379-2" data-name="Group 1379" transform="translate(25.62 12.61)">
          <g id="Group_1378-2" data-name="Group 1378">
            <path id="Path_1951-2" data-name="Path 1951" d="M256,344.384v4.638l2.208,2.6a1.5,1.5,0,0,0,2.288-1.944Z" transform="translate(-255.997 -322.528)" fill="#fff48b"/>
            <path id="Path_1952-2" data-name="Path 1952" d="M265.155,132H260.5a7.475,7.475,0,0,0-1.354-3h6.009a1.5,1.5,0,1,0,0-3H256v4.025a4.523,4.523,0,0,1,1.393,1.98H256v3h1.393a4.523,4.523,0,0,1-1.393,1.98v3.461a7.534,7.534,0,0,0,4.5-5.441h4.655a1.5,1.5,0,0,0,0-3Z" transform="translate(-255.998 -126)" fill="#fff48b"/>
          </g>
        </g>
      </g>
      <g id="rupee-3" data-name="rupee" transform="translate(0 0)">
        <circle id="Ellipse_113-3" data-name="Ellipse 113" cx="26.655" cy="26.655" r="26.655" transform="translate(1.659 1.659)" fill="#ffde46"/>
        <path id="Path_1947-3" data-name="Path 1947" d="M256,15V68.31A26.655,26.655,0,0,0,256,15Z" transform="translate(-227.683 -13.341)" fill="#ffcd00"/>
        <path id="Path_1948-3" data-name="Path 1948" d="M28.314,0A28.165,28.165,0,0,0,17.861,2h0l0,0A28.313,28.313,0,1,0,28.314,0Zm18.8,44.768-.89-.89a1.659,1.659,0,1,0-2.346,2.346l.89.89a25.08,25.08,0,0,1-5.7,3.763L38.595,49.7a1.659,1.659,0,0,0-3.084,1.225l.47,1.182a24.837,24.837,0,0,1-6.008,1.148v-1.27a1.659,1.659,0,0,0-3.318,0v1.27a24.825,24.825,0,0,1-6.584-1.342l.5-1.17a1.659,1.659,0,0,0-3.053-1.3l-.5,1.167a25.092,25.092,0,0,1-5.159-3.494l.89-.89A1.659,1.659,0,1,0,10.4,43.877l-.89.89a25.082,25.082,0,0,1-3.763-5.7L6.93,38.6A1.659,1.659,0,1,0,5.7,35.512l-1.182.47a24.838,24.838,0,0,1-1.148-6.008h1.27a1.659,1.659,0,1,0,0-3.318H3.374a24.829,24.829,0,0,1,1.342-6.584l1.17.5a1.659,1.659,0,1,0,1.3-3.053l-1.167-.5A25.093,25.093,0,0,1,9.514,11.86l.89.89A1.659,1.659,0,0,0,12.75,10.4l-.89-.89a25.081,25.081,0,0,1,5.7-3.763l.469,1.18A1.659,1.659,0,1,0,21.116,5.7l-.47-1.182a24.837,24.837,0,0,1,6.008-1.148v1.27a1.659,1.659,0,0,0,3.318,0V3.374a24.825,24.825,0,0,1,6.584,1.342l-.5,1.17a1.659,1.659,0,1,0,3.053,1.3l.5-1.167a25.094,25.094,0,0,1,5.159,3.495l-.89.89a1.659,1.659,0,1,0,2.346,2.346l.89-.89a25.078,25.078,0,0,1,3.763,5.7l-1.179.469a1.659,1.659,0,1,0,1.225,3.084l1.182-.47a24.838,24.838,0,0,1,1.148,6.008h-1.27a1.659,1.659,0,0,0,0,3.318h1.27a24.828,24.828,0,0,1-1.342,6.584l-1.17-.5a1.659,1.659,0,1,0-1.3,3.053l1.167.5a25.079,25.079,0,0,1-3.494,5.159Z" fill="#fdbf00"/>
        <path id="Path_1949-3" data-name="Path 1949" d="M256,0V6.3a1.659,1.659,0,0,0,1.659-1.659V3.374a24.825,24.825,0,0,1,6.584,1.342l-.5,1.17a1.659,1.659,0,1,0,3.053,1.3l.5-1.167a25.1,25.1,0,0,1,5.159,3.495l-.89.89a1.659,1.659,0,1,0,2.346,2.346l.89-.89a25.078,25.078,0,0,1,3.763,5.7l-1.179.469a1.659,1.659,0,1,0,1.225,3.084l1.182-.47a24.838,24.838,0,0,1,1.148,6.008h-1.27a1.659,1.659,0,0,0,0,3.318h1.27a24.828,24.828,0,0,1-1.342,6.584l-1.17-.5a1.659,1.659,0,0,0-1.3,3.053l1.167.5a25.088,25.088,0,0,1-3.495,5.159l-.89-.89a1.659,1.659,0,0,0-2.346,2.346l.89.89a25.079,25.079,0,0,1-5.7,3.763l-.469-1.179a1.659,1.659,0,1,0-3.084,1.225l.47,1.182a24.837,24.837,0,0,1-6.008,1.148v-1.27a1.659,1.659,0,0,0-1.659-1.659v6.3A28.314,28.314,0,0,0,256,0Z" transform="translate(-227.681)" fill="#ff8856"/>
        <g id="Group_1377-3" data-name="Group 1377" transform="translate(16.535 13.936)">
          <path id="Path_1950-3" data-name="Path 1950" d="M171.4,132.636h-5.144a8.26,8.26,0,0,0-1.5-3.318H171.4a1.659,1.659,0,0,0,0-3.318h-20.24a1.659,1.659,0,0,0,0,3.318h6.968a4.985,4.985,0,0,1,4.692,3.318h-11.66a1.659,1.659,0,0,0,0,3.318h11.66a4.985,4.985,0,0,1-4.692,3.318h-6.857A1.659,1.659,0,0,0,150,142.005l13.715,16.148a1.659,1.659,0,0,0,2.529-2.148L154.852,142.59h3.272a8.309,8.309,0,0,0,8.128-6.636H171.4a1.659,1.659,0,0,0,0-3.318Z" transform="translate(-149.497 -126)" fill="#fff9be"/>
        </g>
        <g id="Group_1379-3" data-name="Group 1379" transform="translate(28.314 13.936)">
          <g id="Group_1378-3" data-name="Group 1378">
            <path id="Path_1951-3" data-name="Path 1951" d="M256,344.384v5.126l2.441,2.874a1.659,1.659,0,1,0,2.529-2.148Z" transform="translate(-255.997 -320.23)" fill="#fff48b"/>
            <path id="Path_1952-3" data-name="Path 1952" d="M266.118,132.636h-5.144a8.261,8.261,0,0,0-1.5-3.318h6.641a1.659,1.659,0,0,0,0-3.318H256v4.448a5,5,0,0,1,1.539,2.188H256v3.318h1.539A5,5,0,0,1,256,138.142v3.825a8.326,8.326,0,0,0,4.976-6.013h5.144a1.659,1.659,0,0,0,0-3.318Z" transform="translate(-255.998 -126)" fill="#fff48b"/>
          </g>
        </g>
      </g>
    </g>
  </g>
</svg>
