<svg xmlns="http://www.w3.org/2000/svg" width="18" height="17.995" viewBox="0 0 18 17.995">
  <g id="doctor" transform="translate(0 -0.071)">
    <g id="Group_995" data-name="Group 995" transform="translate(0 0.071)">
      <g id="Group_994" data-name="Group 994" transform="translate(0 0)">
        <ellipse id="Ellipse_98" data-name="Ellipse 98" cx="0.57" cy="0.614" rx="0.57" ry="0.614" transform="translate(12.245 13.882)" fill="#1089fe"/>
        <path id="Path_1532" data-name="Path 1532" d="M117,321.066a1.36,1.36,0,0,0-.944-.445,1.327,1.327,0,0,0-.956.456A4.483,4.483,0,0,1,117,321.066Z" transform="translate(-110.866 -308.841)" fill="#1089fe"/>
        <path id="Path_1533" data-name="Path 1533" d="M17.985,251.581a9.641,9.641,0,0,0-4.686-7.016,11.342,11.342,0,0,1-.044,3.6,1.47,1.47,0,0,1,.944,1.385,1.387,1.387,0,1,1-2.771,0,1.455,1.455,0,0,1,1.073-1.43,11.124,11.124,0,0,0-.015-3.973c-.1-.044-.2-.085-.3-.129a4.354,4.354,0,0,1-6.328.044,4.565,4.565,0,0,0-.327,2.029c1.213.243,2.143,1.727,2.143,3.513a4.746,4.746,0,0,1-.371,1.871,1.052,1.052,0,0,1-.944.588.744.744,0,0,1,0-1.485,1.243,1.243,0,0,1,.445.1,4.248,4.248,0,0,0-.07-2.385,3.824,3.824,0,0,0-3.087,0,4.182,4.182,0,0,0-.07,2.385,1.227,1.227,0,0,1,.445-.1.744.744,0,0,1,0,1.485,1.076,1.076,0,0,1-.93-.544h0a4.666,4.666,0,0,1-.386-1.915c0-1.771.915-3.241,2.1-3.513a6.068,6.068,0,0,1,.158-1.672,9.617,9.617,0,0,0-4.947,7.159,1.255,1.255,0,0,0,1.187,1.47H16.787A1.257,1.257,0,0,0,17.985,251.581Z" transform="translate(0 -235.056)" fill="#1089fe"/>
        <path id="Path_1534" data-name="Path 1534" d="M143.463,117.522a4.138,4.138,0,0,0,3.785-5.031,14.416,14.416,0,0,0-3.785-.57,14.271,14.271,0,0,0-3.771.57,4.714,4.714,0,0,0-.1.915A3.978,3.978,0,0,0,143.463,117.522Z" transform="translate(-134.463 -107.81)" fill="#1089fe"/>
        <path id="Path_1535" data-name="Path 1535" d="M136.825,3.869c.272-1.073.529-2.157.786-3.23a16.246,16.246,0,0,0-8.515,0c.257,1.073.529,2.157.786,3.23A13.241,13.241,0,0,1,136.825,3.869ZM132.308,1.4h.728V.624h.628V1.4h.728v.658h-.728v.772h-.628V2.054h-.728Z" transform="translate(-124.352 -0.071)" fill="#1089fe"/>
      </g>
    </g>
  </g>
</svg>
