<svg id="exchange" xmlns="http://www.w3.org/2000/svg" width="16.846" height="16.846" viewBox="0 0 16.846 16.846">
  <g id="Group_1016" data-name="Group 1016" transform="translate(10.924 7.93)">
    <g id="Group_1015" data-name="Group 1015">
      <path id="Path_1599" data-name="Path 1599" d="M334.468,241a2.468,2.468,0,1,0,2.468,2.468A2.471,2.471,0,0,0,334.468,241Z" transform="translate(-332 -241)" fill="#0f88fc"/>
    </g>
  </g>
  <g id="Group_1018" data-name="Group 1018" transform="translate(0.987)">
    <g id="Group_1017" data-name="Group 1017">
      <path id="Path_1600" data-name="Path 1600" d="M32.468,0A2.5,2.5,0,0,0,30,2.5a2.468,2.468,0,1,0,4.935,0A2.5,2.5,0,0,0,32.468,0Z" transform="translate(-30)" fill="#0f88fc"/>
    </g>
  </g>
  <g id="Group_1020" data-name="Group 1020" transform="translate(7.93)">
    <g id="Group_1019" data-name="Group 1019">
      <path id="Path_1601" data-name="Path 1601" d="M248.881,4.261a.494.494,0,0,0-.445-.28h-.521A4.477,4.477,0,0,0,243.5,0h-2.007a.494.494,0,0,0,0,.987,3.523,3.523,0,0,1,3.453,2.994h-.458a.494.494,0,0,0-.386.8l1.974,2.468a.494.494,0,0,0,.771,0l1.974-2.468A.5.5,0,0,0,248.881,4.261Z" transform="translate(-241)" fill="#0f88fc"/>
    </g>
  </g>
  <g id="Group_1022" data-name="Group 1022" transform="translate(0.987 9.42)">
    <g id="Group_1021" data-name="Group 1021">
      <path id="Path_1602" data-name="Path 1602" d="M37.436,292.725a3.523,3.523,0,0,1-3.453-2.994h.458a.494.494,0,0,0,.386-.8l-1.974-2.468a.511.511,0,0,0-.771,0l-1.974,2.468a.494.494,0,0,0,.386.8h.521a4.477,4.477,0,0,0,4.414,3.981h2.007a.494.494,0,0,0,0-.987Z" transform="translate(-30 -286.286)" fill="#0f88fc"/>
    </g>
  </g>
  <g id="Group_1024" data-name="Group 1024" transform="translate(9.937 12.865)">
    <g id="Group_1023" data-name="Group 1023">
      <path id="Path_1603" data-name="Path 1603" d="M307.865,391a3.436,3.436,0,0,1-4.82,0A3.517,3.517,0,0,0,302,393.5v.987a.493.493,0,0,0,.494.494h5.923a.493.493,0,0,0,.494-.494V393.5A3.517,3.517,0,0,0,307.865,391Z" transform="translate(-302 -391)" fill="#0f88fc"/>
    </g>
  </g>
  <g id="Group_1026" data-name="Group 1026" transform="translate(0 4.968)">
    <g id="Group_1025" data-name="Group 1025">
      <path id="Path_1604" data-name="Path 1604" d="M5.865,151a3.436,3.436,0,0,1-4.82,0A3.441,3.441,0,0,0,0,153.468v.987a.493.493,0,0,0,.494.494H6.416a.493.493,0,0,0,.494-.494v-.987A3.441,3.441,0,0,0,5.865,151Z" transform="translate(0 -151)" fill="#0f88fc"/>
    </g>
  </g>
</svg>
