<svg xmlns="http://www.w3.org/2000/svg" width="19.315" height="16.228" viewBox="0 0 19.315 16.228">
  <g id="Group_1013" data-name="Group 1013" transform="translate(0)">
    <path id="Path_1588" data-name="Path 1588" d="M3937.47-177.481a6.658,6.658,0,0,1,0,1.7c-.145.108-2.131,3.142-2.131,3.142l-.253.65.686.506,1.192-1.625v5.129a20.264,20.264,0,0,0,2.962,0c.036-.144.108-5.165.253-4.984s.795,1.481.795,1.481l.722-.217s.433-.722.289-.758-2.023-3-2.059-3h-.542l.542-1.084-.289-.939-1.083-.65Z" transform="translate(-3928.861 183.828)" fill="#eda537"/>
    <path id="Path_1589" data-name="Path 1589" d="M3913.592-199.454l.682-.517.983.085,1.219.727s-.193,1.069-.236,1.133-.257.791-.257.791l.641.256,2.073,2.757-.556,1.09-.769-.3-.748-1.261.15,4.445-.428.684-.363.919.363.492s.534.171.428.107a14.4,14.4,0,0,0-.3,2.2l-3.377-.171v-8.42l-1.774,2.2h-.791l-.406-.577.406-.705,2.564-3.462.748-.256-.47-.876v-1.154Z" transform="translate(-3909.859 200.455)" fill="#eceff1"/>
    <path id="Path_1590" data-name="Path 1590" d="M3915.234-199.454l-.682-.517-.983.085-1.218.727s.192,1.069.235,1.133.256.791.256.791l-.641.256-2.073,2.757.556,1.09.769-.3.748-1.261-.15,4.445.427.684.363.919-.363.492s-.534.171-.427.107a14.372,14.372,0,0,1,.3,2.2l3.377-.171v-8.42l1.774,2.2h.791l.406-.577-.406-.705-2.564-3.462-.748-.256.47-.876v-1.154Z" transform="translate(-3899.598 200.216)" fill="#eceff1"/>
    <path id="Path_1587" data-name="Path 1587" d="M19.117,47.9l-.678-.968a.379.379,0,0,0-.62.435l.678.968a.335.335,0,1,1-.549.385L16.392,46.5a.379.379,0,0,0-.689.217v8.33H14.685V50.713a.379.379,0,0,0-.757,0v4.329H12.91v-1.53A1.012,1.012,0,0,0,13.366,52l-.456-.727V46.713a.379.379,0,0,0-.689-.217l-.876,1.251a1.7,1.7,0,0,0-.318-.715L12.6,44.781a.419.419,0,0,1,.343-.179h2.72a.419.419,0,0,1,.343.179l1.811,2.583a.379.379,0,1,0,.62-.435L16.63,44.347a1.177,1.177,0,0,0-.84-.495,1.844,1.844,0,1,0-2.967,0,1.176,1.176,0,0,0-.84.495l-1.539,2.2a1.7,1.7,0,0,0-1.563.015l-1.55-2.213a1.177,1.177,0,0,0-.84-.495,1.844,1.844,0,1,0-2.967,0,1.177,1.177,0,0,0-.84.495L.2,47.9a1.093,1.093,0,1,0,1.79,1.254l.866-1.238v7.507a.379.379,0,0,0,.379.379h3.55a.379.379,0,0,0,.379-.379V53.528a1.012,1.012,0,0,0,.492-.373c.007-.01.014-.021.02-.031l.052-.093v3.733a.379.379,0,0,0,.379.379h3.148a.379.379,0,0,0,.379-.379V53.031l.052.093q.009.016.02.032a1.011,1.011,0,0,0,.451.357v1.909a.379.379,0,0,0,.379.379h3.55a.379.379,0,0,0,.379-.379V47.914l.867,1.238a1.093,1.093,0,0,0,1.79-1.254Zm-4.811-6.226a1.086,1.086,0,1,1-1.086,1.087A1.088,1.088,0,0,1,14.307,41.672Zm-2.154,6.242v2.153l-.369-.589-.011-.016a1.087,1.087,0,0,0-.446-.368Zm-3.11-.549a.94.94,0,0,1,1.251-.016h0a.94.94,0,0,1-.166,1.535A.929.929,0,0,1,9.677,49a.94.94,0,0,1-.634-1.634ZM5.008,41.672a1.086,1.086,0,1,1-1.087,1.087A1.088,1.088,0,0,1,5.008,41.672Zm1.4,5.04v4.629L5.989,52A1.01,1.01,0,0,0,6.4,53.495v1.548H5.386V50.713a.379.379,0,0,0-.757,0v4.329H3.611V46.713a.379.379,0,0,0-.689-.217L1.367,48.718a.337.337,0,0,1-.275.143.335.335,0,0,1-.274-.528L3.3,44.781a.419.419,0,0,1,.343-.179h2.72a.419.419,0,0,1,.343.179l1.6,2.278A1.7,1.7,0,0,0,8,47.792l-.908-1.3a.379.379,0,0,0-.689.217ZM8,49.109a1.084,1.084,0,0,0-.417.354l-.011.016-.41.654v-2.22Zm4.678,3.674a.251.251,0,0,1-.143.046h0a.255.255,0,0,1-.2-.1l-.75-1.332a.379.379,0,0,0-.709.186v4.8h-.817V53.9a.379.379,0,1,0-.757,0v2.489H8.482v-4.8a.379.379,0,0,0-.709-.186l-.75,1.331a.255.255,0,0,1-.2.1H6.807a.247.247,0,0,1-.129-.046.254.254,0,0,1-.062-.354l.011-.016,1.58-2.521a.329.329,0,0,1,.265-.134h2.412a.329.329,0,0,1,.265.134L12.2,51.576l.006.01.518.826.01.016a.253.253,0,0,1,.046.146A.256.256,0,0,1,12.676,52.783Z" transform="translate(0 -40.915)" fill="#0f88fc"/>
  </g>
</svg>
