<svg id="Browser" xmlns="http://www.w3.org/2000/svg" width="37.44" height="37.44" viewBox="0 0 37.44 37.44">
  <rect id="Rectangle_1983" data-name="Rectangle 1983" width="23" height="13" transform="translate(4.44 9.12)" fill="#eda537"/>
  <path id="Path_1473" data-name="Path 1473" d="M34.2,5.5v2.5H3V5.5A2.5,2.5,0,0,1,5.5,3H31.7A2.5,2.5,0,0,1,34.2,5.5Z" transform="translate(-2.376 -2.376)" fill="#eda537"/>
  <path id="Path_1474" data-name="Path 1474" d="M36.616,40.36a3.744,3.744,0,1,0,3.744-3.744A3.744,3.744,0,0,0,36.616,40.36ZM38.725,33.7l.387-2.7h2.5l.387,2.7a6.94,6.94,0,0,1,1.922.792l2.178-1.635,1.766,1.766L46.226,36.8a6.94,6.94,0,0,1,.792,1.922l2.7.387v2.5l-2.7.387a6.94,6.94,0,0,1-.792,1.922l1.635,2.178L46.095,47.86l-2.178-1.635a6.94,6.94,0,0,1-1.922.792l-.387,2.7h-2.5l-.387-2.7a6.94,6.94,0,0,1-1.922-.792L34.625,47.86,32.86,46.095l1.635-2.178a6.94,6.94,0,0,1-.792-1.922L31,41.608v-2.5l2.7-.387a6.94,6.94,0,0,1,.792-1.922L32.86,34.625l1.766-1.766L36.8,34.494A6.94,6.94,0,0,1,38.725,33.7Z" transform="translate(-12.904 -12.904)" fill="#bddbff"/>
  <path id="Path_1475" data-name="Path 1475" d="M49.433,38.118l-2.3-.328a7.438,7.438,0,0,0-.544-1.31l1.392-1.855a.624.624,0,0,0-.058-.816l-1.765-1.768a.624.624,0,0,0-.816-.058l-1.855,1.392a7.438,7.438,0,0,0-1.31-.544l-.328-2.3A.624.624,0,0,0,41.232,30h-2.5a.624.624,0,0,0-.618.535l-.328,2.3a7.438,7.438,0,0,0-1.31.544l-1.855-1.392a.624.624,0,0,0-.816.058l-1.768,1.765a.624.624,0,0,0-.058.816l1.392,1.855a7.438,7.438,0,0,0-.544,1.31l-2.3.328a.624.624,0,0,0-.535.621v2.5a.624.624,0,0,0,.535.618l2.3.328a7.438,7.438,0,0,0,.544,1.31l-1.392,1.855a.624.624,0,0,0,.058.816l1.765,1.768a.624.624,0,0,0,.816.058l1.855-1.392a7.438,7.438,0,0,0,1.31.544l.328,2.3a.624.624,0,0,0,.621.535h2.5a.624.624,0,0,0,.618-.535l.328-2.3a7.438,7.438,0,0,0,1.31-.544l1.855,1.392a.624.624,0,0,0,.816-.058l1.768-1.765a.624.624,0,0,0,.058-.816l-1.392-1.855a7.438,7.438,0,0,0,.544-1.31l2.3-.328a.624.624,0,0,0,.535-.621v-2.5a.624.624,0,0,0-.535-.618Zm-.713,2.573L46.556,41a.624.624,0,0,0-.518.47,6.178,6.178,0,0,1-.723,1.747.624.624,0,0,0,.036.7l1.31,1.747-1,1-1.747-1.31a.624.624,0,0,0-.7-.034,6.178,6.178,0,0,1-1.747.723.624.624,0,0,0-.47.518l-.309,2.163H39.277l-.309-2.164a.624.624,0,0,0-.47-.518,6.178,6.178,0,0,1-1.747-.723.624.624,0,0,0-.7.034l-1.747,1.31-1-1,1.31-1.747a.624.624,0,0,0,.034-.7,6.177,6.177,0,0,1-.723-1.747.624.624,0,0,0-.518-.47l-2.163-.308V39.277l2.164-.309a.624.624,0,0,0,.518-.47,6.177,6.177,0,0,1,.723-1.747.624.624,0,0,0-.034-.7l-1.31-1.747,1-1,1.747,1.31a.624.624,0,0,0,.7.034,6.178,6.178,0,0,1,1.747-.723.624.624,0,0,0,.47-.518l.308-2.163h1.414L41,33.412a.624.624,0,0,0,.47.518,6.178,6.178,0,0,1,1.747.723.624.624,0,0,0,.7-.036l1.747-1.31,1,1-1.31,1.747a.624.624,0,0,0-.034.7,6.177,6.177,0,0,1,.723,1.747.624.624,0,0,0,.518.47l2.163.309Z" transform="translate(-12.528 -12.528)" fill="#0f88fc"/>
  <path id="Path_1476" data-name="Path 1476" d="M43.368,39a4.368,4.368,0,1,0,4.368,4.368A4.368,4.368,0,0,0,43.368,39Zm0,7.488a3.12,3.12,0,1,1,3.12-3.12,3.12,3.12,0,0,1-3.12,3.12Z" transform="translate(-15.912 -15.912)" fill="#0f88fc"/>
  <path id="Path_1477" data-name="Path 1477" d="M3.248,31.328V8.24H33.2V20.72h1.248V5.12A3.124,3.124,0,0,0,31.328,2H5.12A3.124,3.124,0,0,0,2,5.12V31.328a3.124,3.124,0,0,0,3.12,3.12H20.1V33.2H5.12a1.872,1.872,0,0,1-1.872-1.872ZM5.12,3.248H31.328A1.872,1.872,0,0,1,33.2,5.12V6.992H3.248V5.12A1.872,1.872,0,0,1,5.12,3.248Z" transform="translate(-2 -2)" fill="#0f88fc"/>
  <rect id="Rectangle_1984" data-name="Rectangle 1984" width="1" height="1" transform="translate(3.44 3.12)" fill="#0f88fc"/>
  <rect id="Rectangle_1985" data-name="Rectangle 1985" width="2" height="1" transform="translate(5.44 3.12)" fill="#0f88fc"/>
  <rect id="Rectangle_1986" data-name="Rectangle 1986" width="1" height="1" transform="translate(8.44 3.12)" fill="#0f88fc"/>
  <rect id="Rectangle_1987" data-name="Rectangle 1987" width="13" height="1" transform="translate(12.44 3.12)" fill="#0f88fc"/>
  <path id="Path_1478" data-name="Path 1478" d="M32.96,23.488v-6.24A1.248,1.248,0,0,0,31.712,16H9.248A1.248,1.248,0,0,0,8,17.248V28.48a1.248,1.248,0,0,0,1.248,1.248h13.1V28.48H9.248V17.248H31.712v6.24Z" transform="translate(-4.256 -7.264)" fill="#0f88fc"/>
  <rect id="Rectangle_1988" data-name="Rectangle 1988" width="10" height="1" transform="translate(4.44 25.12)" fill="#0f88fc"/>
  <rect id="Rectangle_1989" data-name="Rectangle 1989" width="10" height="1" transform="translate(4.44 28.12)" fill="#0f88fc"/>
  <rect id="Rectangle_1990" data-name="Rectangle 1990" width="2" height="1" transform="translate(15.44 15.12)" fill="#0f88fc"/>
  <rect id="Rectangle_1991" data-name="Rectangle 1991" width="2" height="1" transform="translate(18.44 15.12)" fill="#0f88fc"/>
  <rect id="Rectangle_1992" data-name="Rectangle 1992" width="3" height="1" transform="translate(11.44 15.12)" fill="#0f88fc"/>
  <rect id="Rectangle_1993" data-name="Rectangle 1993" width="1" height="2" transform="translate(26.44 20.12)" fill="#0f88fc"/>
  <rect id="Rectangle_1994" data-name="Rectangle 1994" width="1.248" height="1.248" transform="translate(22.161 23.044) rotate(-45)" fill="#0f88fc"/>
  <rect id="Rectangle_1995" data-name="Rectangle 1995" width="2" height="1" transform="translate(20.44 27.12)" fill="#0f88fc"/>
  <rect id="Rectangle_1996" data-name="Rectangle 1996" width="1.248" height="1.248" transform="translate(22.161 31.868) rotate(-45)" fill="#0f88fc"/>
  <rect id="Rectangle_1997" data-name="Rectangle 1997" width="1" height="1" transform="translate(26.44 33.12)" fill="#0f88fc"/>
  <rect id="Rectangle_1998" data-name="Rectangle 1998" width="1.248" height="1.248" transform="translate(30.986 31.868) rotate(-45)" fill="#0f88fc"/>
  <rect id="Rectangle_1999" data-name="Rectangle 1999" width="2" height="1" transform="translate(32.44 27.12)" fill="#0f88fc"/>
  <rect id="Rectangle_2000" data-name="Rectangle 2000" width="1.248" height="1.248" transform="translate(30.986 23.044) rotate(-45)" fill="#0f88fc"/>
</svg>
