<svg xmlns="http://www.w3.org/2000/svg" width="79.284" height="79.265" viewBox="0 0 79.284 79.265">
  <g id="Group_3514" data-name="Group 3514" transform="translate(-53.713 -837.343)">
    <g id="Ellipse_6_copy_6" data-name="Ellipse 6 copy 6" transform="translate(53.713 837.343)" fill="#fff" stroke="#fea25e" stroke-width="0.667">
      <ellipse cx="39.642" cy="39.632" rx="39.642" ry="39.632" stroke="none"/>
      <ellipse cx="39.642" cy="39.632" rx="39.309" ry="39.299" fill="none"/>
    </g>
    <g id="pregnant" transform="translate(71.937 857.485)">
      <path id="Path_1574" data-name="Path 1574" d="M82.876,28.467H78.038l-3.894-5.292a2,2,0,0,0-2.422-.647l-4.37,1.924a2.665,2.665,0,0,1-.942.485l-6.5,1.831a1.888,1.888,0,0,1-2.013-.677l-3.153-4.175,3.879,3.331a1.57,1.57,0,0,0,1.448.32l6.036-1.7a1.57,1.57,0,1,0-.852-3.021l-5.226,1.473-3.24-2.782L59.881,21.2l5.074-1.43a2.683,2.683,0,0,1,3.209,1.562,1.515,1.515,0,0,0,.373-.073l5.773-1.915a1.5,1.5,0,0,0,.822-.663l2.147-3.63-1.159,4.214c-.271.985-1.241,1.06-1.448,1.168l-2.27.752a3.178,3.178,0,0,1,2.688,1.292l3.633,4.937H82.7L79.942,12.34a1.981,1.981,0,0,0-1.9-1.69H74.694a1.984,1.984,0,0,0-1.9,1.69l-.609,3.332,2.5-2.149-1.86,3.145L67.589,18.4a1.5,1.5,0,0,0-1.005,1.159,7.089,7.089,0,0,0-1.359-.649V11.26h1.443a1.183,1.183,0,0,0,1.183-1.183V1.183A1.183,1.183,0,0,0,66.667,0H51.18A1.183,1.183,0,0,0,50,1.183V8.914a4.451,4.451,0,0,1,5.279,2.346h8.3v7.03a8.279,8.279,0,0,0-4.026.263l-3.1-2.214a2.147,2.147,0,0,0-2.754.233L51.3,18.959a2.064,2.064,0,0,0-.154,2.646l6.362,9.26a3.59,3.59,0,0,0,2.959,1.557H82.918a1.958,1.958,0,0,0,2.005-1.96,2.033,2.033,0,0,0-2.047-1.995ZM59.341,8.534H56.352a1.439,1.439,0,0,1-1.114-2.35V5.312l-.823-.864A.96.96,0,0,1,55.8,3.124l1.088,1.142a.961.961,0,0,1,.265.662v.727h.889l.02-1.979a.959.959,0,0,1,.959-.95h.01a.959.959,0,0,1,.95.969l-.021,2.1a1.438,1.438,0,0,1-.623,2.736Zm3.068-1.915A1.779,1.779,0,1,1,64.188,4.84a1.779,1.779,0,0,1-1.779,1.779Zm6.225,21.848,3.233-1.621,1.192,1.621Zm0,0" transform="translate(-45.865 0)" fill="#fea25e"/>
      <path id="Path_1575" data-name="Path 1575" d="M292.636,48.279a3.322,3.322,0,1,0-3.322,3.322A3.322,3.322,0,0,0,292.636,48.279Zm0,0" transform="translate(-262.359 -41.242)" fill="#fea25e"/>
      <path id="Path_1576" data-name="Path 1576" d="M30.321,120.951a3.475,3.475,0,1,1-3.475-3.475A3.475,3.475,0,0,1,30.321,120.951Zm0,0" transform="translate(-21.44 -107.769)" fill="#fea25e"/>
      <path id="Path_1577" data-name="Path 1577" d="M14,254.814A3.657,3.657,0,0,1,11,253.24L3.007,241.716A1.651,1.651,0,0,0,.294,243.6l7.775,11.217H.724a.676.676,0,0,0-.676.676v3.189a.676.676,0,0,0,.676.676H41.633a.676.676,0,0,0,.676-.676v-3.189a.676.676,0,0,0-.676-.676Zm0,0" transform="translate(0 -221.091)" fill="#fea25e"/>
    </g>
  </g>
</svg>
