<svg xmlns="http://www.w3.org/2000/svg" width="17" height="21.631" viewBox="0 0 17 21.631">
  <g id="headache" transform="translate(-54.804 0)">
    <g id="Group_1237" data-name="Group 1237" transform="translate(56.71 0.338)">
      <path id="Path_1813" data-name="Path 1813" d="M105.682,14.821a7.148,7.148,0,0,1-1.2-4.03,3.072,3.072,0,0,0,1.312,0C107,10.465,108.188,8.073,110.279,8s2.5.906,2.5.906a3.176,3.176,0,0,1,1.917-.3c1.719.232,3.229,2.851,1.694,6.448" transform="translate(-104.29 -8)" fill="#eda537"/>
      <path id="Path_1814" data-name="Path 1814" d="M169,79.737a15.241,15.241,0,0,1-1.911-2.377.211.211,0,0,0-.332-.023,9.036,9.036,0,0,1-4.839,2.642.633.633,0,0,0-.511.622v1.968a4,4,0,1,0,7.993,0V80.66A1.255,1.255,0,0,0,169,79.737Z" transform="translate(-158.806 -74.341)" fill="#eceff1"/>
      <path id="Path_1815" data-name="Path 1815" d="M119.614,167.276v-1.411a1.245,1.245,0,1,0,.067,2.143,4.021,4.021,0,0,1-.067-.731Z" transform="translate(-117.017 -159.048)" fill="#eceff1"/>
      <path id="Path_1816" data-name="Path 1816" d="M349.078,167.276v-1.411a1.245,1.245,0,1,1-.067,2.143A4.019,4.019,0,0,0,349.078,167.276Z" transform="translate(-338.488 -159.048)" fill="#eceff1"/>
      <path id="Path_1820" data-name="Path 1820" d="M108.385,286.343a4,4,0,0,1-3.743,0,5.949,5.949,0,0,0-4.722,5.82v3.375h13.188v-3.375A5.949,5.949,0,0,0,108.385,286.343Z" transform="translate(-99.919 -274.584)" fill="#eda537"/>
      <path id="Path_1822" data-name="Path 1822" d="M213.139,286.658a3.978,3.978,0,0,1-1.884-.471c0,.049-.006.1-.006.149a1.891,1.891,0,0,0,3.781,0c0-.05,0-.1-.006-.149A3.978,3.978,0,0,1,213.139,286.658Z" transform="translate(-206.545 -274.434)" fill="#eceff1"/>
      <path id="Path_1823" data-name="Path 1823" d="M340.362,458.367h3.03v1.928h-3.03Z" transform="translate(-330.204 -439.34)" fill="#eceff1"/>
      <path id="Path_1824" data-name="Path 1824" d="M0,0H3.03V1.928H0Z" transform="translate(3.03 20.955) rotate(180)" fill="#eceff1"/>
    </g>
    <g id="Group_1238" data-name="Group 1238" transform="translate(54.804 0)">
      <path id="Path_1827" data-name="Path 1827" d="M97.213,21H95.766V17.566a.318.318,0,0,0-.636,0v1.5h-2.4V17.931a5.642,5.642,0,0,1,4.093-5.425,2.211,2.211,0,0,0,4.391,0,5.638,5.638,0,0,1,2.258,1.261.318.318,0,0,0,.429-.469,6.277,6.277,0,0,0-2.241-1.319,4.335,4.335,0,0,0,1.517-2.239,1.564,1.564,0,0,0,1.72-2.406,6.05,6.05,0,0,0,0-5.217A2.84,2.84,0,0,0,102.877.612a3.677,3.677,0,0,0-1.855.216,1.858,1.858,0,0,0-.4-.345A3.963,3.963,0,0,0,96.1.972a.318.318,0,1,0,.4.5A3.227,3.227,0,0,1,98.424.639c1.75-.059,2.169.662,2.2.716a.3.3,0,0,0,.188.181.314.314,0,0,0,.267-.033,2.863,2.863,0,0,1,1.716-.261,2.216,2.216,0,0,1,1.557,1.19,5.175,5.175,0,0,1,.044,4.447,1.555,1.555,0,0,0-1.052-.177V6.65a1.579,1.579,0,0,0-.5-1.159,15.013,15.013,0,0,1-1.866-2.325.529.529,0,0,0-.831-.061,8.8,8.8,0,0,1-4.675,2.55.954.954,0,0,0-.769.935V6.7a1.553,1.553,0,0,0-.771.053,7.037,7.037,0,0,1-1-3.269A3.06,3.06,0,0,0,94,3.421,4.209,4.209,0,0,0,95.578,2.3a.318.318,0,1,0-.439-.46,3.868,3.868,0,0,1-1.3.967,2.772,2.772,0,0,1-1.159,0,.318.318,0,0,0-.391.3,7.548,7.548,0,0,0,1.086,3.964A1.564,1.564,0,0,0,94.861,9.74a4.335,4.335,0,0,0,1.517,2.239,6.277,6.277,0,0,0-4.283,5.952v3.382a.318.318,0,0,0,.318.318h4.8a.318.318,0,0,0,0-.636Zm6.128-12.434V7.355a.929.929,0,1,1-.035,1.759A4.336,4.336,0,0,0,103.341,8.561Zm-8.926.608A.929.929,0,1,1,94.7,7.355V8.561a4.343,4.343,0,0,0,.035.553A.926.926,0,0,1,94.415,9.17Zm4.6,4.649A1.579,1.579,0,0,1,97.485,12.6a4.32,4.32,0,0,0,3.069,0,1.579,1.579,0,0,1-1.535,1.217ZM95.333,8.561V6.59a.317.317,0,0,1,.255-.311,9.481,9.481,0,0,0,4.932-2.647,15.136,15.136,0,0,0,1.888,2.327.941.941,0,0,1,.3.692V8.561a3.686,3.686,0,0,1-7.373,0ZM95.131,21h-2.4V19.7h2.4V21Z" transform="translate(-90.52 0)" fill="#0f88fc"/>
      <path id="Path_1828" data-name="Path 1828" d="M242.009,336.939a.318.318,0,0,0-.081.442,5.607,5.607,0,0,1,1,3.2v1.132h-2.4v-1.5a.318.318,0,0,0-.636,0v3.429H236.1a.318.318,0,0,0,0,.636h7.143a.318.318,0,0,0,.318-.318v-3.382a6.24,6.24,0,0,0-1.108-3.562A.318.318,0,0,0,242.009,336.939Zm.914,6.706h-2.4v-1.3h2.4Z" transform="translate(-228.134 -322.65)" fill="#0f88fc"/>
      <path id="Path_1829" data-name="Path 1829" d="M227.308,215.584a.318.318,0,0,0,.318-.318.59.59,0,0,1,1.18,0,.318.318,0,1,0,.636,0,1.226,1.226,0,1,0-2.451,0A.318.318,0,0,0,227.308,215.584Z" transform="translate(-219.716 -204.998)" fill="#0f88fc"/>
      <path id="Path_1830" data-name="Path 1830" d="M195.949,163.542a.318.318,0,0,0,.433.121l.819-.461a.318.318,0,0,0-.01-.559l-.819-.423a.318.318,0,0,0-.291.565l.3.152-.305.172A.318.318,0,0,0,195.949,163.542Z" transform="translate(-189.947 -155.333)" fill="#0f88fc"/>
      <path id="Path_1831" data-name="Path 1831" d="M282.954,163.109l-.305-.172.3-.152a.318.318,0,0,0-.291-.565l-.819.423a.318.318,0,0,0-.01.559l.819.461a.318.318,0,1,0,.312-.554Z" transform="translate(-272.078 -155.333)" fill="#0f88fc"/>
      <path id="Path_1832" data-name="Path 1832" d="M332.442,48.85a.318.318,0,0,0-.436.109l-.545.91a.318.318,0,0,0,.273.481h.3l-.21.349a.318.318,0,1,0,.545.327l.5-.831a.318.318,0,0,0-.272-.481h-.306l.257-.429A.318.318,0,0,0,332.442,48.85Z" transform="translate(-319.73 -46.743)" fill="#0f88fc"/>
      <path id="Path_1833" data-name="Path 1833" d="M174.776,58.4a.318.318,0,0,0-.436.109l-.545.91a.318.318,0,0,0,.273.481h.3l-.21.349a.318.318,0,1,0,.545.327l.5-.831a.318.318,0,0,0-.272-.481h-.306l.257-.429A.318.318,0,0,0,174.776,58.4Z" transform="translate(-168.725 -55.887)" fill="#0f88fc"/>
      <path id="Path_1834" data-name="Path 1834" d="M423.107,138.489a.318.318,0,0,0-.277-.161h-.306l.257-.429a.318.318,0,0,0-.545-.327l-.545.91a.318.318,0,0,0,.273.481h.3l-.21.349a.318.318,0,1,0,.545.327l.5-.831A.318.318,0,0,0,423.107,138.489Z" transform="translate(-406.148 -131.613)" fill="#0f88fc"/>
      <path id="Path_1835" data-name="Path 1835" d="M55.988,138.329h-.306l.257-.429a.318.318,0,0,0-.545-.327l-.545.91a.318.318,0,0,0,.273.481h.3l-.21.349a.318.318,0,0,0,.545.327l.5-.831a.318.318,0,0,0-.272-.482Z" transform="translate(-54.804 -131.614)" fill="#0f88fc"/>
      <path id="Path_1836" data-name="Path 1836" d="M302.58,130.716a.318.318,0,0,0,.318-.318v-.307a.318.318,0,0,0-.636,0v.307A.318.318,0,0,0,302.58,130.716Z" transform="translate(-291.808 -124.29)" fill="#0f88fc"/>
      <path id="Path_1837" data-name="Path 1837" d="M280.591,110.3a.318.318,0,0,0,.318-.318v-.307a.318.318,0,1,0-.636,0v.307A.318.318,0,0,0,280.591,110.3Z" transform="translate(-270.748 -104.742)" fill="#0f88fc"/>
      <path id="Path_1838" data-name="Path 1838" d="M256.026,127.082a.318.318,0,0,0,.318-.318v-.307a.318.318,0,1,0-.636,0v.307A.318.318,0,0,0,256.026,127.082Z" transform="translate(-247.22 -120.81)" fill="#0f88fc"/>
    </g>
  </g>
</svg>
