<svg id="heart-rate" xmlns="http://www.w3.org/2000/svg" width="10.417" height="9.622" viewBox="0 0 10.417 9.622">
  <path id="Path_1517" data-name="Path 1517" d="M3.023,23.973a.305.305,0,0,1,.305.305v1.135a.3.3,0,1,0,.6,0v-1.8a.909.909,0,0,1,1.817,0v.845a.3.3,0,1,0,.6,0V23.2a.909.909,0,0,1,1.814-.07h2.24a3.184,3.184,0,0,0,.025-.375A2.974,2.974,0,0,0,7.735,19.55a2.761,2.761,0,0,0-2.526,2.138A2.761,2.761,0,0,0,2.682,19.55,2.988,2.988,0,0,0,0,22.758a3.576,3.576,0,0,0,.22,1.215Z" transform="translate(0 -19.55)" fill="#0f88fc"/>
  <path id="Path_1518" data-name="Path 1518" d="M31.181,185.287a.305.305,0,0,1-.305-.305v-.226a.3.3,0,0,0-.283-.306.3.3,0,0,0-.313.3v1.236a.922.922,0,0,1-.924.925.91.91,0,0,1-.893-.908v-.836a.3.3,0,0,0-.283-.306.3.3,0,0,0-.313.3v1.786a.922.922,0,0,1-.924.925.91.91,0,0,1-.893-.908v-.83H23.815a14.473,14.473,0,0,0,4.4,4.489.571.571,0,0,0,.647,0c1-.689,4.011-2.929,4.73-5.327Z" transform="translate(-23.33 -181.094)" fill="#0f88fc"/>
</svg>
