<svg id="heart" xmlns="http://www.w3.org/2000/svg" width="63.563" height="55.611" viewBox="0 0 63.563 55.611">
  <path id="Path_8481" data-name="Path 8481" d="M14.527-468.694a16.347,16.347,0,0,0-9.3,4.974A17.808,17.808,0,0,0,.7-455.027a20.172,20.172,0,0,0,0,6.914,16.132,16.132,0,0,0,1.554,4.29,20.45,20.45,0,0,0,4.315,5.484c14.177,14.413,24.461,24.785,24.723,24.922a2.351,2.351,0,0,0,1.791,0c.448-.236,26.153-26.277,27.1-27.459a16.926,16.926,0,0,0,3.557-7.561,21.313,21.313,0,0,0-.062-6.591,17.558,17.558,0,0,0-9.29-12.212,15.014,15.014,0,0,0-6.715-1.592,14.891,14.891,0,0,0-5.857.771c-2.985.995-5.049,2.388-7.971,5.4L32.2-460.972l-1.841-1.865a19.389,19.389,0,0,0-5.571-4.29,13.624,13.624,0,0,0-7.088-1.679A17.854,17.854,0,0,0,14.527-468.694Z" transform="translate(-0.4 468.85)" fill="#f64646"/>
</svg>
