<svg xmlns="http://www.w3.org/2000/svg" width="18" height="16.875" viewBox="0 0 18 16.875">
  <g id="stay-at-home" transform="translate(0 496)">
    <path id="Path_1992" data-name="Path 1992" d="M8.643-495.884c-.084.063-2.026,1.625-4.318,3.467C-.043-488.907,0-488.942,0-488.675a.682.682,0,0,0,.26.482.68.68,0,0,0,.584.011c.049-.032.524-.411,1.055-.837s2.349-1.888,4.037-3.246L9-494.734l3.246,2.609c1.783,1.435,3.559,2.862,3.946,3.175,1.076.872,1.013.826,1.238.826a.494.494,0,0,0,.5-.3.5.5,0,0,0-.007-.52c-.053-.084-1.484-1.259-4.35-3.562-2.349-1.892-4.308-3.45-4.353-3.467A.909.909,0,0,0,8.967-496,.435.435,0,0,0,8.643-495.884Z" transform="translate(0 0)" fill="#1089fe"/>
    <path id="Path_1993" data-name="Path 1993" d="M60.079-414.693c-1.575,1.269-3.14,2.525-3.471,2.8l-.608.489v4.033c0,3.97,0,4.034.07,4.174a.673.673,0,0,0,.169.215c.095.07.158.07,6.759.081,6.442.007,6.667.007,6.787-.056a.576.576,0,0,0,.2-.218l.081-.151V-411.4l-.271-.225c-.151-.127-.883-.717-1.628-1.315s-2.184-1.755-3.2-2.571A19.269,19.269,0,0,0,63.033-417C62.97-417,62.15-416.36,60.079-414.693Zm3.552,1.2a2.819,2.819,0,0,1,1.006.5,2.73,2.73,0,0,1,.876,1.452,5.714,5.714,0,0,1,0,1.568,2.933,2.933,0,0,1-.5,1.076,1.989,1.989,0,0,0-.179.267c0,.042.109.151.3.3a3.433,3.433,0,0,1,1.143,1.688,19.514,19.514,0,0,1,.313,2.535c-.028.077-.042.081-.538.081a1.608,1.608,0,0,1-.535-.039c-.014-.021-.077-.485-.141-1.03s-.144-1.083-.176-1.2a2.321,2.321,0,0,0-1.614-1.582,3.143,3.143,0,0,0-1.044-.014,3.093,3.093,0,0,0-.513.193,2.206,2.206,0,0,0-1.136,1.3,8.876,8.876,0,0,0-.186,1.234,8.86,8.86,0,0,1-.162,1.08c-.035.042-.141.053-.531.053-.44,0-.489-.007-.52-.067a20.217,20.217,0,0,1,.257-2.409,3.484,3.484,0,0,1,1.224-1.874c.158-.123.239-.215.239-.264a.925.925,0,0,0-.162-.288A2.855,2.855,0,0,1,60.55-410a3.577,3.577,0,0,1-.039-.879,2.48,2.48,0,0,1,.278-1.3,2.039,2.039,0,0,1,.482-.633,2.257,2.257,0,0,1,1.111-.668A3.24,3.24,0,0,1,63.631-413.5Z" transform="translate(-54.031 -76.222)" fill="#1089fe"/>
    <path id="Path_1994" data-name="Path 1994" d="M216.914-286.777a1.3,1.3,0,0,0-.647.5,1.632,1.632,0,0,0-.267,1.094,1.632,1.632,0,0,0,.267,1.094,1.257,1.257,0,0,0,.542.447.973.973,0,0,0,.6.113,1,1,0,0,0,.6-.109,1.369,1.369,0,0,0,.753-.911,3.644,3.644,0,0,0,0-1.266,1.368,1.368,0,0,0-.753-.911,1.1,1.1,0,0,0-.563-.12A1.01,1.01,0,0,0,216.914-286.777Z" transform="translate(-208.405 -201.792)" fill="#1089fe"/>
  </g>
</svg>
