<svg xmlns="http://www.w3.org/2000/svg" width="55.902" height="54.962" viewBox="0 0 55.902 54.962">
  <g id="Home_Isolation" data-name="Home Isolation" transform="translate(-3884.104 274.211)">
    <path id="Path_1878" data-name="Path 1878" d="M3913.611-270.732l-7.605,2.847v8.023l1.941,3.753,5.664,5.262,5.335-4.4,2.028-4.141.3-8.713Z" transform="translate(-1.556 -2.303)" fill="#eda537"/>
    <path id="Path_1877" data-name="Path 1877" d="M3929.355-238.762v25.493h-40.371v-25.493l15.542-11.562,1.611,1.516,3.127,2.843,3.412-2.274,2.179-2.085Z" transform="translate(2.513 -7.182)" fill="#eceff1"/>
    <g id="stay-at-home-_1_" transform="translate(3884.353 -274)">
      <path id="Path_1875" data-name="Path 1875" d="M27.559-507.415c-.725.216-7.523,2.62-7.686,2.706a.666.666,0,0,0-.281.292c-.054.108-.119,1.8-.152,3.767l-.054,3.572-9.58,6.95c-7.989,5.813-9.591,7.015-9.613,7.242a25.209,25.209,0,0,0,.92,3.247c.866,2.706.974,2.966,1.169,2.912l.444-.119c.184-.043.281.011.433.271a1.02,1.02,0,0,0,.26.336c.032,0,.693-.466,1.461-1.028A17.923,17.923,0,0,1,6.374-478.3c.043,0,.076,5.7.076,12.665v12.665l21.2-.022,21.184-.032.032-12.849.022-12.86,1.635,1.2c.9.66,1.7,1.223,1.764,1.245s.216-.108.325-.292c.152-.26.249-.314.433-.271l.444.119c.195.054.3-.195,1.169-2.89.52-1.624.942-3.085.942-3.237,0-.249-.877-.92-7.166-5.488-3.951-2.858-8.27-6-9.613-6.982l-2.436-1.764-.054-3.572a23.8,23.8,0,0,0-.184-3.8c-.162-.271-.119-.249-4.579-1.8C27.754-507.578,27.916-507.524,27.559-507.415Zm3.713,2.89,3.323,1.158v3.475c0,3.81-.076,4.427-.639,5.64a17.593,17.593,0,0,1-4.557,5.467,13.18,13.18,0,0,1-1.115.844l-.411.249-.606-.411a18.547,18.547,0,0,1-5.348-5.943c-.682-1.375-.747-1.894-.747-5.845v-3.464l3.28-1.158c1.8-.628,3.323-1.158,3.377-1.158S29.431-505.164,31.272-504.525Zm-11.507,9.71a10.694,10.694,0,0,0,1.115,2.468,8.794,8.794,0,0,1,.509.888c0,.076-17.677,12.925-17.894,13.012-.119.043-.292-.368-.769-1.829-.336-1.05-.606-1.949-.606-2,0-.162,17.428-12.806,17.547-12.73A.246.246,0,0,1,19.765-494.815Zm25.2,6.105c4.774,3.475,8.682,6.365,8.682,6.43s-.271.953-.606,2c-.455,1.418-.649,1.873-.758,1.829-.206-.076-17.9-12.947-17.9-13.012a10.208,10.208,0,0,1,.541-.953,12.461,12.461,0,0,0,1.137-2.533c.032-.087.1-.13.141-.108S40.192-492.185,44.965-488.71Zm-19.03,1.775a4.321,4.321,0,0,0,1.948,1.061c.649,0,2.219-1.137,4.059-2.934l1.3-1.277,6.96,5.055,6.95,5.044-.022,12.622L47.1-454.752H36.814l-.065-3.356c-.065-3.5-.087-3.637-.617-5.012a9.527,9.527,0,0,0-4.287-4.731l-.682-.357.649-.465a7,7,0,0,0,2.62-6.971,7.187,7.187,0,0,0-5.088-5.3,8.928,8.928,0,0,0-3.432,0,7.17,7.17,0,0,0-5.012,5.034,7.969,7.969,0,0,0-.011,3.356,7.452,7.452,0,0,0,2.739,4.027l.487.325-.8.433a9.242,9.242,0,0,0-4.482,5.553c-.292.953-.292,1.061-.346,4.243l-.043,3.28H8.182V-479.66l4.8-3.475c2.63-1.916,5.856-4.265,7.166-5.218l2.381-1.721,1.3,1.267C24.539-488.114,25.491-487.27,25.935-486.934Zm3.594,7.87a5.393,5.393,0,0,1,3.009,3.128,5.213,5.213,0,0,1-1.386,5.553,5.183,5.183,0,0,1-8.692-3.789,5.158,5.158,0,0,1,3.691-5.044A6.892,6.892,0,0,1,29.529-479.065Zm.357,12.286a7.4,7.4,0,0,1,4.925,5.218,14.271,14.271,0,0,1,.216,3.854v3.009H20.2v-2.814c0-3.367.1-4.016.823-5.51a7.633,7.633,0,0,1,3.94-3.626A7.734,7.734,0,0,1,29.886-466.778Z" transform="translate(-0.192 507.466)" fill="#0f88fc" stroke="#0f88fc" stroke-width="0.5"/>
      <path id="Path_1876" data-name="Path 1876" d="M222.04-435.857c-1.386,1.18-2.576,2.176-2.641,2.219s-.465-.325-.963-.931c-.465-.541-.942-1.083-1.061-1.191a.865.865,0,0,0-1.375.671c0,.271.271.66,1.353,1.948,1.407,1.678,1.667,1.873,2.165,1.613.39-.206,6.084-5.055,6.159-5.239a.877.877,0,0,0-.769-1.234C224.628-438,224.14-437.632,222.04-435.857Z" transform="translate(-192.639 445.52)" fill="#0f88fc" stroke="#0f88fc" stroke-width="0.5"/>
    </g>
  </g>
</svg>
