<svg id="hospital" xmlns="http://www.w3.org/2000/svg" width="12.447" height="10.808" viewBox="0 0 12.447 10.808">
  <path id="Path_1148" data-name="Path 1148" d="M2.554,168.773H0V176.3H2.554ZM1.687,173.7H.866v-.729h.821Zm0-1.642H.866v-.729h.821Zm-.821-1.642v-.729h.821v.729Z" transform="translate(0 -165.49)" fill="#0f88fc"/>
  <path id="Path_1149" data-name="Path 1149" d="M406.954,176.3h2.554v-7.525h-2.554Zm.867-6.612h.821v.729h-.821Zm0,1.642h.821v.729h-.821Zm.821,1.642v.729h-.821v-.729Z" transform="translate(-397.061 -165.49)" fill="#0f88fc"/>
  <path id="Path_1150" data-name="Path 1150" d="M203.477,438.865h.912v.958h-.912Z" transform="translate(-198.53 -429.015)" fill="#0f88fc"/>
  <path id="Path_1151" data-name="Path 1151" d="M271,438.865h.912v.958H271Z" transform="translate(-264.412 -429.015)" fill="#0f88fc"/>
  <path id="Path_1152" data-name="Path 1152" d="M135.046,44.522h.934V42.834h4.012v1.688h.934V33.714h-5.881Zm3.351-2.6h-.821v-.729h.821Zm0-1.642h-.821v-.729h.821Zm0-1.642h-.821V37.91h.821Zm1.642,3.283h-.821v-.729h.821Zm0-1.642h-.821v-.729h.821Zm0-1.642h-.821V37.91h.821Zm-3.283-3.191h.867v-.867h.729v.867h.867v.729h-.867v.867h-.729v-.867h-.867Zm-.821,2.461h.821v.729h-.821Zm0,1.642h.821v.729h-.821Zm0,1.642h.821v.729h-.821Z" transform="translate(-131.763 -33.714)" fill="#0f88fc"/>
</svg>
