<svg xmlns="http://www.w3.org/2000/svg" width="62.423" height="62.442" viewBox="0 0 62.423 62.442">
  <g id="Group_1220" data-name="Group 1220" transform="translate(-39.785 -251.469)">
    <g id="Rounded_Rectangle_7" data-name="Rounded Rectangle 7" transform="translate(39.785 251.469)" fill="#fff" stroke="#7cc27c" stroke-width="0.333">
      <rect width="62.423" height="62.442" rx="8.33" stroke="none"/>
      <rect x="0.167" y="0.167" width="62.09" height="62.109" rx="8.163" fill="none"/>
    </g>
    <g id="image_1_" data-name="image (1)" transform="translate(54.34 267.965)">
      <path id="Path_508" data-name="Path 508" d="M24.321,189.473a3.1,3.1,0,0,1-.787-.1L2.288,183.658a3.134,3.134,0,0,1-2.187-3.8l2.335-8.994a1.031,1.031,0,1,1,1.994.523l-2.336,9a1.054,1.054,0,0,0,.734,1.279l21.233,5.71a1.023,1.023,0,0,0,1.252-.726l.725-2.939a1.031,1.031,0,1,1,2,.5l-.728,2.953a3.1,3.1,0,0,1-2.99,2.318Zm0,0" transform="translate(0 -159.23)" fill="#7cc27c"/>
      <path id="Path_509" data-name="Path 509" d="M109.809,22.566H88.424a3.107,3.107,0,0,1-3.1-3.1V3.6a3.107,3.107,0,0,1,3.1-3.1h21.385a3.107,3.107,0,0,1,3.1,3.1V19.462A3.107,3.107,0,0,1,109.809,22.566ZM88.424,2.561A1.035,1.035,0,0,0,87.389,3.6V19.462A1.035,1.035,0,0,0,88.424,20.5h21.385a1.035,1.035,0,0,0,1.035-1.035V3.6a1.035,1.035,0,0,0-1.035-1.035Zm0,0" transform="translate(-79.921 -0.492)" fill="#7cc27c"/>
      <path id="Path_510" data-name="Path 510" d="M152.079,70.011a2.759,2.759,0,1,1,2.759-2.759A2.762,2.762,0,0,1,152.079,70.011Zm0-3.449a.69.69,0,1,0,.69.69A.69.69,0,0,0,152.079,66.561Zm0,0" transform="translate(-139.705 -60.353)" fill="#7cc27c"/>
      <path id="Path_511" data-name="Path 511" d="M86.788,126.844a1.035,1.035,0,0,1-.731-1.767l6.236-6.236a2.421,2.421,0,0,1,3.422,0l1.668,1.668,5.124-6.151a2.414,2.414,0,0,1,1.843-.871,2.219,2.219,0,0,1,1.85.849l6.868,8.013A1.035,1.035,0,0,1,111.5,123.7l-6.87-8.016a.414.414,0,0,0-.265-.123.347.347,0,0,0-.265.126l-5.85,7.023a1.033,1.033,0,0,1-.748.371,1.014,1.014,0,0,1-.778-.3l-2.469-2.47a.3.3,0,0,0-.5,0l-6.236,6.235a1.028,1.028,0,0,1-.731.3Zm0,0" transform="translate(-80.327 -106.224)" fill="#7cc27c"/>
    </g>
  </g>
</svg>
