<svg id="investigation" xmlns="http://www.w3.org/2000/svg" width="17.396" height="17.396" viewBox="0 0 17.396 17.396">
  <path id="Path_1136" data-name="Path 1136" d="M13.145,46.2l.272.917,4.689-.272.136-.68,3.7.544.2,2.99.34,1.053a9.313,9.313,0,0,1,.374,1.155c0,.17.17,1.053.2,1.529a5.305,5.305,0,0,1-.374,1.937,5.277,5.277,0,0,1-.747.68s.136,1.427.136,1.733a5.355,5.355,0,0,1,0,1.529c-.136.849-.034.883-.306,1.189s.17.476-.544.612a4.27,4.27,0,0,1-1.6.2c-1.189,0-9.615-.1-9.615-.1L9.1,60.372,9,47.393l.646-.781,1.8-.612Z" transform="translate(-8.694 -44.437)" fill="#eceff1"/>
  <g id="Group_614" data-name="Group 614">
    <path id="Path_1137" data-name="Path 1137" d="M120.51,121.019h4.825a.51.51,0,0,0,0-1.019H120.51a.51.51,0,0,0,0,1.019Z" transform="translate(-115.923 -115.923)" fill="#0f88fc"/>
    <path id="Path_1138" data-name="Path 1138" d="M16.947,12,14.81,9.863A3.564,3.564,0,0,0,14,6.17V3.228A1.872,1.872,0,0,0,12.13,1.359H9.921V.612A.613.613,0,0,0,9.309,0H4.689a.613.613,0,0,0-.612.612v.747H1.869A1.872,1.872,0,0,0,0,3.228v12.3A1.872,1.872,0,0,0,1.869,17.4H12.13A1.872,1.872,0,0,0,14,15.527V13.373l.788.788A1.528,1.528,0,1,0,16.947,12ZM11.96,2.378h.17a.85.85,0,0,1,.849.849V5.44A3.66,3.66,0,0,0,11.96,5.13ZM5.1,1.019H8.9V2.039H5.1ZM3.058,2.378H4.077v.17a.509.509,0,0,0,.51.51H9.411a.509.509,0,0,0,.51-.51v-.17H10.94V5.134a3.557,3.557,0,0,0-1.984.982H4.587a.51.51,0,0,0,0,1.019H8.226a3.66,3.66,0,0,0-.309,1.019H4.587a.51.51,0,0,0,0,1.019H7.92a3.447,3.447,0,0,0,.309,1.019h-1.6a.51.51,0,1,0,0,1.019H8.956a3.557,3.557,0,0,0,1.984.982v2.144H5.776V12.13a.509.509,0,0,0-.51-.51H3.058Zm1.7,10.261v.979l-.979-.979Zm-1.7.72.979.979H3.058Zm9.921,2.168a.85.85,0,0,1-.849.849H1.869a.85.85,0,0,1-.849-.849V3.228a.85.85,0,0,1,.849-.849h.17V14.848a.509.509,0,0,0,.51.51h8.9a.509.509,0,0,0,.51-.51V12.194a3.591,3.591,0,0,0,.69-.17l.33.33ZM11.45,11.212A2.548,2.548,0,1,1,14,8.664,2.549,2.549,0,0,1,11.45,11.212Zm4.777,2.229a.509.509,0,0,1-.72,0l-1.92-1.92a3.617,3.617,0,0,0,.72-.72l1.92,1.923a.5.5,0,0,1,0,.717Z" fill="#0f88fc"/>
  </g>
  <rect id="Rectangle_1943" data-name="Rectangle 1943" width="4" height="1" transform="translate(4.739 1.212)" fill="#eda537"/>
  <circle id="Ellipse_67" data-name="Ellipse 67" cx="2.314" cy="2.314" r="2.314" transform="translate(9.163 6.347)" fill="#eda537"/>
</svg>
