<svg xmlns="http://www.w3.org/2000/svg" width="19.996" height="20.176" viewBox="0 0 19.996 20.176">
  <g id="isolation" transform="translate(-14.439 498.663)">
    <path id="Path_1906" data-name="Path 1906" d="M24.124-498.635a2.991,2.991,0,0,0-.435.124c-.241.087-.39.232-4.59,4.433-4.072,4.068-4.35,4.354-4.47,4.611a1.685,1.685,0,0,0,.3,1.97,1.735,1.735,0,0,0,1.518.527c.6-.112.361.1,4.35-3.886l3.662-3.653,3.616,3.612c3.375,3.367,3.641,3.624,3.9,3.753a1.817,1.817,0,0,0,1.6-.054,1.744,1.744,0,0,0,.834-1.762c-.087-.5-.241-.742-.9-1.422l-.6-.61v-2.733c0-1.779-.017-2.787-.046-2.89a.824.824,0,0,0-.464-.506,5.182,5.182,0,0,0-1.46-.054c-1.435.012-1.443.017-1.667.311l-.116.149-.021,1-.021.991-1.812-1.825c-1.626-1.634-1.841-1.841-2.086-1.961a1.164,1.164,0,0,0-.593-.145A2.614,2.614,0,0,0,24.124-498.635Z" transform="translate(0)" fill="#8f98ff"/>
    <path id="Path_1907" data-name="Path 1907" d="M71.561-365.741c-1.791,1.791-3.371,3.342-3.512,3.442a2.536,2.536,0,0,1-.9.411l-.153.029.008,3.471.012,3.475.124.2a1.149,1.149,0,0,0,.784.493c.116.012,3.309.021,7.1.012l6.884-.012.216-.112a1.21,1.21,0,0,0,.319-.253c.245-.319.232-.141.232-3.857v-3.413l-.211-.054a4.058,4.058,0,0,1-.552-.224c-.332-.162-.394-.22-3.695-3.516-1.849-1.845-3.371-3.355-3.38-3.355S73.353-367.532,71.561-365.741Zm3.753,1.2a1.951,1.951,0,0,1,.974.556,2.072,2.072,0,0,1,.191,2.753l-.145.187.278.162a4.768,4.768,0,0,1,1.269,1.265,4.924,4.924,0,0,1,.581,1.2.651.651,0,0,1-.365.829c-.162.075-.34.079-3.243.079-3.21,0-3.222,0-3.471-.182a.846.846,0,0,1-.278-.56,3.968,3.968,0,0,1,.763-1.563,5.419,5.419,0,0,1,1.111-1.049l.278-.178-.137-.174a2.074,2.074,0,0,1,.178-2.762A2.115,2.115,0,0,1,75.314-364.542Z" transform="translate(-50.381 -124.286)" fill="#8f98ff"/>
  </g>
</svg>
