<svg xmlns="http://www.w3.org/2000/svg" width="11.693" height="12.029" viewBox="0 0 11.693 12.029"><defs><style>.a{fill:#555c69;}</style></defs><path class="a" d="M18.017,8.178a1.494,1.494,0,0,0,.35-1,1.534,1.534,0,0,0-.327-.865,1.344,1.344,0,0,0-.319-1.547,2.778,2.778,0,0,0-2.02-.483,7.894,7.894,0,0,0-1.238.158h0c-.126.023-.259.05-.395.08a4.389,4.389,0,0,1,.314-1.461,2.689,2.689,0,0,0-.065-2.44A1.6,1.6,0,0,0,13.034,0a.632.632,0,0,0-.485.221,1.692,1.692,0,0,0-.211,1.2c-.332.89-1.263,3.074-2.05,3.68a.269.269,0,0,0-.04.035,2.7,2.7,0,0,0-.493.74,1.038,1.038,0,0,0-.5-.126H7.721A1.047,1.047,0,0,0,6.675,6.8v4.088a1.047,1.047,0,0,0,1.046,1.046H9.256a1.044,1.044,0,0,0,.6-.191l.591.07a25.327,25.327,0,0,0,3.353.184c.3.023.581.035.843.035a5.644,5.644,0,0,0,1.17-.106,2.187,2.187,0,0,0,1.562-.971,1.54,1.54,0,0,0,.171-.963,1.6,1.6,0,0,0,.571-1.306A1.7,1.7,0,0,0,18.017,8.178Zm-10.3,3.074a.368.368,0,0,1-.367-.367V6.794a.368.368,0,0,1,.367-.367H9.256a.368.368,0,0,1,.367.367v4.088a.368.368,0,0,1-.367.367H7.721Zm9.652-3.368a.338.338,0,0,0-.045.41,1.047,1.047,0,0,1,.116.42,1.007,1.007,0,0,1-.473.87.343.343,0,0,0-.116.387.888.888,0,0,1-.068.649,1.573,1.573,0,0,1-1.112.639,6.627,6.627,0,0,1-1.834.055h-.035a24.83,24.83,0,0,1-3.27-.179h0l-.254-.03a1.066,1.066,0,0,0,.023-.221V6.794a1.064,1.064,0,0,0-.048-.312,2.1,2.1,0,0,1,.468-.863C11.852,4.724,12.956,1.7,13,1.572a.318.318,0,0,0,.015-.169,1.572,1.572,0,0,1,.033-.729.9.9,0,0,1,.709.34,2.142,2.142,0,0,1-.03,1.829c-.423,1.28-.458,1.955-.123,2.251a.548.548,0,0,0,.548.1c.153-.035.3-.065.438-.088l.033-.008c.772-.169,2.156-.272,2.636.166a.724.724,0,0,1,.086.918.336.336,0,0,0,.06.438.953.953,0,0,1,.279.586A.934.934,0,0,1,17.373,7.884Z" transform="translate(-6.675 0)"/></svg>