<svg xmlns="http://www.w3.org/2000/svg" width="432.233" height="511.388" viewBox="0 0 432.233 511.388">
  <g id="location-_2_" transform="translate(-39.883 511.888)">
    <path id="Path_11865" data-name="Path 11865" d="M233.5-510.8c-55.6,5.6-109.8,34.8-145,78.3q-38.55,47.55-47,107.9C39.6-311.4,39.3-284,41-272c6.3,46.7,29.1,94.5,67.9,142.5,25.9,31.9,58.5,64,120.6,118.4A61.577,61.577,0,0,0,241-3.6c5.7,2.7,7.6,3.1,15,3.1s9.3-.4,15-3.1a58.466,58.466,0,0,0,11.5-7.5c62.1-54.4,94.7-86.5,120.6-118.4,38.8-48,61.6-95.8,67.9-142.5,1.7-12,1.4-39.4-.5-52.6-8.8-62.9-43.3-117.3-96.6-152.4C333.9-503.4,282.5-515.8,233.5-510.8ZM285-479.6c67.5,11.1,123.4,57.4,146.3,121.1,11.5,31.8,14.1,68.3,7.2,98.4-8.2,35.2-25.5,69-54,105.6-22.5,28.9-48.7,55.6-96.9,98.7C264.5-35.1,258.2-30,256-30s-8.5-5.1-31.6-25.8c-74.7-66.8-109.1-107-133.1-155.5-15.4-31.1-21.4-55.1-21.4-85.3,0-78.3,49.7-148,124.6-174.8,13.3-4.7,30.8-8.4,48-10C249.9-482.1,276.4-481,285-479.6Z" fill="#1087fb"/>
    <path id="Path_11866" data-name="Path 11866" d="M241-397.9a98.28,98.28,0,0,0-68,47.5c-8.9,15.6-12.5,31.4-11.7,51.4q1.5,36.6,27.3,62.5c16,16,34.7,24.9,57.7,27.6a79.517,79.517,0,0,0,19.5,0c22.9-2.7,41.6-11.6,57.6-27.6,11.7-11.7,19.3-24.7,24.2-41.2,3.2-10.6,4.3-29.6,2.5-41.3-3.4-21.8-15.6-43-33.1-57.7-9-7.6-26.1-16.4-37.5-19.4C270.3-398.5,249.7-399.5,241-397.9Zm28.4,30.4c24.3,5.1,44.4,24.7,50,48.5,2,8.3,2,22.7.1,30.8-2.7,11.3-8.1,20.8-17,29.8-13.7,13.8-27.8,19.8-46.5,19.8s-32.8-6-46.5-19.8c-8.9-9-14.3-18.5-17-29.8-1.9-8.1-1.9-22.5.1-30.8C200.5-352.8,235.3-374.7,269.4-367.5Z" fill="#1087fb"/>
  </g>
</svg>
