<svg id="Group_1014" data-name="Group 1014" xmlns="http://www.w3.org/2000/svg" width="17.396" height="17.395" viewBox="0 0 17.396 17.395">
  <path id="Path_1591" data-name="Path 1591" d="M11.4,13.046a2.177,2.177,0,0,1-2.174,2.174H7.23a.724.724,0,0,1-.677-.467L1.3.983A.724.724,0,0,1,1.975,0H9.223A2.177,2.177,0,0,1,11.4,2.174Z" transform="translate(-0.344 0)" fill="#eceff1"/>
  <path id="Path_1592" data-name="Path 1592" d="M6.911,3.106V16.152A.906.906,0,0,1,6,17.058a.969.969,0,0,1-.29-.043l-4.349-1.45A.918.918,0,0,1,.75,14.7V1.656A.906.906,0,0,1,1.656.75a.969.969,0,0,1,.29.043l4.349,1.45A.918.918,0,0,1,6.911,3.106Z" transform="translate(-0.206 -0.206)" fill="#eda537"/>
  <path id="Path_1593" data-name="Path 1593" d="M5.337,17.324.982,15.873A1.457,1.457,0,0,1,0,14.5V1.45A1.459,1.459,0,0,1,1.911.073L6.266,1.524A1.457,1.457,0,0,1,7.248,2.9V15.947A1.451,1.451,0,0,1,5.8,17.4,1.523,1.523,0,0,1,5.337,17.324ZM1.087,1.45V14.5a.374.374,0,0,0,.244.347L5.668,16.29a.379.379,0,0,0,.493-.344V2.9a.374.374,0,0,0-.244-.347L1.579,1.108a.414.414,0,0,0-.13-.02.363.363,0,0,0-.362.362Z" transform="translate(0 -0.001)" fill="#64b5f6"/>
  <path id="Path_1594" data-name="Path 1594" d="M20.429,10.837H13.544a.544.544,0,0,1,0-1.087h6.886a.544.544,0,0,1,0,1.087Z" transform="translate(-3.578 -2.683)" fill="#0f88fc"/>
  <path id="Path_1595" data-name="Path 1595" d="M19.294,12.523a.544.544,0,0,1-.384-.928L21.243,9.26,18.91,6.927a.544.544,0,1,1,.769-.769L22.4,8.876a.544.544,0,0,1,0,.769l-2.718,2.718A.54.54,0,0,1,19.294,12.523Z" transform="translate(-5.16 -1.651)" fill="#0f88fc"/>
  <path id="Path_1596" data-name="Path 1596" d="M5.8,17.4a1.494,1.494,0,0,1-.449-.067L.987,15.875A1.463,1.463,0,0,1,0,14.5V1.45A1.451,1.451,0,0,1,1.45,0,1.494,1.494,0,0,1,1.9.067L6.261,1.521A1.463,1.463,0,0,1,7.248,2.9V15.946A1.451,1.451,0,0,1,5.8,17.4ZM1.45,1.087a.363.363,0,0,0-.362.362V14.5a.377.377,0,0,0,.252.349L5.68,16.292a.391.391,0,0,0,.118.016.363.363,0,0,0,.362-.362V2.9a.377.377,0,0,0-.252-.349L1.568,1.1a.391.391,0,0,0-.118-.016Z" transform="translate(0)" fill="#0f88fc"/>
  <path id="Path_1597" data-name="Path 1597" d="M11.4,5.8a.544.544,0,0,1-.544-.544V1.993a.907.907,0,0,0-.906-.906H1.794A.544.544,0,1,1,1.794,0H9.948a2,2,0,0,1,1.993,1.993V5.255A.544.544,0,0,1,11.4,5.8Z" transform="translate(-0.344)" fill="#0f88fc"/>
  <path id="Path_1598" data-name="Path 1598" d="M11.943,18.8h-2.9a.544.544,0,0,1,0-1.087h2.9a.907.907,0,0,0,.906-.906V13.544a.544.544,0,1,1,1.087,0v3.262A2,2,0,0,1,11.943,18.8Z" transform="translate(-2.339 -3.578)" fill="#0f88fc"/>
</svg>
