<svg id="lungs-with-the-trachea" xmlns="http://www.w3.org/2000/svg" width="20.213" height="17.512" viewBox="0 0 20.213 17.512">
  <g id="Group_921" data-name="Group 921" transform="translate(0 0)">
    <path id="Path_1377" data-name="Path 1377" d="M14.111,13.938c-2.55-2.519-2.55.084-2.55.084v4.338l-.774-.765v-.762H9.426V17.6l-.774.765V14.022s0-2.6-2.549-.084c0,0-8.928,9.24-5.186,15.036.44.682,1.87,1.512,3.4-.671.708-1.013,3.912.925,4.336-2.436V19.311l1.454-1.436,1.454,1.437v6.555c.425,3.359,3.626,1.422,4.337,2.437,1.531,2.183,2.962,1.352,3.4.67C23.038,23.178,14.111,13.938,14.111,13.938Z" transform="translate(0 -12.202)" fill="#7e55f3"/>
    <rect id="Rectangle_2164" data-name="Rectangle 2164" width="1.344" height="0.775" transform="translate(9.434)" fill="#7e55f3"/>
    <rect id="Rectangle_2165" data-name="Rectangle 2165" width="1.344" height="0.773" transform="translate(9.434 1.543)" fill="#7e55f3"/>
    <rect id="Rectangle_2166" data-name="Rectangle 2166" width="1.344" height="0.772" transform="translate(9.434 3.088)" fill="#7e55f3"/>
  </g>
</svg>
