<svg id="male-and-female-avatars" xmlns="http://www.w3.org/2000/svg" width="10.571" height="11.312" viewBox="0 0 10.571 11.312">
  <g id="Group_650" data-name="Group 650" transform="translate(0 0)">
    <path id="Path_1189" data-name="Path 1189" d="M16.795,131.467v2.03a.58.58,0,0,0,.58.58h.086a.58.58,0,0,0,.58-.58v-2.03h.494v2.03a.58.58,0,0,0,.58.58H19.2a.58.58,0,0,0,.58-.58v-2.03h.258a.58.58,0,0,0,.58-.58l-.111-.5c.386-.105.272-.29.272-.29s-.87-3.658-.935-3.964a.508.508,0,0,0-.366-.374v0a1.829,1.829,0,0,1-2.49,0l-.007.031.005-.027a.507.507,0,0,0-.375.365c-.072.3-1.034,3.939-1.034,3.939s-.141.216.381.326l-.11.5a.58.58,0,0,0,.58.58Z" transform="translate(-15.561 -122.766)" fill="#0f88fc"/>
    <path id="Path_1190" data-name="Path 1190" d="M59.278,2.758a1.641,1.641,0,1,0-.439-1.114A1.638,1.638,0,0,0,59.278,2.758Z" transform="translate(-57.81)" fill="#0f88fc"/>
    <path id="Path_1191" data-name="Path 1191" d="M268.056,124.436l-.005,0a1.825,1.825,0,0,1-2.539,0l-.007-.006c-.007,0-.012,0-.019,0a1.341,1.341,0,0,0-1.065,1.138v3.407a.627.627,0,0,0,.678.557c.019,0,.037,0,.056,0a.567.567,0,0,0,.01.1.494.494,0,0,0-.01.09v2.344a.63.63,0,0,0,.67.58h.1a.63.63,0,0,0,.67-.58V130.1h.375v2.006a.625.625,0,0,0,.661.58h.1a.625.625,0,0,0,.661-.58v-2.345a.506.506,0,0,0-.008-.075.567.567,0,0,0,.026-.155.624.624,0,0,0,.665-.556v-3.407A1.36,1.36,0,0,0,268.056,124.436Z" transform="translate(-258.5 -121.472)" fill="#0f88fc"/>
    <path id="Path_1192" data-name="Path 1192" d="M295.184,2.925a1.642,1.642,0,1,0-.616-1.281A1.635,1.635,0,0,0,295.184,2.925Z" transform="translate(-287.931)" fill="#0f88fc"/>
  </g>
</svg>
