<svg xmlns="http://www.w3.org/2000/svg" width="9.826" height="13.344" viewBox="0 0 9.826 13.344">
  <g id="medical-history_1_" data-name="medical-history (1)" transform="translate(-67.5 511.95)">
    <path id="Path_8489" data-name="Path 8489" d="M170.911-511.9a.947.947,0,0,0-.566.55.879.879,0,0,1-.149.242c-.052.036-.149.042-.628.042H169v1.59h4.509v-1.59h-.56c-.667,0-.688-.005-.758-.214a.953.953,0,0,0-.594-.62A1.181,1.181,0,0,0,170.911-511.9Z" transform="translate(-98.854)" fill="#1089fe"/>
    <path id="Path_8490" data-name="Path 8490" d="M68.152-437.964a1.514,1.514,0,0,0-.211.073,1.082,1.082,0,0,0-.373.412l-.068.143v10.113l.073.149a.946.946,0,0,0,.477.435c.141.055.169.055,4.363.055s4.222,0,4.363-.055a.946.946,0,0,0,.477-.435l.073-.149v-10.113l-.068-.143a1.016,1.016,0,0,0-.386-.417A2.447,2.447,0,0,0,75.8-438h-.7v.414c0,.4,0,.42-.063.49l-.063.073-2.526.008c-1.861.005-2.541,0-2.6-.023-.136-.057-.149-.1-.149-.55V-438l-.709,0A5.776,5.776,0,0,0,68.152-437.964Zm4.944,2.286c.107.057.125.167.125.792v.586h.586c.626,0,.735.018.792.125a3.988,3.988,0,0,1,.029.693c0,.636,0,.639-.063.712l-.063.073-.639.008-.641.008-.008.639-.008.641-.073.063c-.073.063-.073.063-.722.063s-.649,0-.722-.063l-.073-.062-.008-.641-.008-.639-.641-.008-.639-.008-.063-.073c-.063-.073-.063-.076-.063-.712a3.988,3.988,0,0,1,.029-.693c.057-.107.167-.125.792-.125h.586v-.586c0-.618.018-.73.123-.792A8.281,8.281,0,0,1,73.1-435.678Zm1.6,5.693a.2.2,0,0,1,0,.3l-.068.063H70.2l-.068-.063a.2.2,0,0,1,0-.3l.07-.065h4.415Zm.777,1.11a.2.2,0,0,1,.091.354l-.052.06H69.319l-.052-.06a.342.342,0,0,1-.07-.115.215.215,0,0,1,.149-.24C69.465-428.909,75.343-428.911,75.468-428.875Z" transform="translate(0 -72.023)" fill="#1089fe"/>
    <path id="Path_8491" data-name="Path 8491" d="M189.408-332.364v.633l-.068.07-.07.068H188v.73h.613a3.855,3.855,0,0,1,.672.029c.112.05.122.12.122.766v.613h.73v-.613c0-.646.01-.717.122-.766a3.855,3.855,0,0,1,.672-.029h.613v-.73h-1.269l-.07-.068-.068-.07V-333h-.73Z" transform="translate(-117.359 -174.286)" fill="#1089fe"/>
  </g>
</svg>
