<svg xmlns="http://www.w3.org/2000/svg" width="25" height="25" viewBox="0 0 25 25">
  <g id="metabolism-_1_" transform="translate(0 512)">
    <path id="Path_11732" data-name="Path 11732" d="M11.3-511.946a12.694,12.694,0,0,0-5.612,1.967,12.52,12.52,0,0,0-5.461,8.15A13.471,13.471,0,0,0,0-499.79v.283H1.449l.034-.551a11.026,11.026,0,0,1,4.865-8.584,10.966,10.966,0,0,1,5.6-1.874l.547-.034V-512l-.376,0C11.907-511.99,11.541-511.966,11.3-511.946Z" fill="#fff"/>
    <path id="Path_11733" data-name="Path 11733" d="M182.148-436.754a9.432,9.432,0,0,0-2.64.605l-.508.2v.2a4.5,4.5,0,0,0,.337,1.415,2,2,0,0,0,1.967,1.205c1.488,0,2.22-.849,2.123-2.464a2.77,2.77,0,0,0-.244-1.157A4.543,4.543,0,0,0,182.148-436.754Z" transform="translate(-170.265 -71.551)" fill="#fff"/>
    <path id="Path_11734" data-name="Path 11734" d="M86.329-431.524a3.956,3.956,0,0,1-.986,3.45,3.547,3.547,0,0,1-2.6,1.049,4.767,4.767,0,0,1-.854-.078,4.007,4.007,0,0,1-1.513-.752,4.4,4.4,0,0,1-1.254-2.308l-.059-.283-.176.132a9.233,9.233,0,0,0-2.591,3.191,8.82,8.82,0,0,0,3.475,11.395,9.74,9.74,0,0,0,1.44.683c.1.029.107.02.107-.278a2.963,2.963,0,0,1,2.2-2.752,3.323,3.323,0,0,1,1.454,0,2.962,2.962,0,0,1,2.2,2.747c0,.171.02.307.044.307a8.844,8.844,0,0,0,1.225-.547,8.962,8.962,0,0,0,4.27-5.29A9.578,9.578,0,0,0,93-422.379a2.9,2.9,0,0,0-.449.093,3.479,3.479,0,0,1-1.064.107,3.726,3.726,0,0,1-1.82-.405,3.991,3.991,0,0,1-1.2-.825,4.2,4.2,0,0,1-1.332-3.387,3.776,3.776,0,0,1,.41-1.645,4.273,4.273,0,0,1,1.591-1.83l.278-.185-.312-.21a9.245,9.245,0,0,0-2.484-1.142l-.332-.093Zm-5.744,6.012v.732H79.121v-1.464h1.464Zm4.221.81a2.216,2.216,0,0,1,1.381,3.162,2.725,2.725,0,0,1-.81.844,2.285,2.285,0,0,1-2.264,0,2.725,2.725,0,0,1-.81-.844,2.229,2.229,0,0,1,.869-2.962A2.219,2.219,0,0,1,84.806-424.7Zm-4.953,2.118v.732H78.389v-1.464h1.464Zm8.784,2.928v.732H87.173v-1.464h1.464Z" transform="translate(-71.753 -76.191)" fill="#fff"/>
    <path id="Path_11735" data-name="Path 11735" d="M241.455-255.67a.716.716,0,0,0,.283,1.337.715.715,0,0,0,.717-1.049A.709.709,0,0,0,241.455-255.67Z" transform="translate(-229.324 -243.725)" fill="#fff"/>
    <path id="Path_11736" data-name="Path 11736" d="M347.3-382.843a2.986,2.986,0,0,0-2.3,2.86,2.935,2.935,0,0,0,.874,2.094,2.91,2.91,0,0,0,4.138-.029,2.428,2.428,0,0,0,.542-.761,2.592,2.592,0,0,0,.3-1.318,2.76,2.76,0,0,0-.874-2.045A2.864,2.864,0,0,0,347.3-382.843Z" transform="translate(-328.164 -122.789)" fill="#fff"/>
    <path id="Path_11737" data-name="Path 11737" d="M267.009-255.453a11.058,11.058,0,0,1-3.226,7.242,11.059,11.059,0,0,1-7.232,3.221l-.551.034v1.464l.62-.034a12.4,12.4,0,0,0,8.208-3.645,12.438,12.438,0,0,0,3.645-8.208l.034-.62h-1.464Z" transform="translate(-243.507 -243.507)" fill="#fff"/>
    <path id="Path_11738" data-name="Path 11738" d="M31.171-227.484a4.324,4.324,0,0,0-.537,1.181,4.683,4.683,0,0,0,0,1.806,3.733,3.733,0,0,0,3.338,2.752.89.89,0,0,0,.351,0,3.088,3.088,0,0,0-.332-.381,10.246,10.246,0,0,1-2.523-4.934c-.073-.346-.132-.639-.142-.644A1.365,1.365,0,0,0,31.171-227.484Z" transform="translate(-29.058 -270.423)" fill="#fff"/>
    <path id="Path_11739" data-name="Path 11739" d="M227.08-119.649a1.379,1.379,0,0,0-.654.449,1.457,1.457,0,0,0,.483,2.289,1.557,1.557,0,0,0,1.22,0,1.461,1.461,0,0,0,.483-2.294,1.2,1.2,0,0,0-1.02-.468A2.048,2.048,0,0,0,227.08-119.649Z" transform="translate(-215.026 -373.178)" fill="#fff"/>
  </g>
</svg>
