<svg id="Group_28146" data-name="Group 28146" xmlns="http://www.w3.org/2000/svg" width="49.831" height="49.831" viewBox="0 0 49.831 49.831">
  <g id="Group_28140" data-name="Group 28140">
    <circle id="Ellipse_159" data-name="Ellipse 159" cx="17.626" cy="17.626" r="17.626" transform="matrix(0.685, -0.729, 0.729, 0.685, 0, 25.69)" fill="#8dd100"/>
  </g>
  <g id="Group_28143" data-name="Group 28143" transform="translate(16.093 19.129)">
    <g id="Group_28141" data-name="Group 28141">
      <circle id="Ellipse_160" data-name="Ellipse 160" cx="2.203" cy="2.203" r="2.203" fill="#427300"/>
    </g>
    <g id="Group_28142" data-name="Group 28142" transform="translate(13.239)">
      <circle id="Ellipse_161" data-name="Ellipse 161" cx="2.203" cy="2.203" r="2.203" fill="#427300"/>
    </g>
  </g>
  <g id="Group_28145" data-name="Group 28145" transform="translate(17.875 29.646)">
    <g id="Group_28144" data-name="Group 28144">
      <path id="Path_8962" data-name="Path 8962" d="M130.621,60.77a13.328,13.328,0,0,1-5.958-1.627,1.942,1.942,0,0,1,1.718-3.482c3.328,1.642,5.151,1.642,8.479,0a1.942,1.942,0,0,1,1.718,3.482A13.328,13.328,0,0,1,130.621,60.77Z" transform="translate(-123.581 -55.459)" fill="#427300"/>
    </g>
  </g>
</svg>
