<svg id="Group_28157" data-name="Group 28157" xmlns="http://www.w3.org/2000/svg" width="49.855" height="49.855" viewBox="0 0 49.855 49.855">
  <g id="Group_28150" data-name="Group 28150">
    <g id="Group_28149" data-name="Group 28149">
      <circle id="Ellipse_162" data-name="Ellipse 162" cx="17.626" cy="17.626" r="17.626" transform="translate(0 24.927) rotate(-45)" fill="#ffce00"/>
    </g>
  </g>
  <g id="Group_28155" data-name="Group 28155" transform="translate(16.104 19.991)">
    <g id="Group_28152" data-name="Group 28152">
      <g id="Group_28151" data-name="Group 28151">
        <path id="Path_8963" data-name="Path 8963" d="M196.384,48.906a2.2,2.2,0,1,1-2.2-2.144A2.175,2.175,0,0,1,196.384,48.906Z" transform="translate(-191.977 -46.762)" fill="#ff7b00"/>
      </g>
    </g>
    <g id="Group_28154" data-name="Group 28154" transform="translate(13.239)">
      <g id="Group_28153" data-name="Group 28153">
        <path id="Path_8964" data-name="Path 8964" d="M208.294,48.906a2.2,2.2,0,1,1-2.2-2.144A2.174,2.174,0,0,1,208.294,48.906Z" transform="translate(-203.888 -46.762)" fill="#ff7b00"/>
      </g>
    </g>
  </g>
  <g id="Group_28156" data-name="Group 28156" transform="translate(19.123 29.891)">
    <path id="Path_8965" data-name="Path 8965" d="M204.36,59.552h-7.725a1.942,1.942,0,1,1,0-3.884h7.725a1.942,1.942,0,0,1,0,3.884Z" transform="translate(-194.693 -55.668)" fill="#ff7b00"/>
  </g>
</svg>
