<svg xmlns="http://www.w3.org/2000/svg" width="14.452" height="17.322" viewBox="0 0 14.452 17.322"><defs><style>.a{fill:#0a586c;}</style></defs><path class="a" d="M91.2,8.344a4.037,4.037,0,0,0,2.95-1.222,4.037,4.037,0,0,0,1.222-2.95,4.037,4.037,0,0,0-1.222-2.95,4.171,4.171,0,0,0-5.9,0,4.037,4.037,0,0,0-1.222,2.95,4.037,4.037,0,0,0,1.222,2.95A4.038,4.038,0,0,0,91.2,8.344Zm0,0" transform="translate(-84.087 0)"/><path class="a" d="M14.417,252.269a10.3,10.3,0,0,0-.14-1.095,8.623,8.623,0,0,0-.269-1.1,5.436,5.436,0,0,0-.452-1.026,3.873,3.873,0,0,0-.682-.889,3.008,3.008,0,0,0-.98-.616,3.387,3.387,0,0,0-1.251-.226,1.27,1.27,0,0,0-.678.288c-.2.133-.441.286-.706.455a4.048,4.048,0,0,1-.914.4,3.549,3.549,0,0,1-2.236,0,4.038,4.038,0,0,1-.913-.4c-.263-.168-.5-.321-.707-.456a1.268,1.268,0,0,0-.678-.288,3.383,3.383,0,0,0-1.251.227,3.005,3.005,0,0,0-.98.616,3.873,3.873,0,0,0-.682.889,5.446,5.446,0,0,0-.452,1.026,8.644,8.644,0,0,0-.269,1.1,10.268,10.268,0,0,0-.14,1.095c-.023.331-.035.675-.035,1.023a2.876,2.876,0,0,0,.854,2.176,3.075,3.075,0,0,0,2.2.8H11.4a3.075,3.075,0,0,0,2.2-.8,2.875,2.875,0,0,0,.854-2.176c0-.349-.012-.693-.035-1.023Zm0,0" transform="translate(0 -238.949)"/></svg>