<svg id="Group_28137" data-name="Group 28137" xmlns="http://www.w3.org/2000/svg" width="35.796" height="35.796" viewBox="0 0 35.796 35.796">
  <g id="Group_28130" data-name="Group 28130">
    <g id="Group_28129" data-name="Group 28129">
      <circle id="Ellipse_158" data-name="Ellipse 158" cx="17.626" cy="17.626" r="17.626" transform="translate(0 35.248) rotate(-89.109)" fill="#00bf10"/>
    </g>
  </g>
  <g id="Group_28133" data-name="Group 28133" transform="translate(7.024 10.697)">
    <g id="Group_28131" data-name="Group 28131">
      <path id="Path_8958" data-name="Path 8958" d="M56.493,49.37a.972.972,0,0,1-.971-.971,1.733,1.733,0,1,0-3.466,0,.971.971,0,1,1-1.942,0,3.675,3.675,0,1,1,7.349,0A.972.972,0,0,1,56.493,49.37Z" transform="translate(-50.114 -44.724)" fill="#007e10"/>
    </g>
    <g id="Group_28132" data-name="Group 28132" transform="translate(14.4)">
      <path id="Path_8959" data-name="Path 8959" d="M69.448,49.37a.972.972,0,0,1-.971-.971,1.733,1.733,0,0,0-3.467,0,.97.97,0,1,1-1.941,0,3.675,3.675,0,1,1,7.349,0A.972.972,0,0,1,69.448,49.37Z" transform="translate(-63.069 -44.724)" fill="#007e10"/>
    </g>
  </g>
  <g id="Group_28136" data-name="Group 28136" transform="translate(9.984 21.196)">
    <g id="Group_28134" data-name="Group 28134">
      <path id="Path_8960" data-name="Path 8960" d="M68.114,54.169a.493.493,0,0,1,.5.516,6.923,6.923,0,0,1-2.763,4.96,8.469,8.469,0,0,1-10.3,0,6.97,6.97,0,0,1-2.763-4.959.493.493,0,0,1,.5-.517Z" transform="translate(-52.778 -54.169)" fill="#006310"/>
    </g>
    <g id="Group_28135" data-name="Group 28135" transform="translate(2.765 2.33)">
      <path id="Path_8961" data-name="Path 8961" d="M65.569,59.411a8.469,8.469,0,0,1-10.3,0,5.792,5.792,0,0,1,10.3,0Z" transform="translate(-55.265 -56.265)" fill="#007e10"/>
    </g>
  </g>
</svg>
