<svg id="Group_1136" data-name="Group 1136" xmlns="http://www.w3.org/2000/svg" width="251.981" height="244.3" viewBox="0 0 251.981 244.3">
  <g id="Group_313" data-name="Group 313" transform="translate(163.89 113.975)">
    <path id="Path_793" data-name="Path 793" d="M563.792,341.79s-5.664-3.9-12.957,9.7c-7.293,13.635-10.074,21.5-10.074,21.5s-1.9,2.849-3.867.916c-1.933-1.933-4.545-7.326-7.937-6.411-3.494.916-4.749,4.816-4.172,10.549.543,5.732,1.323,18.35,1.357,19.5.068,1.119-.611,2.747-2.137,1.662s-10.277-11.227-14.856-6.784c-4.545,4.443-.373,20.182.034,21.911s.068,2.442-.746,2.883c-.814.407-3.46-3.29-6.038-6.037-2.612-2.781-6.105-5.563-8.547-2.781-2.408,2.781-3.392,14.517,7.394,33.783l5.6,8.615,10.311-.373c22.013-2.137,31.069-9.633,31.985-13.228.916-3.561-3.358-4.884-7.157-5.427-3.765-.543-8.276-.611-8.412-1.526s.271-1.628,1.933-2.239c1.662-.644,16.959-6.207,18.011-12.482s-12.279-7.666-14.042-8.31-.814-2.1.136-2.713c.984-.611,11.77-7.191,16.79-10.006s7.5-6.038,6.275-9.463c-1.187-3.29-7.123-2.34-9.8-2.849s-1.424-3.7-1.424-3.7,4.884-6.818,11.905-20.555c7.021-13.771.407-16.213.407-16.213" transform="translate(-492.287 -341.272)" fill="#3ac468"/>
  </g>
  <g id="Group_315" data-name="Group 315" transform="translate(179.022 126.704)">
    <g id="Group_314" data-name="Group 314">
      <path id="Path_794" data-name="Path 794" d="M536.9,473.467c5.189-10.074,12.516-23.946,20.622-39.244s15.467-29.136,20.69-39.176c2.612-5.02,4.749-9.09,6.207-11.905.746-1.391,1.289-2.476,1.7-3.222.2-.373.339-.644.441-.848a1.138,1.138,0,0,1,.17-.271,2.665,2.665,0,0,1-.136.305c-.1.2-.237.475-.407.848-.373.746-.916,1.865-1.628,3.256-1.425,2.849-3.528,6.919-6.105,11.973-5.189,10.074-12.516,23.947-20.622,39.244s-15.467,29.136-20.724,39.21" transform="translate(-536.9 -378.8)" fill="#e0e0e0"/>
    </g>
  </g>
  <g id="Group_317" data-name="Group 317" transform="translate(203.885 147.903)">
    <g id="Group_316" data-name="Group 316">
      <path id="Path_795" data-name="Path 795" d="M610.2,441.3a2.707,2.707,0,0,1,.237.712c.136.441.339,1.119.543,1.933.441,1.662.984,3.935,1.526,6.478.543,2.51,1.018,4.783,1.391,6.512.17.78.305,1.425.441,1.967a7.266,7.266,0,0,1,.136.746,2.7,2.7,0,0,1-.237-.712c-.136-.441-.305-1.119-.543-1.933-.407-1.662-.916-3.969-1.492-6.512-.543-2.51-1.051-4.783-1.425-6.512-.17-.78-.339-1.425-.441-1.967C610.234,441.571,610.2,441.3,610.2,441.3Z" transform="translate(-610.2 -441.3)" fill="#e0e0e0"/>
    </g>
  </g>
  <g id="Group_319" data-name="Group 319" transform="translate(209.108 160.857)">
    <g id="Group_318" data-name="Group 318">
      <path id="Path_796" data-name="Path 796" d="M625.6,485.091c-.034-.1,4.647-1.391,10.447-2.951s10.515-2.713,10.549-2.646c.034.1-4.647,1.391-10.447,2.951C630.314,483.972,625.6,485.159,625.6,485.091Z" transform="translate(-625.599 -479.492)" fill="#e0e0e0"/>
    </g>
  </g>
  <g id="Group_321" data-name="Group 321" transform="translate(195.574 188.953)">
    <g id="Group_320" data-name="Group 320">
      <path id="Path_797" data-name="Path 797" d="M585.7,562.724a2.619,2.619,0,0,1,.746-.034c.543,0,1.255.034,2.069.034,1.73.034,4.138.068,6.784.034s5.054-.17,6.784-.271c.814-.034,1.492-.1,2.069-.136a2.132,2.132,0,0,1,.746,0,2.913,2.913,0,0,1-.746.136c-.475.068-1.187.136-2.035.237-1.73.17-4.138.339-6.784.373-2.646.068-5.054-.034-6.818-.136-.882-.068-1.56-.1-2.069-.136A2.321,2.321,0,0,1,585.7,562.724Z" transform="translate(-585.7 -562.325)" fill="#e0e0e0"/>
    </g>
  </g>
  <g id="Group_323" data-name="Group 323" transform="translate(187.19 173.613)">
    <g id="Group_322" data-name="Group 322">
      <path id="Path_798" data-name="Path 798" d="M560.987,517.1a2.731,2.731,0,0,1,.407.577c.271.441.577.984.95,1.628.814,1.391,1.9,3.324,3.053,5.495,1.187,2.137,2.239,4.1,2.985,5.529.339.678.644,1.221.882,1.7.2.407.305.645.271.645a2.736,2.736,0,0,1-.407-.577c-.271-.441-.577-.984-.95-1.628-.814-1.391-1.9-3.324-3.053-5.495-1.187-2.137-2.239-4.1-2.985-5.529-.339-.678-.645-1.221-.882-1.7C561.055,517.337,560.954,517.134,560.987,517.1Z" transform="translate(-560.981 -517.1)" fill="#e0e0e0"/>
    </g>
  </g>
  <g id="Group_325" data-name="Group 325" transform="translate(172.674 192.336)">
    <g id="Group_324" data-name="Group 324">
      <path id="Path_799" data-name="Path 799" d="M518.19,572.3a5.008,5.008,0,0,1,.509.746c.339.543.746,1.255,1.255,2.1,1.052,1.8,2.442,4.24,4,6.987,1.526,2.747,2.917,5.223,3.9,7.055.475.882.848,1.594,1.153,2.137a3.106,3.106,0,0,1,.373.814,5,5,0,0,1-.509-.746c-.339-.543-.746-1.255-1.255-2.1-1.052-1.8-2.442-4.24-4-6.987-1.526-2.747-2.917-5.223-3.9-7.055-.475-.882-.848-1.594-1.153-2.137A3.106,3.106,0,0,1,518.19,572.3Z" transform="translate(-518.185 -572.3)" fill="#e0e0e0"/>
    </g>
  </g>
  <g id="Group_327" data-name="Group 327" transform="translate(183.703 210.537)">
    <g id="Group_326" data-name="Group 326">
      <path id="Path_800" data-name="Path 800" d="M550.7,627.058a4.18,4.18,0,0,1,.95-.034c.678,0,1.56-.034,2.612-.034,2.2-.034,5.257-.1,8.615-.237s6.411-.373,8.615-.543c1.051-.068,1.933-.136,2.612-.2a5.03,5.03,0,0,1,.95-.034,5.9,5.9,0,0,1-.95.17c-.611.068-1.492.2-2.612.305-2.2.237-5.224.475-8.615.644-3.358.17-6.411.17-8.615.136-1.119,0-2-.034-2.612-.068A7.491,7.491,0,0,1,550.7,627.058Z" transform="translate(-550.7 -625.959)" fill="#e0e0e0"/>
    </g>
  </g>
  <g id="Group_394" data-name="Group 394" transform="translate(61.917 0)">
    <g id="Group_329" data-name="Group 329">
      <g id="Group_328" data-name="Group 328">
        <path id="Path_801" data-name="Path 801" d="M254.651,58.211,217.578,76.052a.8.8,0,0,1-1.085-.373l-24.76-51.454a.8.8,0,0,1,.373-1.085L229.178,5.332a.8.8,0,0,1,1.085.373l24.761,51.454A.765.765,0,0,1,254.651,58.211Z" transform="translate(-191.646 -5.246)" fill="#e0e0e0"/>
      </g>
    </g>
    <g id="Group_331" data-name="Group 331" transform="translate(2.43 1.884)">
      <g id="Group_330" data-name="Group 330" transform="translate(0 0)">
        <rect id="Rectangle_1479" data-name="Rectangle 1479" width="37.989" height="54.643" transform="matrix(0.901, -0.434, 0.434, 0.901, 0, 16.476)" fill="#fafafa"/>
      </g>
    </g>
    <g id="Group_333" data-name="Group 333" transform="translate(12.941 3.12)">
      <g id="Group_332" data-name="Group 332">
        <path id="Path_802" data-name="Path 802" d="M243.707,18.839a4.584,4.584,0,0,0-4.85-.509L237.8,16.261a3.192,3.192,0,0,0-4.274-1.492h0a3.192,3.192,0,0,0-1.492,4.274l1.051,2.171-.712.373a4.693,4.693,0,0,0-2.578,4.1v1.085l14.89-7.157Zm-7.937.339a1.73,1.73,0,1,1,.814-2.306A1.749,1.749,0,0,1,235.77,19.178Z" transform="translate(-229.8 -14.444)" fill="#ebebeb"/>
      </g>
    </g>
    <g id="Group_336" data-name="Group 336" transform="translate(9.21 19.213)">
      <g id="Group_335" data-name="Group 335">
        <g id="Group_334" data-name="Group 334">
          <path id="Path_803" data-name="Path 803" d="M228.059,61.893a50.088,50.088,0,0,1-4.579,2.34c-2.578,1.221-4.647,2.171-4.681,2.137a50.092,50.092,0,0,1,4.579-2.34A45.519,45.519,0,0,1,228.059,61.893Z" transform="translate(-218.799 -61.89)" fill="#e0e0e0"/>
        </g>
      </g>
    </g>
    <g id="Group_339" data-name="Group 339" transform="translate(9.99 23.11)">
      <g id="Group_338" data-name="Group 338">
        <g id="Group_337" data-name="Group 337">
          <path id="Path_804" data-name="Path 804" d="M225.542,73.386a13.469,13.469,0,0,1-2.171,1.187,10.751,10.751,0,0,1-2.273.95,13.47,13.47,0,0,1,2.171-1.187A10.017,10.017,0,0,1,225.542,73.386Z" transform="translate(-221.097 -73.378)" fill="#e0e0e0"/>
        </g>
      </g>
    </g>
    <g id="Group_342" data-name="Group 342" transform="translate(12.5 16.976)">
      <g id="Group_341" data-name="Group 341">
        <g id="Group_340" data-name="Group 340">
          <path id="Path_805" data-name="Path 805" d="M254.312,55.3c.034.068-5.732,2.883-12.855,6.309S228.534,67.78,228.5,67.712s5.732-2.883,12.855-6.309S254.278,55.23,254.312,55.3Z" transform="translate(-228.5 -55.296)" fill="#e0e0e0"/>
        </g>
      </g>
    </g>
    <g id="Group_345" data-name="Group 345" transform="translate(13.687 19.419)">
      <g id="Group_344" data-name="Group 344">
        <g id="Group_343" data-name="Group 343">
          <path id="Path_806" data-name="Path 806" d="M257.812,62.5c.034.068-5.732,2.883-12.855,6.309S232.034,74.981,232,74.914s5.732-2.883,12.855-6.309S257.778,62.465,257.812,62.5Z" transform="translate(-232 -62.499)" fill="#e0e0e0"/>
        </g>
      </g>
    </g>
    <g id="Group_348" data-name="Group 348" transform="translate(14.875 21.895)">
      <g id="Group_347" data-name="Group 347">
        <g id="Group_346" data-name="Group 346">
          <path id="Path_807" data-name="Path 807" d="M261.312,69.8c.034.068-5.732,2.883-12.855,6.309S235.534,82.28,235.5,82.212s5.732-2.883,12.855-6.309S261.278,69.73,261.312,69.8Z" transform="translate(-235.5 -69.796)" fill="#e0e0e0"/>
        </g>
      </g>
    </g>
    <g id="Group_351" data-name="Group 351" transform="translate(16.062 24.371)">
      <g id="Group_350" data-name="Group 350">
        <g id="Group_349" data-name="Group 349">
          <path id="Path_808" data-name="Path 808" d="M264.812,77.1c.034.068-5.732,2.883-12.855,6.309S239.034,89.58,239,89.512s5.732-2.883,12.855-6.309C258.978,79.743,264.778,77.03,264.812,77.1Z" transform="translate(-239 -77.096)" fill="#e0e0e0"/>
        </g>
      </g>
    </g>
    <g id="Group_354" data-name="Group 354" transform="translate(17.249 26.813)">
      <g id="Group_353" data-name="Group 353">
        <g id="Group_352" data-name="Group 352">
          <path id="Path_809" data-name="Path 809" d="M268.312,84.3c.034.068-5.732,2.883-12.855,6.309S242.534,96.78,242.5,96.712s5.732-2.883,12.855-6.309S268.278,84.23,268.312,84.3Z" transform="translate(-242.5 -84.296)" fill="#e0e0e0"/>
        </g>
      </g>
    </g>
    <g id="Group_357" data-name="Group 357" transform="translate(18.436 29.289)">
      <g id="Group_356" data-name="Group 356">
        <g id="Group_355" data-name="Group 355">
          <path id="Path_810" data-name="Path 810" d="M271.812,91.6c.034.068-5.732,2.883-12.855,6.309S246.034,104.08,246,104.012s5.732-2.883,12.855-6.309C265.978,94.243,271.778,91.53,271.812,91.6Z" transform="translate(-246 -91.596)" fill="#e0e0e0"/>
        </g>
      </g>
    </g>
    <g id="Group_360" data-name="Group 360" transform="translate(19.522 37.702)">
      <g id="Group_359" data-name="Group 359">
        <g id="Group_358" data-name="Group 358">
          <path id="Path_811" data-name="Path 811" d="M262.089,116.4s-.17.1-.475.271c-.373.2-.814.407-1.357.712-1.153.577-2.781,1.357-4.545,2.239-1.8.848-3.392,1.628-4.579,2.171-.543.237-1.018.475-1.391.644a4.6,4.6,0,0,1-.543.2s.17-.1.475-.271c.373-.2.814-.407,1.357-.712,1.153-.577,2.781-1.357,4.545-2.239,1.8-.848,3.392-1.628,4.579-2.171.543-.237,1.018-.475,1.391-.644C261.886,116.468,262.089,116.4,262.089,116.4Z" transform="translate(-249.2 -116.4)" fill="#e0e0e0"/>
        </g>
      </g>
    </g>
    <g id="Group_363" data-name="Group 363" transform="translate(32.342 10.288)">
      <g id="Group_362" data-name="Group 362">
        <g id="Group_361" data-name="Group 361">
          <path id="Path_812" data-name="Path 812" d="M291.136,35.586a12.284,12.284,0,0,1-2,1.119,10.812,10.812,0,0,1-2.137.882,12.285,12.285,0,0,1,2-1.119A10.813,10.813,0,0,1,291.136,35.586Z" transform="translate(-286.997 -35.578)" fill="#e0e0e0"/>
        </g>
      </g>
    </g>
    <g id="Group_366" data-name="Group 366" transform="translate(22.438 45.905)">
      <g id="Group_365" data-name="Group 365">
        <g id="Group_364" data-name="Group 364">
          <path id="Path_813" data-name="Path 813" d="M264.481,140.591a26,26,0,0,1-3.29,1.73,31.883,31.883,0,0,1-3.392,1.492,53.381,53.381,0,0,1,6.682-3.222Z" transform="translate(-257.798 -140.586)" fill="#e0e0e0"/>
        </g>
      </g>
    </g>
    <g id="Group_369" data-name="Group 369" transform="translate(23.591 48.042)">
      <g id="Group_368" data-name="Group 368">
        <g id="Group_367" data-name="Group 367">
          <path id="Path_814" data-name="Path 814" d="M268.017,146.891a55.576,55.576,0,0,1-6.818,3.29,55.576,55.576,0,0,1,6.818-3.29Z" transform="translate(-261.198 -146.886)" fill="#e0e0e0"/>
        </g>
      </g>
    </g>
    <g id="Group_372" data-name="Group 372" transform="translate(45.197 36.2)">
      <g id="Group_371" data-name="Group 371">
        <g id="Group_370" data-name="Group 370">
          <path id="Path_815" data-name="Path 815" d="M328.12,111.982a5.811,5.811,0,0,1-1.56.882,5.984,5.984,0,0,1-1.662.678,5.809,5.809,0,0,1,1.56-.882A5.982,5.982,0,0,1,328.12,111.982Z" transform="translate(-324.897 -111.972)" fill="#e0e0e0"/>
        </g>
      </g>
    </g>
    <g id="Group_375" data-name="Group 375" transform="translate(46.248 38.167)">
      <g id="Group_374" data-name="Group 374">
        <g id="Group_373" data-name="Group 373">
          <path id="Path_816" data-name="Path 816" d="M331.22,117.782a5.813,5.813,0,0,1-1.56.882,5.981,5.981,0,0,1-1.662.678,5.811,5.811,0,0,1,1.56-.882A7.006,7.006,0,0,1,331.22,117.782Z" transform="translate(-327.997 -117.772)" fill="#e0e0e0"/>
        </g>
      </g>
    </g>
    <g id="Group_378" data-name="Group 378" transform="translate(25.253 51.87)">
      <g id="Group_377" data-name="Group 377">
        <g id="Group_376" data-name="Group 376">
          <path id="Path_817" data-name="Path 817" d="M269.252,158.182a5.716,5.716,0,0,1-1.526.848,6.09,6.09,0,0,1-1.628.644,5.715,5.715,0,0,1,1.526-.848A6.587,6.587,0,0,1,269.252,158.182Z" transform="translate(-266.096 -158.172)" fill="#e0e0e0"/>
        </g>
      </g>
    </g>
    <g id="Group_381" data-name="Group 381" transform="translate(48.385 40.446)">
      <g id="Group_380" data-name="Group 380">
        <g id="Group_379" data-name="Group 379">
          <path id="Path_818" data-name="Path 818" d="M336.637,124.493a3.257,3.257,0,0,1-1.119.678,3.309,3.309,0,0,1-1.221.441,3.258,3.258,0,0,1,1.119-.678A5.987,5.987,0,0,1,336.637,124.493Z" transform="translate(-334.295 -124.489)" fill="#e0e0e0"/>
        </g>
      </g>
    </g>
    <g id="Group_384" data-name="Group 384" transform="translate(27.628 53.949)">
      <g id="Group_383" data-name="Group 383">
        <g id="Group_382" data-name="Group 382">
          <path id="Path_819" data-name="Path 819" d="M273.1,169.15a1,1,0,0,1,.136-.1c.1-.068.237-.17.407-.271.373-.237.882-.577,1.526-.984,1.357-.848,3.222-2.035,5.461-3.426l.1-.068.034.1a3.092,3.092,0,0,1,.068,2.069,2.46,2.46,0,0,1-1.492,1.628,2.521,2.521,0,0,1-2.34-.271,2.207,2.207,0,0,1-.78-2.306,2.037,2.037,0,0,1,.441-.848l.17-.17a.709.709,0,0,1,.2-.136.394.394,0,0,1,.339,0,.452.452,0,0,1,.17.2,4.013,4.013,0,0,1,.475,1.73,4.216,4.216,0,0,1-.271,1.73,2.552,2.552,0,0,1-1.018,1.357,1.574,1.574,0,0,1-1.594-.034,2.336,2.336,0,0,1-.95-1.187,5.8,5.8,0,0,1,0-2.646l.034-.17.136.136a3.585,3.585,0,0,1,.882,2.035,4.183,4.183,0,0,1-.17,1.662,3.48,3.48,0,0,1-.475.95,1.291,1.291,0,0,1-.17.2l-.068.068a4.006,4.006,0,0,0,.611-1.255,3.871,3.871,0,0,0-.78-3.561l.136-.034a5.1,5.1,0,0,0,0,2.578,1.973,1.973,0,0,0,.848,1.051,1.3,1.3,0,0,0,1.357.034,2.6,2.6,0,0,0,.916-1.221,3.732,3.732,0,0,0,.237-1.628,3.887,3.887,0,0,0-.441-1.628.468.468,0,0,0-.1-.136c-.034,0-.068-.034-.1,0-.1.034-.2.17-.305.271a1.617,1.617,0,0,0-.407.746,1.928,1.928,0,0,0,.678,2.035,2.318,2.318,0,0,0,2.1.237,2.424,2.424,0,0,0,1.391-1.492,3.128,3.128,0,0,0-.034-1.933l.17.068c-2.273,1.391-4.172,2.544-5.529,3.358-.644.373-1.187.712-1.56.916-.17.1-.305.17-.407.237A.074.074,0,0,1,273.1,169.15Z" transform="translate(-273.1 -164.3)" fill="#e0e0e0"/>
        </g>
      </g>
    </g>
    <g id="Group_387" data-name="Group 387" transform="translate(46.307 44.452)">
      <g id="Group_386" data-name="Group 386">
        <g id="Group_385" data-name="Group 385">
          <path id="Path_820" data-name="Path 820" d="M333.946,138.776a2.017,2.017,0,0,1-.068.441,2.625,2.625,0,0,1-.2.509.985.985,0,0,1-.577.441,1.118,1.118,0,0,1-.475,0,1.17,1.17,0,0,1-.407-.305c-.2-.271-.339-.577-.543-.882-.339-.644-.746-1.357-1.187-2.137l.2-.034c-.034,1.085-.068,2.273-.136,3.494,0,.305-.034.577-.034.882l-.034.475-.2-.441c-.644-1.323-1.255-2.544-1.764-3.629l.2-.034a12.022,12.022,0,0,0-.441,3.29c0,.814.068,1.255.034,1.255a2.2,2.2,0,0,1-.068-.339,6.113,6.113,0,0,1-.068-.95,10.922,10.922,0,0,1,.373-3.358l.068-.271.136.237c.543,1.085,1.153,2.306,1.8,3.629l-.237.034c0-.271.034-.577.034-.882.034-1.221.1-2.408.136-3.494V136.3l.2.373c.407.78.78,1.492,1.153,2.137.17.305.305.644.475.882a.585.585,0,0,0,.678.271,1.191,1.191,0,0,0,.78-.848A1.227,1.227,0,0,0,333.946,138.776Z" transform="translate(-328.17 -136.3)" fill="#e0e0e0"/>
        </g>
      </g>
    </g>
    <g id="Group_390" data-name="Group 390" transform="translate(43.23 45.161)">
      <g id="Group_389" data-name="Group 389">
        <g id="Group_388" data-name="Group 388">
          <path id="Path_821" data-name="Path 821" d="M327.918,138.395a48.236,48.236,0,0,1-4.342,3.087,51.911,51.911,0,0,1-4.477,2.883,48.229,48.229,0,0,1,4.342-3.087A46.453,46.453,0,0,1,327.918,138.395Z" transform="translate(-319.099 -138.392)" fill="#e0e0e0"/>
        </g>
      </g>
    </g>
    <g id="Group_393" data-name="Group 393" transform="translate(47.877 45.568)">
      <g id="Group_392" data-name="Group 392">
        <g id="Group_391" data-name="Group 391">
          <path id="Path_822" data-name="Path 822" d="M339.345,139.595a35.053,35.053,0,0,1-3.188,2.883,33.97,33.97,0,0,1-3.358,2.713,35.045,35.045,0,0,1,3.188-2.883A37.514,37.514,0,0,1,339.345,139.595Z" transform="translate(-332.798 -139.592)" fill="#e0e0e0"/>
        </g>
      </g>
    </g>
  </g>
  <g id="Group_449" data-name="Group 449" transform="translate(199.607 53.44)">
    <g id="Group_396" data-name="Group 396" transform="translate(0 4.274)">
      <g id="Group_395" data-name="Group 395">
        <path id="Path_823" data-name="Path 823" d="M605.8,181.437c-2.408,6.038-6.241,15.772-8.039,20.249a2.567,2.567,0,0,0,1.458,3.324l16.45,6.546a2.573,2.573,0,0,0,3.358-1.425L627,190.087a5.754,5.754,0,0,0-3.188-7.428h0L625,179.708,614.212,175.4l-1.119,2.781h-.034A5.718,5.718,0,0,0,605.8,181.437Z" transform="translate(-597.588 -175.4)" fill="#f5f5f5"/>
      </g>
    </g>
    <g id="Group_398" data-name="Group 398" transform="translate(15.912 4.681)">
      <g id="Group_397" data-name="Group 397">
        <path id="Path_824" data-name="Path 824" d="M645.043,176.6l-.543,1.323,10.617,4.681.712-1.73Z" transform="translate(-644.5 -176.6)" fill="#e0e0e0"/>
      </g>
    </g>
    <g id="Group_400" data-name="Group 400" transform="translate(15.051)">
      <g id="Group_399" data-name="Group 399">
        <path id="Path_825" data-name="Path 825" d="M654.457,172.907l-12.075-4.816a.651.651,0,0,1-.373-.848l1.526-3.8a1.041,1.041,0,0,1,1.323-.577l11.4,4.545a1.041,1.041,0,0,1,.577,1.323l-1.526,3.8A.639.639,0,0,1,654.457,172.907Z" transform="translate(-641.962 -162.8)" fill="#ebebeb"/>
      </g>
    </g>
    <g id="Group_403" data-name="Group 403" transform="translate(16.549 0.406)">
      <g id="Group_402" data-name="Group 402">
        <g id="Group_401" data-name="Group 401">
          <path id="Path_826" data-name="Path 826" d="M646.386,169.324a28.371,28.371,0,0,1,2.1-5.325,14.742,14.742,0,0,1-.916,2.713A11.45,11.45,0,0,1,646.386,169.324Z" transform="translate(-646.378 -163.998)" fill="#e0e0e0"/>
        </g>
      </g>
    </g>
    <g id="Group_406" data-name="Group 406" transform="translate(17.974 0.983)">
      <g id="Group_405" data-name="Group 405">
        <g id="Group_404" data-name="Group 404">
          <path id="Path_827" data-name="Path 827" d="M650.586,171.024a28.349,28.349,0,0,1,2.1-5.325,28.358,28.358,0,0,1-2.1,5.325Z" transform="translate(-650.578 -165.698)" fill="#e0e0e0"/>
        </g>
      </g>
    </g>
    <g id="Group_409" data-name="Group 409" transform="translate(19.398 1.56)">
      <g id="Group_408" data-name="Group 408">
        <g id="Group_407" data-name="Group 407">
          <path id="Path_828" data-name="Path 828" d="M654.786,172.724a28.364,28.364,0,0,1,2.1-5.325,28.353,28.353,0,0,1-2.1,5.325Z" transform="translate(-654.778 -167.398)" fill="#e0e0e0"/>
        </g>
      </g>
    </g>
    <g id="Group_412" data-name="Group 412" transform="translate(20.823 2.102)">
      <g id="Group_411" data-name="Group 411">
        <g id="Group_410" data-name="Group 410">
          <path id="Path_829" data-name="Path 829" d="M658.986,174.324a28.371,28.371,0,0,1,2.1-5.325,14.758,14.758,0,0,1-.916,2.713A13.492,13.492,0,0,1,658.986,174.324Z" transform="translate(-658.978 -168.998)" fill="#e0e0e0"/>
        </g>
      </g>
    </g>
    <g id="Group_415" data-name="Group 415" transform="translate(22.247 2.679)">
      <g id="Group_414" data-name="Group 414">
        <g id="Group_413" data-name="Group 413">
          <path id="Path_830" data-name="Path 830" d="M663.186,176.024a28.347,28.347,0,0,1,2.1-5.325,28.36,28.36,0,0,1-2.1,5.325Z" transform="translate(-663.178 -170.698)" fill="#e0e0e0"/>
        </g>
      </g>
    </g>
    <g id="Group_418" data-name="Group 418" transform="translate(23.672 3.256)">
      <g id="Group_417" data-name="Group 417">
        <g id="Group_416" data-name="Group 416">
          <path id="Path_831" data-name="Path 831" d="M667.386,177.724a28.352,28.352,0,0,1,2.1-5.325,28.356,28.356,0,0,1-2.1,5.325Z" transform="translate(-667.378 -172.398)" fill="#e0e0e0"/>
        </g>
      </g>
    </g>
    <g id="Group_421" data-name="Group 421" transform="translate(25.063 3.798)">
      <g id="Group_420" data-name="Group 420">
        <g id="Group_419" data-name="Group 419">
          <path id="Path_832" data-name="Path 832" d="M671.486,179.324a28.347,28.347,0,0,1,2.1-5.325,14.761,14.761,0,0,1-.916,2.713A9.973,9.973,0,0,1,671.486,179.324Z" transform="translate(-671.478 -173.998)" fill="#e0e0e0"/>
        </g>
      </g>
    </g>
    <g id="Group_424" data-name="Group 424" transform="translate(26.487 4.375)">
      <g id="Group_423" data-name="Group 423">
        <g id="Group_422" data-name="Group 422">
          <path id="Path_833" data-name="Path 833" d="M675.686,181.024a28.331,28.331,0,0,1,2.1-5.325,14.759,14.759,0,0,1-.916,2.713A10.69,10.69,0,0,1,675.686,181.024Z" transform="translate(-675.678 -175.698)" fill="#e0e0e0"/>
        </g>
      </g>
    </g>
    <g id="Group_439" data-name="Group 439" transform="translate(6.139 14.58)">
      <g id="Group_426" data-name="Group 426">
        <g id="Group_425" data-name="Group 425">
          <path id="Path_834" data-name="Path 834" d="M630.513,221.8,616,216.034a.485.485,0,0,1-.271-.644l3.7-9.294a.485.485,0,0,1,.644-.271l14.517,5.766a.485.485,0,0,1,.271.644l-3.7,9.294A.515.515,0,0,1,630.513,221.8Z" transform="translate(-615.686 -205.786)" fill="#ebebeb"/>
        </g>
      </g>
      <g id="Group_429" data-name="Group 429" transform="translate(0.785 0.717)">
        <g id="Group_428" data-name="Group 428">
          <g id="Group_427" data-name="Group 427">
            <path id="Path_835" data-name="Path 835" d="M631.737,222.281a.343.343,0,0,1,.068-.17c.034-.136.1-.271.17-.475.17-.441.407-1.051.678-1.8.611-1.56,1.459-3.765,2.51-6.445l.068.17c-3.731-1.492-8.446-3.324-13.534-5.359-.034.034.373-.17.2-.068h0v.068l-.034.068-.068.136-.1.305-.237.577c-.17.373-.305.78-.475,1.153-.305.78-.61,1.526-.916,2.273-.577,1.492-1.153,2.917-1.7,4.274l-.068-.17c3.935,1.594,7.292,2.951,9.7,3.935,1.187.475,2.1.882,2.781,1.153.305.136.543.237.746.305a.3.3,0,0,1,.2.068,1.063,1.063,0,0,0-.238-.068c-.2-.068-.441-.17-.746-.271-.678-.271-1.628-.611-2.781-1.085-2.442-.95-5.834-2.273-9.836-3.833L618,216.99l.068-.136c.543-1.357,1.119-2.781,1.7-4.274.305-.746.611-1.492.916-2.273.136-.373.305-.78.475-1.153l.237-.577.1-.305.068-.136.034-.068V208h0c-.17.068.237-.1.2-.1,5.088,2.035,9.8,3.935,13.533,5.427l.1.034-.034.1c-1.085,2.68-2,4.918-2.646,6.478-.305.746-.543,1.323-.746,1.764a2.735,2.735,0,0,1-.2.441A.371.371,0,0,1,631.737,222.281Z" transform="translate(-618 -207.9)" fill="#e0e0e0"/>
          </g>
        </g>
      </g>
      <g id="Group_432" data-name="Group 432" transform="translate(5.635 4.58)">
        <g id="Group_431" data-name="Group 431">
          <g id="Group_430" data-name="Group 430">
            <path id="Path_836" data-name="Path 836" d="M641.491,222.955a42.554,42.554,0,0,1-4.647-1.7,44.446,44.446,0,0,1-4.545-1.967,42.53,42.53,0,0,1,4.647,1.7A44.412,44.412,0,0,1,641.491,222.955Z" transform="translate(-632.299 -219.287)" fill="#e0e0e0"/>
          </g>
        </g>
      </g>
      <g id="Group_435" data-name="Group 435" transform="translate(5.024 6.174)">
        <g id="Group_434" data-name="Group 434">
          <g id="Group_433" data-name="Group 433">
            <path id="Path_837" data-name="Path 837" d="M639.691,227.655a42.531,42.531,0,0,1-4.647-1.7,44.437,44.437,0,0,1-4.545-1.967,42.528,42.528,0,0,1,4.647,1.7A31.712,31.712,0,0,1,639.691,227.655Z" transform="translate(-630.499 -223.987)" fill="#e0e0e0"/>
          </g>
        </g>
      </g>
      <g id="Group_438" data-name="Group 438" transform="translate(4.414 7.666)">
        <g id="Group_437" data-name="Group 437">
          <g id="Group_436" data-name="Group 436">
            <path id="Path_838" data-name="Path 838" d="M637.891,232.055a42.54,42.54,0,0,1-4.647-1.7,44.448,44.448,0,0,1-4.545-1.967,42.539,42.539,0,0,1,4.647,1.7A44.423,44.423,0,0,1,637.891,232.055Z" transform="translate(-628.699 -228.387)" fill="#e0e0e0"/>
          </g>
        </g>
      </g>
    </g>
    <g id="Group_442" data-name="Group 442" transform="translate(15.572 7.187)">
      <g id="Group_441" data-name="Group 441">
        <g id="Group_440" data-name="Group 440">
          <path id="Path_839" data-name="Path 839" d="M653.539,187.995a48.13,48.13,0,0,1-5.088-1.866,53.441,53.441,0,0,1-4.952-2.137,48.127,48.127,0,0,1,5.088,1.866A53.463,53.463,0,0,1,653.539,187.995Z" transform="translate(-643.499 -183.988)" fill="#e0e0e0"/>
        </g>
      </g>
    </g>
    <g id="Group_445" data-name="Group 445" transform="translate(1.525 8.081)">
      <g id="Group_444" data-name="Group 444">
        <g id="Group_443" data-name="Group 443">
          <path id="Path_840" data-name="Path 840" d="M602.09,208.29a5.808,5.808,0,0,1,.339-.984c.237-.678.577-1.526.984-2.612.848-2.2,2.035-5.223,3.392-8.547.678-1.662,1.323-3.256,1.9-4.681a10.364,10.364,0,0,1,2.137-3.561,4.378,4.378,0,0,1,2.476-1.255,2.951,2.951,0,0,1,.78,0,2.48,2.48,0,0,1,.271.068,4.58,4.58,0,0,0-1.018.068,4.411,4.411,0,0,0-2.34,1.289,10.671,10.671,0,0,0-2.035,3.494c-.577,1.459-1.221,3.019-1.866,4.681-1.323,3.324-2.578,6.343-3.46,8.514-.441,1.051-.814,1.9-1.085,2.578C602.26,207.985,602.09,208.29,602.09,208.29Z" transform="translate(-602.085 -186.625)" fill="#fff"/>
        </g>
      </g>
    </g>
    <g id="Group_448" data-name="Group 448" transform="translate(0.886 32.664)">
      <g id="Group_447" data-name="Group 447">
        <g id="Group_446" data-name="Group 446">
          <path id="Path_841" data-name="Path 841" d="M619.33,266.766s-.237-.17-.645-.509a8.059,8.059,0,0,0-.746-.611c-.305-.237-.611-.509-1.018-.78a23.281,23.281,0,0,0-2.781-1.832,33.524,33.524,0,0,0-3.663-1.8,29.925,29.925,0,0,0-3.9-1.221,30.825,30.825,0,0,0-3.29-.577c-.475-.068-.916-.1-1.289-.136s-.712-.034-.984-.068a3.729,3.729,0,0,1-.814-.068,4.317,4.317,0,0,1,.848-.068h.984c.373.034.814.034,1.289.068a23.47,23.47,0,0,1,3.324.509,26.2,26.2,0,0,1,3.968,1.221,26.823,26.823,0,0,1,3.7,1.832,23.006,23.006,0,0,1,2.781,1.933,8.45,8.45,0,0,1,.984.848,4.638,4.638,0,0,1,.712.678C619.126,266.528,619.33,266.766,619.33,266.766Z" transform="translate(-600.2 -259.1)" fill="#fff"/>
        </g>
      </g>
    </g>
  </g>
  <g id="Group_452" data-name="Group 452" transform="translate(0.015 128.187)">
    <g id="Group_451" data-name="Group 451" transform="translate(0)">
      <g id="Group_450" data-name="Group 450">
        <path id="Path_842" data-name="Path 842" d="M50.646,471.98c13.194-6.682,18.112-21.844,19.6-35.886.237-2.34.848-4.783.034-6.987s-3.222-3.968-5.427-3.29c-1.832.577-2.883,2.476-4.1,4a13.767,13.767,0,0,1-6.207,4.443c-1.594.577-3.494.78-4.85-.237-1.866-1.391-1.7-4.206-1.357-6.512.644-4.308,1.289-8.649,1.933-12.957a22,22,0,0,0,.271-6.987,7.25,7.25,0,0,0-3.833-5.495c-2.137-.916-5.02-.034-5.834,2.171a20.443,20.443,0,0,0-.475,2.883,2.5,2.5,0,0,1-1.764,2.1c-.95.136-1.8-.645-2.408-1.425a30.745,30.745,0,0,1-4.342-9.158,43.049,43.049,0,0,0-3.935-9.362c-1.8-2.849-4.545-5.325-7.835-5.97s-7.123.882-8.446,4.036c-1.289,3.154.136,6.75,1.832,9.7a51.506,51.506,0,0,0,9.328,11.8,4.354,4.354,0,0,1,1.526,2.2c.271,1.628-1.391,2.951-2.985,3.256-1.8.339-3.663-.1-5.495-.17-1.832-.034-3.9.475-4.85,2.1-1.289,2.239.339,5.02,2.069,6.919A44.682,44.682,0,0,0,25.173,432.6a15.508,15.508,0,0,1,4.545,3.053c1.221,1.391,1.73,3.6.678,5.122s-3.256,1.73-5.02,1.153c-1.73-.577-3.188-1.8-4.816-2.68-3.019-1.662-7.157-2.035-9.6.441a7.437,7.437,0,0,0-1.7,6.377,17.082,17.082,0,0,0,2.713,6.241,44.9,44.9,0,0,0,17.163,16.077c7.021,3.6,13.771,5.257,21.5,3.6" transform="translate(-9.145 -383.171)" fill="#3ac468"/>
      </g>
    </g>
  </g>
  <g id="Group_456" data-name="Group 456" transform="translate(6.343 129.621)">
    <g id="Group_455" data-name="Group 455">
      <g id="Group_454" data-name="Group 454">
        <g id="Group_453" data-name="Group 453">
          <path id="Path_843" data-name="Path 843" d="M61.854,482c.271-5.6-.17-9.158-1.255-16.484a205.408,205.408,0,0,0-5.088-23.539c-.543-2.069-1.119-4.1-1.662-6.105s-1.085-4-1.73-5.9a104.413,104.413,0,0,0-4.375-10.752c-1.56-3.358-3.154-6.478-4.647-9.4-1.526-2.917-2.985-5.6-4.443-8a87.727,87.727,0,0,0-7.632-10.786c-.984-1.187-1.8-2.1-2.34-2.714-.271-.271-.475-.509-.644-.678L27.8,387.4a1.753,1.753,0,0,0,.2.237q.2.254.611.712c.543.611,1.323,1.526,2.306,2.747a84.086,84.086,0,0,1,7.5,10.82c1.425,2.408,2.883,5.088,4.375,8s3.087,6.038,4.613,9.4a106.894,106.894,0,0,1,4.308,10.718c.644,1.9,1.187,3.867,1.73,5.868s1.085,4.036,1.662,6.105a214.568,214.568,0,0,1,5.122,23.506c1.085,7.326,1.594,10.82,1.357,16.417" transform="translate(-27.8 -387.4)" fill="#e0e0e0"/>
        </g>
      </g>
    </g>
  </g>
  <g id="Group_460" data-name="Group 460" transform="translate(30.552 147.089)">
    <g id="Group_459" data-name="Group 459">
      <g id="Group_458" data-name="Group 458">
        <g id="Group_457" data-name="Group 457">
          <path id="Path_844" data-name="Path 844" d="M99.184,463.966a4.188,4.188,0,0,0,.373-.95c.2-.61.475-1.526.814-2.68.644-2.273,1.458-5.427,2.306-8.921.882-3.494,1.7-6.614,2.408-8.887.339-1.119.611-2.035.848-2.646a4.04,4.04,0,0,0,.271-.984,5.205,5.205,0,0,0-.441.916c-.237.611-.577,1.492-.95,2.612-.78,2.239-1.662,5.359-2.51,8.853-.848,3.426-1.628,6.546-2.2,8.921-.271,1.085-.509,1.967-.678,2.713A3.376,3.376,0,0,0,99.184,463.966Z" transform="translate(-99.175 -438.9)" fill="#e0e0e0"/>
        </g>
      </g>
    </g>
  </g>
  <g id="Group_464" data-name="Group 464" transform="translate(1.526 162.34)">
    <g id="Group_463" data-name="Group 463">
      <g id="Group_462" data-name="Group 462">
        <g id="Group_461" data-name="Group 461">
          <path id="Path_845" data-name="Path 845" d="M13.6,483.876a6.162,6.162,0,0,0,1.153.305c.746.17,1.866.441,3.188.78,2.68.678,6.377,1.764,10.379,3.12s7.6,2.747,10.142,3.833c1.289.543,2.306.984,3.019,1.289a6.734,6.734,0,0,0,1.119.441,8.162,8.162,0,0,0-1.051-.61c-.678-.373-1.7-.848-2.985-1.425-2.544-1.153-6.105-2.612-10.142-3.968a100.76,100.76,0,0,0-10.447-2.985c-1.357-.305-2.476-.509-3.222-.644A4.222,4.222,0,0,0,13.6,483.876Z" transform="translate(-13.6 -483.864)" fill="#e0e0e0"/>
        </g>
      </g>
    </g>
  </g>
  <g id="Group_468" data-name="Group 468" transform="translate(38.862 171.171)">
    <g id="Group_467" data-name="Group 467" transform="translate(0)">
      <g id="Group_466" data-name="Group 466">
        <g id="Group_465" data-name="Group 465">
          <path id="Path_846" data-name="Path 846" d="M123.683,545.854a2.959,2.959,0,0,0,.271-.339c.17-.271.407-.611.678-1.018.577-.882,1.357-2.171,2.34-3.765,1.933-3.222,4.443-7.734,7.157-12.753s5.19-9.565,7.021-12.821c.916-1.594,1.662-2.883,2.2-3.833.237-.407.441-.78.611-1.051.136-.237.2-.373.17-.373a2.965,2.965,0,0,0-.271.339c-.17.271-.407.61-.678,1.018-.577.882-1.357,2.171-2.34,3.765-1.933,3.222-4.443,7.733-7.157,12.753s-5.19,9.565-7.021,12.821c-.916,1.594-1.662,2.883-2.2,3.833-.237.407-.441.78-.611,1.051C123.717,545.718,123.649,545.854,123.683,545.854Z" transform="translate(-123.675 -509.9)" fill="#e0e0e0"/>
        </g>
      </g>
    </g>
  </g>
  <g id="Group_472" data-name="Group 472" transform="translate(1.018 188.741)">
    <g id="Group_471" data-name="Group 471">
      <g id="Group_470" data-name="Group 470">
        <g id="Group_469" data-name="Group 469">
          <path id="Path_847" data-name="Path 847" d="M12.1,561.7a1.973,1.973,0,0,0,.373.2c.305.135.644.339,1.085.543,1.018.509,2.374,1.153,4.036,1.967,3.426,1.662,8.107,4.036,13.3,6.648s9.9,4.952,13.364,6.546c1.73.814,3.121,1.425,4.1,1.866.441.2.814.339,1.119.475a4.271,4.271,0,0,0,.407.136,1.973,1.973,0,0,0-.373-.2c-.305-.136-.644-.339-1.085-.543-1.018-.509-2.374-1.153-4.036-1.967-3.426-1.662-8.107-4.036-13.3-6.648-5.156-2.646-9.87-4.952-13.33-6.546-1.73-.814-3.121-1.425-4.1-1.865-.441-.2-.814-.339-1.119-.475A3.142,3.142,0,0,0,12.1,561.7Z" transform="translate(-12.1 -561.7)" fill="#e0e0e0"/>
        </g>
      </g>
    </g>
  </g>
  <g id="Group_475" data-name="Group 475" transform="translate(0 223.702)">
    <g id="Group_474" data-name="Group 474" transform="translate(0)">
      <g id="Group_473" data-name="Group 473">
        <path id="Path_848" data-name="Path 848" d="M261.081,664.918c0,.068-56.406.136-125.973.136-69.6,0-126.007-.068-126.007-.136s56.407-.136,126.007-.136C204.674,664.749,261.081,664.817,261.081,664.918Z" transform="translate(-9.1 -664.774)" fill="#263238"/>
      </g>
    </g>
  </g>
  <g id="Group_476" data-name="Group 476" transform="translate(29.249 165.85)">
    <path id="Path_849" data-name="Path 849" d="M106.142,518.155c-1.628,2.307-4.749,1.56-6.207.136s-2.069-3.46-2.646-5.393c-1.289-4.443-2.578-9.124-1.628-13.635a7.333,7.333,0,0,1,1.73-3.7,3.973,3.973,0,0,1,3.765-1.255c1.594.407,2.578,1.967,3.29,3.46a32.693,32.693,0,0,1,3.222,13.974,11.383,11.383,0,0,1-1.526,6.411" transform="translate(-95.333 -494.213)" fill="#e8505b"/>
  </g>
  <g id="Group_477" data-name="Group 477" transform="translate(29.249 165.85)">
    <path id="Path_850" data-name="Path 850" d="M106.142,518.155c-1.628,2.307-4.749,1.56-6.207.136s-2.069-3.46-2.646-5.393c-1.289-4.443-2.578-9.124-1.628-13.635a7.333,7.333,0,0,1,1.73-3.7,3.973,3.973,0,0,1,3.765-1.255c1.594.407,2.578,1.967,3.29,3.46a32.693,32.693,0,0,1,3.222,13.974,11.383,11.383,0,0,1-1.526,6.411" transform="translate(-95.333 -494.213)" fill="#1d8228"/>
  </g>
  <g id="Group_478" data-name="Group 478" transform="translate(20.099 200.203)">
    <path id="Path_851" data-name="Path 851" d="M82.244,596.784a14.123,14.123,0,0,0-8.683-1.052,7.407,7.407,0,0,0-4.308,1.933c-1.085,1.187-1.289,3.256-.034,4.274a3.992,3.992,0,0,0,2.713.678c2.306-.034,4.85-.441,6.682.95,1.051.78,1.73,2.1,2.985,2.476a2.955,2.955,0,0,0,3.256-1.458,5.069,5.069,0,0,0,.373-3.731A5.721,5.721,0,0,0,82.244,596.784Z" transform="translate(-68.356 -595.492)" fill="#1d8228"/>
  </g>
  <g id="Group_479" data-name="Group 479" transform="translate(42.749 173.244)">
    <path id="Path_852" data-name="Path 852" d="M136.852,535.883a8.382,8.382,0,0,1-1.323-7.733,14.991,14.991,0,0,1,4.579-6.648,24.805,24.805,0,0,1,8.208-4.85,8.668,8.668,0,0,1,3.7-.611,3.858,3.858,0,0,1,3.087,1.866c.848,1.662.034,3.629-.848,5.257a60.073,60.073,0,0,1-5.393,8.208c-1.628,2.069-3.46,4.138-5.936,5.088s-5.02.814-6.309-.882" transform="translate(-135.133 -516.01)" fill="#1d8228"/>
  </g>
  <g id="Group_481" data-name="Group 481" transform="translate(28.119 203.436)">
    <g id="Group_480" data-name="Group 480" transform="translate(0)">
      <path id="Path_853" data-name="Path 853" d="M104.041,626.216a5.446,5.446,0,0,1-.136-1.051c-.068-.78-.17-1.73-.271-2.849a40.147,40.147,0,0,0-.644-4.206,31.519,31.519,0,0,0-1.526-4.952,16.772,16.772,0,0,0-2.544-4.477,9.328,9.328,0,0,0-3.188-2.646,9.016,9.016,0,0,0-2.68-.848c-.678-.068-1.051-.136-1.051-.136a4.187,4.187,0,0,1,1.051,0,7.384,7.384,0,0,1,2.815.746,9.993,9.993,0,0,1,3.392,2.68,16.646,16.646,0,0,1,2.612,4.579,32.568,32.568,0,0,1,1.526,5.054,32.973,32.973,0,0,1,.543,4.24c.1,1.221.136,2.2.136,2.883A4.627,4.627,0,0,1,104.041,626.216Z" transform="translate(-92 -605.025)" fill="#263238"/>
    </g>
  </g>
  <g id="Group_483" data-name="Group 483" transform="translate(34.563 175.106)">
    <g id="Group_482" data-name="Group 482">
      <path id="Path_854" data-name="Path 854" d="M116.393,568.816a2.681,2.681,0,0,1-.034-.475v-1.391c0-1.221,0-2.951-.068-5.122-.1-4.308-.475-10.277-1.187-16.824s-1.7-12.448-2.544-16.688q-.305-1.577-.611-2.849c-.2-.848-.339-1.56-.509-2.137-.136-.543-.237-.984-.339-1.357-.068-.305-.1-.475-.1-.475s.068.17.17.441q.153.509.407,1.323c.17.577.373,1.289.577,2.137s.441,1.8.678,2.849a157.232,157.232,0,0,1,2.68,16.688c.712,6.58,1.051,12.55,1.085,16.857.034,2.171-.034,3.9-.068,5.122-.034.577-.068,1.018-.1,1.391A2.9,2.9,0,0,1,116.393,568.816Z" transform="translate(-111 -521.5)" fill="#263238"/>
    </g>
  </g>
  <g id="Group_485" data-name="Group 485" transform="translate(39.897 178.631)">
    <g id="Group_484" data-name="Group 484" transform="translate(0)">
      <path id="Path_855" data-name="Path 855" d="M126.75,564.151a7.984,7.984,0,0,1,0-1.458c.068-.95.17-2.273.441-3.935a50.545,50.545,0,0,1,1.289-5.732,49.709,49.709,0,0,1,2.408-6.784,36.374,36.374,0,0,1,7.055-10.99,13.361,13.361,0,0,1,1.662-1.526c.271-.2.475-.441.712-.611s.441-.305.644-.441a7.966,7.966,0,0,1,1.221-.78,42.982,42.982,0,0,0-4,3.6,38.412,38.412,0,0,0-6.885,10.922,55.972,55.972,0,0,0-2.408,6.716,50.032,50.032,0,0,0-1.357,5.7c-.305,1.628-.475,2.985-.577,3.9A8.562,8.562,0,0,1,126.75,564.151Z" transform="translate(-126.725 -531.892)" fill="#263238"/>
    </g>
  </g>
  <g id="Group_487" data-name="Group 487" transform="translate(144.594 26.598)">
    <g id="Group_486" data-name="Group 486">
      <path id="Path_856" data-name="Path 856" d="M472.88,94.462c-.577-4.647-4.511-8.954-9.158-8.954a10.138,10.138,0,0,0-7.259,3.46,20.131,20.131,0,0,0-1.832,2.171,16.473,16.473,0,0,0-1.391-2.51,10.257,10.257,0,0,0-6.445-4.816c-4.579-.916-9.26,2.544-10.752,6.987s-.237,9.4,2.171,13.4A26.4,26.4,0,0,0,452.529,116c5.325-.678,12.414-5.393,15.569-8.819S473.457,99.109,472.88,94.462Z" transform="translate(-435.4 -83.664)" fill="#eda537"/>
    </g>
  </g>
  <g id="Group_490" data-name="Group 490" transform="translate(145.307 36.82)">
    <g id="Group_489" data-name="Group 489">
      <g id="Group_488" data-name="Group 488">
        <path id="Path_857" data-name="Path 857" d="M472.606,122.721h-.17c-.136,0-.271-.034-.441-.034-.407-.034-.984-.068-1.73-.136-1.526-.136-3.7-.339-6.343-.577l.1-.068c-.78,2-1.662,4.342-2.646,6.885l-.17.407-.1-.441c-.814-3.358-1.7-7.089-2.646-11.057-.305-1.221-.577-2.442-.848-3.6l.271.068c-1.73,2.374-3.358,4.613-4.85,6.682l-.034.068h-.068c-4.579-.475-8.412-.882-11.159-1.153-1.323-.136-2.408-.271-3.154-.339-.339-.034-.611-.068-.848-.1a2.018,2.018,0,0,0-.271-.034h.305c.2,0,.475.034.848.068.746.068,1.832.17,3.154.271,2.747.271,6.614.611,11.159,1.051l-.136.068c1.492-2.035,3.121-4.308,4.816-6.682l.2-.271.068.305c.271,1.187.577,2.374.848,3.6.95,3.968,1.832,7.7,2.646,11.057l-.271-.034c1.018-2.544,1.933-4.884,2.714-6.885l.034-.068h.068c2.646.271,4.816.509,6.343.678.712.1,1.289.136,1.73.2.17.034.339.034.441.068C472.538,122.687,472.606,122.687,472.606,122.721Z" transform="translate(-437.5 -113.8)" fill="#fafafa"/>
      </g>
    </g>
  </g>
  <g id="Group_491" data-name="Group 491" transform="translate(3.799 66.94)">
    <rect id="Rectangle_1480" data-name="Rectangle 1480" width="61.426" height="49.521" transform="translate(0 0.034)" fill="#ebebeb"/>
    <rect id="Rectangle_1481" data-name="Rectangle 1481" width="42.907" height="54.846" transform="translate(58.131 3.329) rotate(90)" fill="#fafafa"/>
    <rect id="Rectangle_1482" data-name="Rectangle 1482" width="2.035" height="42.059" transform="translate(51.766 23.318) rotate(90)" fill="#e0e0e0"/>
    <rect id="Rectangle_1483" data-name="Rectangle 1483" width="2.035" height="42.059" transform="translate(51.756 27.989) rotate(90)" fill="#e0e0e0"/>
    <rect id="Rectangle_1484" data-name="Rectangle 1484" width="2.035" height="42.059" transform="translate(51.747 32.66) rotate(90)" fill="#e0e0e0"/>
    <rect id="Rectangle_1485" data-name="Rectangle 1485" width="2.035" height="20.962" transform="translate(41.222 37.331) rotate(90)" fill="#e0e0e0"/>
    <path id="Path_858" data-name="Path 858" d="M30.067,205.924A6.369,6.369,0,0,1,23.69,212.3a6.3,6.3,0,0,1-3.29-.916V202.6h8.785A6.942,6.942,0,0,1,30.067,205.924Z" transform="translate(-20.366 -202.6)" fill="#ebebeb"/>
    <path id="Path_859" data-name="Path 859" d="M182.6,202.7v8.785a6.4,6.4,0,0,1-9.7-5.461,6.3,6.3,0,0,1,.916-3.29H182.6Z" transform="translate(-121.14 -202.666)" fill="#ebebeb"/>
    <path id="Path_860" data-name="Path 860" d="M30,326.511a6.3,6.3,0,0,1-.916,3.29H20.3v-8.785a6.4,6.4,0,0,1,9.7,5.495Z" transform="translate(-20.3 -280.246)" fill="#ebebeb"/>
    <path id="Path_861" data-name="Path 861" d="M182.6,321.016V329.8h-8.785a6.4,6.4,0,0,1,5.495-9.7A6.487,6.487,0,0,1,182.6,321.016Z" transform="translate(-121.14 -280.246)" fill="#ebebeb"/>
    <ellipse id="Ellipse_48" data-name="Ellipse 48" cx="5.461" cy="5.461" rx="5.461" ry="5.461" transform="translate(24.449 18.298) rotate(-80.782)" fill="#e0e0e0"/>
  </g>
  <ellipse id="Ellipse_49" data-name="Ellipse 49" cx="18.52" cy="18.52" rx="18.52" ry="18.52" transform="translate(143.374 166.287)" fill="#fff"/>
  <path id="Path_862" data-name="Path 862" d="M449.857,532.314a18.757,18.757,0,1,1,18.757-18.757A18.775,18.775,0,0,1,449.857,532.314Zm0-37.073a18.282,18.282,0,1,0,18.282,18.282A18.312,18.312,0,0,0,449.857,495.241Z" transform="translate(-287.964 -328.75)" fill="#0a586c"/>
  <g id="Group_492" data-name="Group 492" transform="translate(151.407 174.292)">
    <rect id="Rectangle_1486" data-name="Rectangle 1486" width="5.97" height="20.996" transform="translate(7.501)" fill="#0f88fc"/>
    <rect id="Rectangle_1487" data-name="Rectangle 1487" width="5.97" height="20.996" transform="translate(20.996 7.518) rotate(90)" fill="#0f88fc"/>
  </g>
  <path id="Path_863" data-name="Path 863" d="M115.607,127.09l-.407-.441a18.13,18.13,0,0,1,9.836-4.749l.068.577A17.533,17.533,0,0,0,115.607,127.09Z" transform="translate(-79.212 -82.333)" fill="#0f88fc"/>
  <path id="Path_864" data-name="Path 864" d="M102.643,147.476l-.543-.2a17.9,17.9,0,0,1,2.306-4.172l.475.339A16.286,16.286,0,0,0,102.643,147.476Z" transform="translate(-70.556 -96.342)" fill="#0f88fc"/>
  <ellipse id="Ellipse_50" data-name="Ellipse 50" cx="16.043" cy="16.043" rx="16.043" ry="16.043" transform="translate(32.358 41.467)" fill="#eda537"/>
  <path id="Path_865" data-name="Path 865" d="M139.163,149.485a6.7,6.7,0,0,0-9.565-.1,6.7,6.7,0,0,0-9.565.1,6.812,6.812,0,0,0,.237,9.531l7.6,7.6a2.457,2.457,0,0,0,3.46,0l7.6-7.6A6.877,6.877,0,0,0,139.163,149.485Z" transform="translate(-81.196 -99.199)" fill="#fff"/>
  <path id="Path_866" data-name="Path 866" d="M128.143,170.686h0a.55.55,0,0,1-.543-.407l-3.392-9.9-1.425,4.138a.581.581,0,0,1-.543.407h-5.664a.577.577,0,1,1,0-1.153h5.257l1.832-5.359a.565.565,0,0,1,1.085,0l3.46,10.074,3.358-7.869a.555.555,0,0,1,.509-.339.575.575,0,0,1,.543.305l1.8,3.222h5.325a.577.577,0,1,1,0,1.153h-5.664a.56.56,0,0,1-.509-.305l-1.391-2.476-3.46,8.174A.749.749,0,0,1,128.143,170.686Z" transform="translate(-79.741 -106.188)" fill="#0f88fc"/>
  <path id="Path_867" data-name="Path 867" d="M281.239,349.99H220.186a7.163,7.163,0,0,1-7.225-7.767l9.87-146.155a8.432,8.432,0,0,1,8.276-7.767h61.053a7.163,7.163,0,0,1,7.225,7.767l-9.87,146.155A8.482,8.482,0,0,1,281.239,349.99Z" transform="translate(-143.801 -126.211)" fill="#263238"/>
  <path id="Path_868" data-name="Path 868" d="M447.212,300.99h-1.526a1.987,1.987,0,0,1-2-2.171l1.9-27.949a2.355,2.355,0,0,1,2.306-2.171h1.526a1.987,1.987,0,0,1,2,2.171l-1.9,27.949A2.355,2.355,0,0,1,447.212,300.99Z" transform="translate(-296.275 -179.34)" fill="#263238"/>
  <path id="Path_869" data-name="Path 869" d="M233.28,282.335h-1.526a1.63,1.63,0,0,1-1.662-1.764l.678-10.108a1.918,1.918,0,0,1,1.9-1.764H234.2a1.63,1.63,0,0,1,1.662,1.764l-.678,10.108A1.969,1.969,0,0,1,233.28,282.335Z" transform="translate(-155.132 -179.34)" fill="#007cff"/>
  <path id="Path_870" data-name="Path 870" d="M229.68,335.535h-1.526a1.63,1.63,0,0,1-1.662-1.764l.678-10.108a1.918,1.918,0,0,1,1.9-1.764H230.6a1.63,1.63,0,0,1,1.662,1.764l-.678,10.108A1.945,1.945,0,0,1,229.68,335.535Z" transform="translate(-152.753 -214.495)" fill="#007cff"/>
  <path id="Path_871" data-name="Path 871" d="M277.439,349.99H216.386a7.163,7.163,0,0,1-7.225-7.767l9.87-146.155a8.432,8.432,0,0,1,8.276-7.767h61.053a7.163,7.163,0,0,1,7.225,7.767l-9.87,146.155A8.482,8.482,0,0,1,277.439,349.99Z" transform="translate(-141.29 -126.211)" fill="#474059"/>
  <path id="Path_872" data-name="Path 872" d="M211.1,359.461,220.733,216.8H296.2l-9.633,142.661Z" transform="translate(-142.585 -145.044)" fill="#fff"/>
  <path id="Path_873" data-name="Path 873" d="M298.9,359.461,325.831,216.8h16.925L315.825,359.461Z" transform="translate(-200.604 -145.044)" fill="#fff" opacity="0.1"/>
  <path id="Path_874" data-name="Path 874" d="M261.3,359.461,288.231,216.8h8.547L269.847,359.461Z" transform="translate(-175.757 -145.044)" fill="#fff" opacity="0.1"/>
  <path id="Path_875" data-name="Path 875" d="M328.314,199h14.721a.892.892,0,0,1,.882.95h0a1.058,1.058,0,0,1-1.018.95H328.178a.892.892,0,0,1-.882-.95h0A1.033,1.033,0,0,1,328.314,199Z" transform="translate(-219.367 -133.281)" fill="#fff"/>
  <path id="Path_876" data-name="Path 876" d="M307.521,683.305l-5.156.475L300.5,671.875l5.156-.475Z" transform="translate(-201.661 -445.45)" fill="#ffb570"/>
  <path id="Path_877" data-name="Path 877" d="M288.5,697.155l5.393-1.7a.367.367,0,0,1,.475.237L296.134,700a.921.921,0,0,1-.543,1.153,43.433,43.433,0,0,0-6.173,1.73c-2.747,1.187-3.9,2.747-6.885,2.747-2.137,0-2.612-1.933-1.7-2.2,4.07-1.255,3.561-2.273,6.546-5.461A2.189,2.189,0,0,1,288.5,697.155Z" transform="translate(-188.375 -461.335)" fill="#263238"/>
  <path id="Path_878" data-name="Path 878" d="M300.5,671.875l.984,6.139,5.156-.475-.95-6.139Z" transform="translate(-201.661 -445.45)" opacity="0.2"/>
  <path id="Path_879" data-name="Path 879" d="M262.282,228.782a65.6,65.6,0,0,0-20.249,1.051,5.4,5.4,0,0,0-4.342,4.647c-.746,6.478-1.56,20.962,1.7,42.6l27.644-2.34c.068-3.935-2.747-21.81-.441-40.363A4.9,4.9,0,0,0,262.282,228.782Z" transform="translate(-159.712 -152.718)" fill="#fff"/>
  <path id="Path_880" data-name="Path 880" d="M264.1,244.214l.984,1.967a.594.594,0,0,0,.509.339l1.085.068a.8.8,0,0,0,.543-.17l1.832-1.357L266.78,243.4Z" transform="translate(-177.608 -162.622)" fill="#263238"/>
  <path id="Path_881" data-name="Path 881" d="M265.588,250.872a1.74,1.74,0,0,0-1.255-.1c-.882,3.053-1.832,11.871-1.933,15.772,2.646,7.7,3.494,8.48,3.494,8.48l1.357-9.26S265.758,256.265,265.588,250.872Z" transform="translate(-176.484 -167.448)" fill="#263238"/>
  <path id="Path_882" data-name="Path 882" d="M272.707,190.2c-.644,3.8-1.153,10.786,1.56,13.262-2,2.1-4.613,4.545-9.124,4.816s-3.8-2.849-2.68-4.511c4.206-1.119,4-4.24,3.188-7.191Z" transform="translate(-175.972 -127.466)" fill="#f4d8b3"/>
  <path id="Path_883" data-name="Path 883" d="M282.277,227.522a5.686,5.686,0,0,0-.984-.339.442.442,0,0,0-.441.17c-.441.746-1.764,4.036-8.853,5.291a15.3,15.3,0,0,1,3.392,3.867c2.137-1.119,7.666-4.409,7.123-8.683A.51.51,0,0,0,282.277,227.522Z" transform="translate(-182.828 -151.9)" fill="#f5f5f5"/>
  <path id="Path_884" data-name="Path 884" d="M257.921,229.652a.393.393,0,0,0-.475-.475,3.827,3.827,0,0,0-.712.2c-.068.034-.1.034-.136.1-.543.509-3.494,4.783-.746,8.242a10.155,10.155,0,0,1,4.715-3.7C258.566,233.078,257.582,231.416,257.921,229.652Z" transform="translate(-171.395 -153.215)" fill="#f5f5f5"/>
  <path id="Path_885" data-name="Path 885" d="M277.672,197.8l-4.172,3.765a11.263,11.263,0,0,1,.441,2.069c1.594-.271,3.765-2.1,3.9-3.8A6.753,6.753,0,0,0,277.672,197.8Z" transform="translate(-183.819 -132.488)" opacity="0.2"/>
  <path id="Path_886" data-name="Path 886" d="M262.275,155.5c-3.6,1.391-3.833,4.375-3.494,7.6.339,3.256,3.833,1.085,4.613-.916C264.209,160.143,267.3,153.529,262.275,155.5Z" transform="translate(-174.019 -104.295)" fill="#263238"/>
  <path id="Path_887" data-name="Path 887" d="M273.647,158.968c-.984,5.088-1.323,8.107-4.24,10.481a6.685,6.685,0,0,1-10.854-4.783c-.475-4.715,1.255-12.279,6.478-13.737A6.821,6.821,0,0,1,273.647,158.968Z" transform="translate(-173.893 -101.322)" fill="#f4d8b3"/>
  <path id="Path_888" data-name="Path 888" d="M271.088,156.807c-4.274.237-3.392-2.2-2.612-3.6s-.814-3.7.237-4.918c-1.866.746-3.8.136-6.275-1.594-1.933-1.323-4.308,4-6.648,1.323-2.2-2.544-.17-6.343,5.156-6.953,5.291-.611,6.275,3.154,9.769,2.815s2.273,2.544,1.594,3.121C275.226,147.208,276.82,149.99,271.088,156.807Z" transform="translate(-171.537 -94.956)" fill="#263238"/>
  <path id="Path_889" data-name="Path 889" d="M304.2,152.531a4.274,4.274,0,0,0,2.239-3.731C307.558,150.8,307.456,153.108,304.2,152.531Z" transform="translate(-204.107 -100.109)" fill="#263238"/>
  <path id="Path_890" data-name="Path 890" d="M270.185,189.538a3.4,3.4,0,0,0,2.68-.644.118.118,0,0,0,.034-.17c-.034-.034-.136-.068-.17,0a3.445,3.445,0,0,1-2.985.475c-.068-.034-.136.034-.17.068a.124.124,0,0,0,.068.17A3.743,3.743,0,0,0,270.185,189.538Z" transform="translate(-181.216 -126.465)" fill="#263238"/>
  <path id="Path_891" data-name="Path 891" d="M296.334,185.171a5.118,5.118,0,0,1-3.256,1.9c-1.7.2-2.273-1.357-1.56-2.849.644-1.323,2.306-3.053,3.9-2.578A2.155,2.155,0,0,1,296.334,185.171Z" transform="translate(-195.528 -121.759)" fill="#f4d8b3"/>
  <path id="Path_892" data-name="Path 892" d="M263.435,418.124c.2-15.263,2.137-51.624,2.137-51.624L244,368.332s4.274,37.48,6.885,53.049c2.68,16.213,10.956,54.134,10.956,54.134l8.751-.746S267.4,429.928,263.435,418.124Z" transform="translate(-164.325 -243.968)" fill="#3b474d"/>
  <path id="Path_893" data-name="Path 893" d="M293.448,680.34l10.379-.882-.407-3.358-10.82.712Z" transform="translate(-196.441 -448.556)" fill="#0a586c"/>
  <path id="Path_894" data-name="Path 894" d="M278.721,174.51c-.068.407-.305.746-.577.712s-.441-.407-.373-.814.305-.746.577-.712C278.585,173.729,278.755,174.1,278.721,174.51Z" transform="translate(-186.632 -116.558)" fill="#263238"/>
  <path id="Path_895" data-name="Path 895" d="M264.621,173.309c-.068.407-.305.746-.577.712s-.441-.407-.373-.814.305-.746.577-.712S264.688,172.9,264.621,173.309Z" transform="translate(-177.314 -115.765)" fill="#263238"/>
  <path id="Path_896" data-name="Path 896" d="M265.61,176.4a15.93,15.93,0,0,1-2.51,2.951,2.563,2.563,0,0,0,1.9.475Z" transform="translate(-176.947 -118.347)" fill="#e8b179"/>
  <g id="Group_493" data-name="Group 493" transform="translate(84.137 57.544)">
    <path id="Path_897" data-name="Path 897" d="M257.581,175.3c-.1.678.611,1.221,1.526,1.357.916.1,1.8-.407,1.866-1.051" transform="translate(-257.431 -175.164)" fill="#007cff" opacity="0.4"/>
    <path id="Path_898" data-name="Path 898" d="M273.865,177.1c-.136.644.509,1.255,1.425,1.425a1.593,1.593,0,0,0,1.933-.95" transform="translate(-268.186 -176.354)" fill="#007cff" opacity="0.4"/>
    <path id="Path_899" data-name="Path 899" d="M264.633,177.24a.938.938,0,0,1-.305-.034,2.134,2.134,0,0,1-1.221-.543,1.206,1.206,0,0,1-.407-1.052,2.719,2.719,0,0,0-.95-.237,1.836,1.836,0,0,0-.984.034c-.068.712-.984,1.221-1.967,1.085a2.134,2.134,0,0,1-1.221-.543,1.205,1.205,0,0,1-.407-1.051l.271.034a.872.872,0,0,0,.339.78,2.146,2.146,0,0,0,1.052.475c.848.1,1.594-.271,1.662-.882.034-.339.712-.305,1.289-.237s1.221.237,1.187.543a.872.872,0,0,0,.339.78,2.146,2.146,0,0,0,1.051.475,1.9,1.9,0,0,0,1.153-.17.91.91,0,0,0,.509-.678l.034-.136,7.225.916-.034.271-6.953-.882a1.154,1.154,0,0,1-.644.746A1.57,1.57,0,0,1,264.633,177.24Z" transform="translate(-257.156 -174.9)" fill="#263238"/>
  </g>
  <path id="Path_900" data-name="Path 900" d="M282.365,167.594a.256.256,0,0,0,.136-.034.275.275,0,0,0,.1-.339A2.3,2.3,0,0,0,280.771,166a.255.255,0,0,0-.034.509h0a1.949,1.949,0,0,1,1.459.984C282.2,167.56,282.264,167.594,282.365,167.594Z" transform="translate(-188.445 -111.475)" fill="#263238"/>
  <path id="Path_901" data-name="Path 901" d="M261.616,165.985a.242.242,0,0,0,.2-.1,2.011,2.011,0,0,1,1.628-.78.262.262,0,0,0,.271-.237c0-.136-.068-.271-.2-.271a2.486,2.486,0,0,0-2.035.95.227.227,0,0,0,.034.339C261.514,165.985,261.548,165.985,261.616,165.985Z" transform="translate(-175.836 -110.544)" fill="#263238"/>
  <path id="Path_902" data-name="Path 902" d="M294.595,414.691c-4.477-23-5.461-40.974-9.7-49.691L264,367.34s12.448,34.258,18.52,48.877c6.309,15.2,18.757,41.177,18.757,41.177h10.447S301.989,425.171,294.595,414.691Z" transform="translate(-177.542 -242.977)" fill="#3b474d"/>
  <path id="Path_903" data-name="Path 903" d="M146.183,251.448l-2.239-1.425a1.9,1.9,0,0,0-2.374.271l-1.526,1.628a1.7,1.7,0,0,0,.17,2.544l1.085.95a8.715,8.715,0,0,0,3.256,1.764l3.29.984,2.171-2.34C150.66,253.382,146.183,251.448,146.183,251.448Z" transform="translate(-95.305 -166.803)" fill="#f4d8b3"/>
  <g id="Group_496" data-name="Group 496" transform="translate(48.945 80.541)">
    <g id="Group_494" data-name="Group 494">
      <path id="Path_904" data-name="Path 904" d="M188.743,245.719c-.814,2-1.628,3.867-2.51,5.766s-1.764,3.765-2.747,5.631-2,3.731-3.188,5.563c-.611.916-1.221,1.866-1.967,2.781a18.51,18.51,0,0,1-2.68,2.781,9.181,9.181,0,0,1-2.171,1.323,4.839,4.839,0,0,1-.746.271l-.407.1a2.856,2.856,0,0,1-.611.1,5.262,5.262,0,0,1-2.137-.17,8.244,8.244,0,0,1-2.442-1.119,16.245,16.245,0,0,1-1.594-1.187,38.618,38.618,0,0,1-4.647-4.85c-1.357-1.628-2.646-3.29-3.867-4.952-1.255-1.7-2.408-3.324-3.629-5.088l6.478-4.172a89.6,89.6,0,0,0,6.75,9.429,34.048,34.048,0,0,0,3.731,3.867,8.423,8.423,0,0,0,.814.611c.2.136.441.2.271.136a1.474,1.474,0,0,0-.644-.034,1.913,1.913,0,0,0-.237.034h-.068a3.319,3.319,0,0,0,.373-.271,9.907,9.907,0,0,0,1.425-1.594c.509-.678.984-1.425,1.458-2.2a53.308,53.308,0,0,0,2.646-4.986c.814-1.73,1.594-3.528,2.34-5.325.712-1.8,1.425-3.663,2-5.461Z" transform="translate(-153.4 -242.7)" fill="#ededed"/>
    </g>
    <g id="Group_495" data-name="Group 495" opacity="0.6">
      <path id="Path_905" data-name="Path 905" d="M188.743,245.719c-.814,2-1.628,3.867-2.51,5.766s-1.764,3.765-2.747,5.631-2,3.731-3.188,5.563c-.611.916-1.221,1.866-1.967,2.781a18.51,18.51,0,0,1-2.68,2.781,9.181,9.181,0,0,1-2.171,1.323,4.839,4.839,0,0,1-.746.271l-.407.1a2.856,2.856,0,0,1-.611.1,5.262,5.262,0,0,1-2.137-.17,8.244,8.244,0,0,1-2.442-1.119,16.245,16.245,0,0,1-1.594-1.187,38.618,38.618,0,0,1-4.647-4.85c-1.357-1.628-2.646-3.29-3.867-4.952-1.255-1.7-2.408-3.324-3.629-5.088l6.478-4.172a89.6,89.6,0,0,0,6.75,9.429,34.048,34.048,0,0,0,3.731,3.867,8.423,8.423,0,0,0,.814.611c.2.136.441.2.271.136a1.474,1.474,0,0,0-.644-.034,1.913,1.913,0,0,0-.237.034h-.068a3.319,3.319,0,0,0,.373-.271,9.907,9.907,0,0,0,1.425-1.594c.509-.678.984-1.425,1.458-2.2a53.308,53.308,0,0,0,2.646-4.986c.814-1.73,1.594-3.528,2.34-5.325.712-1.8,1.425-3.663,2-5.461Z" transform="translate(-153.4 -242.7)" fill="#ededed"/>
    </g>
  </g>
  <g id="Group_497" data-name="Group 497" transform="translate(75.662 74.524)">
    <path id="Path_906" data-name="Path 906" d="M256.093,225.043c-2.2,4.07-10.006,19.707-10.956,29.306-3.46-8.751-2.713-28.186-2.713-28.186a26.024,26.024,0,0,0-7.191,1.73,4.391,4.391,0,0,0-2.713,3.7,152.591,152.591,0,0,0,.95,30.086c2.408,18.893,4.681,48.266,4.681,48.266s19.334-.814,34.224-3.935c-1.832-14.449-8.039-38.633-8.107-45.112-.068-8.344.136-24.659.373-31.442a4.064,4.064,0,0,0-3.222-4.138A18.562,18.562,0,0,0,256.093,225.043Z" transform="translate(-232.17 -224.962)" fill="#ededed"/>
    <path id="Path_907" data-name="Path 907" d="M256.093,225.051c-2.2,4.07-10.006,19.707-10.956,29.306-3.46-8.751-2.713-28.186-2.713-28.186a26.024,26.024,0,0,0-7.191,1.73,4.391,4.391,0,0,0-2.713,3.7,152.591,152.591,0,0,0,.95,30.086c2.408,18.893,4.681,48.266,4.681,48.266s19.334-.814,34.224-3.935c-1.832-14.449-8.039-38.633-8.107-45.112-.068-8.344.136-24.659.373-31.442a4.029,4.029,0,0,0-3.053-4.1A19.02,19.02,0,0,0,256.093,225.051Z" transform="translate(-232.17 -224.971)" fill="#ededed" opacity="0.7"/>
  </g>
  <path id="Path_908" data-name="Path 908" d="M277.141,370.812c-3.358-18.52-6-45.688-6.241-48.978l.305-.034c.2,3.256,2.883,30.425,6.241,48.944Z" transform="translate(-182.101 -214.429)" fill="#fff"/>
  <path id="Path_909" data-name="Path 909" d="M234.989,310.221H217.182a1.7,1.7,0,0,1-1.56-1.255l-5.97-27.711a.987.987,0,0,1,.984-1.255h17.807a1.7,1.7,0,0,1,1.56,1.255l5.97,27.711A.973.973,0,0,1,234.989,310.221Z" transform="translate(-141.611 -186.807)" fill="#fff"/>
  <path id="Path_910" data-name="Path 910" d="M232.477,310.03H214.365a1.662,1.662,0,0,1-1.56-1.289l-6.071-28.152a1,1,0,0,1,1.018-1.289h18.112a1.662,1.662,0,0,1,1.56,1.289l6.071,28.152A1,1,0,0,1,232.477,310.03Z" transform="translate(-139.676 -186.345)" fill="#eda537"/>
  <path id="Path_911" data-name="Path 911" d="M270.261,322.657l-4.511-.17a3.682,3.682,0,0,0-1.594.271l-2.34.916a1.74,1.74,0,0,0-.95,2.374l.95,2.035a1.9,1.9,0,0,0,2.171,1.018l2.578-.644s4.85-.373,5.02-2.917Z" transform="translate(-175.357 -214.88)" fill="#f4d8b3"/>
  <g id="Group_500" data-name="Group 500" transform="translate(92.801 77.081)">
    <g id="Group_498" data-name="Group 498">
      <path id="Path_912" data-name="Path 912" d="M297.251,232.5c1.119,1.73,2.137,3.358,3.154,5.088,1.018,1.7,2,3.426,2.917,5.19.916,1.8,1.8,3.6,2.612,5.563a26.441,26.441,0,0,1,1.051,3.154,12.621,12.621,0,0,1,.509,4v.339c-.034.2-.068.407-.1.644a3.332,3.332,0,0,1-.17.543c-.068.17-.136.339-.2.475a7.5,7.5,0,0,1-.848,1.425,10.475,10.475,0,0,1-1.628,1.628,21.626,21.626,0,0,1-2.917,1.933,54.9,54.9,0,0,1-5.563,2.646c-1.832.78-3.663,1.492-5.529,2.171s-3.663,1.323-5.6,1.967l-2.239-7.36c1.73-.475,3.528-1.051,5.291-1.662s3.494-1.255,5.156-1.967a41.18,41.18,0,0,0,4.749-2.306,16.244,16.244,0,0,0,1.866-1.221,1.37,1.37,0,0,0,.407-.407c.034-.034-.034.034-.1.2-.034.034-.034.068-.068.136s-.034.136-.068.2a.746.746,0,0,0-.034.271v.034h0v-.034a7.054,7.054,0,0,0-.305-1.628,16.643,16.643,0,0,0-.848-2.239,51.571,51.571,0,0,0-2.408-4.715c-.916-1.56-1.866-3.121-2.917-4.681-1.018-1.526-2.1-3.087-3.188-4.477Z" transform="translate(-282.7 -232.5)" fill="#ededed"/>
    </g>
    <g id="Group_499" data-name="Group 499" opacity="0.7">
      <path id="Path_913" data-name="Path 913" d="M297.251,232.5c1.119,1.73,2.137,3.358,3.154,5.088,1.018,1.7,2,3.426,2.917,5.19.916,1.8,1.8,3.6,2.612,5.563a26.441,26.441,0,0,1,1.051,3.154,12.621,12.621,0,0,1,.509,4v.339c-.034.2-.068.407-.1.644a3.332,3.332,0,0,1-.17.543c-.068.17-.136.339-.2.475a7.5,7.5,0,0,1-.848,1.425,10.475,10.475,0,0,1-1.628,1.628,21.626,21.626,0,0,1-2.917,1.933,54.9,54.9,0,0,1-5.563,2.646c-1.832.78-3.663,1.492-5.529,2.171s-3.663,1.323-5.6,1.967l-2.239-7.36c1.73-.475,3.528-1.051,5.291-1.662s3.494-1.255,5.156-1.967a41.18,41.18,0,0,0,4.749-2.306,16.244,16.244,0,0,0,1.866-1.221,1.37,1.37,0,0,0,.407-.407c.034-.034-.034.034-.1.2-.034.034-.034.068-.068.136s-.034.136-.068.2a.746.746,0,0,0-.034.271v.034h0v-.034a7.054,7.054,0,0,0-.305-1.628,16.643,16.643,0,0,0-.848-2.239,51.571,51.571,0,0,0-2.408-4.715c-.916-1.56-1.866-3.121-2.917-4.681-1.018-1.526-2.1-3.087-3.188-4.477Z" transform="translate(-282.7 -232.5)" fill="#ededed"/>
    </g>
  </g>
  <path id="Path_914" data-name="Path 914" d="M292,256.445a.293.293,0,0,1-.2-.1.221.221,0,0,1,.068-.305l.916-.577a4.94,4.94,0,0,0,2.2-5.19l-1.832-9.294a3.142,3.142,0,0,0-6.105-.271l-2.612,9.124a5,5,0,0,0,1.764,5.359l.848.644a.241.241,0,0,1-.305.373l-.848-.645a5.374,5.374,0,0,1-1.933-5.834l2.612-9.124a3.615,3.615,0,0,1,7.021.305l1.832,9.294a5.394,5.394,0,0,1-2.442,5.664l-.916.577C292.1,256.412,292.037,256.445,292,256.445Z" transform="translate(-190.586 -159.047)" fill="#263238"/>
  <path id="Path_915" data-name="Path 915" d="M299.018,245.746h0l-6.58-.271a.232.232,0,0,1-.237-.237c0-.136.1-.2.237-.237l6.58.271a.232.232,0,0,1,.237.237C299.221,245.678,299.119,245.746,299.018,245.746Z" transform="translate(-196.176 -163.679)" fill="#263238"/>
  <path id="Path_916" data-name="Path 916" d="M299.208,230.718a.232.232,0,0,1-.237-.237c-.034-1.153-.373-3.188-1.458-3.663-.136-.034-.17-.17-.136-.305s.17-.17.305-.136c1.628.678,1.73,3.731,1.764,4.07a.242.242,0,0,1-.237.271Z" transform="translate(-199.589 -151.364)" fill="#263238"/>
  <path id="Path_917" data-name="Path 917" d="M243.187,239.2h-.034a.21.21,0,0,1-.17-.271c.78-3.833,3.968-9.9,6.784-11.7a.221.221,0,1,1,.237.373c-2.714,1.73-5.8,7.632-6.58,11.4A.248.248,0,0,1,243.187,239.2Z" transform="translate(-163.648 -151.914)" fill="#263238"/>
  <path id="Path_918" data-name="Path 918" d="M244.64,260.133c-.373.916-1.153,1.492-1.764,1.255s-.814-1.187-.441-2.137c.373-.916,1.153-1.492,1.764-1.255C244.809,258.267,245.013,259.217,244.64,260.133Z" transform="translate(-163.167 -172.231)" fill="#fff"/>
  <path id="Path_919" data-name="Path 919" d="M292.811,289.514c-.034.441-.271.78-.543.78s-.509-.373-.475-.814.271-.78.543-.78C292.608,288.734,292.811,289.073,292.811,289.514Z" transform="translate(-195.906 -192.557)" fill="#fff"/>
  <path id="Path_920" data-name="Path 920" d="M307.711,290.114c-.034.441-.271.78-.543.78s-.509-.373-.475-.814.271-.78.543-.78C307.508,289.334,307.711,289.707,307.711,290.114Z" transform="translate(-205.752 -192.953)" fill="#fff"/>
  <path id="Path_921" data-name="Path 921" d="M583.233,247.711l-.577-.034a9.009,9.009,0,0,0-9.056-9.7V237.4a9.561,9.561,0,0,1,7.089,3.053A9.46,9.46,0,0,1,583.233,247.711Z" transform="translate(-382.13 -158.657)" fill="#0f88fc"/>
  <rect id="Rectangle_1488" data-name="Rectangle 1488" width="4.85" height="0.577" transform="translate(200.041 96.552) rotate(-86.193)" fill="#0f88fc"/>
  <path id="Path_922" data-name="Path 922" d="M477.282,243.4H436.953a8.9,8.9,0,0,0-8.717,8.14l-.373,5.427a7.537,7.537,0,0,0,7.6,8.14H475.79l7.835,4.816,1.255-18.418A7.527,7.527,0,0,0,477.282,243.4Z" transform="translate(-285.812 -162.622)" fill="#0f88fc"/>
  <rect id="Rectangle_1489" data-name="Rectangle 1489" width="37.378" height="1.357" transform="translate(152.057 88.58)" fill="#fff"/>
  <rect id="Rectangle_1490" data-name="Rectangle 1490" width="27.745" height="1.357" transform="translate(161.35 93.362)" fill="#fff"/>
  <g id="Group_501" data-name="Group 501" transform="translate(120.58 109.847)">
    <path id="Path_923" data-name="Path 923" d="M374.776,329.1H416.02a7.726,7.726,0,0,1,7.767,8.344l-.373,5.563a9.082,9.082,0,0,1-8.887,8.344H373.283L364.6,356.3l1.289-18.825A9.086,9.086,0,0,1,374.776,329.1Z" transform="translate(-364.6 -329.1)" fill="#ededed"/>
    <path id="Path_924" data-name="Path 924" d="M374.776,329.1H416.02a7.726,7.726,0,0,1,7.767,8.344l-.373,5.563a9.082,9.082,0,0,1-8.887,8.344H373.283L364.6,356.3l1.289-18.825A9.086,9.086,0,0,1,374.776,329.1Z" transform="translate(-364.6 -329.1)" fill="#ededed" opacity="0.15"/>
  </g>
  <rect id="Rectangle_1491" data-name="Rectangle 1491" width="38.226" height="1.391" transform="translate(131.706 117.817)" fill="#0f88fc"/>
  <rect id="Rectangle_1492" data-name="Rectangle 1492" width="15.094" height="1.391" transform="translate(131.366 122.736)" fill="#0f88fc"/>
  <rect id="Rectangle_1493" data-name="Rectangle 1493" width="9.633" height="1.391" transform="translate(150.157 122.736)" fill="#0f88fc"/>
</svg>
