<svg id="notification" xmlns="http://www.w3.org/2000/svg" width="17.396" height="18.979" viewBox="0 0 17.396 18.979">
  <circle id="Ellipse_68" data-name="Ellipse 68" cx="2.606" cy="2.606" r="2.606" transform="translate(5.249 13.211)" fill="#eda537"/>
  <path id="Path_1139" data-name="Path 1139" d="M56.393,90.742a4.928,4.928,0,0,1-1.683-3.725V84.989a4.947,4.947,0,1,0-9.89,0v2.028a4.926,4.926,0,0,1-1.687,3.729,1.292,1.292,0,0,0-.434.967,1.257,1.257,0,0,0,1.238,1.271H55.6a1.257,1.257,0,0,0,1.238-1.271A1.309,1.309,0,0,0,56.393,90.742Z" transform="translate(-41.91 -76.938)" fill="#eceff1"/>
  <circle id="Ellipse_69" data-name="Ellipse 69" cx="3.955" cy="3.955" r="3.955" transform="translate(9.486 0)" fill="#eda537"/>
  <path id="Path_1140" data-name="Path 1140" d="M157.665,419.558a2.969,2.969,0,0,1-2.965-2.965.593.593,0,1,1,1.186,0,1.779,1.779,0,1,0,3.558,0,.593.593,0,0,1,1.186,0A2.969,2.969,0,0,1,157.665,419.558Z" transform="translate(-149.759 -400.58)" fill="#0f88fc"/>
  <path id="Path_1141" data-name="Path 1141" d="M35.83,78.234H22.783a1.383,1.383,0,0,1-.9-2.435.405.405,0,0,1,.063-.048,5.312,5.312,0,0,0,1.824-4.011V69.534A5.537,5.537,0,0,1,29.306,64a2.742,2.742,0,0,1,.389.022A.592.592,0,1,1,29.5,65.19a1.162,1.162,0,0,0-.2-.007,4.352,4.352,0,0,0-4.348,4.348v2.206a6.513,6.513,0,0,1-2.294,4.96.2.2,0,0,1-.033.026.185.185,0,0,0-.041.122.2.2,0,0,0,.2.2H35.834a.2.2,0,0,0,.2-.2.185.185,0,0,0-.044-.122c-.011-.007-.022-.019-.033-.026a6.5,6.5,0,0,1-2.294-4.96v-.864a.593.593,0,0,1,1.186,0v.864a5.308,5.308,0,0,0,1.827,4.011c.022.015.041.03.059.044a1.388,1.388,0,0,1-.9,2.443Z" transform="translate(-21.4 -61.628)" fill="#0f88fc"/>
  <path id="Path_1142" data-name="Path 1142" d="M281.255,7.906a3.953,3.953,0,1,1,3.955-3.951A3.961,3.961,0,0,1,281.255,7.906Zm0-6.72a2.769,2.769,0,1,0,2.769,2.769A2.772,2.772,0,0,0,281.255,1.186Z" transform="translate(-267.814)" fill="#0f88fc"/>
</svg>
