<svg xmlns="http://www.w3.org/2000/svg" width="79.284" height="79.265" viewBox="0 0 79.284 79.265">
  <g id="Group_3508" data-name="Group 3508" transform="translate(-53.713 -176.485)">
    <g id="Ellipse_6" data-name="Ellipse 6" transform="translate(53.713 176.485)" fill="#fff" stroke="#8f98ff" stroke-width="0.667">
      <ellipse cx="39.642" cy="39.632" rx="39.642" ry="39.632" stroke="none"/>
      <ellipse cx="39.642" cy="39.632" rx="39.309" ry="39.299" fill="none"/>
    </g>
    <g id="gettyimages-1154961147-612x612" transform="translate(71.937 191.831)">
      <path id="Path_1555" data-name="Path 1555" d="M204.128-446.632a25.639,25.639,0,0,0-8.031,2.357,24.363,24.363,0,0,0-13.216,17.126,27.979,27.979,0,0,0,0,9.5,24.328,24.328,0,0,0,13.041,17.022,25.043,25.043,0,0,0,8.607,2.5c1.152.157,1.851-.122,2.13-.8a3.835,3.835,0,0,0-.227-2.723,4.976,4.976,0,0,0-1.9-.524,20.775,20.775,0,0,1-8.869-3.195,20.272,20.272,0,0,1-3.247-31.337,19.938,19.938,0,0,1,11.854-5.848c.786-.1,1.571-.227,1.746-.279.454-.14.821-1,.821-1.885C206.834-446.457,206.188-446.894,204.128-446.632Z" transform="translate(-182.475 446.702)" fill="#8f98ff"/>
      <path id="Path_1556" data-name="Path 1556" d="M230.143-414.7a5.222,5.222,0,0,0-.838.21,17,17,0,0,0,2.689,2.025c.3.157.681.087,2.06-.419,1.938-.681,2.182-.646,2.5.4.384,1.24.4,1.222-1.973,2.008-.821.279-.925.628-.594,1.816.175.646.175.821-.035,1.013a2.87,2.87,0,0,1-1.816.489,3.778,3.778,0,0,1-.716-1.536l-.489-1.449-2.025-1.5c-2.863-2.078-2.689-2.025-4.225-1.257a18.521,18.521,0,0,0-8.345,8.555,19.711,19.711,0,0,0-1.746,5.622c0,.4.07.419,1.013.419a3.7,3.7,0,0,0,1.187-.14,11.568,11.568,0,0,0,1.082-1.4l.908-1.257v-3.719l1.781-1.8a10.878,10.878,0,0,1,2.06-1.816c.384,0,1.4,1.082,1.4,1.484a5.792,5.792,0,0,1-1.292,1.659c-1.2,1.2-1.309,1.362-1.344,2.095-.052,1.309-.157,1.24,1.728,1.2l1.693-.017,1.5-1.466a9.089,9.089,0,0,1,1.763-1.466c.367,0,1.362,1.1,1.362,1.5a3.648,3.648,0,0,1-.96,1.292,3.44,3.44,0,0,0-.96,1.309,3.66,3.66,0,0,0,1.048,1.4,3.414,3.414,0,0,1,1.047,1.414,2.679,2.679,0,0,1-1.432,1.467,10.986,10.986,0,0,1-1.693-1.484l-1.5-1.466-2.147-.035c-1.187,0-2.182,0-2.2.035-.035.035-.628.873-1.309,1.851l-1.274,1.781-1.763.052-1.781.052.035,1.309a19.032,19.032,0,0,0,4.242,10.405,4.312,4.312,0,0,0,.646.646,20.21,20.21,0,0,0,4.277-2.758,6.251,6.251,0,0,0,.14-1.641v-1.466l-.96-1.013a5.05,5.05,0,0,1-.96-1.24c0-.367,1.1-1.362,1.5-1.362a2.038,2.038,0,0,1,.943.611,2.068,2.068,0,0,0,.908.611,12.112,12.112,0,0,0,2.217-1.065,9.143,9.143,0,0,1,2.235-1c.454.087,1.2,1.5.978,1.868a13.847,13.847,0,0,1-2.252,1.414l-2.078,1.152-.052,1.187c-.052,1.4.017,1.5,1.24,1.5.751,0,.925-.087,1.676-.786a2.861,2.861,0,0,1,1.2-.786,2.93,2.93,0,0,1,1.432,1.4,2.424,2.424,0,0,1-.506.733l-.506.576,1.309,1.362,1.309,1.344-.314.471a2.3,2.3,0,0,1-1.292,1.1,7.965,7.965,0,0,1-1.746-1.484l-1.484-1.484h-3.3l-1.885,1.24a10.389,10.389,0,0,0-1.885,1.449,3.692,3.692,0,0,0,1.1.925,19.307,19.307,0,0,0,7.664,3.038,25.392,25.392,0,0,0,7.507-.332,14.668,14.668,0,0,0,4.417-1.885,1.578,1.578,0,0,1,.716-.419c.8,0,4.138-3.038,5.569-5.063a27.282,27.282,0,0,0,1.536-2.531,17.761,17.761,0,0,0,1.449-4.225c-.035-.035-.175.227-.279.594-1.24,3.788-4.172,5.883-7.071,5.028-1.92-.559-3.788-2.933-4.661-5.936a17.131,17.131,0,0,1,0-7.647c.768-2.706,2.217-4.766,3.946-5.674a4.857,4.857,0,0,1,3.946-.1,8.124,8.124,0,0,1,3.771,4.679c.576,1.554.506.855-.1-.96a18.8,18.8,0,0,0-14.316-12.622A26.361,26.361,0,0,0,230.143-414.7Z" transform="translate(-208.909 420.426)" fill="#8f98ff"/>
      <path id="Path_1557" data-name="Path 1557" d="M391.952-337.614c-1.659,1.065-2.479,3.387-2.165,6.058.594,4.8,4.853,5.9,6.46,1.659.978-2.566.314-6.163-1.362-7.437A2.783,2.783,0,0,0,391.952-337.614Z" transform="translate(-353.54 356.906)" fill="#8f98ff"/>
    </g>
  </g>
</svg>
