<svg xmlns="http://www.w3.org/2000/svg" width="45" height="45" viewBox="0 0 45 45"><defs><style>.a{fill:#1089fe;}.b{fill:#fff;}</style></defs><g transform="translate(0.4 0.326)"><circle class="a" cx="22.5" cy="22.5" r="22.5" transform="translate(-0.4 -0.326)"/><g transform="translate(13.426 10.549)"><path class="b" d="M81.461,5.033,76.572.144A.487.487,0,0,0,76.226,0H65.956A1.958,1.958,0,0,0,64,1.956V21.517a1.958,1.958,0,0,0,1.956,1.956H79.649A1.958,1.958,0,0,0,81.6,21.517V5.379A.487.487,0,0,0,81.461,5.033ZM68.4,20.539a1.467,1.467,0,1,1,1.467-1.467A1.469,1.469,0,0,1,68.4,20.539Zm0-4.89a1.467,1.467,0,1,1,1.467-1.467A1.469,1.469,0,0,1,68.4,15.649Zm2.934-4.89H69.379a.489.489,0,0,1-.489-.489V8.8H67.423a.489.489,0,0,1-.489-.489V6.357a.489.489,0,0,1,.489-.489H68.89V4.4a.489.489,0,0,1,.489-.489h1.956a.489.489,0,0,1,.489.489V5.868h1.467a.489.489,0,0,1,.489.489V8.313a.489.489,0,0,1-.489.489H71.824V10.27A.489.489,0,0,1,71.335,10.759Zm6.846,8.8H72.313a.489.489,0,0,1,0-.978h5.868a.489.489,0,1,1,0,.978Zm0-4.89H72.313a.489.489,0,0,1,0-.978h5.868a.489.489,0,1,1,0,.978ZM77.693,4.89a.979.979,0,0,1-.978-.978V1.67L79.935,4.89Z" transform="translate(-64)"/></g></g></svg>