<svg xmlns="http://www.w3.org/2000/svg" width="79.284" height="79.265" viewBox="0 0 79.284 79.265">
  <g id="Group_3512" data-name="Group 3512" transform="translate(-53.713 -616.737)">
    <g id="Ellipse_6_copy_4" data-name="Ellipse 6 copy 4" transform="translate(53.713 616.737)" fill="#fff" stroke="#7cc17c" stroke-width="0.667">
      <ellipse cx="39.642" cy="39.632" rx="39.642" ry="39.632" stroke="none"/>
      <ellipse cx="39.642" cy="39.632" rx="39.309" ry="39.299" fill="none"/>
    </g>
    <g id="broken-bone" transform="translate(76.733 630.165)">
      <g id="Group_1010" data-name="Group 1010" transform="translate(24.329 17.681)">
        <path id="Path_1569" data-name="Path 1569" d="M365.8,244.067h-2.327a1.533,1.533,0,0,1,0-3.067H365.8a1.533,1.533,0,1,1,0,3.067Z" transform="translate(-359.218 -234.043)" fill="#7cc17c"/>
        <path id="Path_1570" data-name="Path 1570" d="M338.456,297.665a1.528,1.528,0,0,1-1.084-.449l-1.645-1.645A1.533,1.533,0,0,1,337.9,293.4l1.645,1.645a1.534,1.534,0,0,1-1.084,2.618Z" transform="translate(-335.278 -280.685)" fill="#7cc17c"/>
        <path id="Path_1571" data-name="Path 1571" d="M336.811,177.665a1.534,1.534,0,0,1-1.084-2.618l1.645-1.645a1.533,1.533,0,0,1,2.169,2.169l-1.645,1.645A1.529,1.529,0,0,1,336.811,177.665Z" transform="translate(-335.278 -172.953)" fill="#7cc17c"/>
      </g>
      <g id="Group_1011" data-name="Group 1011">
        <path id="Path_1572" data-name="Path 1572" d="M121.546,310.2l-2.688-12.128a5.6,5.6,0,0,0-2.778-10.766,5.564,5.564,0,0,0-2.342.878,4.323,4.323,0,0,1-3.758.5,5.6,5.6,0,0,0-7.249,6.326,5.619,5.619,0,0,0,4.911,4.563l1.45,10.654Z" transform="translate(-102.093 -257.893)" fill="#7cc17c"/>
        <path id="Path_1573" data-name="Path 1573" d="M121.066.022l-6.847,14.1a5.6,5.6,0,0,1-5.6,9.6,5.568,5.568,0,0,1-2.015-1.482,4.325,4.325,0,0,0-3.48-1.508,5.6,5.6,0,1,1,.705-11.115L108.118,0Z" transform="translate(-97.298)" fill="#7cc17c"/>
      </g>
    </g>
  </g>
</svg>
