<svg xmlns="http://www.w3.org/2000/svg" width="15.436" height="20.582" viewBox="0 0 15.436 20.582">
  <path id="padlock_1_" data-name="padlock (1)" d="M16.507,7.718h-.643V5.145a5.145,5.145,0,0,0-10.291,0V7.718H4.93A1.932,1.932,0,0,0,3,9.648v9a1.932,1.932,0,0,0,1.93,1.93H16.507a1.932,1.932,0,0,0,1.93-1.93v-9A1.932,1.932,0,0,0,16.507,7.718ZM7.288,5.145a3.43,3.43,0,1,1,6.861,0V7.718H7.288Zm4.288,9.195v1.954a.858.858,0,1,1-1.715,0V14.34a1.715,1.715,0,1,1,1.715,0Z" transform="translate(-3)" fill="#1089fe"/>
</svg>
