<svg xmlns="http://www.w3.org/2000/svg" width="79.284" height="79.265" viewBox="0 0 79.284 79.265">
  <g id="Group_3511" data-name="Group 3511" transform="translate(-226.361 -397.09)">
    <g id="Ellipse_6_copy_3" data-name="Ellipse 6 copy 3" transform="translate(226.361 397.09)" fill="#fff" stroke="#5893ff" stroke-width="0.667">
      <ellipse cx="39.642" cy="39.632" rx="39.642" ry="39.632" stroke="none"/>
      <ellipse cx="39.642" cy="39.632" rx="39.309" ry="39.299" fill="none"/>
    </g>
    <g id="_500_F_284590266_sUY2Tr2PlU04himO6bSgX4QAJFsj0igi" data-name="500_F_284590266_sUY2Tr2PlU04himO6bSgX4QAJFsj0igi" transform="translate(245.543 410.519)">
      <path id="Path_1567" data-name="Path 1567" d="M178.716-486.729a8.9,8.9,0,0,0-7.107,5.377,8.8,8.8,0,0,0,3.67,10.91,8.756,8.756,0,0,0,11.741-2.739,8.737,8.737,0,0,0-2.373-12.052A8.879,8.879,0,0,0,178.716-486.729Z" transform="translate(-159.57 486.783)" fill="#5893ff"/>
      <path id="Path_1568" data-name="Path 1568" d="M80.857-310.9a7.97,7.97,0,0,0-2.65,1.109,14.952,14.952,0,0,0-3.293,3.382,103.143,103.143,0,0,0-5.6,11.3,12.2,12.2,0,0,0-.92,6.286,8.6,8.6,0,0,0,2.262,5.654,21.214,21.214,0,0,0,8.493,4.513,17.135,17.135,0,0,0,7.484.532c2.506-.521,4.79-1.863,5.5-3.237a3.213,3.213,0,0,0-.92-3.6c-1.109-1.031-2.084-1.264-5.566-1.264a15.433,15.433,0,0,1-3.892-.277,18.524,18.524,0,0,1-4.357-1.386c-.443-.266-.577-.4-.577-.61,0-.377.211-.455,1.719-.6a10.923,10.923,0,0,0,3.6-.809c.82-.366,1.33-.8,1.33-1.142a4.481,4.481,0,0,0-1.053-1.852,4.466,4.466,0,0,1-1.031-3.271,3.317,3.317,0,0,1,.344-1.552c.721-1.408,2.129-1.53,3.3-.288a11.567,11.567,0,0,1,1.852,3.027,7.776,7.776,0,0,0,2.65,3.3,9.242,9.242,0,0,0,5.433,1.951l1.12.011-.355.443a12.71,12.71,0,0,0-1.6,2.317,2.792,2.792,0,0,0-.41,1.685c0,.809.033.931.31,1.308.909,1.186,3.127,1.785,4.978,1.353,2.129-.5,5.322-2.805,7.262-5.233,2.849-3.548,3.149-6.375,1.208-11.22a39.731,39.731,0,0,0-2.938-5.71,18.86,18.86,0,0,0-4.169-4.79,8.38,8.38,0,0,0-2.739-1.33C96.667-311.133,81.91-311.133,80.857-310.9Zm16.165,8.182a6,6,0,0,1,3.182,2.9,5.873,5.873,0,0,1-1.153,6.763,5.779,5.779,0,0,1-8.06.188,5.706,5.706,0,0,1-1.94-3.958,6.034,6.034,0,0,1,4.368-6.109A7.408,7.408,0,0,1,97.022-302.718Z" transform="translate(-68.319 330.556)" fill="#5893ff"/>
    </g>
  </g>
</svg>
