
<svg xmlns="http://www.w3.org/2000/svg" width="20.822" height="17.894" viewBox="0 0 20.822 17.894">
  <g id="password_1_" data-name="password (1)" transform="translate(0 -36)">
    <g id="Group_237" data-name="Group 237" transform="translate(0 47.794)">
      <g id="Group_236" data-name="Group 236">
        <path id="Path_125" data-name="Path 125" d="M20.212,326H.61a.61.61,0,0,0-.61.61v4.88a.61.61,0,0,0,.61.61h19.6a.61.61,0,0,0,.61-.61v-4.88A.61.61,0,0,0,20.212,326ZM3.9,329.864a.813.813,0,1,1,.813-.813A.813.813,0,0,1,3.9,329.864Zm3.253,0a.813.813,0,1,1,.813-.813A.813.813,0,0,1,7.158,329.864Zm3.253,0a.813.813,0,1,1,.813-.813A.813.813,0,0,1,10.411,329.864Zm3.253,0a.813.813,0,1,1,.813-.813A.813.813,0,0,1,13.665,329.864Zm3.253,0a.813.813,0,1,1,.813-.813A.813.813,0,0,1,16.918,329.864Z" transform="translate(0 -326)" fill="#657382"/>
      </g>
    </g>
    <g id="Group_239" data-name="Group 239" transform="translate(6.548 36)">
      <g id="Group_238" data-name="Group 238">
        <path id="Path_126" data-name="Path 126" d="M168.117,40.88h-.2V39.05a3.05,3.05,0,1,0-6.1,0v1.83h-.2a.61.61,0,0,0-.61.61v4.88a.61.61,0,0,0,.61.61h6.507a.61.61,0,0,0,.61-.61V41.49A.61.61,0,0,0,168.117,40.88Zm-2.643,3.66a.61.61,0,1,1-1.22,0V43.32a.61.61,0,1,1,1.22,0Zm1.22-3.66h-3.66V39.05a1.83,1.83,0,1,1,3.66,0Z" transform="translate(-161 -36)" fill="#657382"/>
      </g>
    </g>
  </g>
</svg>
