<svg xmlns="http://www.w3.org/2000/svg" width="16" height="8" viewBox="0 0 16 8">
  <g id="password_1_" data-name="password (1)" transform="translate(0 -7)">
    <path id="Path_1956" data-name="Path 1956" d="M13.11,8.333a.666.666,0,0,0-.911-.244l-.732.423V7.667a.667.667,0,0,0-1.333,0v.845L9.4,8.089a.667.667,0,1,0-.667,1.155l.732.423-.732.423A.667.667,0,1,0,9.4,11.244l.732-.423v.845a.667.667,0,0,0,1.333,0v-.845l.732.423a.667.667,0,0,0,.667-1.155l-.732-.423.732-.423a.667.667,0,0,0,.244-.911Z" transform="translate(-2.801)" fill="#657382"/>
    <path id="Path_1957" data-name="Path 1957" d="M4.708,8.333A.666.666,0,0,0,3.8,8.089l-.732.423V7.667a.667.667,0,0,0-1.333,0v.845L1,8.089A.667.667,0,1,0,.333,9.244l.732.423-.732.423A.667.667,0,1,0,1,11.244l.732-.423v.845a.667.667,0,0,0,1.333,0v-.845l.732.423a.667.667,0,1,0,.667-1.155l-.732-.423.732-.423A.667.667,0,0,0,4.708,8.333Z" fill="#657382"/>
    <path id="Path_1958" data-name="Path 1958" d="M17.471,11.333a.661.661,0,0,0,.333-.089l.732-.423v.845a.667.667,0,0,0,1.333,0v-.845l.732.423a.667.667,0,0,0,.667-1.155l-.732-.423.732-.423A.667.667,0,1,0,20.6,8.089l-.732.423V7.667a.667.667,0,0,0-1.333,0v.845L17.8,8.089a.667.667,0,0,0-.667,1.155l.732.423-.732.423a.667.667,0,0,0,.334,1.244Z" transform="translate(-5.601)" fill="#657382"/>
    <path id="Path_1959" data-name="Path 1959" d="M4,17H.667a.667.667,0,1,0,0,1.333H4A.667.667,0,0,0,4,17Z" transform="translate(0 -3.333)" fill="#657382"/>
    <path id="Path_1960" data-name="Path 1960" d="M12.5,17H9.167a.667.667,0,1,0,0,1.333H12.5A.667.667,0,0,0,12.5,17Z" transform="translate(-2.833 -3.333)" fill="#657382"/>
    <path id="Path_1961" data-name="Path 1961" d="M21,17H17.667a.667.667,0,0,0,0,1.333H21A.667.667,0,0,0,21,17Z" transform="translate(-5.667 -3.333)" fill="#657382"/>
  </g>
</svg>
