<svg xmlns="http://www.w3.org/2000/svg" width="20.675" height="20.687" viewBox="0 0 20.675 20.687">
  <g id="Pathophysiology" transform="translate(-0.128 511.775)">
    <path id="Path_11729" data-name="Path 11729" d="M211.569-511.7a.58.58,0,0,0-.234.239c-.081.154-.081.23-.081,3.708v3.55l-.627.315-.627.311v.667c0,.368.008.667.016.667s.429-.2.934-.449l.926-.453.9.453c.5.247.91.449.922.449a5.3,5.3,0,0,0,.02-.667v-.667l-.627-.311-.627-.315v-3.55c0-3.477,0-3.554-.081-3.708A.591.591,0,0,0,211.569-511.7Z" transform="translate(-201.387)" fill="#fff"/>
    <path id="Path_11730" data-name="Path 11730" d="M5.7-419.989a5.1,5.1,0,0,0-2.935,1.443,7.468,7.468,0,0,0-1.654,2.313,9.506,9.506,0,0,0-.877,2.709,31.013,31.013,0,0,0-.105,4.629c-.008,3.02,0,4.209.032,4.387a1.894,1.894,0,0,0,.922,1.249,2.067,2.067,0,0,0,1.2.21,6.385,6.385,0,0,0,4.237-1.759,6.626,6.626,0,0,0,2.03-4.043c.044-.328.061-.995.061-2.867,0-1.338-.008-2.434-.02-2.434s-.574.275-1.249.615l-1.229.615-.57,2.871c-.323,1.617-.606,2.947-.651,3.044a.611.611,0,0,1-.53.336.667.667,0,0,1-.6-.578c0-.053.081-.489.178-.97l.174-.877H3.567c-.489,0-.558-.008-.7-.089a.59.59,0,0,1,0-1.035c.15-.081.21-.089.825-.089h.667l.243-1.213.243-1.213h-.91c-.865,0-.914,0-1.067-.089a.59.59,0,0,1,0-1.035c.158-.085.19-.089,1.379-.089H5.46l1.577-.788,1.577-.788v-1.164c0-1.31-.036-1.553-.291-2.042a2.975,2.975,0,0,0-.991-.991A2.874,2.874,0,0,0,5.7-419.989Z" transform="translate(0 -88.051)" fill="#fff"/>
    <path id="Path_11731" data-name="Path 11731" d="M303.827-419.669a2.26,2.26,0,0,0-1.1.647,2.2,2.2,0,0,0-.647,1.116,5.526,5.526,0,0,0-.081,1.48v1.164l1.581.788,1.581.788h1.209c1.136,0,1.221,0,1.371.081a.638.638,0,0,1,.323.526.638.638,0,0,1-.323.526c-.146.073-.234.081-1.063.081h-.906l.243,1.213.243,1.213h.663c.776,0,.922.044,1.063.323a.566.566,0,0,1,0,.566c-.137.267-.3.323-.942.323H306.5l.174.877c.1.481.178.918.178.97a.65.65,0,0,1-.611.578.664.664,0,0,1-.534-.352c-.036-.085-.323-1.447-.639-3.028l-.57-2.875-1.233-.611c-.675-.34-1.237-.615-1.249-.615s-.016,1.2,0,2.656l.016,2.66.105.489a6.823,6.823,0,0,0,1.718,3.3,6.437,6.437,0,0,0,4.2,1.981,3.135,3.135,0,0,0,.809,0,1.823,1.823,0,0,0,1.516-1.092l.093-.234v-4.286a41.59,41.59,0,0,0-.073-4.73,10.055,10.055,0,0,0-.881-2.806,6.629,6.629,0,0,0-3.627-3.558A4.054,4.054,0,0,0,303.827-419.669Z" transform="translate(-289.667 -88.315)" fill="#fff"/>
  </g>
</svg>
