<svg xmlns="http://www.w3.org/2000/svg" width="17.562" height="22" viewBox="0 0 17.562 22">
  <g id="patient" transform="translate(-51.638)">
    <path id="Path_407" data-name="Path 407" d="M155.669,2.785a.645.645,0,0,1,.913.008l1.1,1.117h1.751a4.6,4.6,0,0,0-9.14.6A6.792,6.792,0,0,0,155.669,2.785Z" transform="translate(-94.412)" fill="#1089fe"/>
    <path id="Path_408" data-name="Path 408" d="M154.885,102.45a4.6,4.6,0,0,0,4.6-4.6V97.34h-2.074a.645.645,0,0,1-.46-.193l-.852-.869a8.162,8.162,0,0,1-5.807,1.662A4.6,4.6,0,0,0,154.885,102.45Z" transform="translate(-94.412 -92.141)" fill="#1089fe"/>
    <path id="Path_409" data-name="Path 409" d="M93.334,216.709a5.906,5.906,0,0,1-2.967,2.039l-9.256,8.037h6.368Z" transform="translate(-28.207 -207.397)" fill="#1089fe"/>
    <path id="Path_410" data-name="Path 410" d="M267.229,402.8a1.065,1.065,0,0,0-1.064-1.063h-.915l-1.236,2.126h2.151A1.065,1.065,0,0,0,267.229,402.8Z" transform="translate(-203.251 -384.474)" fill="#1089fe"/>
    <path id="Path_411" data-name="Path 411" d="M55.625,210.613h-.491a2.345,2.345,0,0,0-2.321,1.967c-1.13,7.116-1.275,6.983-1.128,7.723l8.253-7.166A5.882,5.882,0,0,1,55.625,210.613Z" transform="translate(0 -201.563)" fill="#1089fe"/>
    <path id="Path_412" data-name="Path 412" d="M128.96,226.47l-1.042-10.12a2.344,2.344,0,0,0-1.477-1.957l-3.928,6.761h.167a2.352,2.352,0,1,1,0,4.7h-8.53l-.06.606a.645.645,0,0,0,.641.708l13.589.008C128.824,227.071,128.995,226.812,128.96,226.47Z" transform="translate(-59.764 -205.181)" fill="#1089fe"/>
  </g>
</svg>
