<svg xmlns="http://www.w3.org/2000/svg" width="42.014" height="55" viewBox="0 0 42.014 55">
  <g id="Patient_list" data-name="Patient list" transform="translate(-3902.75 188.25)">
    <path id="Path_1890" data-name="Path 1890" d="M3904.033-187.1h27.548l11.983,11.646v41.1H3903.25Z" transform="translate(0.042 0.153)" fill="#eceff1"/>
    <path id="Path_1891" data-name="Path 1891" d="M3923.853-182.306l5.375,2.688,2.352,5.263-.671,5.263-3.024,4.031-6.943,1.568-6.159-3.024-2.24-5.6,1.232-5.487,4.927-4.7Z" transform="translate(1.612 0.962)" fill="#eda537"/>
    <g id="medical-report-_3_" transform="translate(3903 -188)">
      <path id="Path_1879" data-name="Path 1879" d="M61.213-511.787c-.213.213-.213.351-.213,27.016v26.814l.245.224.245.234h40.588l.213-.277.224-.287v-20.395c-.011-15.8-.032-20.448-.138-20.618-.075-.128-2.959-3.087-6.429-6.578L89.655-512H75.54C61.564-512,61.426-512,61.213-511.787Zm33.882,7.3,5.929,6v39.491H62.49v-51.52l13.338.011,13.327.011Z" transform="translate(-61 512)" fill="#0f88fc" stroke="#0f88fc" stroke-width="0.5"/>
      <path id="Path_1880" data-name="Path 1880" d="M169.041-459.473a10.392,10.392,0,0,0-5.237,2.7,9.6,9.6,0,0,0-2.257,3.119,9.027,9.027,0,0,0-.947,4.343,9.027,9.027,0,0,0,.947,4.343,9.619,9.619,0,0,0,2.31,3.172,10.11,10.11,0,0,0,7.057,2.81,9.437,9.437,0,0,0,3.385-.575,10.454,10.454,0,0,0,6.568-7.025,11.241,11.241,0,0,0,0-5.45,10.525,10.525,0,0,0-7.568-7.334A13.915,13.915,0,0,0,169.041-459.473Zm4.588,1.746a8.909,8.909,0,0,1,5.865,6.238,10.061,10.061,0,0,1,0,4.364,8.814,8.814,0,0,1-8.548,6.653,8.41,8.41,0,0,1-3.449-.649,8.9,8.9,0,0,1-5.173-5.929,10.687,10.687,0,0,1-.043-4.386,9.082,9.082,0,0,1,3.907-5.354,7.815,7.815,0,0,1,4.992-1.309A6.169,6.169,0,0,1,173.629-457.727Z" transform="translate(-149.998 465.168)" fill="#0f88fc" stroke="#0f88fc" stroke-width="0.5"/>
      <path id="Path_1881" data-name="Path 1881" d="M203.258-420.8c-.192.192-.213.351-.213,1.969v1.756h-1.639a12.068,12.068,0,0,0-1.905.1c-.383.149-.5.628-.5,2.14,0,1.426.106,1.959.426,2.129a9.892,9.892,0,0,0,1.905.106h1.714v1.756c0,1.618.021,1.778.213,1.969s.351.213,1.969.213,1.778-.021,1.969-.213.213-.351.213-1.969V-412.6h1.639a12.07,12.07,0,0,0,1.905-.1.812.812,0,0,0,.383-.447,13.177,13.177,0,0,0,.011-3.364c-.181-.49-.468-.564-2.289-.564h-1.65V-418.8c0-2.321.117-2.2-2.214-2.2C203.609-421.008,203.449-420.987,203.258-420.8Zm2.661,2.97c0,1.543.021,1.714.224,1.969l.213.277h3.609v1.49h-1.756c-1.735,0-1.767,0-2.022.266s-.266.3-.266,1.969v1.7h-1.49v-1.8c0-2.3.16-2.14-2.2-2.14H200.49v-1.49h1.778c1.5,0,1.8-.032,1.969-.181s.192-.362.192-1.969v-1.788h1.49Z" transform="translate(-184.311 430.695)" fill="#0f88fc" stroke="#0f88fc" stroke-width="0.5"/>
      <path id="Path_1882" data-name="Path 1882" d="M116.291-242.853a.725.725,0,0,0-.426.734c0,.734-1.107.681,15.062.681s15.062.053,15.062-.671c0-.4-.075-.532-.394-.7-.17-.085-3.981-.117-14.689-.106C122.954-242.917,116.376-242.885,116.291-242.853Z" transform="translate(-110.011 271.561)" fill="#0f88fc" stroke="#0f88fc" stroke-width="0.5"/>
      <path id="Path_1883" data-name="Path 1883" d="M340.468-208.85l-2.161,2.161-.724-.724c-.777-.777-1.192-.915-1.543-.522-.394.436-.245.756.862,1.863,1.5,1.5,1.224,1.6,4.194-1.394a23.149,23.149,0,0,0,2.48-2.682.767.767,0,0,0-.671-.852C342.672-211,342.193-210.574,340.468-208.85Z" transform="translate(-306.587 243.04)" fill="#eda537" stroke="#eda537" stroke-width="0.5"/>
      <path id="Path_1884" data-name="Path 1884" d="M103.362-206.87a1.155,1.155,0,0,0-.362.7.7.7,0,0,0,.213.383c.213.213.351.213,11.124.213s10.911,0,11.124-.213a.7.7,0,0,0,.213-.383,1.155,1.155,0,0,0-.362-.7C125.162-206.977,103.511-206.977,103.362-206.87Z" transform="translate(-98.529 239.421)" fill="#0f88fc" stroke="#0f88fc" stroke-width="0.5"/>
      <path id="Path_1885" data-name="Path 1885" d="M103.346-171.734a.583.583,0,0,0-.064.915l.2.255,7.121.032c3.907.011,7.217,0,7.345-.032a.727.727,0,0,0,.351-1.224c-.213-.213-.351-.213-7.451-.213H103.6Z" transform="translate(-98.609 208.191)" fill="#0f88fc" stroke="#0f88fc" stroke-width="0.5"/>
      <path id="Path_1886" data-name="Path 1886" d="M340.577-137.776l-2.108,2.1-.809-.7a4.443,4.443,0,0,0-.958-.7.885.885,0,0,0-.7.777c0,.277.17.5,1.043,1.373,1.5,1.5,1.213,1.586,4.13-1.32a30.964,30.964,0,0,0,2.5-2.661.474.474,0,0,0-.085-.6.753.753,0,0,0-.564-.319C342.706-139.862,342.546-139.724,340.577-137.776Z" transform="translate(-306.728 179.449)" fill="#eda537" stroke="#eda537" stroke-width="0.5"/>
      <path id="Path_1887" data-name="Path 1887" d="M103.275-135.766a.614.614,0,0,0,.053.873l.213.277h21.8l.213-.277c.277-.351.287-.617.011-.894-.213-.213-.351-.213-11.166-.213H103.435Z" transform="translate(-98.634 176.023)" fill="#0f88fc" stroke="#0f88fc" stroke-width="0.5"/>
      <path id="Path_1888" data-name="Path 1888" d="M103.312-100.723c-.277.351-.287.617-.011.894.213.213.351.213,7.536.213,6.972,0,7.345-.011,7.5-.192a.729.729,0,0,0-.053-1.022c-.213-.149-1.1-.17-7.494-.17h-7.27Z" transform="translate(-98.618 144.749)" fill="#0f88fc" stroke="#0f88fc" stroke-width="0.5"/>
      <path id="Path_1889" data-name="Path 1889" d="M165.333-65.734a.606.606,0,0,0,.011,1c.287.224.341.224,9.591.224h9.3l.255-.266a.814.814,0,0,0,.266-.479.814.814,0,0,0-.266-.479L184.237-66H165.588Z" transform="translate(-153.996 113.475)" fill="#0f88fc" stroke="#0f88fc" stroke-width="0.5"/>
    </g>
  </g>
</svg>
