<svg xmlns="http://www.w3.org/2000/svg" width="10.958" height="10.958" viewBox="0 0 10.958 10.958">
  <g id="patient_5_" data-name="patient (5)" transform="translate(0)">
    <path id="Path_2354" data-name="Path 2354" d="M7.485-511.742a.838.838,0,0,0-.48.475,6.05,6.05,0,0,0-.041,1.42,12.65,12.65,0,0,0,.03,1.45,2.066,2.066,0,0,0,1.387,1.55l.156.054.006,1.655c.006,1.854.013,1.773-.148,1.908-.122.107-.2.122-.623.122H7.4l-.024-.1a1.786,1.786,0,0,0-1.015-1.148c-.315-.126-.272-.124-2.67-.118l-2.195.006-.2.071a1.727,1.727,0,0,0-1.1,1.092l-.066.186-.006,1.038c0,1.008,0,1.041.039,1.109a.394.394,0,0,0,.111.111,24.32,24.32,0,0,0,3.5.043H7.194l.071-.049a.555.555,0,0,0,.116-.107c.043-.058.045-.092.051-.638l.006-.576h.443a1.509,1.509,0,0,0,.861-.146,1.444,1.444,0,0,0,.585-.582c.161-.321.152-.2.165-2.137l.011-1.741.156-.054a2.07,2.07,0,0,0,1.33-1.334,5.254,5.254,0,0,0,.084-1.715l-.006-1.317-.058-.118a.908.908,0,0,0-.381-.381l-.118-.058-1.456,0A8.236,8.236,0,0,0,7.485-511.742Zm1.726,1.18c.113.081.137.154.148.456l.011.274h.248c.31,0,.411.041.49.193a.3.3,0,0,1-.124.422c-.064.045-.1.049-.343.049H9.367l-.009.274c-.006.225-.015.287-.051.347a.325.325,0,0,1-.574,0c-.036-.06-.045-.122-.051-.347l-.009-.274H8.4c-.246,0-.278,0-.343-.049a.3.3,0,0,1-.124-.422c.079-.154.18-.193.492-.193h.253v-.21c0-.351.041-.46.193-.544A.346.346,0,0,1,9.211-510.562Z" transform="translate(-0.116 511.776)" fill="#0f88fc"/>
    <path id="Path_2355" data-name="Path 2355" d="M78.137-405.583a2.516,2.516,0,0,0-.632.2,2.1,2.1,0,0,0-1.071,1.315.4.4,0,0,0-.021.133,3.517,3.517,0,0,0,.715.006,2.86,2.86,0,0,0,1.559-.625c.263-.21.323-.2.505.051a1.253,1.253,0,0,0,1.088.6c.173-.019.18-.026.15-.15a2.111,2.111,0,0,0-.773-1.143,2.364,2.364,0,0,0-.728-.343A2.678,2.678,0,0,0,78.137-405.583Z" transform="translate(-74.779 407.869)" fill="#0f88fc"/>
    <path id="Path_2356" data-name="Path 2356" d="M76.366-338.782a3.349,3.349,0,0,1-1.214.505,2.737,2.737,0,0,1-.685.047c-.422,0-.467.006-.467.039a2.676,2.676,0,0,0,.1.542,2.07,2.07,0,0,0,2.726,1.308,2.183,2.183,0,0,0,1.092-1,2.391,2.391,0,0,0,.214-.818c0-.073-.006-.083-.036-.071a1.422,1.422,0,0,1-.542,0,1.659,1.659,0,0,1-.846-.5l-.171-.171Z" transform="translate(-72.418 342.602)" fill="#0f88fc"/>
  </g>
</svg>
