<svg xmlns="http://www.w3.org/2000/svg" width="79.284" height="79.265" viewBox="0 0 79.284 79.265">
  <g id="Group_3513" data-name="Group 3513" transform="translate(-226.361 -616.737)">
    <g id="Ellipse_6_copy_5" data-name="Ellipse 6 copy 5" transform="translate(226.361 616.737)" fill="#fff" stroke="#fe77ff" stroke-width="0.667">
      <ellipse cx="39.642" cy="39.632" rx="39.642" ry="39.632" stroke="none"/>
      <ellipse cx="39.642" cy="39.632" rx="39.309" ry="39.299" fill="none"/>
    </g>
    <g id="_977658-200" data-name="977658-200" transform="translate(246.503 631.124)">
      <path id="Path_1578" data-name="Path 1578" d="M57.621-199.626a5.058,5.058,0,0,0-.744,8.5,4.062,4.062,0,0,0,2.772.8c1.643.077,1.925.026,2.9-.616a5.06,5.06,0,0,0-.077-8.471A5.942,5.942,0,0,0,57.621-199.626Z" transform="translate(-46.955 200.05)" fill="#fe77ff"/>
      <path id="Path_1579" data-name="Path 1579" d="M31.408-157.589c-2.721,1.181-4.621,4.954-5.519,11.013-.488,3.209-.513,5.673-.051,5.853.18.077.1.154-.154.154-.411.026-.462.257-.436,1.874.051,3.312-.205,5.776-.667,6.52-.642.95-.873,6.52-.308,6.52.308,0,.411-.539.539-2.516.18-2.772.539-4.159,1-3.7.385.385.693,2.233.719,4.338,0,1.72.051,1.874.539,1.874s.513-.1.359-2.49c-.154-2.49-.719-4.7-1.181-4.7-.154,0-.231-.744-.18-1.746.077-1.566.128-1.72.642-1.8.436-.077.667.1.9.642.282.719.308.719.488-.565.128-.719.565-3.876,1-7.059.847-6.289,1.284-9.062,1.438-8.908.051.051-.18,2.1-.539,4.569a128.881,128.881,0,0,0-1.412,14.17v2.156l1.617.539a21.972,21.972,0,0,0,12.219.308c3.157-.873,3-.539,2.644-5.16-.282-3.825-1.438-13.554-1.771-14.863-.154-.59-.077-.565.975.334a18.2,18.2,0,0,0,6.135,3.106l1.412.334.154,1.309a3.68,3.68,0,0,0,2.413,3.286,3.71,3.71,0,0,0,5.262-3.568,3.682,3.682,0,0,0-3.311-3.928c-.565-.1-1.053-.257-1.053-.385s-.436-.231-.95-.231a12.891,12.891,0,0,1-10.268-5.827C43.012-157.769,42.626-158,40.8-158c-1.412,0-1.438.026-1.438.719,0,.77-1.078,4.21-1.181,3.774-.026-.154-.128-.565-.205-.975-.154-.616-.282-.693-1.181-.693-.975,0-1.027.051-1.027.77,0,.411-.1.77-.231.77-.257,0-.924-1.9-1.207-3.414-.154-.9-.205-.95-1.1-.95A6.464,6.464,0,0,0,31.408-157.589Z" transform="translate(-23.952 168.794)" fill="#fe77ff"/>
      <path id="Path_1580" data-name="Path 1580" d="M122.91-91.281c-1.669,1.566-2.567,4.364-2.8,8.779-.128,2.8-.1,2.978.411,3.44a.991.991,0,0,0,1.258.257c.667-.231.693-.308.9-3a32.56,32.56,0,0,1,.411-3.7c.18-.821.231-.565.257,1.386l.026,2.387h7.7l.026-2.516c.026-3.183.436-2.156.642,1.617.077,1.412.18,2.824.257,3.132.128.693,1.13,1,1.874.59.488-.257.539-.488.539-2.9,0-4.364-1.052-7.932-2.747-9.421l-.873-.77h-3.543C123.706-92,123.68-92,122.91-91.281Z" transform="translate(-95.379 119.737)" fill="#fe77ff"/>
      <path id="Path_1581" data-name="Path 1581" d="M39.109-49.818c0,1.848-.077,2.259-.513,2.7a1.475,1.475,0,0,0,1.078,2.567c1.335,0,2.054-1.951.975-2.618-.411-.257-.513-.616-.513-1.771,0-1.951-.257-3.055-.667-3.055C39.186-52,39.109-51.487,39.109-49.818Z" transform="translate(-34.476 90.005)" fill="#fe77ff"/>
      <path id="Path_1582" data-name="Path 1582" d="M133-45.019c0,6.828.077,7.111,1.771,7.111s1.823-.359,1.823-4.954c0-2.516.1-4.03.257-4.03s.257,1.489.257,3.928c0,4.569.18,5.057,1.771,5.057,1.8,0,1.823-.128,1.823-7.008V-51H133Z" transform="translate(-105.007 89.262)" fill="#fe77ff"/>
      <path id="Path_1583" data-name="Path 1583" d="M51-44.4c0,6.88.231,7.47,2.875,7.47a2.531,2.531,0,0,0,2.541-1.72,39.373,39.373,0,0,0,.231-5.442v-4.8L54.234-49.2a20.389,20.389,0,0,1-2.824-.462C51.051-49.82,51-49.306,51-44.4Z" transform="translate(-44.056 88.287)" fill="#fe77ff"/>
      <path id="Path_1584" data-name="Path 1584" d="M79.594-49.541a23.731,23.731,0,0,1-2.618.359L76-49.156v10.576l.744.744a2.837,2.837,0,0,0,3.928,0l.847-.744.077-5.673a35.169,35.169,0,0,0-.128-5.648C81.365-49.874,80.518-49.72,79.594-49.541Z" transform="translate(-62.639 88.444)" fill="#fe77ff"/>
    </g>
  </g>
</svg>
