<svg xmlns="http://www.w3.org/2000/svg" width="22.142" height="22.158" viewBox="0 0 22.142 22.158">
  <g id="pills-_1_" transform="translate(-0.123 512.1)">
    <path id="Path_1930" data-name="Path 1930" d="M2.147-512.035a1.359,1.359,0,0,0-.809.736l-.117.221v1.579c0,1.562,0,1.579.1,1.783a1.33,1.33,0,0,0,1.186.762l.337.022v1.458H2.4a3.311,3.311,0,0,0-.7.065,2.082,2.082,0,0,0-1.514,1.367c-.065.216-.069.861-.061,6.4l.013,6.161.147.3a2.51,2.51,0,0,0,.961.987c.515.255.26.247,5.811.247h5.1l-.177-.19a4.173,4.173,0,0,1-.956-1.618,4.178,4.178,0,0,1,.5-3.613,26.73,26.73,0,0,1,1.995-2.112l1.787-1.8-.013-2.375-.013-2.375-.138-.294a2.039,2.039,0,0,0-1.333-1.09,3.687,3.687,0,0,0-.766-.065h-.511v-1.463l.381-.017a1.313,1.313,0,0,0,1.229-.762c.1-.2.1-.221.1-1.783v-1.579l-.117-.225a1.44,1.44,0,0,0-.606-.645l-.229-.125-1-.013-1.008-.013v3.855h-1.3V-512.1h-1.6v3.851h-1.3V-512.1H5.4v3.851H4.1V-512.1H3.2A5.062,5.062,0,0,0,2.147-512.035Zm5.928,10.969a.92.92,0,0,1,.195.195c.087.112.091.186.1,1.324l.013,1.207,1.229.013,1.225.013.117.108a.634.634,0,0,1-.281,1.121,10.854,10.854,0,0,1-1.242.047H8.386l-.013,1.186c-.013,1.121-.017,1.194-.1,1.307a.6.6,0,0,1-.537.294.6.6,0,0,1-.537-.294c-.087-.112-.091-.186-.1-1.3l-.013-1.186-1.155-.013c-1.064-.013-1.168-.022-1.3-.1a.634.634,0,0,1-.337-.528.582.582,0,0,1,.3-.576c.134-.082.221-.086,1.324-.086H7.084v-1.147c0-1.233.013-1.333.225-1.527A.627.627,0,0,1,8.075-501.066Z" transform="translate(0)" fill="#ff65b4"/>
    <path id="Path_1931" data-name="Path 1931" d="M360.128-234.643a3.333,3.333,0,0,0-1.073.433,14.281,14.281,0,0,0-1.155,1.069l-.9.9,2.133,2.133,2.133,2.129.974-.982c.926-.935.991-1.008,1.155-1.354a2.814,2.814,0,0,0,0-2.549,2.569,2.569,0,0,0-.6-.8,2.877,2.877,0,0,0-1.311-.87A3.384,3.384,0,0,0,360.128-234.643Z" transform="translate(-341.435 -265.424)" fill="#ff65b4"/>
    <path id="Path_1932" data-name="Path 1932" d="M278.97-156.039c-1.043,1.047-1.229,1.294-1.419,1.856a3.011,3.011,0,0,0-.026,1.683,2.689,2.689,0,0,0,.848,1.324,2.468,2.468,0,0,0,.844.658,2.823,2.823,0,0,0,2.553,0c.351-.164.42-.225,1.406-1.207l1.038-1.034-2.12-2.12c-1.164-1.164-2.129-2.12-2.142-2.12S279.5-156.567,278.97-156.039Z" transform="translate(-265.296 -339.735)" fill="#ff65b4"/>
  </g>
</svg>
