<svg xmlns="http://www.w3.org/2000/svg" width="46" height="45" viewBox="0 0 46 45"><defs><style>.a{fill:#0a586c;}.b{fill:#fff;}</style></defs><g transform="translate(0.431 -0.25)"><ellipse class="a" cx="23" cy="22.5" rx="23" ry="22.5" transform="translate(-0.431 0.25)"/><g transform="translate(13.437 10.558)"><path class="b" d="M81.476,5.037,76.583.144A.488.488,0,0,0,76.236,0H65.958A1.96,1.96,0,0,0,64,1.958V21.535a1.96,1.96,0,0,0,1.958,1.958h13.7a1.96,1.96,0,0,0,1.958-1.958V5.384A.488.488,0,0,0,81.476,5.037ZM68.4,20.556a1.468,1.468,0,1,1,1.468-1.468A1.47,1.47,0,0,1,68.4,20.556Zm0-4.894a1.468,1.468,0,1,1,1.468-1.468A1.47,1.47,0,0,1,68.4,15.662Zm2.937-4.894H69.384a.489.489,0,0,1-.489-.489V8.81H67.426a.489.489,0,0,1-.489-.489V6.363a.489.489,0,0,1,.489-.489h1.468V4.4a.489.489,0,0,1,.489-.489h1.958a.489.489,0,0,1,.489.489V5.873H73.3a.489.489,0,0,1,.489.489V8.32a.489.489,0,0,1-.489.489H71.831v1.468A.489.489,0,0,1,71.342,10.768Zm6.852,8.81H72.32a.489.489,0,1,1,0-.979h5.873a.489.489,0,1,1,0,.979Zm0-4.894H72.32a.489.489,0,0,1,0-.979h5.873a.489.489,0,1,1,0,.979ZM77.7,4.894a.98.98,0,0,1-.979-.979V1.671l3.223,3.223Z" transform="translate(-64)"/></g></g></svg>