<svg id="prescription" xmlns="http://www.w3.org/2000/svg" width="16.826" height="16.789" viewBox="0 0 16.826 16.789">
  <path id="Path_1119" data-name="Path 1119" d="M10,10.663V25.646a.665.665,0,0,0,.663.663h11.4a.665.665,0,0,0,.663-.663V12.95L19.779,10H10.663A.665.665,0,0,0,10,10.663Z" transform="translate(-9.811 -9.848)" fill="#eceff1"/>
  <path id="Path_1120" data-name="Path 1120" d="M251.28,324.541h0a1.723,1.723,0,0,0,2.436,0l2.625-2.625a1.723,1.723,0,0,0,0-2.436h0a1.723,1.723,0,0,0-2.436,0L251.28,322.1A1.723,1.723,0,0,0,251.28,324.541Z" transform="translate(-242.605 -308.581)" fill="#fff"/>
  <path id="Path_1121" data-name="Path 1121" d="M255.032,376.236,252.6,373.8l-1.316,1.313a1.723,1.723,0,1,0,2.436,2.436Z" transform="translate(-242.605 -361.588)" fill="#eda537"/>
  <path id="Path_1122" data-name="Path 1122" d="M307.95,12.95,305,10v2.287a.665.665,0,0,0,.663.663Z" transform="translate(-295.032 -9.848)" fill="#eda537"/>
  <circle id="Ellipse_66" data-name="Ellipse 66" cx="2.586" cy="2.586" r="2.586" transform="translate(3.968 2.605)" fill="#eda537"/>
  <g id="Group_613" data-name="Group 613" transform="translate(13.05 13.014)">
    <path id="Path_1123" data-name="Path 1123" d="M399.724,401.447a1.724,1.724,0,1,1,1.724-1.724A1.724,1.724,0,0,1,399.724,401.447Z" transform="translate(-398 -398)" fill="#fff"/>
    <path id="Path_1124" data-name="Path 1124" d="M401.447,399.724a1.724,1.724,0,1,0-1.724,1.724A1.724,1.724,0,0,0,401.447,399.724Z" transform="translate(-398 -398)" fill="#fff"/>
  </g>
  <path id="Path_1125" data-name="Path 1125" d="M450,401.447A1.724,1.724,0,0,0,450,398v3.447Z" transform="translate(-435.226 -384.986)" fill="#f4f8ff"/>
  <path id="Path_1126" data-name="Path 1126" d="M155.731,117.276h.882v.882a.331.331,0,1,0,.663,0v-.882h.882a.331.331,0,1,0,0-.663h-.882v-.882a.331.331,0,1,0-.663,0v.882h-.882a.331.331,0,1,0,0,.663Z" transform="translate(-150.391 -111.754)" fill="#0f88fc"/>
  <path id="Path_1127" data-name="Path 1127" d="M116.917,79.834A2.917,2.917,0,1,0,114,76.917,2.921,2.921,0,0,0,116.917,79.834Zm0-5.171a2.254,2.254,0,1,1-2.254,2.254A2.256,2.256,0,0,1,116.917,74.663Z" transform="translate(-110.364 -71.726)" fill="#0f88fc"/>
  <path id="Path_1128" data-name="Path 1128" d="M11.493,21.414H5.278a.325.325,0,0,1-.325-.325V6.378a.325.325,0,0,1,.325-.325H13.9V7.972a.98.98,0,0,0,.978.978H16.8v5.794a.325.325,0,1,0,.65,0V8.625a.313.313,0,0,0-.1-.229l-2.9-2.9a.327.327,0,0,0-.229-.1H5.278a.98.98,0,0,0-.978.978V21.089a.98.98,0,0,0,.978.978H11.5a.325.325,0,0,0,.325-.325A.331.331,0,0,0,11.493,21.414Zm3.06-13.441V6.514L16.339,8.3H14.881A.331.331,0,0,1,14.553,7.972Z" transform="translate(-4.3 -5.4)" fill="#0f88fc"/>
  <path id="Path_1129" data-name="Path 1129" d="M152.721,280.331a.332.332,0,0,0-.331-.331h-5.758a.331.331,0,1,0,0,.663h5.758A.332.332,0,0,0,152.721,280.331Z" transform="translate(-141.593 -270.898)" fill="#0f88fc"/>
  <path id="Path_1130" data-name="Path 1130" d="M65.412,280H64.331a.331.331,0,1,0,0,.663h1.081a.331.331,0,1,0,0-.663Z" transform="translate(-62.021 -270.898)" fill="#0f88fc"/>
  <path id="Path_1131" data-name="Path 1131" d="M150.268,336.331a.332.332,0,0,0-.331-.331h-3.3a.331.331,0,0,0,0,.663h3.3A.333.333,0,0,0,150.268,336.331Z" transform="translate(-141.593 -325.041)" fill="#0f88fc"/>
  <path id="Path_1132" data-name="Path 1132" d="M65.412,336H64.331a.331.331,0,0,0,0,.663h1.081a.331.331,0,0,0,0-.663Z" transform="translate(-62.021 -325.041)" fill="#0f88fc"/>
  <path id="Path_1133" data-name="Path 1133" d="M146.5,392.1a.328.328,0,0,0-.1.235.342.342,0,0,0,.1.235.328.328,0,0,0,.235.1.349.349,0,0,0,.235-.1.328.328,0,0,0,.1-.235.342.342,0,0,0-.1-.235.328.328,0,0,0-.235-.1A.336.336,0,0,0,146.5,392.1Z" transform="translate(-141.69 -379.185)" fill="#0f88fc"/>
  <path id="Path_1134" data-name="Path 1134" d="M65.412,392H64.331a.331.331,0,0,0,0,.663h1.081a.331.331,0,0,0,0-.663Z" transform="translate(-62.021 -379.185)" fill="#0f88fc"/>
  <path id="Path_1135" data-name="Path 1135" d="M247.735,311.425a2.028,2.028,0,0,0-.285.02,2.055,2.055,0,0,0-1.966-2.645,2.025,2.025,0,0,0-1.452.6l-2.629,2.622a2.053,2.053,0,0,0,2.9,2.9l1.372-1.372a2.054,2.054,0,1,0,2.055-2.131Zm-3.239-1.555a1.392,1.392,0,0,1,1.969,1.969l-1.077,1.077-1.969-1.969Zm-.656,4.594a1.392,1.392,0,0,1-1.969-1.969l1.077-1.077,1.969,1.969Zm2.5-.984a1.4,1.4,0,0,1,1.061-1.352v2.7A1.4,1.4,0,0,1,246.342,313.48Zm1.724,1.352v-2.7a1.393,1.393,0,0,1,0,2.7Z" transform="translate(-232.961 -298.743)" fill="#0f88fc"/>
</svg>
