<svg xmlns="http://www.w3.org/2000/svg" width="18.034" height="16.657" viewBox="0 0 18.034 16.657">
  <g id="heart-rate" transform="translate(0 -19.55)">
    <path id="Path_1517" data-name="Path 1517" d="M5.234,27.206a.528.528,0,0,1,.528.528V29.7a.516.516,0,1,0,1.032,0V26.58a1.573,1.573,0,0,1,3.146,0v1.462a.516.516,0,1,0,1.032,0V25.874a1.573,1.573,0,0,1,3.141-.122h3.878a5.512,5.512,0,0,0,.043-.65c.018-3.067-2.079-5.553-4.643-5.553a4.78,4.78,0,0,0-4.374,3.7,4.781,4.781,0,0,0-4.374-3.7C2.079,19.55.017,22.036,0,25.1a6.19,6.19,0,0,0,.381,2.1Z" transform="translate(0)" fill="#7e55f3"/>
    <path id="Path_1518" data-name="Path 1518" d="M36.566,185.9a.528.528,0,0,1-.528-.528v-.392a.526.526,0,0,0-.49-.53.517.517,0,0,0-.542.516v2.14a1.6,1.6,0,0,1-1.6,1.6,1.575,1.575,0,0,1-1.546-1.573v-1.447a.526.526,0,0,0-.49-.53.517.517,0,0,0-.542.515v3.091a1.6,1.6,0,0,1-1.6,1.6,1.575,1.575,0,0,1-1.545-1.573v-1.436H23.815c1.819,3.577,6.085,6.72,7.618,7.771a.988.988,0,0,0,1.121,0c1.729-1.194,6.944-5.071,8.188-9.223H36.566Z" transform="translate(-22.977 -159.09)" fill="#7e55f3"/>
  </g>
</svg>
