<svg xmlns="http://www.w3.org/2000/svg" width="33" height="33" viewBox="0 0 33 33">
  <g id="Group_989" data-name="Group 989" transform="translate(-0.48 -0.16)">
    <circle id="Ellipse_91" data-name="Ellipse 91" cx="16.5" cy="16.5" r="16.5" transform="translate(0.48 0.16)" fill="#eae2ff"/>
    <g id="heart-rate" transform="translate(7.68 8.64)">
      <path id="Path_1517" data-name="Path 1517" d="M5.024,26.9a.507.507,0,0,1,.507.507v1.886a.5.5,0,1,0,.991,0V26.3a1.51,1.51,0,0,1,3.02,0v1.4a.5.5,0,1,0,.991,0V25.621a1.51,1.51,0,0,1,3.015-.117h3.723a5.292,5.292,0,0,0,.041-.624c.017-2.944-2-5.331-4.458-5.331a4.589,4.589,0,0,0-4.2,3.554,4.589,4.589,0,0,0-4.2-3.554C2,19.55.017,21.937,0,24.881A5.942,5.942,0,0,0,.366,26.9Z" transform="translate(0 -19.55)" fill="#7e55f3"/>
      <path id="Path_1518" data-name="Path 1518" d="M36.056,185.842a.507.507,0,0,1-.507-.507v-.376a.505.505,0,0,0-.471-.509.5.5,0,0,0-.52.495V187a1.532,1.532,0,0,1-1.536,1.536,1.512,1.512,0,0,1-1.484-1.51v-1.389a.505.505,0,0,0-.471-.509.5.5,0,0,0-.52.495v2.967a1.532,1.532,0,0,1-1.536,1.537,1.512,1.512,0,0,1-1.484-1.51v-1.379H23.815c1.746,3.434,5.842,6.451,7.313,7.46a.949.949,0,0,0,1.076,0c1.66-1.146,6.666-4.869,7.861-8.854H36.056Z" transform="translate(-23.01 -178.873)" fill="#7e55f3"/>
    </g>
  </g>
</svg>
