<svg id="receipt" xmlns="http://www.w3.org/2000/svg" width="12.447" height="14.944" viewBox="0 0 12.447 14.944">
  <g id="Group_616" data-name="Group 616" transform="translate(2.718)">
    <g id="Group_615" data-name="Group 615">
      <path id="Path_1153" data-name="Path 1153" d="M144.308,1.019,142.539,0,140.77,1.019,139,0l-1.769,1.019L135.906.255v12.01h7.9v1.762a.917.917,0,1,0,1.833,0V.255ZM136.983,8V7.114h3.787V8Zm7.574-1.932h-7.574V5.182h7.574Zm0-1.932h-7.574V3.25h7.574Z" transform="translate(-135.906)" fill="#0f88fc"/>
    </g>
  </g>
  <g id="Group_618" data-name="Group 618" transform="translate(0 13.15)">
    <g id="Group_617" data-name="Group 617">
      <path id="Path_1154" data-name="Path 1154" d="M52.5,451.421v-.877H42.773v.877a.918.918,0,0,0,.917.917h9.063A1.791,1.791,0,0,1,52.5,451.421Z" transform="translate(-42.773 -450.544)" fill="#0f88fc"/>
    </g>
  </g>
</svg>
