<svg xmlns="http://www.w3.org/2000/svg" width="10.338" height="12.029" viewBox="0 0 10.338 12.029"><defs><style>.a{fill:#555c69;}</style></defs><path class="a" d="M10.732,2.515,8.274.1A.352.352,0,0,0,8.028,0H1.814A1.316,1.316,0,0,0,.5,1.315v9.4a1.316,1.316,0,0,0,1.315,1.315H9.523a1.316,1.316,0,0,0,1.315-1.315V2.766a.352.352,0,0,0-.105-.251ZM8.38,1.193,9.623,2.414H8.492A.112.112,0,0,1,8.38,2.3ZM9.523,11.324H1.814a.611.611,0,0,1-.61-.61v-9.4A.611.611,0,0,1,1.814.7H7.675V2.3a.818.818,0,0,0,.817.817h1.641v7.6a.611.611,0,0,1-.61.61Zm0,0" transform="translate(-0.5 0)"/><path class="a" d="M103.512,238H98.544a.352.352,0,0,0,0,.7h4.968a.352.352,0,0,0,0-.7Zm0,0" transform="translate(-95.897 -232.408)"/><path class="a" d="M98.543,298.7h4.051a.352.352,0,1,0,0-.7H98.543a.352.352,0,1,0,0,.7Zm0,0" transform="translate(-95.896 -290.999)"/><path class="a" d="M103.083,358H98.543a.352.352,0,1,0,0,.7h4.539a.352.352,0,1,0,0-.7Zm0,0" transform="translate(-95.896 -349.589)"/></svg>