<svg xmlns="http://www.w3.org/2000/svg" width="7.989" height="12.526" viewBox="0 0 7.989 12.526"><defs><style>.a{fill:#7dce64;}</style></defs><path class="a" d="M80.715,2.838a.277.277,0,0,0-.2-.08H78.989a3.079,3.079,0,0,0-.569-1.281h2.073a.273.273,0,0,0,.285-.285V.285A.274.274,0,0,0,80.493,0h-7.4a.274.274,0,0,0-.285.285V1.468a.289.289,0,0,0,.285.285h1.29q1.877,0,2.384,1.005H73.091a.274.274,0,0,0-.285.285V3.95a.274.274,0,0,0,.285.285h3.8a1.738,1.738,0,0,1-.912,1.112,4.015,4.015,0,0,1-1.891.383h-1a.289.289,0,0,0-.285.285v1.13a.266.266,0,0,0,.08.2q1.708,1.815,4.431,5.08a.262.262,0,0,0,.222.107h1.735a.258.258,0,0,0,.258-.16.243.243,0,0,0-.036-.3Q76.9,8.879,75.413,7.3a4.512,4.512,0,0,0,2.456-.979,3.326,3.326,0,0,0,1.148-2.082h1.495A.274.274,0,0,0,80.8,3.95V3.043A.277.277,0,0,0,80.715,2.838Z" transform="translate(-72.806 0)"/></svg>