<svg xmlns="http://www.w3.org/2000/svg" width="40.468" height="40.468" viewBox="0 0 40.468 40.468">
  <g id="Group_28185" data-name="Group 28185" transform="translate(0 0)">
    <g id="Group_28175" data-name="Group 28175" transform="translate(0)">
      <circle id="Ellipse_164" data-name="Ellipse 164" cx="17.626" cy="17.626" r="17.626" transform="translate(0 34.793) rotate(-80.736)" fill="#ffa400"/>
    </g>
    <g id="Group_28182" data-name="Group 28182" transform="translate(11.863 14.807)">
      <g id="Group_28181" data-name="Group 28181">
        <g id="Group_28177" data-name="Group 28177">
          <g id="Group_28176" data-name="Group 28176">
            <path id="Path_8974" data-name="Path 8974" d="M266.79,48.464a2.2,2.2,0,1,1-2.2-2.144A2.173,2.173,0,0,1,266.79,48.464Z" transform="translate(-262.384 -46.32)" fill="#f55a00"/>
          </g>
        </g>
        <g id="Group_28180" data-name="Group 28180" transform="translate(13.238)">
          <g id="Group_28179" data-name="Group 28179">
            <g id="Group_28178" data-name="Group 28178">
              <path id="Path_8975" data-name="Path 8975" d="M278.7,48.464a2.2,2.2,0,1,1-2.2-2.144A2.174,2.174,0,0,1,278.7,48.464Z" transform="translate(-274.294 -46.32)" fill="#f55a00"/>
            </g>
          </g>
        </g>
      </g>
    </g>
    <g id="Group_28184" data-name="Group 28184" transform="translate(12.265 24.358)">
      <g id="Group_28183" data-name="Group 28183">
        <path id="Path_8976" data-name="Path 8976" d="M276.741,60.478a1.93,1.93,0,0,1-.858-.2c-4.012-1.979-6.331-1.977-10.336,0a1.942,1.942,0,0,1-1.72-3.482c5.083-2.508,8.688-2.51,13.773,0a1.942,1.942,0,0,1-.859,3.684Z" transform="translate(-262.745 -54.913)" fill="#f55a00"/>
      </g>
    </g>
  </g>
</svg>
