<svg xmlns="http://www.w3.org/2000/svg" width="18" height="20.48" viewBox="0 0 18 20.48">
  <g id="share" transform="translate(-31)">
    <g id="Group_1324" data-name="Group 1324" transform="translate(31 6.64)">
      <g id="Group_1323" data-name="Group 1323">
        <path id="Path_1863" data-name="Path 1863" d="M34.6,166a3.6,3.6,0,1,0,3.6,3.6A3.6,3.6,0,0,0,34.6,166Z" transform="translate(-31 -166)" fill="#1089fe"/>
      </g>
    </g>
    <g id="Group_1326" data-name="Group 1326" transform="translate(38.33)">
      <g id="Group_1325" data-name="Group 1325" transform="translate(0)">
        <path id="Path_1864" data-name="Path 1864" d="M221.332,0a3.638,3.638,0,0,0-3.6,3.64,3.573,3.573,0,0,0,.263,1.336l-3.733,2.281a4.78,4.78,0,0,1,.638,1.017l3.73-2.28a3.585,3.585,0,0,0,6.3-2.354A3.638,3.638,0,0,0,221.332,0Z" transform="translate(-214.262)" fill="#1089fe"/>
      </g>
    </g>
    <g id="Group_1328" data-name="Group 1328" transform="translate(38.331 12.206)">
      <g id="Group_1327" data-name="Group 1327" transform="translate(0)">
        <path id="Path_1865" data-name="Path 1865" d="M221.333,306.185a3.577,3.577,0,0,0-2.7,1.246l-3.73-2.28a4.78,4.78,0,0,1-.638,1.017L218,308.449a3.571,3.571,0,0,0-.263,1.336,3.6,3.6,0,1,0,3.6-3.6Z" transform="translate(-214.264 -305.151)" fill="#1089fe"/>
      </g>
    </g>
  </g>
</svg>
