<svg id="Group_1824" data-name="Group 1824" xmlns="http://www.w3.org/2000/svg" width="8.804" height="14.863" viewBox="0 0 8.804 14.863">
  <path id="Path_1519" data-name="Path 1519" d="M302.158-979.957a.341.341,0,0,0-.115.115l-.043.074.006,1.852c0,1.847,0,1.852.043,1.9a.483.483,0,0,0,.1.093l.061.043h2.534l.063-.043a.461.461,0,0,0,.1-.1l.043-.063,0-1.863a8.21,8.21,0,0,0-.045-1.914.5.5,0,0,0-.089-.089c-.05-.039-.071-.039-1.317-.043L302.232-980Zm1.992.686a.109.109,0,0,1,0,.173l-.045.047h-.621c-.565,0-.626,0-.66-.033a.119.119,0,0,1-.022-.177l.039-.05h.635C304.1-979.313,304.107-979.313,304.149-979.272Zm.171,1.09a.437.437,0,0,1,.2.238,12.023,12.023,0,0,1,0,1.345.443.443,0,0,1-.229.249,3.727,3.727,0,0,1-.853.024l-.773-.006-.082-.056a.564.564,0,0,1-.126-.139l-.046-.083v-.66c0-.639,0-.661.041-.734a.375.375,0,0,1,.191-.184,3.84,3.84,0,0,1,.832-.03C304.205-978.217,304.254-978.215,304.32-978.181Z" transform="translate(-301.275 980)" fill="#0f88fc"/>
  <path id="Path_1520" data-name="Path 1520" d="M339-869.966c-.026.03-.03.11-.032.654,0,.619,0,.622.037.654s.1.033.756.033h.713l.045-.046.046-.045v-.593c0-.572,0-.594-.039-.643L340.49-870h-.73C339.081-870,339.027-870,339-869.966Zm1.083.561a.149.149,0,0,1,.037.093.149.149,0,0,1-.037.093c-.033.034-.061.037-.32.037s-.284,0-.325-.041a.126.126,0,0,1-.006-.182c.033-.033.061-.037.325-.037S340.049-869.439,340.083-869.405Z" transform="translate(-337.556 872.044)" fill="#0f88fc"/>
  <path id="Path_1521" data-name="Path 1521" d="M264.412-742.978c0,.013,0,1.52,0,3.35s-.007,3.346-.015,3.37a.176.176,0,0,1-.061.082c-.045.033-.056.033-.108.013a.2.2,0,0,1-.071-.045c-.007-.011-.017-.5-.022-1.085l-.009-1.063-.16.2A3.745,3.745,0,0,0,263-736.02a7.372,7.372,0,0,0,1.373,3.117c.108.164.2.312.21.331a27.9,27.9,0,0,0,3.132.032h3.117l.134-.312a11.369,11.369,0,0,0,.788-2.677,9.767,9.767,0,0,0,.046-1.451c.007-.853,0-1.247-.013-1.365a2.493,2.493,0,0,0-.8-1.449,1.054,1.054,0,0,0-.758-.242l-.093.013v1.011c0,.987,0,1.011-.037,1.048a.126.126,0,0,1-.178,0c-.033-.037-.035-.093-.045-1.222a5.109,5.109,0,0,0-.052-1.312,1.155,1.155,0,0,0-.55-.661,1.227,1.227,0,0,0-.647-.095c-.1.013-.236.035-.3.052l-.121.03V-738l-.041.039a.118.118,0,0,1-.18-.011c-.039-.05-.039-.06-.039-1.672,0-1.135-.006-1.652-.02-1.72a.857.857,0,0,0-.591-.648,2.115,2.115,0,0,0-.99.022l-.071.019v3.968l-.043.039a.113.113,0,0,1-.178-.007l-.039-.05V-743h-.8A4.092,4.092,0,0,0,264.412-742.978Z" transform="translate(-263 747.403)" fill="#0f88fc"/>
</svg>
