app<svg xmlns="http://www.w3.org/2000/svg" width="33" height="33" viewBox="0 0 33 33">
  <g id="Group_991" data-name="Group 991" transform="translate(-0.48 -0.2)">
    <circle id="Ellipse_93" data-name="Ellipse 93" cx="16.5" cy="16.5" r="16.5" transform="translate(0.48 0.2)" fill="#e2eeff"/>
    <g id="Group_867" data-name="Group 867" transform="translate(10.56 6.72)">
      <path id="Path_1519" data-name="Path 1519" d="M302.219-979.941a.473.473,0,0,0-.16.16l-.059.1.008,2.567c.005,2.56.005,2.567.059,2.64a.671.671,0,0,0,.139.129l.085.059H305.8l.088-.059a.638.638,0,0,0,.144-.144l.059-.088-.005-2.583c-.008-2.562-.008-2.583-.062-2.652a.7.7,0,0,0-.124-.124c-.07-.054-.1-.054-1.826-.059L302.322-980Zm2.761.95a.151.151,0,0,1-.005.24l-.062.064h-.86c-.783,0-.868-.005-.914-.046a.165.165,0,0,1-.031-.245l.054-.07h.881C304.907-979.047,304.92-979.047,304.979-978.991Zm.237,1.512a.6.6,0,0,1,.283.33,16.671,16.671,0,0,1,0,1.864.613.613,0,0,1-.317.345,5.163,5.163,0,0,1-1.182.033l-1.071-.008-.113-.077a.779.779,0,0,1-.175-.193l-.064-.116v-.914c0-.886,0-.917.057-1.017a.52.52,0,0,1,.265-.255,5.343,5.343,0,0,1,1.154-.041C305.057-977.528,305.124-977.525,305.216-977.479Z" transform="translate(-300.996 980)" fill="#297bf6"/>
      <path id="Path_1520" data-name="Path 1520" d="M339.012-869.954c-.036.041-.041.152-.044.906,0,.857,0,.863.052.906s.139.046,1.048.046h.989l.062-.064.064-.062v-.821c0-.793,0-.824-.054-.891l-.051-.067h-1.012C339.125-870,339.051-870,339.012-869.954Zm1.5.778a.206.206,0,0,1,.051.129.206.206,0,0,1-.051.129c-.046.046-.085.052-.443.052s-.394,0-.451-.057a.174.174,0,0,1-.008-.252c.046-.046.085-.052.451-.052S340.467-869.222,340.513-869.176Z" transform="translate(-337.011 872.833)" fill="#297bf6"/>
      <path id="Path_1521" data-name="Path 1521" d="M264.957-742.969c0,.018,0,2.106,0,4.643s-.01,4.638-.021,4.671a.244.244,0,0,1-.085.113c-.062.046-.077.046-.149.018a.278.278,0,0,1-.1-.062c-.01-.016-.023-.693-.031-1.5l-.013-1.473-.221.276A5.191,5.191,0,0,0,263-733.325,10.218,10.218,0,0,0,264.9-729c.149.227.281.433.291.458a38.567,38.567,0,0,0,4.342.044h4.321l.185-.433a15.758,15.758,0,0,0,1.092-3.711,13.547,13.547,0,0,0,.064-2.011c.01-1.182,0-1.728-.018-1.893a3.455,3.455,0,0,0-1.112-2.009,1.461,1.461,0,0,0-1.051-.335l-.129.018v1.4c0,1.367,0,1.4-.051,1.452a.175.175,0,0,1-.247,0c-.046-.051-.049-.129-.062-1.694a7.084,7.084,0,0,0-.072-1.818,1.6,1.6,0,0,0-.762-.917,1.7,1.7,0,0,0-.9-.131c-.139.018-.327.049-.42.072l-.167.041v4.4l-.057.054a.164.164,0,0,1-.25-.016c-.054-.07-.054-.082-.054-2.318,0-1.573-.008-2.289-.028-2.385a1.187,1.187,0,0,0-.819-.9,2.931,2.931,0,0,0-1.373.031l-.1.026v5.5l-.059.054a.157.157,0,0,1-.247-.01l-.054-.07V-743h-1.107A5.665,5.665,0,0,0,264.957-742.969Z" transform="translate(-263 749.103)" fill="#297bf6"/>
    </g>
  </g>
</svg>
