<svg id="Group_1198" data-name="Group 1198" xmlns="http://www.w3.org/2000/svg" xmlns:xlink="http://www.w3.org/1999/xlink" width="297.838" height="195.791" viewBox="0 0 297.838 195.791">
  <defs>
    <linearGradient id="linear-gradient" x1="0.735" y1="0.587" x2="0.735" y2="1.587" gradientUnits="objectBoundingBox">
      <stop offset="0" stop-color="gray" stop-opacity="0.251"/>
      <stop offset="0.54" stop-color="gray" stop-opacity="0.122"/>
      <stop offset="1" stop-color="gray" stop-opacity="0.102"/>
    </linearGradient>
  </defs>
  <g id="Group_1134" data-name="Group 1134" transform="translate(0)">
    <g id="Group_54" data-name="Group 54">
      <path id="Path_53" data-name="Path 53" d="M11.57,342.8H39.1v37.515H13.6c-.081.38-.136.759-.217,1.166H39.1v30.272c-.054,0-.081-.027-.136-.054-.732-.3-1.438-.6-2.17-.922l-.461-.217c-.732-.353-1.438-.705-2.17-1.085-.244-.136-.515-.271-.76-.407A44.865,44.865,0,0,1,22.583,400.6l-.271-.271c-.434-.488-.868-.949-1.3-1.465l-.461-.543c-.488-.6-.977-1.221-1.438-1.845-.081-.081-.136-.19-.217-.271a40,40,0,0,1-4.666-8.436c-.027-.081-.081-.19-.109-.271-.38-.949-.705-1.926-1-2.9-.136-.407-.244-.814-.353-1.248-.027-.136-.081-.244-.109-.38C11.19,377.005,11,370.766,11,364.555v-2.17q0-3.784.081-7.568c0-.651.027-1.3.054-1.953.027-1.655.081-3.336.163-4.991.027-.461.027-.922.054-1.383a3.71,3.71,0,0,1,.054-.787C11.461,344.726,11.515,343.777,11.57,342.8Z" transform="translate(-11 -251.083)" fill="#4f4f4f" opacity="0.1"/>
      <path id="Path_54" data-name="Path 54" d="M74.009,137.5H58.9a110.521,110.521,0,0,1,8.029-11.067c2.251-2.767,4.611-5.452,7.08-8.029Z" transform="translate(-45.907 -87.552)" fill="#4f4f4f" opacity="0.1"/>
      <path id="Path_55" data-name="Path 55" d="M40.851,193.1v39.468H13.4c0-.109.027-.244.027-.353.027-.3.054-.624.081-.922.027-.353.054-.732.109-1.085s.081-.787.109-1.194.081-.787.136-1.194.081-.787.136-1.166.081-.787.136-1.166c.054-.326.081-.651.136-.977.054-.461.136-.922.19-1.383,0-.081.027-.136.027-.217a94.1,94.1,0,0,1,2.007-9.9,72.9,72.9,0,0,1,3.418-10.036,75.689,75.689,0,0,1,5.127-9.874Z" transform="translate(-12.749 -141.99)" fill="#4f4f4f" opacity="0.1"/>
      <path id="Path_56" data-name="Path 56" d="M138.8,96.4V133.91h59.094V96.4Zm0,38.681V167.3c.327.081.681.136,1.009.19.463.081.9.163,1.363.244.082,0,.164.027.273.027.191.027.354.054.545.081.463.054.9.109,1.363.163a5.317,5.317,0,0,0,.654.054l.518.054h0c.3.027.572.027.845.054.164,0,.354.027.518.027h1.935a6.193,6.193,0,0,0,.709-.027h.027a2.976,2.976,0,0,0,.491-.027h.136a2.074,2.074,0,0,0,.409-.027h.109l.927-.081.9-.081.627-.081a57.964,57.964,0,0,0,7.469-1.573c5.506-1.519,10.9-3.662,16.409-5.235,7.114-2.034,14.992-3.011,21.888-.543V135.1H138.8Zm59.094-80.454V4.684a75.019,75.019,0,0,0-19.189,2.251c-14.964,3.716-28.4,11.827-39.905,22.189v25.5h2.971v1.166H138.8V95.256h59.094V55.789H153.955V54.622ZM273.78,37.75a24.756,24.756,0,0,1-10.712-3.092c-6.351-3.445-11.448-8.762-17.118-13.264A78.648,78.648,0,0,0,204.491,5.01V54.622h84.335l.218-.217Zm7.687-1.356,8.15,8.9V34.061a33.066,33.066,0,0,0-8.15,2.333Zm8.15,138.91V135.077H272.253c-.055-.163-.082-.353-.136-.515.055.163.082.353.136.515H204.518v29.106c.654.488,1.281.977,1.908,1.492h0c.681.543,1.363,1.112,2.017,1.682l.681.57c.327.271.654.542.981.787.654.515,1.308,1.058,1.99,1.573.327.271.681.515,1.009.76a136.808,136.808,0,0,0,16.791,10.932c1.308.732,2.644,1.438,3.98,2.116.9.461,1.8.9,2.7,1.329,1.363.651,2.726,1.3,4.089,1.9h0a149.765,149.765,0,0,0,39.8,11.528c3.053.461,6.106.814,9.186,1.058l-.027-24.6h0Zm-85.1-119.515V95.256h85.125V55.789Zm0,40.607V133.91h85.125V96.4ZM296.24,34.007V46.539l10.412-11.366c-3.462-.543-6.923-.922-10.412-1.166Zm0,62.416v37.515h82.809V96.4Zm82.481,81.865.3-43.211H296.24v65.264a149.859,149.859,0,0,0,16-.19h.082c2.535-.163,5.07-.38,7.6-.705h.054a140.02,140.02,0,0,0,39.033-10.362m35.98-86.5c-.3-.732-.627-1.465-.954-2.17-.627-1.356-1.281-2.685-1.935-3.987h-6.46v37.515h16.327a80.03,80.03,0,0,0-6.978-31.357ZM385.645,135.1v37.162a53.54,53.54,0,0,0,11.285-15.136,52.306,52.306,0,0,0,5.043-22.026Zm0-49.613v9.765h5.86a100.76,100.76,0,0,0-5.86-9.765ZM329.494,41.385l-1.308-.488A119.907,119.907,0,0,0,314.2,36.719L298.284,54.107h0l-.3.326.218.217h56.641a119.952,119.952,0,0,0-25.35-13.264Zm26.985,14.4H297.412l-1.172,1.058V95.229h82.809V76.648a117.44,117.44,0,0,0-22.569-20.86Z" transform="translate(-104.134 -4.678)" fill="#4f4f4f" opacity="0.1"/>
      <path id="Path_57" data-name="Path 57" d="M40.851,266.5v19.558H13.4c0-.108.027-.244.027-.353.027-.3.054-.624.081-.922.027-.353.054-.732.109-1.085s.081-.787.109-1.193.081-.787.136-1.194.081-.787.136-1.166.081-.787.136-1.166c.054-.326.081-.651.136-.977.054-.461.136-.922.19-1.383,0-.081.027-.136.027-.217a94.1,94.1,0,0,1,2.007-9.9Z" transform="translate(-12.749 -195.479)" fill="#4f4f4f" opacity="0.1"/>
      <path id="Path_58" data-name="Path 58" d="M11.951,342.1H39.483v37.515H13.958c-.081.38-.136.76-.217,1.166H39.456v30.272c-.054,0-.081-.027-.136-.054-.732-.3-1.438-.6-2.17-.922l-.461-.217c-.732-.353-1.438-.705-2.17-1.085-.244-.136-.515-.271-.76-.407A44.865,44.865,0,0,1,22.937,399.9l-.271-.271c-.434-.488-.868-.949-1.3-1.465l-.461-.543c-.488-.6-.977-1.221-1.438-1.845-.081-.081-.136-.19-.217-.271a40,40,0,0,1-4.666-8.436c-.027-.081-.081-.19-.109-.271-.38-.949-.705-1.926-1-2.9-.136-.407-.244-.814-.353-1.248-.027-.136-.081-.244-.109-.38C11.463,376.251,11.3,370.012,11.3,363.8v-2.17q0-3.784.081-7.568c0-.651.027-1.3.054-1.953.027-1.655.081-3.336.163-4.991.027-.461.027-.922.054-1.383a3.71,3.71,0,0,1,.054-.787C11.815,344,11.87,343.049,11.951,342.1Z" transform="translate(-11.219 -250.573)" fill="#4f4f4f" opacity="0.1"/>
      <path id="Path_59" data-name="Path 59" d="M159.524,183.147v33.826H138.8V183.147h2.957V171.7h12.125v11.447Z" transform="translate(-104.134 -126.394)" fill="#4f4f4f" opacity="0.1"/>
      <rect id="Rectangle_1273" data-name="Rectangle 1273" width="20.697" height="37.515" transform="translate(34.694 91.717)" fill="#4f4f4f" opacity="0.1"/>
      <path id="Path_60" data-name="Path 60" d="M138.8,485.5h20.7v31.194a54.079,54.079,0,0,1-7.432,1.573l-.624.081-.9.081c-.3.027-.6.054-.922.081h-.109c-.136,0-.271.027-.407.027h-.136c-.163,0-.326.027-.488.027h0c-.244,0-.461.027-.705.027h-1.926l-.515-.027c-.271,0-.57-.027-.841-.054h0l-.488-.054-.651-.054c-.461-.054-.922-.081-1.356-.163l-.543-.081-.271-.027c-.461-.081-.9-.136-1.356-.244-.325-.054-.651-.136-1-.19Z" transform="translate(-104.134 -355.075)" fill="#4f4f4f" opacity="0.1"/>
      <rect id="Rectangle_1274" data-name="Rectangle 1274" width="17.062" height="37.813" transform="translate(168.455 52.765)" fill="#4f4f4f" opacity="0.1"/>
      <path id="Path_61" data-name="Path 61" d="M464.613,342.8v37.542H379.9V364.148h45.11V373.7h22.514V342.8Z" transform="translate(-279.232 -251.083)" fill="#4f4f4f" opacity="0.1"/>
      <path id="Path_62" data-name="Path 62" d="M464.957,524.343h-.271v24.63c-3.065-.271-6.1-.624-9.141-1.058a149.737,149.737,0,0,1-39.63-11.555c-3.635-1.628-7.215-3.418-10.687-5.371a136.082,136.082,0,0,1-16.709-10.932c-1.329-1.031-2.631-2.062-3.933-3.119-.9-.732-1.79-1.492-2.685-2.251-.624-.515-1.248-1-1.9-1.492V484.115h67.434c-.054-.163-.081-.353-.136-.515a3.609,3.609,0,0,1,.136.515h17.279v40.227C464.767,524.315,464.849,524.343,464.957,524.343Z" transform="translate(-279.304 -353.69)" fill="#4f4f4f" opacity="0.1"/>
      <path id="Path_63" data-name="Path 63" d="M826.421,151.853H815.3v-3.445h4.991V138.1l1.3.488v9.819h4.855v3.445Z" transform="translate(-596.155 -101.909)" fill="#4f4f4f" opacity="0.1"/>
      <path id="Path_64" data-name="Path 64" d="M781.194,232.568H716.5V194.755h2.848v27.939h13.1V206.147h10.823V193.1h11.122v13.047h10.823v16.547h15.977Z" transform="translate(-523.854 -141.99)" fill="#4f4f4f" opacity="0.1"/>
      <path id="Path_65" data-name="Path 65" d="M716.4,342.8v37.515h64.722V342.8Zm82.3,81.7.081-29.7H781.122V381.508H716.4v65.237a148.4,148.4,0,0,0,15.923-.19h.081c2.523-.163,5.045-.38,7.568-.705h.054a138.808,138.808,0,0,0,38.844-10.362" transform="translate(-523.782 -251.083)" fill="#4f4f4f" opacity="0.1"/>
      <path id="Path_66" data-name="Path 66" d="M1045.539,485.5h15.109a52.108,52.108,0,0,1-5.018,22.026,52.767,52.767,0,0,1-11.23,15.136v-23.87h1.139V485.5Z" transform="translate(-762.81 -355.075)" fill="#4f4f4f" opacity="0.1"/>
      <path id="Path_67" data-name="Path 67" d="M1063.709,396.957H1048.6V365.6h8.165A80.362,80.362,0,0,1,1063.709,396.957Z" transform="translate(-765.871 -267.698)" fill="#4f4f4f" opacity="0.1"/>
      <rect id="Rectangle_1275" data-name="Rectangle 1275" width="9.141" height="11.854" transform="translate(176.417 63.263)" fill="#4f4f4f" opacity="0.1"/>
      <rect id="Rectangle_1276" data-name="Rectangle 1276" width="9.141" height="2.74" transform="translate(176.417 87.838)" fill="#4f4f4f" opacity="0.1"/>
      <rect id="Rectangle_1277" data-name="Rectangle 1277" width="9.141" height="7.975" transform="translate(176.417 91.717)" fill="#4f4f4f" opacity="0.1"/>
      <rect id="Rectangle_1278" data-name="Rectangle 1278" width="9.141" height="11.854" transform="translate(176.417 112.414)" fill="#4f4f4f" opacity="0.1"/>
      <rect id="Rectangle_1279" data-name="Rectangle 1279" width="9.141" height="11.854" transform="translate(176.417 136.963)" fill="#4f4f4f" opacity="0.1"/>
      <path id="Path_68" data-name="Path 68" d="M667.641,609.287a.922.922,0,0,1,.271.027l-.271-.027v2.767H658.5V600.2h9.141Z" transform="translate(-482.082 -438.662)" fill="#4f4f4f" opacity="0.1"/>
      <path id="Path_69" data-name="Path 69" d="M667.641,690.7v9.169c-3.065-.271-6.1-.624-9.141-1.058V690.7Z" transform="translate(-482.083 -504.613)" fill="#4f4f4f" opacity="0.1"/>
      <rect id="Rectangle_1280" data-name="Rectangle 1280" width="39.196" height="0.868" transform="translate(100.562 128.391)" fill="#4f4f4f" opacity="0.1"/>
      <rect id="Rectangle_1281" data-name="Rectangle 1281" width="39.196" height="3.336" transform="translate(100.562 130.398)" fill="#4f4f4f" opacity="0.1"/>
      <rect id="Rectangle_1282" data-name="Rectangle 1282" width="39.196" height="5.371" transform="translate(100.562 144.693)" fill="#4f4f4f" opacity="0.1"/>
      <path id="Path_70" data-name="Path 70" d="M424.171,598.2v5.371H393.519c-1.329-1-2.658-2.062-3.933-3.119-.9-.732-1.79-1.492-2.685-2.224Z" transform="translate(-284.434 -437.204)" fill="#4f4f4f" opacity="0.1"/>
      <path id="Path_71" data-name="Path 71" d="M486.915,658.227v5.344h-3.228c-3.635-1.628-7.188-3.418-10.687-5.371Z" transform="translate(-347.115 -480.929)" fill="#4f4f4f" opacity="0.1"/>
      <rect id="Rectangle_1283" data-name="Rectangle 1283" width="7.704" height="7.704" transform="translate(208.181 95.352)" fill="#4f4f4f" opacity="0.1"/>
      <rect id="Rectangle_1284" data-name="Rectangle 1284" width="7.704" height="7.704" transform="translate(40.227 59.411)" fill="#4f4f4f" opacity="0.1"/>
      <rect id="Rectangle_1285" data-name="Rectangle 1285" width="7.704" height="7.704" transform="translate(40.227 77.341)" fill="#4f4f4f" opacity="0.1"/>
      <rect id="Rectangle_1286" data-name="Rectangle 1286" width="7.704" height="7.704" transform="translate(40.227 95.271)" fill="#4f4f4f" opacity="0.1"/>
      <rect id="Rectangle_1287" data-name="Rectangle 1287" width="7.704" height="7.704" transform="translate(40.227 113.174)" fill="#4f4f4f" opacity="0.1"/>
      <rect id="Rectangle_1288" data-name="Rectangle 1288" width="7.704" height="7.704" transform="translate(40.227 131.104)" fill="#4f4f4f" opacity="0.1"/>
      <rect id="Rectangle_1289" data-name="Rectangle 1289" width="7.704" height="7.704" transform="translate(40.227 149.006)" fill="#4f4f4f" opacity="0.1"/>
      <rect id="Rectangle_1290" data-name="Rectangle 1290" width="7.704" height="7.704" transform="translate(237.769 95.352)" fill="#4f4f4f" opacity="0.1"/>
      <rect id="Rectangle_1291" data-name="Rectangle 1291" width="7.704" height="7.704" transform="translate(208.181 114.394)" fill="#4f4f4f" opacity="0.1"/>
      <rect id="Rectangle_1292" data-name="Rectangle 1292" width="7.704" height="7.704" transform="translate(237.769 114.394)" fill="#4f4f4f" opacity="0.1"/>
      <rect id="Rectangle_1293" data-name="Rectangle 1293" width="7.704" height="7.704" transform="translate(208.181 133.409)" fill="#4f4f4f" opacity="0.1"/>
      <rect id="Rectangle_1294" data-name="Rectangle 1294" width="7.704" height="7.704" transform="translate(237.769 133.409)" fill="#4f4f4f" opacity="0.1"/>
      <rect id="Rectangle_1295" data-name="Rectangle 1295" width="7.704" height="7.704" transform="translate(208.181 152.451)" fill="#4f4f4f" opacity="0.1"/>
      <rect id="Rectangle_1296" data-name="Rectangle 1296" width="7.704" height="7.704" transform="translate(237.769 152.451)" fill="#4f4f4f" opacity="0.1"/>
      <rect id="Rectangle_1297" data-name="Rectangle 1297" width="7.704" height="7.704" transform="translate(208.181 171.466)" fill="#4f4f4f" opacity="0.1"/>
      <rect id="Rectangle_1298" data-name="Rectangle 1298" width="7.704" height="7.704" transform="translate(237.769 171.466)" fill="#4f4f4f" opacity="0.1"/>
      <path id="Path_72" data-name="Path 72" d="M775.1,711.964V707h7.7v4.259Z" transform="translate(-566.919 -516.491)" fill="#4f4f4f" opacity="0.1"/>
      <path id="Path_73" data-name="Path 73" d="M17.3,303v4.421H43.693V303Zm2.631,4.15h-2.17v-3.879h2.17Zm2.631,0h-2.17v-3.879h2.17Zm2.6,0H23v-3.879h2.17Zm2.631,0h-2.17v-3.879H27.8Zm2.631,0h-2.17v-3.879h2.17Zm2.631,0H30.89v-3.879h2.17Zm2.631,0h-2.17v-3.879h2.17Zm2.631,0h-2.17v-3.879h2.17Zm2.631,0h-2.17v-3.879h2.17Zm2.6,0h-2.17v-3.879h2.17Z" transform="translate(-15.591 -222.079)" fill="#4f4f4f" opacity="0.1"/>
      <path id="Path_74" data-name="Path 74" d="M17.3,350.4v4.421H43.693V350.4Zm2.631,4.123h-2.17v-3.852h2.17Zm2.631,0h-2.17v-3.852h2.17Zm2.6,0H23v-3.852h2.17Zm2.631,0h-2.17v-3.852H27.8Zm2.631,0h-2.17v-3.852h2.17Zm2.631,0H30.89v-3.852h2.17Zm2.631,0h-2.17v-3.852h2.17Zm2.631,0h-2.17v-3.852h2.17Zm2.631,0h-2.17v-3.852h2.17Zm2.6,0h-2.17v-3.852h2.17Z" transform="translate(-15.591 -256.621)" fill="#4f4f4f" opacity="0.1"/>
      <path id="Path_75" data-name="Path 75" d="M17.3,397.7v4.421H43.693V397.7Zm2.631,4.15h-2.17V398h2.17Zm2.631,0h-2.17V398h2.17Zm2.6,0H23V398h2.17Zm2.631,0h-2.17V398H27.8Zm2.631,0h-2.17V398h2.17Zm2.631,0H30.89V398h2.17Zm2.631,0h-2.17V398h2.17Zm2.631,0h-2.17V398h2.17Zm2.631,0h-2.17V398h2.17Zm2.6,0h-2.17V398h2.17Z" transform="translate(-15.591 -291.091)" fill="#4f4f4f" opacity="0.1"/>
      <path id="Path_76" data-name="Path 76" d="M17.3,445.1v4.422H43.693V445.1Zm2.631,4.123h-2.17v-3.852h2.17Zm2.631,0h-2.17v-3.852h2.17Zm2.6,0H23v-3.852h2.17Zm2.631,0h-2.17v-3.852H27.8Zm2.631,0h-2.17v-3.852h2.17Zm2.631,0H30.89v-3.852h2.17Zm2.631,0h-2.17v-3.852h2.17Zm2.631,0h-2.17v-3.852h2.17Zm2.631,0h-2.17v-3.852h2.17Zm2.6,0h-2.17v-3.852h2.17Z" transform="translate(-15.591 -325.633)" fill="#4f4f4f" opacity="0.1"/>
      <path id="Path_77" data-name="Path 77" d="M17.7,492.4c.109.407.217.841.353,1.248V492.7h2.17v3.852H19.056c.027.081.081.19.108.271h24.82v-4.394H17.7Zm5.154,4.15h-2.17V492.7h2.17Zm2.631,0h-2.17V492.7h2.17Zm2.631,0h-2.17V492.7h2.17Zm2.6,0H28.55V492.7h2.17Zm2.631,0h-2.17V492.7h2.17Zm2.631,0h-2.17V492.7h2.17Zm2.631,0h-2.17V492.7h2.17Zm2.631,0h-2.17V492.7h2.17Zm2.631,0h-2.17V492.7h2.17Z" transform="translate(-15.883 -360.103)" fill="#4f4f4f" opacity="0.1"/>
      <path id="Path_78" data-name="Path 78" d="M40.3,539.8c.081.081.136.19.217.271h1.438v1.845c.163.19.3.38.461.542v-2.414h2.17v3.879h-.868a2.562,2.562,0,0,0,.271.271H60.481V539.8Zm6.89,4.123H45.02v-3.852h2.17Zm2.631,0h-2.17v-3.852h2.17Zm2.631,0h-2.17v-3.852h2.17Zm2.631,0h-2.17v-3.852h2.17Zm2.631,0h-2.17v-3.852h2.17Zm2.6,0h-2.17v-3.852h2.17Z" transform="translate(-32.352 -394.645)" fill="#6c63ff" opacity="0.1"/>
      <path id="Path_79" data-name="Path 79" d="M93.7,587.1c.244.136.488.271.76.407v-.136h2.17v1.221l.461.217v-1.438h2.17v2.36c.054.027.081.027.136.054v-2.658Z" transform="translate(-71.267 -429.115)" fill="#6c63ff" opacity="0.1"/>
      <path id="Path_80" data-name="Path 80" d="M313.638,229.434Zm-16.709,80.047Zm-17.442-40.743c.054.163.081.353.136.515h0A4.895,4.895,0,0,0,279.487,268.739Zm34.151-39.332ZM149.8,188.8v1.166h12.125V188.8ZM296.929,309.482Zm-17.442-40.743c.054.163.081.353.136.515h0A4.895,4.895,0,0,0,279.487,268.739Zm34.151-39.332Zm-16.709,80.075Zm-17.442-40.743c.054.163.081.353.136.515h0A4.895,4.895,0,0,0,279.487,268.739Z" transform="translate(-112.15 -138.856)" fill="#4f4f4f" opacity="0.1"/>
      <path id="Path_81" data-name="Path 81" d="M833.4,397Z" transform="translate(-609.361 -290.581)" fill="#ffb0b1"/>
      <path id="Path_82" data-name="Path 82" d="M832.8,397.481l.081-.081Z" transform="translate(-608.924 -290.872)" fill="#ffb0b1"/>
    </g>
    <rect id="Rectangle_1299" data-name="Rectangle 1299" width="8.49" height="11.013" transform="translate(175.68 58.353)" fill="#6c63ff" opacity="0.1"/>
    <rect id="Rectangle_1300" data-name="Rectangle 1300" width="7.161" height="7.161" transform="translate(232.673 88.164)" fill="#6c63ff" opacity="0.1"/>
    <rect id="Rectangle_1301" data-name="Rectangle 1301" width="7.161" height="7.161" transform="translate(232.673 105.85)" fill="#6c63ff" opacity="0.1"/>
    <rect id="Rectangle_1302" data-name="Rectangle 1302" width="7.161" height="7.161" transform="translate(232.673 123.508)" fill="#6c63ff" opacity="0.1"/>
    <rect id="Rectangle_1303" data-name="Rectangle 1303" width="7.161" height="7.161" transform="translate(232.673 141.167)" fill="#6c63ff" opacity="0.1"/>
    <path id="Path_83" data-name="Path 83" d="M131.1,544.2c.217.136.461.244.705.38v-.136h2.007v1.139l.434.19v-1.329h2.007v2.2c.054.027.081.027.136.054v-2.468Z" transform="translate(-98.522 -397.852)" fill="#6c63ff" opacity="0.1"/>
    <path id="Path_84" data-name="Path 84" d="M327.836,206.343s-.977-.136-.977-1.6a22.53,22.53,0,0,0-.705-4.15h0s-.6-4.72-1.465-5.452-1.953-5.127-1.953-5.127a10.671,10.671,0,0,0-.57-2.9,23.3,23.3,0,0,1-1.655-3.553c-.787-1.79-3.933-3.011-3.933-3.011s-5.724-3.336-7.324-4.421h0c-.163-.109-.271-.19-.407-.3-.271-.38-1.519-.38-1.519-.38-.136-.814-.244-1.736-.3-2.6v-.271a8.519,8.519,0,0,0,3.825-4.747c.027-.109.054-.19.081-.3a.859.859,0,0,0,.515-.461c.163-.326.163-.705.325-1,.19-.353.6-.543.922-.841a3.549,3.549,0,0,0,.977-2.875c-.027-.868-.163-1.682-.108-2.55l.027-.19c.027-.136.027-.244.054-.38.136-.624.407-1.221.543-1.845a2.374,2.374,0,0,0-.19-1.872,3.33,3.33,0,0,0-2.55-1.031c-1.085-.109-2.007.027-2.713-.868a9.863,9.863,0,0,0-1.085-1.3c-.163-.136-1.519-.949-1.519-1.031a6.138,6.138,0,0,0-4.286-.326c-.705.19-1.383.543-2.089.705-1.573.38-3.364-.027-4.666.868a5.531,5.531,0,0,0-1.6,2.089c-.326.651-.678,1.275-1.031,1.926a12.157,12.157,0,0,0-1.356,3.309,6.882,6.882,0,0,0-.108.787h0v.407a.6.6,0,0,0,.027.244c.027.081,0,.109.027.163a.752.752,0,0,1,.027.244,2.811,2.811,0,0,0,.081.326.207.207,0,0,0,.054.136.67.67,0,0,0,.109.244c.027.054.027.109.054.136a.525.525,0,0,0,.136.244c.027.027.027.081.054.109.081.136.163.217.217.325.543.678,1.329,1.112,1.926,1.736v.271a8.705,8.705,0,0,0,3.933,7.053.836.836,0,0,0,.027.271,12.484,12.484,0,0,1-.027,2.251,1.071,1.071,0,0,0-.841-.38,1.321,1.321,0,0,0-.326.027l-.027-.027h0v.027c-.542.136-1.248.705-1.9,2.333,0,0-1.98,2.251-3.5,2.143s-5.344,2.306-5.344,2.306-3.716,2.414-4.53,4.883a35.607,35.607,0,0,1-1.6,4.1l-4.611,9.521h0l-.868,7.568a31.733,31.733,0,0,1,.38,3.879c-.108.515,1.953,5.127,1.953,5.127s6.7,11.8,9.44,12.4l.19-.136a2.127,2.127,0,0,0,.38.136l.543-.407a5.4,5.4,0,0,1-.054,1.329c-.38,1.166.163,8.762.814,10.253s.434,21.022.434,21.022l-.108,1.709a.759.759,0,0,0,.027.163l-.027.407.081.027a4.1,4.1,0,0,1-.081,1.628,20.866,20.866,0,0,0-.326,2.9s-1.9,12.071-.977,14.485c.9,2.414,1.655,5.1,1.655,5.1s.949,3.011.054,3.526-3.445,1.383-2.93,2.658c.488,1.166,2.306,4.286,2.577,4.747l-.027.244-.38,4.015a4.391,4.391,0,0,0,.434,1.546,2.6,2.6,0,0,0,2.685,1.682c.244-.027.542-.054.841-.081a36.939,36.939,0,0,0,6.13-1.6,2.292,2.292,0,0,1-.488-.407h0a1.373,1.373,0,0,1-.434-1c.054-.732-1.329-4.2-1.655-5.072-.054-.136-.081-.19-.081-.19s3.119-3.255,2.6-6.158c0,0-3.445-2.007-2.306-3.119a35.593,35.593,0,0,0,3.174-4.286s.109-11.908,0-13.671a12.933,12.933,0,0,1,.19-3.689,3.964,3.964,0,0,1,.136-.543,34.624,34.624,0,0,0,4.747.353c.57,0,1.166,0,1.763-.027a3.639,3.639,0,0,0,.027.543c.136,2.957.38,8.111.57,10.036.271,2.74,1.845,10.145,1.845,10.145s-2.984,1.926.543,6.619a6.786,6.786,0,0,1-.217,1.953h0a19.245,19.245,0,0,0-.6,2.468,4.375,4.375,0,0,0,.027,2.251c.57,1.112,3.987,1.031,3.987,1.031h0l.081-.027a4.859,4.859,0,0,1,3.608,1.085c1.275,1.031,6.212.57,8.843.244,1.031-.136,1.736-.244,1.736-.244a.808.808,0,0,0,.027-.353h0c-.027-.651-.543-2.089-4.015-3.364,0,0-3.255-2.2-3.228-4.1h-.515a2.111,2.111,0,0,1,.461,0s-1.275-4.666-.759-5.045c.543-.38-1.031-5.534-1.031-5.534s-.9-8.68-.922-9.277a5.909,5.909,0,0,1,.217-1.546l-.217-4.774s-.054-1.6,0-2.089a10.535,10.535,0,0,0-.109-1.329c-.027-.19-.054-.353-.081-.543a16.61,16.61,0,0,0,2.007-.6l-.163-16.547c1.031-2.007,1.248-6.429,1.248-9.575,0-2.007-.108-3.5-.108-3.5l1.411-2.306s.326-2.767-.19-3.364a.6.6,0,0,1,.081-.814.916.916,0,0,1,.3-.19.1.1,0,0,1-.027-.054,1.363,1.363,0,0,1,.326-.217s-.515-.787-.054-1.112c.434.271.814.515,1.085.678-.027.19-.054.3-.054.3l.136-.244a4.264,4.264,0,0,0,.461.244s2.224-4.449,2.17-5.1,1.519-3.391,1.519-3.391a3.392,3.392,0,0,1,1.031-2.034c.841-.6.651-4.991.651-4.991a9.958,9.958,0,0,1,.814-3.228C328.948,207.482,327.836,206.343,327.836,206.343ZM285.3,204.39l.054,1.058c-.244-.407-.434-.705-.434-.705Z" transform="translate(-202.357 -111.099)" fill="url(#linear-gradient)"/>
    <path id="Path_85" data-name="Path 85" d="M436.021,407.946l-.543,2.306s-4.367-2.224-5.154-5.045a3.214,3.214,0,0,1,1.3-3.906l4.069,1.709Z" transform="translate(-315.953 -293.714)" fill="#fff"/>
    <path id="Path_86" data-name="Path 86" d="M436.021,407.946l-.543,2.306s-4.367-2.224-5.154-5.045a3.214,3.214,0,0,1,1.3-3.906l4.069,1.709Z" transform="translate(-315.953 -293.714)" opacity="0.1"/>
    <path id="Path_87" data-name="Path 87" d="M335.074,692.141a30.339,30.339,0,0,1-6.809,1.655,2.633,2.633,0,0,1-2.658-1.655,5.05,5.05,0,0,1-.407-1.519l.353-3.987.19-2.116L331.656,683l.841,2.55.081.19c.326.868,1.682,4.313,1.628,5.045a1.514,1.514,0,0,0,.407,1A3.407,3.407,0,0,0,335.074,692.141Z" transform="translate(-239.593 -499.002)" fill="#fff"/>
    <path id="Path_88" data-name="Path 88" d="M414.438,689.405a1.432,1.432,0,0,1-.027.353s-8.626,1.438-10.389,0a4.524,4.524,0,0,0-3.635-1.058s-3.336.109-3.906-1a4.375,4.375,0,0,1-.027-2.251c.163-.841.353-1.628.57-2.441l.136-.109.787-.624,9.3-.271h.081c-.054,1.9,3.147,4.1,3.147,4.1C413.9,687.317,414.384,688.754,414.438,689.405Z" transform="translate(-291.325 -498.273)" fill="#fff"/>
    <path id="Path_89" data-name="Path 89" d="M414.438,698.66a1.433,1.433,0,0,1-.027.353s-8.626,1.438-10.389,0a4.524,4.524,0,0,0-3.635-1.058s-3.364.109-3.906-1a4.375,4.375,0,0,1-.027-2.251c1.275.136,3.309.461,4.1,1.221a9.34,9.34,0,0,0,4.5,2.414C406.056,698.389,411.915,698.579,414.438,698.66Z" transform="translate(-291.325 -507.528)" opacity="0.1"/>
    <path id="Path_90" data-name="Path 90" d="M336.167,715.607a30.341,30.341,0,0,1-6.809,1.655,2.617,2.617,0,0,1-2.658-1.682,5.485,5.485,0,0,0,3.2.38,27.737,27.737,0,0,1,5.8-.76A1.318,1.318,0,0,0,336.167,715.607Z" transform="translate(-240.684 -522.467)" opacity="0.1"/>
    <path id="Path_91" data-name="Path 91" d="M365.576,235.836c-3.336-1.275-7.622-5.561-6.537-7.568a4.8,4.8,0,0,0,.407-1.6,12.783,12.783,0,0,0,.027-2.279,27.972,27.972,0,0,0-.461-3.689s10.389.217,9.765,1.763a5.9,5.9,0,0,0-.163,2.089c.054.868.19,1.872.3,2.685.19,1.139.353,2.007.353,2.007s-.624.9-1,.922S370.35,237.681,365.576,235.836Z" transform="translate(-264.086 -162.103)" fill="#f4d8b3"/>
    <path id="Path_92" data-name="Path 92" d="M333.5,685.567l-.081.081c-3.092-3.743-6.863.922-6.863.922l-.054-.109.19-2.116,5.886-1.546.841,2.55Z" transform="translate(-240.542 -498.856)" opacity="0.1"/>
    <path id="Path_93" data-name="Path 93" d="M409.261,682.171a5.943,5.943,0,0,0-3.472,1c-1.193,1.058-7.053.217-6.809,0a.72.72,0,0,0,.136-.38l.787-.624,9.3-.271C409.234,682.063,409.261,682.171,409.261,682.171Z" transform="translate(-293.264 -498.2)" opacity="0.1"/>
    <path id="Path_94" data-name="Path 94" d="M330.459,560.718a6.146,6.146,0,0,0-.38,1.275,16.756,16.756,0,0,0-.19,3.689c.108,1.763,0,13.59,0,13.59a35.671,35.671,0,0,1-3.092,4.259c-1.112,1.112,2.279,3.092,2.279,3.092.515,2.875-2.55,6.13-2.55,6.13-3.092-3.743-6.863.922-6.863.922s-2.034-3.526-2.55-4.8c-.515-1.248,1.98-2.143,2.875-2.658s-.054-3.526-.054-3.526-.76-2.658-1.628-5.072c-.9-2.414.977-14.4.977-14.4a20.183,20.183,0,0,1,.326-2.875,4.124,4.124,0,0,0,.081-1.628c-.027-.19-.027-.326-.054-.461a1.235,1.235,0,0,1-.027-.163l.027-.054,1.248-2.333C320.911,555.727,331.056,559.226,330.459,560.718Z" transform="translate(-233.654 -406.232)" fill="#3b474d"/>
    <path id="Path_95" data-name="Path 95" d="M401.847,596.71a5.943,5.943,0,0,0-3.472,1c-1.221,1.058-7.053.217-6.809,0s.217-1.953.217-1.953c-3.418-4.693-.515-6.564-.515-6.564s-1.546-7.378-1.817-10.118c-.19-1.926-.434-7.053-.543-9.982-.054-1.248-.109-2.116-.109-2.116l2.794-.543.353-.081L398.7,565s.19,1.248.3,2.306a10.97,10.97,0,0,1,.109,1.329c-.054.515,0,2.089,0,2.089l.217,4.747a4.957,4.957,0,0,0-.217,1.546c.054.6.922,9.223.922,9.223s1.546,5.154,1,5.506C400.545,592.126,401.847,596.71,401.847,596.71Z" transform="translate(-285.859 -413.01)" fill="#3b474d"/>
    <path id="Path_96" data-name="Path 96" d="M369.292,222.49a5.9,5.9,0,0,0-.163,2.089,8.609,8.609,0,0,1-9.168-.19,27.972,27.972,0,0,0-.461-3.689C359.5,220.727,369.889,220.944,369.292,222.49Z" transform="translate(-264.547 -162.103)" opacity="0.1"/>
    <path id="Path_97" data-name="Path 97" d="M363.948,183.185a8.8,8.8,0,0,1-.434,2.658,8.625,8.625,0,0,1-16.818-2.5v-.19a8.614,8.614,0,0,1,17.225-.3,1.321,1.321,0,0,1,.027.326Z" transform="translate(-255.221 -128.359)" fill="#f4d8b3"/>
    <path id="Path_98" data-name="Path 98" d="M365.576,251.868c-3.336-1.275-7.622-5.561-6.537-7.568a4.8,4.8,0,0,0,.407-1.6L364,246.443l2.821,2.306,2.143-5.452c.19,1.139.353,2.007.353,2.007s-.624.9-1,.922C367.936,246.335,370.35,253.713,365.576,251.868Z" transform="translate(-264.086 -178.135)" opacity="0.1"/>
    <path id="Path_99" data-name="Path 99" d="M368.919,267.322l-3.8,63.881-4.964.326L347.3,294.475l2.116-43.971.434-9.3,5.723,4.693,2.821,2.333,2.2-5.642,4.1,3.581Z" transform="translate(-255.654 -177.042)" fill="#0f88fc"/>
    <path id="Path_100" data-name="Path 100" d="M337.277,560.936a6.139,6.139,0,0,0-.38,1.275,36.331,36.331,0,0,1-10.416-3.255l-.081-.027.027-.407v-.19L327.675,556C327.729,555.972,337.874,559.445,337.277,560.936Z" transform="translate(-240.464 -406.451)" opacity="0.1"/>
    <path id="Path_101" data-name="Path 101" d="M391.7,572.733c-.922.163-1.872.244-2.794.326-.054-1.248-.109-2.116-.109-2.116l2.794-.543Z" transform="translate(-285.875 -416.945)" opacity="0.1"/>
    <path id="Path_102" data-name="Path 102" d="M407.653,567.306a19.7,19.7,0,0,1-7.026.651l-.027-1.6L407.354,565S407.517,566.248,407.653,567.306Z" transform="translate(-294.453 -413.01)" opacity="0.1"/>
    <path id="Path_103" data-name="Path 103" d="M312.832,332.279c-10.335,1.763-19.8-3.309-19.8-3.309l.108-1.709s.217-19.422-.407-20.914-1.166-9.06-.787-10.2c.38-1.166-1.329-18.554-1.329-18.554l-.271-7.053-10.145-4.1,4.53-9.44a41.364,41.364,0,0,0,1.6-4.1c.787-2.441,4.449-4.855,4.449-4.855s3.743-2.414,5.235-2.306,3.418-2.143,3.418-2.143c1.438-3.662,2.74-2.007,2.74-2.007,0,.19,0,0-.081.542-.515,4.042,8.138,16.736,8.273,16.926h0l.841,20.073.841,25.389Z" transform="translate(-206.825 -177.061)" opacity="0.1"/>
    <path id="Path_104" data-name="Path 104" d="M311.686,332.133c-10.335,1.763-19.8-3.309-19.8-3.309l.109-1.709s.217-19.422-.434-20.914-1.166-9.06-.787-10.2c.38-1.166-1.329-18.554-1.329-18.554l-.271-7.053L279,266.245l4.53-9.44a41.369,41.369,0,0,0,1.6-4.1c.787-2.441,4.449-4.855,4.449-4.855s3.743-2.414,5.235-2.306,3.418-2.143,3.418-2.143c1.438-3.662,3.011-2.007,3.011-2.007,0,.19-.163.244-.081.542,1.112,3.906,7.866,16.736,8,16.926h0L310,278.94l.841,25.389Z" transform="translate(-205.952 -176.915)" fill="#fff"/>
    <path id="Path_105" data-name="Path 105" d="M363.621,261.149c-1.112-.461-7-7.188-7-7.188v-1.519c-.217-.515-1.492-.19-2.523.163l.461-9.3.515.434C356.162,247.64,363.513,260.932,363.621,261.149Z" transform="translate(-260.619 -178.573)" opacity="0.1"/>
    <path id="Path_106" data-name="Path 106" d="M364.721,259.149c-1.112-.461-7-7.188-7-7.188v-1.519c-.217-.515-1.492-.19-2.523.163l.461-9.3.515.434C357.262,245.586,364.585,258.932,364.721,259.149Z" transform="translate(-261.419 -177.115)" fill="#fff"/>
    <path id="Path_107" data-name="Path 107" d="M326.143,428.732c.136,0,7.188-.732,7.188-.732s4.259,8.382,3.987,10.443c-.271,2.034-.787,3.852-2.5,3.526s-9.223.244-9.223.244Z" transform="translate(-239.881 -313.172)" opacity="0.1"/>
    <path id="Path_108" data-name="Path 108" d="M325.043,426.532c.136,0,7.188-.732,7.188-.732s4.259,8.382,3.987,10.443c-.271,2.034-.787,3.852-2.5,3.526s-9.223.244-9.223.244Z" transform="translate(-239.081 -311.568)" fill="#fff"/>
    <path id="Path_109" data-name="Path 109" d="M335.579,414s6.483,3.472,6.592,4.53c.136,1.058-3.309-.461-4.042-.651a6.828,6.828,0,0,0-1.492-.217l-4.937.136Z" transform="translate(-244.321 -302.969)" fill="#f4d8b3"/>
    <circle id="Ellipse_9" data-name="Ellipse 9" cx="0.678" cy="0.678" r="0.678" transform="translate(100.553 81.654)" opacity="0.1"/>
    <circle id="Ellipse_10" data-name="Ellipse 10" cx="0.678" cy="0.678" r="0.678" transform="translate(100.553 81.383)" fill="#3f3d56"/>
    <circle id="Ellipse_11" data-name="Ellipse 11" cx="0.678" cy="0.678" r="0.678" transform="translate(101.806 111.112)" opacity="0.1"/>
    <circle id="Ellipse_12" data-name="Ellipse 12" cx="0.678" cy="0.678" r="0.678" transform="translate(101.806 110.841)" fill="#3f3d56"/>
    <circle id="Ellipse_13" data-name="Ellipse 13" cx="0.678" cy="0.678" r="0.678" transform="translate(101.234 96.383)" opacity="0.1"/>
    <circle id="Ellipse_14" data-name="Ellipse 14" cx="0.678" cy="0.678" r="0.678" transform="translate(101.234 96.085)" fill="#3f3d56"/>
    <path id="Path_110" data-name="Path 110" d="M409.086,294.111s.461.705,0,1,.054,1.112.054,1.112-1.166.678-.651,1.275.19,3.364.19,3.364l-1.383,2.306s.081,1.492.108,3.472c0,3.119-.19,7.541-1.221,9.521l.163,16.465s-4.855,1.79-8.951,1.248l-.6-26.42s.9-14.973,1.221-17.849a27.828,27.828,0,0,0,.217-4.5,50.546,50.546,0,0,0-.6-6.564s-.515-9.06-.543-11.555c-.027-1.221.054-4.693.109-8,.081-3.635.19-7.053.19-7.053l-.9-7.27s.9-.109,1.221.271a1.43,1.43,0,0,0,.407.3h0c1.6,1.085,7.215,4.394,7.215,4.394s3.092,1.248,3.852,3.011a32.26,32.26,0,0,0,1.6,3.526,11.178,11.178,0,0,1,.542,2.875s1.058,4.367,1.9,5.1,1.438,5.452,1.438,5.452l-7.378,5.8s-.651,9.657-.787,10.009C406.265,285.675,409.086,294.111,409.086,294.111Z" transform="translate(-291.452 -179.554)" fill="#fff"/>
    <path id="Path_111" data-name="Path 111" d="M409.239,293.858s.461.705,0,1,.054,1.112.054,1.112-1.166.678-.651,1.275.19,3.364.19,3.364l-1.383,2.306s.081,1.492.108,3.472c0,3.119-.19,7.541-1.221,9.521l.136,16.465s-4.883,1.79-8.951,1.248l-.6-26.42s.9-14.973,1.221-17.849a27.818,27.818,0,0,0,.217-4.5,50.538,50.538,0,0,0-.6-6.564s-.515-9.06-.543-11.555c-.027-1.221.054-4.693.108-8,.081-3.635.19-7.053.19-7.053L396.3,244.3s1.221,0,1.492.38a1.43,1.43,0,0,0,.407.3h0c1.6,1.085,7.215,4.394,7.215,4.394s3.092,1.248,3.852,3.011a32.275,32.275,0,0,0,1.6,3.526,11.177,11.177,0,0,1,.543,2.875s1.058,4.367,1.9,5.1,1.438,5.425,1.438,5.425l-7.378,5.8s-.651,9.657-.787,10.009C406.391,285.4,409.239,293.858,409.239,293.858Z" transform="translate(-291.306 -179.301)" fill="#fff"/>
    <path id="Path_112" data-name="Path 112" d="M400.979,255.551l.651,1.953-3.5,3.526c.081-3.635.19-7.053.19-7.053L397.1,246.6s1.221,0,1.492.38a1.431,1.431,0,0,0,.407.3h0l2.984,8.6Z" transform="translate(-291.91 -180.977)" opacity="0.1"/>
    <path id="Path_113" data-name="Path 113" d="M399.879,253.551l.651,1.953-3.5,3.526c.081-3.635.19-7.053.19-7.053L396,244.6s1.221,0,1.492.38a1.428,1.428,0,0,0,.407.3h0l2.984,8.6Z" transform="translate(-291.11 -179.52)" fill="#fff"/>
    <path id="Path_114" data-name="Path 114" d="M363.948,183.112a8.8,8.8,0,0,1-.434,2.658.26.26,0,0,1-.271-.081,11.267,11.267,0,0,0-2.55-6.212,6.956,6.956,0,0,0-1.383-1.438,2.8,2.8,0,0,0-1.9-.543c-.759.109-1.411.6-2.2.678-1,.081-1.926-.6-2.9-.651a2.9,2.9,0,0,0-2.143.977,5.727,5.727,0,0,0-1.139,2.116,12.1,12.1,0,0,0-.624,3.689c0,.705-.081,1.6-.732,1.845a3.724,3.724,0,0,0-.949-2.875l-.027-.027v-.19a8.614,8.614,0,0,1,17.225-.3,1.668,1.668,0,0,1,.027.353Z" transform="translate(-255.221 -128.286)" opacity="0.1"/>
    <path id="Path_115" data-name="Path 115" d="M352.035,154.7a6,6,0,0,0-4.177-.325c-.705.19-1.356.542-2.062.705-1.519.353-3.282-.027-4.557.868a5.586,5.586,0,0,0-1.573,2.062l-1,1.926a12.269,12.269,0,0,0-1.329,3.282,4.171,4.171,0,0,0,.624,3.364c.543.678,1.329,1.112,1.9,1.736a3.829,3.829,0,0,1,.949,2.875c.651-.244.732-1.139.732-1.845a13.147,13.147,0,0,1,.624-3.689,5.522,5.522,0,0,1,1.139-2.116,2.8,2.8,0,0,1,2.143-.977c1,.027,1.926.732,2.9.651.759-.081,1.438-.57,2.2-.678a2.7,2.7,0,0,1,1.9.543,6.319,6.319,0,0,1,1.383,1.438,10.961,10.961,0,0,1,2.55,6.212c.271.19.705-.081.841-.38s.163-.705.326-1c.19-.353.6-.542.9-.814a3.565,3.565,0,0,0,.949-2.848,14.746,14.746,0,0,1-.027-3.092c.136-.624.38-1.221.543-1.845a2.3,2.3,0,0,0-.19-1.845,3.14,3.14,0,0,0-2.5-1c-1.058-.108-1.98.027-2.658-.868a8.006,8.006,0,0,0-1.058-1.275C353.364,155.621,352.035,154.78,352.035,154.7Z" transform="translate(-248.329 -113.597)" fill="#211e21"/>
    <path id="Path_116" data-name="Path 116" d="M281.4,339.155l-2.658-4.855-.841,7.514a37.618,37.618,0,0,1,.38,3.852c-.081.543,1.9,5.1,1.9,5.1s6.564,11.718,9.277,12.315l9.06-6.51-2.414-3.038s-.841-.326-1.031,0c0,0-4.476-7.677-4.937-8.273a2.8,2.8,0,0,1-.38-1.655s-.705-.732-.461-1.438-1.329-3.092-1.329-3.092l1.438-1.329Z" transform="translate(-205.167 -244.888)" opacity="0.1"/>
    <path id="Path_117" data-name="Path 117" d="M277.446,332.2l-.705.543-.841,7.514a37.616,37.616,0,0,1,.38,3.852c-.081.543,1.926,5.1,1.926,5.1s6.564,11.718,9.277,12.315l9.087-6.51-2.414-3.038s-.841-.326-1.031,0c0,0-4.476-7.677-4.937-8.273a2.8,2.8,0,0,1-.38-1.655s-.705-.732-.461-1.438-1.329-3.092-1.329-3.092l1.438-1.329Z" transform="translate(-203.712 -243.358)" fill="#fff"/>
    <path id="Path_118" data-name="Path 118" d="M426.607,428.6c.515.6.19,3.364.19,3.364l-1.383,2.306s.081,1.492.108,3.472l-2.36.705a1.4,1.4,0,0,1-1.736-.9.9.9,0,0,1-.054-.461l.407-12.993,5.452,2.089c-.461.326.054,1.112.054,1.112S426.091,428.006,426.607,428.6Z" transform="translate(-309.56 -310.33)" opacity="0.1"/>
    <path id="Path_119" data-name="Path 119" d="M427.607,427.6c.515.6.19,3.364.19,3.364l-1.383,2.306s.081,1.492.109,3.472l-2.387.76a1.384,1.384,0,0,1-1.709-.9.9.9,0,0,1-.054-.461l.407-13.047,5.479,2.089c-.488.326.054,1.112.054,1.112S427.118,426.952,427.607,427.6Z" transform="translate(-310.287 -309.601)" fill="#fff"/>
    <path id="Path_120" data-name="Path 120" d="M436.645,411.278s-.38,2.36-1.275,2.5-1.329,3.825-2.279,3.716c-.922-.136-.3-3.418-.271-4.1.027-.651-1-3.309-.217-3.906s3.255,0,3.255,0Z" transform="translate(-317.527 -299.487)" fill="#f4d8b3"/>
    <path id="Path_121" data-name="Path 121" d="M436.091,340.126l1.736-3.526a22.559,22.559,0,0,1,.705,4.123c0,1.438.977,1.6.977,1.6s1.058,1.248.515,2.17a11.031,11.031,0,0,0-.787,3.2s.19,4.367-.651,4.964a3.3,3.3,0,0,0-1,2.034s-1.546,2.74-1.492,3.364-2.143,5.072-2.143,5.072,1.058-5.479-5.154-7.839c0,0-.054-1.872.407-2.36.461-.515,1.194-.732.732-3.309a29.631,29.631,0,0,1-.136-6.266,38.724,38.724,0,0,1,1.383-4.449Z" transform="translate(-314.958 -246.564)" opacity="0.1"/>
    <path id="Path_122" data-name="Path 122" d="M438.382,334.8l1.546.515a22.56,22.56,0,0,1,.705,4.123c0,1.438.977,1.6.977,1.6s1.058,1.248.515,2.17a11.03,11.03,0,0,0-.787,3.2s.19,4.367-.651,4.964a3.3,3.3,0,0,0-1,2.034s-1.546,2.74-1.492,3.364-2.143,5.073-2.143,5.073,1.058-5.479-5.154-7.839c0,0-.054-1.872.434-2.36.488-.515,1.194-.732.732-3.309a29.63,29.63,0,0,1-.136-6.266,38.729,38.729,0,0,1,1.383-4.449Z" transform="translate(-316.486 -245.253)" fill="#fff"/>
    <path id="Path_123" data-name="Path 123" d="M334.1,669.553s2.441-1.546,4.042-.434S334.1,669.553,334.1,669.553Z" transform="translate(-246.075 -488.593)" opacity="0.1"/>
    <path id="Path_124" data-name="Path 124" d="M403.8,654.465a4.971,4.971,0,0,1,3.96,1.655C409.578,658.072,403.8,654.465,403.8,654.465Z" transform="translate(-296.786 -478.197)" opacity="0.1"/>
    <g id="Group_55" data-name="Group 55" transform="translate(88.881 46.092)" opacity="0.1">
      <path id="Path_125" data-name="Path 125" d="M367.959,188.97c-.3.271-.705.461-.9.814a6.2,6.2,0,0,0-.326,1c-.163.326-.542.6-.841.38a11.268,11.268,0,0,0-2.55-6.212,6.955,6.955,0,0,0-1.383-1.438,2.794,2.794,0,0,0-1.9-.543c-.76.109-1.411.6-2.2.678-1,.081-1.926-.6-2.93-.651a2.9,2.9,0,0,0-2.143.977,5.727,5.727,0,0,0-1.139,2.116,12.1,12.1,0,0,0-.624,3.689c-.027.705-.081,1.6-.732,1.845a1.818,1.818,0,0,1,0,.542c.651-.244.732-1.139.732-1.845a13.147,13.147,0,0,1,.624-3.689,5.522,5.522,0,0,1,1.139-2.116,2.8,2.8,0,0,1,2.143-.977c1,.027,1.926.732,2.93.651.759-.081,1.438-.57,2.2-.678a2.7,2.7,0,0,1,1.9.543,6.318,6.318,0,0,1,1.383,1.438,10.961,10.961,0,0,1,2.55,6.212c.271.19.705-.081.841-.38s.163-.705.326-1c.19-.353.6-.542.9-.814a3.565,3.565,0,0,0,.949-2.848v-.109A3.188,3.188,0,0,1,367.959,188.97Z" transform="translate(-346.732 -180.697)"/>
      <path id="Path_126" data-name="Path 126" d="M339.793,194.2c-.57-.624-1.356-1.058-1.9-1.736a3.529,3.529,0,0,1-.732-2.062,3.978,3.978,0,0,0,.732,2.631c.543.678,1.329,1.112,1.9,1.736a3.825,3.825,0,0,1,.949,2.251A3.97,3.97,0,0,0,339.793,194.2Z" transform="translate(-337.148 -186.114)"/>
      <path id="Path_127" data-name="Path 127" d="M419,175.088c-.163.6-.407,1.221-.543,1.845a4.912,4.912,0,0,0-.081,1.248,2.958,2.958,0,0,1,.081-.705c.136-.624.38-1.221.543-1.845a2.7,2.7,0,0,0,.081-1.031A1.537,1.537,0,0,1,419,175.088Z" transform="translate(-396.333 -174.6)"/>
    </g>
    <rect id="Rectangle_1304" data-name="Rectangle 1304" width="1.6" height="35.589" transform="translate(41.448 111.709)" fill="#eda537"/>
    <path id="Path_128" data-name="Path 128" d="M148.033,540.887l-.109,1.6-.163,2.279-.054.922-.163,2.279-.054.922-.163,2.279-1.6,25.742a4.368,4.368,0,0,1-4.367,4.1h-8.3a4.387,4.387,0,0,1-4.367-4.1l-1.6-25.742-.163-2.279-.054-.922-.163-2.279-.054-.922-.163-2.279-.109-1.6a2.271,2.271,0,0,1,2.143-2.387h17.062a2.269,2.269,0,0,1,2.251,2.279C148.033,540.806,148.033,540.86,148.033,540.887Z" transform="translate(-95.084 -393.698)" fill="#eda537"/>
    <path id="Path_129" data-name="Path 129" d="M148.766,553.2l-.163,2.279H127.636L127.5,553.2Z" transform="translate(-95.899 -404.411)" fill="#302515"/>
    <path id="Path_130" data-name="Path 130" d="M149.132,565.1,149,567.351H128.409L128.3,565.1Z" transform="translate(-96.482 -413.083)" fill="#302515"/>
    <path id="Path_131" data-name="Path 131" d="M149.453,576.9l-.136,2.279H129.136L129,576.9Z" transform="translate(-96.992 -421.682)" fill="#302515"/>
    <path id="Path_132" data-name="Path 132" d="M64.09,446.826c9.2,6.646,13.047,17.062,13.047,17.062s-11.094-.38-20.29-7.026S43.8,439.8,43.8,439.8,54.894,440.18,64.09,446.826Z" transform="translate(-34.903 -321.771)" fill="#1d8228"/>
    <path id="Path_134" data-name="Path 134" d="M110.84,406.025a22.385,22.385,0,0,1,7.107,9.3,22.161,22.161,0,0,1-11.04-3.825,22.385,22.385,0,0,1-7.107-9.3A22.087,22.087,0,0,1,110.84,406.025Z" transform="translate(-75.713 -294.37)" fill="#3ac468"/>
    <path id="Path_136" data-name="Path 136" d="M174.771,427.027a30.9,30.9,0,0,0-6.971,14.594A28.081,28.081,0,0,0,188.632,418.7,31.287,31.287,0,0,0,174.771,427.027Z" transform="translate(-125.267 -306.394)" fill="#3ac468"/>
    <path id="Path_138" data-name="Path 138" d="M946.025,692.415,945.7,696l1.031-.217-.163-3.879Z" transform="translate(-690.883 -505.487)" fill="#1d2366"/>
    <path id="Path_139" data-name="Path 139" d="M825.382,573.875c-1.221,3.445-.9,8.111-.6,10.389.108.841.19,1.329.19,1.329s-1.817,4.123-1.953,4.286c-.163.163-5.344,3.336-5.344,3.336l-3.635,2.116s-3.689-1.6-1.926-2.17a3.285,3.285,0,0,0,.949-.651,30.767,30.767,0,0,0,3.987-5.859,10.406,10.406,0,0,1,.705-3.12c.542-1,.353-11.555.353-11.555l.054-17.225V552.5l6.89.054a21.819,21.819,0,0,0,.3,2.279,37.471,37.471,0,0,0,.949,3.825C827.552,562.564,827.037,569.155,825.382,573.875Z" transform="translate(-593.478 -403.9)" fill="#f4d8b3"/>
    <path id="Path_140" data-name="Path 140" d="M824.975,670.929s-1.817,4.123-1.953,4.286c-.163.163-5.344,3.336-5.344,3.336l-3.635,2.116s-3.689-1.6-1.926-2.17a3.284,3.284,0,0,0,.949-.651l.163,1.112,1.221-.054,10.335-9.3C824.894,670.414,824.975,670.929,824.975,670.929Z" transform="translate(-593.485 -489.236)" opacity="0.1"/>
    <path id="Path_141" data-name="Path 141" d="M807.76,670.4l-10.389,9.358-1.221.054-.244-1.763s-2.116,2.713-6.808,2.577c0,0-2.821,1.872,1.356,1.953s9.494-.163,9.494-.163,3.716-5.8,6.863-5.045v4.394h.949v-4.421a3.918,3.918,0,0,0,1.682-2.631,3.17,3.17,0,0,0-1.112-2.957A1.782,1.782,0,0,1,807.76,670.4Z" transform="translate(-576.38 -489.819)" fill="#211e21"/>
    <path id="Path_142" data-name="Path 142" d="M925.3,578.689c-.678,2.387-.3,3.716.163,4.449v.027a8.862,8.862,0,0,1,1.221,2.957l.054.217-4.747,6.89-2.577,1s-4.123-1.411-3.364-1.817a4.222,4.222,0,0,0,.841-1.329c1-2.2,2.387-6.212,2.387-6.212v-.054c.163-1.655.38-3.336.624-4.964.461-2.984-.38-10.253-.38-10.253s-.3-8.843-.949-10.85a13.724,13.724,0,0,1-.57-3.119c-.136-1.248-.19-2.306-.19-2.306s2.713-3.77,7.676.3a4.568,4.568,0,0,1,1.031,1.139c3.445,4.883.678,15.679.678,15.679S926.492,574.349,925.3,578.689Z" transform="translate(-669.207 -403.343)" fill="#f4d8b3"/>
    <path id="Path_143" data-name="Path 143" d="M926.637,670.582l-4.747,6.89-2.577,1s-4.123-1.411-3.364-1.817a4.223,4.223,0,0,0,.841-1.329,3.271,3.271,0,0,1,2.658,1.628l2.224-.353s2.93-5.751,3.581-6.1.108-2.631.108-2.631v-.57c.027.027.027.054.054.081v.027a8.863,8.863,0,0,1,1.221,2.957Z" transform="translate(-669.134 -487.56)" opacity="0.1"/>
    <path id="Path_144" data-name="Path 144" d="M910.561,677.457a3.1,3.1,0,0,0-3.689-1.465s-1.356,2.767-2.713,3.228-.9,1.953,2.17,1.411,7.676-1,7.676-1l.19-2.821,3.119-3.987s1.872-1.682-.9-5.018v.57s.542,2.279-.109,2.631-3.553,6.1-3.553,6.1Z" transform="translate(-660.083 -487.925)" fill="#211e21"/>
    <path id="Path_145" data-name="Path 145" d="M842.617,552.454a21.835,21.835,0,0,0,.3,2.279,32.413,32.413,0,0,0-7.215-.081V552.4Z" transform="translate(-611.01 -403.828)" opacity="0.1"/>
    <path id="Path_146" data-name="Path 146" d="M931.733,555.415s-4.042.19-8.843.217c-.136-1.248-.19-2.306-.19-2.306s2.712-3.77,7.676.3a4.568,4.568,0,0,1,1.031,1.139Z" transform="translate(-674.122 -403.343)" opacity="0.1"/>
    <path id="Path_147" data-name="Path 147" d="M862.143,436.434s-17.659.868-23.03-.651-10.715-.19-11.528-.543-.163-5.859.543-7.188,4.584-15.082,4.584-15.082l3.716-19.422,3.933-1.085.271-.081,6.836-1.9,5.018-1.383s9.955,38.9,9.087,41.746a7.84,7.84,0,0,0-.163,3.364A9.3,9.3,0,0,0,862.143,436.434Z" transform="translate(-604.532 -284.824)" fill="#0f88fc"/>
    <path id="Path_148" data-name="Path 148" d="M808.4,356.4s-3.526,3.77-.868,5.886,4.449.19,4.449.19Z" transform="translate(-589.803 -260.994)" fill="#c7daf5"/>
    <path id="Path_149" data-name="Path 149" d="M808.4,356.4s-3.526,3.77-.868,5.886,4.449.19,4.449.19Z" transform="translate(-589.803 -260.994)" opacity="0.1"/>
    <path id="Path_150" data-name="Path 150" d="M898.141,246.316s-.407.407-1.031.977c-.9.841-2.2,2.034-3.364,3.038-1.6,1.411-2.957,2.441-2.468,1.573s.38-2.414.163-3.852c-.027-.108-.027-.19-.054-.271a24.989,24.989,0,0,0-.787-3.119,51.483,51.483,0,0,1,4.069-4.693c.543-.515.9-.705.922-.353a11.94,11.94,0,0,0,.814,2.631.206.206,0,0,0,.054.109c.3.76.624,1.546.9,2.2C897.788,245.529,898.141,246.316,898.141,246.316Z" transform="translate(-650.729 -175.756)" fill="#f4d8b3"/>
    <path id="Path_151" data-name="Path 151" d="M896.359,242.374a7.574,7.574,0,0,1-5.018,5.751,22.939,22.939,0,0,0-.841-3.391s4.91-6.32,4.991-5.072A13.057,13.057,0,0,0,896.359,242.374Z" transform="translate(-650.656 -175.802)" opacity="0.1"/>
    <path id="Path_152" data-name="Path 152" d="M866.467,275.1l.624-.9s.434,2.577,1.953,1.438c1.546-1.139,1.6,8.517,1.6,8.517l-1.655,24.82L857,308.243l.326-11.99,1.356-6.049,3.364-8.789,1.98-2.9Z" transform="translate(-626.484 -201.091)" opacity="0.1"/>
    <path id="Path_153" data-name="Path 153" d="M870.744,284.655l-1.519,22.46-.163,2.36-6.673-.407-.244-.027-5.045-.3.326-11.99,1.356-6.049,3.364-8.789,1.98-2.9,2.36-3.418.624-.9s.434,2.577,1.953,1.438l.027-.027h0C870.69,275.134,870.744,284.655,870.744,284.655Z" transform="translate(-626.557 -201.455)" fill="#eda537"/>
    <path id="Path_154" data-name="Path 154" d="M822.243,326a1.854,1.854,0,0,1-1.817,1.058c-1.221-.19-1.221,4.53-1.221,4.53s-.814.759-1.356.108-2.007,1.573-2.007,1.573l-9.141.407s4.1,1.872,3.282,7.514c0,0,13.834-.868,14.3-2.17C824.711,337.691,822.243,326,822.243,326Z" transform="translate(-589.876 -238.84)" fill="#fff"/>
    <path id="Path_155" data-name="Path 155" d="M822.243,326a1.854,1.854,0,0,1-1.817,1.058c-1.221-.19-1.221,4.53-1.221,4.53s-.814.759-1.356.108-2.007,1.573-2.007,1.573l-9.141.407s4.1,1.872,3.282,7.514c0,0,13.834-.868,14.3-2.17C824.711,337.691,822.243,326,822.243,326Z" transform="translate(-589.876 -238.84)" opacity="0.03"/>
    <path id="Path_156" data-name="Path 156" d="M853.231,274.106a50.519,50.519,0,0,0-2.061,5.344c-.651,1.9-1.221,3.526-1.221,3.526s-1.275,8.355-1.953,9.847c-.651,1.519-.3,7.405-.3,7.405l-2.441,14.539a72.032,72.032,0,0,1-2.821,11.962,21.343,21.343,0,0,1-3.635,6.564c.76-1.031,4.855-21.158,4.855-21.158l1.356-25.389s.19-2.414.407-4.476c.19-2.062,4.286-4.883,4.286-4.883l3.933-5.588C854.1,272.315,853.828,273.211,853.231,274.106Z" transform="translate(-613.238 -199.342)" fill="#fff"/>
    <path id="Path_157" data-name="Path 157" d="M829.593,385.7s-5.8-.244-8.6-3.635,6.51-1.329,6.51-1.329l2.414.543Z" transform="translate(-599.923 -278.273)" fill="#f4d8b3"/>
    <path id="Path_158" data-name="Path 158" d="M896.839,350.933a7.842,7.842,0,0,0-.163,3.364,47.618,47.618,0,0,1-13.074-1.248,28.468,28.468,0,0,1-4.584,2.875L877.2,333.491c-1.166-3.011-1.6-18.879-1.6-18.879s.109-.841.244-2.062v-.108c.461-3.472,1.329-9.982,1.79-10.85.6-1.221-1.872-4.449-1.872-4.449l1.139-9.575.136-1.166c2.36-1.058,4.177-4.449,4.177-4.449l1.383-2.441h0c1.519-.977,1.6,8.545,1.6,8.545l-1.519,22.46,5.018-1.383C887.725,309.186,897.707,348.057,896.839,350.933Z" transform="translate(-639.798 -204.91)" opacity="0.1"/>
    <path id="Path_159" data-name="Path 159" d="M904.124,336.417c-6.89,3.418-19.422.244-19.422.244a28.466,28.466,0,0,1-4.584,2.875L878.3,317.1c-1.167-3.011-1.6-18.879-1.6-18.879s1.465-11.827,2.062-13.02a1.734,1.734,0,0,0-.136-1.438,18.229,18.229,0,0,1-1.112-8.436l.488-4.1.136-1.166c2.36-1.058,4.177-4.449,4.177-4.449l1.248-2.224,2.306-4.069,1.112-1.926.19.19,1.438,1.275s.6.515,1.519,1.248c1.953,1.655,5.4,4.584,7.134,6.375,1.546,1.6,2.034,7.7,2.17,12.315.109,3.038.054,5.425.054,5.425-1.573,2.577,2.523,23.192,2.523,23.192C902.985,311.488,904.124,336.417,904.124,336.417Z" transform="translate(-640.599 -188.848)" fill="#fff"/>
    <path id="Path_160" data-name="Path 160" d="M872.124,286.644s-4.747,9.006-4.177,12.423c.543,3.418,2.116,7.3,1.356,8.192a2.762,2.762,0,0,1-2.224,1.112,7.485,7.485,0,0,0-2.767,1.6,24.311,24.311,0,0,0-3.526.868,21.992,21.992,0,0,1-4.123,1.112s-4.8-.163-5.235.3c-.461.461-.9,3.174.054,5.344s2.007,3.77,2.821,4.1c.814.3,5.886-1.411,10.009-1.817,4.1-.407,8.6-3.689,8.6-3.689s4.937-1.763,5.8-4.747-1.058-19.286-1.058-19.286S876.193,284.582,872.124,286.644Z" transform="translate(-621.809 -209.9)" opacity="0.03"/>
    <path id="Path_161" data-name="Path 161" d="M869.924,283.844s-4.747,9.006-4.177,12.423c.543,3.418,2.116,7.3,1.356,8.192a2.762,2.762,0,0,1-2.224,1.112,7.485,7.485,0,0,0-2.767,1.6,24.316,24.316,0,0,0-3.526.868,21.994,21.994,0,0,1-4.123,1.112s-4.8-.163-5.235.3c-.461.461-.9,3.174.054,5.344s2.007,3.77,2.821,4.1,5.886-1.411,10.009-1.817c4.1-.407,8.6-3.689,8.6-3.689s4.937-1.763,5.778-4.747c.868-2.984-1.058-19.286-1.058-19.286S873.966,281.782,869.924,283.844Z" transform="translate(-620.206 -207.859)" opacity="0.03"/>
    <path id="Path_162" data-name="Path 162" d="M871.624,284.964s-4.747,9.006-4.177,12.423c.543,3.418,2.116,7.3,1.356,8.192a2.762,2.762,0,0,1-2.224,1.112,7.485,7.485,0,0,0-2.767,1.6,24.311,24.311,0,0,0-3.526.868,21.992,21.992,0,0,1-4.123,1.112s-4.8-.163-5.235.3c-.461.461-.9,3.174.054,5.344s2.007,3.77,2.821,4.1c.814.3,5.886-1.411,10.009-1.817s8.6-3.689,8.6-3.689,4.937-1.763,5.8-4.747-1.031-19.286-1.031-19.286S875.666,282.93,871.624,284.964Z" transform="translate(-621.445 -208.681)" fill="#fff"/>
    <path id="Path_163" data-name="Path 163" d="M795.659,354.2c-1.817.081-5.778.624-3.716,4.449,1.818,3.364,4.828,1.112,6.564-.6A6.606,6.606,0,0,0,795.659,354.2Z" transform="translate(-578.753 -259.39)" fill="#f4d8b3"/>
    <path id="Path_164" data-name="Path 164" d="M818.4,367.6Z" transform="translate(-598.447 -269.156)" fill="#ffb0b1"/>
    <path id="Path_165" data-name="Path 165" d="M817.7,367.981l.081-.081Z" transform="translate(-597.937 -269.374)" fill="#ffb0b1"/>
    <path id="Path_166" data-name="Path 166" d="M893.725,260.767c-1.953,1.329-3.553,2.441-3.879,2.658-.868.624-2.523,4.421-3.581,6.347-.868,1.546-3.608,1.953-4.666,2.034l.136-1.166c2.36-1.058,4.177-4.449,4.177-4.449L890.606,258l1.6,1.465C892.233,259.492,892.83,260.007,893.725,260.767Z" transform="translate(-644.387 -189.285)" opacity="0.1"/>
    <path id="Path_167" data-name="Path 167" d="M893.725,260.167c-1.953,1.329-3.553,2.441-3.879,2.658-.868.624-2.523,4.421-3.581,6.32-.868,1.546-3.608,1.953-4.666,2.034l.136-1.166c2.36-1.058,4.177-4.449,4.177-4.449l4.693-8.165,1.6,1.465C892.233,258.892,892.83,259.38,893.725,260.167Z" transform="translate(-644.387 -188.848)" fill="#dce7ff"/>
    <path id="Path_168" data-name="Path 168" d="M872.478,223.838a7.462,7.462,0,1,1-3.228-6.158A7.5,7.5,0,0,1,872.478,223.838Z" transform="translate(-626.875 -158.948)" fill="#f4d8b3"/>
    <path id="Path_169" data-name="Path 169" d="M886.705,248.758a6.558,6.558,0,0,1-2.414-2.6,7.227,7.227,0,0,0-1.411-2.387,6.293,6.293,0,0,0-2.306-.9,6.829,6.829,0,0,1-4.964-5.968c-.054-1.3.38-2.6.19-3.879a4.544,4.544,0,0,0-.841-2.007,6.637,6.637,0,0,0-.732-.787c-.353-.326-.732-.651-1.058-1a5.12,5.12,0,0,1-.542-.732,2.826,2.826,0,0,1-.3-.651c-.515-1.546-.054-3.364-.6-4.937l-.027-.081a1.611,1.611,0,0,0-1.248-1.166c-.624-.054-1.112.461-1.655.651-1.193.461-2.468-.326-3.445-1.112s-2.089-1.709-3.364-1.546a11.084,11.084,0,0,0-2.251.977,2.066,2.066,0,0,1-.542.163,7.486,7.486,0,0,1,14.431,2.767,6.1,6.1,0,0,1-.19,1.573.206.206,0,0,0,.054.108c.3.76.624,1.546.9,2.2l1.438,1.275s.6.515,1.519,1.248c1.953,1.655,5.4,4.584,7.134,6.374C886.081,238.043,886.57,244.147,886.705,248.758Z" transform="translate(-627.846 -158.75)" opacity="0.1"/>
    <path id="Path_170" data-name="Path 170" d="M855.611,200.913c.353-.732.543-1.573.949-2.251a5.276,5.276,0,0,1,2.875-2.034c2.984-1,9.223-2.5,11.094,0a5.492,5.492,0,0,0,1.193,1.411,10.741,10.741,0,0,0,1.275.57,4.9,4.9,0,0,1,2.36,3.011c.407,1.248.543,2.577.841,3.852a31.358,31.358,0,0,0,1.709,4.774,12.979,12.979,0,0,0,3.119,5.018c2.062,1.763,2.523,4.259,4.449,6.212,2.279,2.306,2.2,6.1,1.031,9.087a2.536,2.536,0,0,0-.271,1.248,2.259,2.259,0,0,0,.678,1.139l1.248,1.383a7.028,7.028,0,0,1-7.622-3.5,7.228,7.228,0,0,0-1.411-2.387,6.293,6.293,0,0,0-2.306-.9,6.829,6.829,0,0,1-4.964-5.968c-.054-1.275.38-2.6.19-3.879a4.416,4.416,0,0,0-.841-2.007,22.491,22.491,0,0,1-2.306-2.523c-.949-1.682-.217-3.879-.9-5.7a1.612,1.612,0,0,0-1.248-1.166c-.624-.054-1.112.461-1.655.651-1.194.461-2.441-.326-3.445-1.112s-2.089-1.709-3.364-1.546a11.08,11.08,0,0,0-2.251.977c-.543.217-1.709.407-2.2-.081C852.763,204.3,855.15,201.808,855.611,200.913Z" transform="translate(-623.742 -143.563)" fill="#211e21"/>
    <path id="Path_171" data-name="Path 171" d="M881,236.461a6.839,6.839,0,0,0-1.411-2.36,6.292,6.292,0,0,0-2.306-.9,6.829,6.829,0,0,1-4.964-5.968c-.054-1.275.38-2.6.19-3.879a4.544,4.544,0,0,0-.841-2.007,22.5,22.5,0,0,1-2.306-2.523c-.949-1.682-.217-3.879-.922-5.7a1.611,1.611,0,0,0-1.248-1.166c-.624-.054-1.112.461-1.655.678-1.194.461-2.469-.326-3.445-1.112s-2.089-1.709-3.364-1.546a11.08,11.08,0,0,0-2.251.977c-.543.217-1.709.407-2.224-.081-1.031-1,1.383-3.5,1.817-4.394a20.89,20.89,0,0,1,.977-2.251.6.6,0,0,0,.081-.136,4.536,4.536,0,0,0-.841.922,23.307,23.307,0,0,0-.949,2.251c-.434.9-2.848,3.364-1.817,4.394.515.488,1.628.271,2.2.081a9.761,9.761,0,0,1,2.251-.977c1.248-.19,2.36.732,3.364,1.546.976.814,2.278,1.6,3.445,1.112.543-.217,1.058-.705,1.655-.651a1.689,1.689,0,0,1,1.248,1.166c.678,1.817-.054,4.015.9,5.7.542.977,1.6,1.6,2.306,2.523a4.14,4.14,0,0,1,.841,2.007,30.964,30.964,0,0,1-.19,3.879,6.793,6.793,0,0,0,4.964,5.968,5.7,5.7,0,0,1,2.306.9,6.41,6.41,0,0,1,1.411,2.387,6.937,6.937,0,0,0,7.622,3.5l-.57-.651A7.112,7.112,0,0,1,881,236.461Z" transform="translate(-623.521 -150.006)" opacity="0.1"/>
    <path id="Path_172" data-name="Path 172" d="M882.072,274.56a50.532,50.532,0,0,0-2.062,5.344c-.732-.271-1.411-2.116-1.411-2.116l3.933-5.588C882.94,272.743,882.669,273.665,882.072,274.56Z" transform="translate(-642.233 -199.633)" opacity="0.1"/>
    <path id="Path_173" data-name="Path 173" d="M882.672,273.96a50.544,50.544,0,0,0-2.062,5.344c-.732-.271-1.411-2.116-1.411-2.116l3.933-5.588C883.54,272.17,883.269,273.065,882.672,273.96Z" transform="translate(-642.67 -199.196)" fill="#dce7ff"/>
    <path id="Path_174" data-name="Path 174" d="M801.615,354.522l-2.2-6.89a.66.66,0,0,1,.407-.814h0a.652.652,0,0,1,.814.434l2.2,6.89-.217,1.438Z" transform="translate(-584.603 -253.989)" fill="#be8b87"/>
    <path id="Path_175" data-name="Path 175" d="M799.936,347.187h0a.652.652,0,0,1,.814.434l2.2,6.89-.19,1.085.163.19.217-1.438-2.2-6.89a.675.675,0,0,0-.814-.434h0a.74.74,0,0,0-.326.244A.248.248,0,0,1,799.936,347.187Z" transform="translate(-584.904 -254.14)" fill="#fff" opacity="0.1"/>
    <path id="Path_176" data-name="Path 176" d="M807.6,374.207l1.221-.407-.163,1.194-.054.271-.353-.38Z" transform="translate(-590.585 -273.674)" fill="#efc8c4"/>
    <path id="Path_177" data-name="Path 177" d="M810,377.527l.081-.081a.121.121,0,0,1,.136,0c.027.027.027.054.054.081a.223.223,0,0,0,.163.108l-.054.244Z" transform="translate(-592.334 -276.315)" fill="#727a9c"/>
    <path id="Path_178" data-name="Path 178" d="M799.5,358.9s4.394-.027,3.364,1.845a3.921,3.921,0,0,1-2.658,2.089Z" transform="translate(-584.685 -262.815)" fill="#f4d8b3"/>
    <path id="Path_179" data-name="Path 179" d="M544.415,50.8h-.19a21.568,21.568,0,0,0-17.984,9.847A21.568,21.568,0,0,0,508.256,50.8h-.244A21.406,21.406,0,0,0,486.8,72.2c0,7,3.065,16.953,9.06,25.118,11.393,15.6,30.326,29.214,30.326,29.214s18.961-13.644,30.353-29.241c5.995-8.192,9.06-18.12,9.06-25.118A21.377,21.377,0,0,0,544.415,50.8Zm-2.74,47.741a4.239,4.239,0,0,1-3.96-2.713h-4.476a1.439,1.439,0,0,1-1.329-.949l-1.383-4.15L526.159,106a1.424,1.424,0,0,1-1.356,1h-.081a1.39,1.39,0,0,1-1.3-1.166l-4.5-27.1L515.607,94.77a1.393,1.393,0,0,1-1.356,1.058h-6.32a1.4,1.4,0,0,1-.136-2.794h5.344L517.8,71.5a1.386,1.386,0,0,1,1.709-1.031,1.424,1.424,0,0,1,1.058,1.166l4.611,27.614,3.906-13.671a1.419,1.419,0,0,1,1.3-1h.027a1.4,1.4,0,0,1,1.329.949l2.5,7.514h3.418a4.229,4.229,0,0,1,8.029,2.658,4.164,4.164,0,0,1-4.015,2.848Z" transform="translate(-356.981 -38.289)" fill="#f45b5b"/>
  </g>
</svg>
