<svg id="Group_1133" data-name="Group 1133" xmlns="http://www.w3.org/2000/svg" xmlns:xlink="http://www.w3.org/1999/xlink" width="292.256" height="192.921" viewBox="0 0 292.256 192.921">
  <defs>
    <linearGradient id="linear-gradient" x1="0.627" y1="0.23" x2="0.627" y2="-0.77" gradientUnits="objectBoundingBox">
      <stop offset="0" stop-color="gray" stop-opacity="0.251"/>
      <stop offset="0.54" stop-color="gray" stop-opacity="0.122"/>
      <stop offset="1" stop-color="gray" stop-opacity="0.102"/>
    </linearGradient>
    <clipPath id="clip-path">
      <rect id="Rectangle_1357" data-name="Rectangle 1357" width="56.816" height="47.462"/>
    </clipPath>
  </defs>
  <g id="Group_57" data-name="Group 57" transform="translate(0)">
    <path id="Path_180" data-name="Path 180" d="M10.841,343.6H37.966v36.96H12.819c-.08.374-.134.748-.214,1.149H37.94v29.824c-.053,0-.08-.027-.134-.053-.722-.294-1.416-.588-2.138-.909l-.454-.214c-.722-.347-1.416-.695-2.138-1.069-.241-.134-.508-.267-.748-.4a44.2,44.2,0,0,1-10.663-8.338l-.267-.267c-.428-.481-.855-.935-1.283-1.443l-.454-.534c-.481-.588-.962-1.2-1.416-1.817-.08-.08-.134-.187-.214-.267a39.412,39.412,0,0,1-4.6-8.311c-.027-.08-.08-.187-.107-.267-.374-.935-.695-1.9-.989-2.859-.134-.4-.241-.8-.347-1.229-.027-.134-.08-.241-.107-.374-1.523-5.933-1.684-12.079-1.684-18.2v-2.138q0-3.728.08-7.456c0-.641.027-1.283.053-1.924.027-1.63.08-3.287.16-4.917.027-.454.027-.909.053-1.363a7.059,7.059,0,0,1,.053-.775C10.734,345.5,10.788,344.535,10.841,343.6Z" transform="translate(-10.2 -253.213)" fill="#4f4f4f" opacity="0.1"/>
    <path id="Path_181" data-name="Path 181" d="M73.285,138.014H58.4a108.887,108.887,0,0,1,7.91-10.9c2.218-2.726,4.543-5.372,6.975-7.91Z" transform="translate(-45.519 -88.782)" fill="#4f4f4f" opacity="0.1"/>
    <path id="Path_182" data-name="Path 182" d="M39.945,193.9v38.884H12.9c0-.107.027-.241.027-.347.027-.294.053-.615.08-.909.027-.347.053-.722.107-1.069s.08-.775.107-1.176c.053-.374.08-.775.134-1.176.053-.374.08-.775.134-1.149s.08-.775.134-1.149c.027-.321.08-.641.134-.962.053-.454.134-.909.187-1.363,0-.08.027-.134.027-.214a92.709,92.709,0,0,1,1.978-9.754,71.824,71.824,0,0,1,3.367-9.888,74.568,74.568,0,0,1,5.051-9.728Z" transform="translate(-12.178 -143.519)" fill="#4f4f4f" opacity="0.1"/>
    <path id="Path_183" data-name="Path 183" d="M138.3,95.765v36.96h57.938V95.765Zm0,38.109v31.748c.321.08.668.134.989.187.454.08.882.16,1.336.241.08,0,.187.027.267.027.187.027.347.053.534.08.454.053.882.107,1.336.16a5.191,5.191,0,0,0,.641.053l.508.053h0c.294.027.561.027.828.053.16,0,.347.027.508.027h1.924a6.042,6.042,0,0,0,.695-.027h.027a2.905,2.905,0,0,0,.481-.027h.134a2.023,2.023,0,0,0,.4-.027h.107l.882-.08.882-.08.615-.08a56.589,56.589,0,0,0,7.322-1.55c5.4-1.5,10.69-3.608,16.088-5.158,6.975-2,14.7-2.966,21.46-.534V133.9H138.3ZM196.238,54.61V5.384A73.212,73.212,0,0,0,177.424,7.6c-14.672,3.688-27.82,11.678-39.1,21.887V54.61h2.913v1.149h-2.913V94.643h57.938V55.759H153.185V54.61Zm74.4-16.622a24.184,24.184,0,0,1-10.5-3.047c-6.227-3.394-11.224-8.632-16.783-13.068A76.9,76.9,0,0,0,202.705,5.731V54.61h82.711l.214-.214Zm7.536-1.336,7.991,8.766V34.353a31.186,31.186,0,0,0-7.991,2.3Zm7.991,136.855V133.874H269.142c-.053-.16-.08-.347-.134-.508.053.16.08.347.134.508H202.705v28.675c.641.481,1.256.962,1.871,1.47h0c.668.534,1.336,1.1,1.978,1.657l.668.561c.321.267.641.534.962.775.641.508,1.283,1.042,1.951,1.55.321.267.668.508.989.748a134.061,134.061,0,0,0,16.462,10.77c1.283.722,2.592,1.416,3.9,2.084.882.454,1.764.882,2.646,1.309,1.336.641,2.672,1.283,4.009,1.871h0A146.293,146.293,0,0,0,277.159,196.7c2.993.454,5.986.8,9.006,1.042V173.506h0ZM202.705,55.759V94.643h83.46V55.759Zm0,40.006v36.96h83.46V95.765ZM292.659,34.3V46.646l10.209-11.2c-3.394-.534-6.788-.935-10.209-1.149Zm0,61.466v36.96h81.188V95.765Zm80.867,80.68.294-42.572H292.659v64.3a146.223,146.223,0,0,0,15.687-.187h.08c2.485-.16,4.971-.374,7.456-.695h.053A136.753,136.753,0,0,0,354.2,187.082m35.276-85.223c-.294-.722-.615-1.443-.935-2.138-.615-1.336-1.256-2.646-1.9-3.928h-6.334v36.96h16.008a80.132,80.132,0,0,0-6.841-30.893ZM380.314,133.9v36.612A52.728,52.728,0,0,0,391.378,155.6a51.739,51.739,0,0,0,4.944-21.7Zm0-48.905v9.621h5.746A108.8,108.8,0,0,0,380.314,85ZM325.262,41.542l-1.283-.481a117.132,117.132,0,0,0-13.71-4.116l-15.607,17.13h0l-.294.321.214.214h55.533a119.915,119.915,0,0,0-24.853-13.068Zm26.457,14.217H293.781L292.632,56.8V94.616H373.82V76.31a113.6,113.6,0,0,0-22.1-20.551Z" transform="translate(-104.066 -5.378)" fill="#4f4f4f" opacity="0.1"/>
    <path id="Path_184" data-name="Path 184" d="M39.945,267.2v19.268H12.9c0-.107.027-.241.027-.347.027-.294.053-.615.08-.909.027-.347.053-.722.107-1.069s.08-.775.107-1.176c.053-.374.08-.775.134-1.176.053-.374.08-.775.134-1.149s.08-.775.134-1.149c.027-.321.08-.641.134-.962.053-.454.134-.909.187-1.363,0-.08.027-.134.027-.214a92.71,92.71,0,0,1,1.978-9.754Z" transform="translate(-12.178 -197.23)" fill="#4f4f4f" opacity="0.1"/>
    <path id="Path_185" data-name="Path 185" d="M11.268,342.8H38.393v36.96H13.246c-.08.374-.134.748-.214,1.149H38.366v29.824c-.053,0-.08-.027-.134-.053-.722-.294-1.416-.588-2.138-.909l-.454-.214c-.722-.347-1.416-.695-2.138-1.069-.241-.134-.508-.267-.748-.4a44.2,44.2,0,0,1-10.663-8.338l-.267-.267c-.428-.481-.855-.935-1.283-1.443l-.454-.534c-.481-.588-.962-1.2-1.416-1.817-.08-.08-.134-.187-.214-.267a39.41,39.41,0,0,1-4.6-8.311c-.027-.08-.08-.187-.107-.267-.374-.935-.695-1.9-.989-2.859-.134-.4-.241-.8-.347-1.229-.027-.134-.08-.241-.107-.374-1.523-5.933-1.71-12.079-1.71-18.2v-2.138q0-3.728.08-7.456c0-.641.027-1.283.053-1.924.027-1.63.08-3.287.16-4.917.027-.454.027-.909.053-1.363a7.059,7.059,0,0,1,.053-.775A23.775,23.775,0,0,0,11.268,342.8Z" transform="translate(-10.493 -252.627)" fill="#4f4f4f" opacity="0.1"/>
    <path id="Path_186" data-name="Path 186" d="M158.691,183.778v33.3H138.3v-33.3h2.913V172.5h11.946v11.278Z" transform="translate(-104.066 -127.838)" fill="#4f4f4f" opacity="0.1"/>
    <rect id="Rectangle_1305" data-name="Rectangle 1305" width="20.391" height="36.96" transform="translate(34.234 90.387)" fill="#4f4f4f" opacity="0.1"/>
    <path id="Path_187" data-name="Path 187" d="M138.3,486.2h20.391v30.733a52.826,52.826,0,0,1-7.349,1.55l-.615.08-.882.08c-.294.027-.588.054-.909.08h-.08c-.134,0-.267.027-.4.027h-.134c-.16,0-.321.027-.481.027h0c-.214,0-.454.027-.695.027h-1.9l-.508-.027c-.267,0-.561-.027-.828-.053h0l-.508-.027-.641-.053c-.454-.053-.882-.08-1.336-.16l-.534-.08-.267-.027c-.454-.08-.882-.134-1.336-.241-.321-.053-.641-.134-.989-.187Z" transform="translate(-104.066 -357.704)" fill="#4f4f4f" opacity="0.1"/>
    <rect id="Rectangle_1306" data-name="Rectangle 1306" width="16.81" height="37.253" transform="translate(165.289 52.011)" fill="#4f4f4f" opacity="0.1"/>
    <path id="Path_188" data-name="Path 188" d="M462.786,343.6v36.96H379.3V364.632h44.469v9.407H445.95V343.6Z" transform="translate(-280.661 -253.213)" fill="#4f4f4f" opacity="0.1"/>
    <path id="Path_189" data-name="Path 189" d="M463.1,524.44h-.267v24.266c-3.02-.267-6.013-.615-9.006-1.042a147.525,147.525,0,0,1-39.044-11.384c-3.581-1.6-7.109-3.367-10.529-5.291a134.063,134.063,0,0,1-16.462-10.77c-1.31-1.016-2.619-2.031-3.875-3.073-.882-.722-1.764-1.47-2.646-2.218-.615-.508-1.229-.989-1.871-1.47V484.808h66.436c-.053-.16-.08-.347-.134-.508a3.558,3.558,0,0,1,.134.508H462.86V524.44Z" transform="translate(-280.734 -356.312)" fill="#4f4f4f" opacity="0.1"/>
    <path id="Path_190" data-name="Path 190" d="M825.657,152.449H814.7v-3.394h4.917V138.9l1.283.481v9.674h4.784l-.027,3.394Z" transform="translate(-599.704 -103.217)" fill="#4f4f4f" opacity="0.1"/>
    <path id="Path_191" data-name="Path 191" d="M779.664,232.757H715.9V195.53h2.833v27.526h12.908v-16.3H742.3V193.9H753.26v12.854h10.663v16.3h15.714l.027,9.7Z" transform="translate(-527.307 -143.519)" fill="#4f4f4f" opacity="0.1"/>
    <path id="Path_192" data-name="Path 192" d="M715.9,343.6v36.96h63.764V343.6Zm81.081,80.493.08-29.263h-17.4V381.735H715.9v64.272a146.222,146.222,0,0,0,15.687-.187h.08c2.485-.16,4.971-.374,7.456-.695h.053a136.756,136.756,0,0,0,38.269-10.209" transform="translate(-527.307 -253.213)" fill="#4f4f4f" opacity="0.1"/>
    <path id="Path_193" data-name="Path 193" d="M1045.022,486.2h14.885a51.335,51.335,0,0,1-4.944,21.7,51.989,51.989,0,0,1-11.064,14.912V499.295h1.122V486.2Z" transform="translate(-767.652 -357.704)" fill="#4f4f4f" opacity="0.1"/>
    <path id="Path_194" data-name="Path 194" d="M1062.985,397.193H1048.1V366.3h8.044A80.349,80.349,0,0,1,1062.985,397.193Z" transform="translate(-770.73 -269.847)" fill="#4f4f4f" opacity="0.1"/>
    <rect id="Rectangle_1307" data-name="Rectangle 1307" width="9.006" height="11.678" transform="translate(173.092 62.353)" fill="#4f4f4f" opacity="0.1"/>
    <rect id="Rectangle_1308" data-name="Rectangle 1308" width="9.006" height="2.699" transform="translate(173.092 86.565)" fill="#4f4f4f" opacity="0.1"/>
    <rect id="Rectangle_1309" data-name="Rectangle 1309" width="9.006" height="7.857" transform="translate(173.092 90.387)" fill="#4f4f4f" opacity="0.1"/>
    <rect id="Rectangle_1310" data-name="Rectangle 1310" width="9.006" height="11.678" transform="translate(173.092 110.751)" fill="#4f4f4f" opacity="0.1"/>
    <rect id="Rectangle_1311" data-name="Rectangle 1311" width="9.006" height="11.678" transform="translate(173.092 134.963)" fill="#4f4f4f" opacity="0.1"/>
    <path id="Path_195" data-name="Path 195" d="M666.906,609.953a.909.909,0,0,1,.267.027l-.267-.027v2.726H657.9V601h9.006v8.953Z" transform="translate(-484.807 -441.825)" fill="#4f4f4f" opacity="0.1"/>
    <path id="Path_196" data-name="Path 196" d="M666.906,691.5v9.033c-3.02-.267-6.013-.615-9.006-1.042V691.5Z" transform="translate(-484.807 -508.139)" fill="#4f4f4f" opacity="0.1"/>
    <rect id="Rectangle_1312" data-name="Rectangle 1312" width="38.616" height="0.855" transform="translate(98.639 126.491)" fill="#4f4f4f" opacity="0.1"/>
    <rect id="Rectangle_1313" data-name="Rectangle 1313" width="38.616" height="3.287" transform="translate(98.639 128.496)" fill="#4f4f4f" opacity="0.1"/>
    <rect id="Rectangle_1314" data-name="Rectangle 1314" width="38.616" height="5.291" transform="translate(98.639 142.553)" fill="#4f4f4f" opacity="0.1"/>
    <path id="Path_197" data-name="Path 197" d="M423.119,598.9v5.291h-30.2c-1.31-.989-2.619-2.031-3.875-3.073-.882-.721-1.764-1.47-2.646-2.191Z" transform="translate(-285.864 -440.286)" fill="#4f4f4f" opacity="0.1"/>
    <path id="Path_198" data-name="Path 198" d="M486.209,659v5.291h-3.18c-3.581-1.6-7.082-3.367-10.529-5.291Z" transform="translate(-348.954 -484.325)" fill="#4f4f4f" opacity="0.1"/>
    <rect id="Rectangle_1315" data-name="Rectangle 1315" width="7.59" height="7.59" transform="translate(204.28 93.968)" fill="#4f4f4f" opacity="0.1"/>
    <rect id="Rectangle_1316" data-name="Rectangle 1316" width="7.59" height="7.59" transform="translate(39.712 58.558)" fill="#4f4f4f" opacity="0.1"/>
    <rect id="Rectangle_1317" data-name="Rectangle 1317" width="7.59" height="7.59" transform="translate(39.712 76.223)" fill="#4f4f4f" opacity="0.1"/>
    <rect id="Rectangle_1318" data-name="Rectangle 1318" width="7.59" height="7.59" transform="translate(39.712 93.861)" fill="#4f4f4f" opacity="0.1"/>
    <rect id="Rectangle_1319" data-name="Rectangle 1319" width="7.59" height="7.59" transform="translate(39.712 111.526)" fill="#4f4f4f" opacity="0.1"/>
    <rect id="Rectangle_1320" data-name="Rectangle 1320" width="7.59" height="7.59" transform="translate(39.712 129.164)" fill="#4f4f4f" opacity="0.1"/>
    <rect id="Rectangle_1321" data-name="Rectangle 1321" width="7.59" height="7.59" transform="translate(39.712 146.828)" fill="#4f4f4f" opacity="0.1"/>
    <rect id="Rectangle_1322" data-name="Rectangle 1322" width="7.59" height="7.59" transform="translate(233.302 93.968)" fill="#4f4f4f" opacity="0.1"/>
    <rect id="Rectangle_1323" data-name="Rectangle 1323" width="7.59" height="7.59" transform="translate(204.28 112.728)" fill="#4f4f4f" opacity="0.1"/>
    <rect id="Rectangle_1324" data-name="Rectangle 1324" width="7.59" height="7.59" transform="translate(233.302 112.728)" fill="#4f4f4f" opacity="0.1"/>
    <rect id="Rectangle_1325" data-name="Rectangle 1325" width="7.59" height="7.59" transform="translate(204.28 131.462)" fill="#4f4f4f" opacity="0.1"/>
    <rect id="Rectangle_1326" data-name="Rectangle 1326" width="7.59" height="7.59" transform="translate(233.302 131.462)" fill="#4f4f4f" opacity="0.1"/>
    <rect id="Rectangle_1327" data-name="Rectangle 1327" width="7.59" height="7.59" transform="translate(204.28 150.196)" fill="#4f4f4f" opacity="0.1"/>
    <rect id="Rectangle_1328" data-name="Rectangle 1328" width="7.59" height="7.59" transform="translate(233.302 150.196)" fill="#4f4f4f" opacity="0.1"/>
    <rect id="Rectangle_1329" data-name="Rectangle 1329" width="7.59" height="7.59" transform="translate(204.28 168.956)" fill="#4f4f4f" opacity="0.1"/>
    <rect id="Rectangle_1330" data-name="Rectangle 1330" width="7.59" height="7.59" transform="translate(233.302 168.956)" fill="#4f4f4f" opacity="0.1"/>
    <path id="Path_199" data-name="Path 199" d="M774.6,712.617V707.7h7.59v4.222Z" transform="translate(-570.32 -520.01)" fill="#4f4f4f" opacity="0.1"/>
    <path id="Path_200" data-name="Path 200" d="M16.8,303.727v4.329h26V303.7l-26,.027Zm2.592,4.062H17.281v-3.822h2.138Zm2.592,0H19.847v-3.822h2.138Zm2.566,0H22.412v-3.822H24.55Zm2.592,0H25v-3.822h2.138Zm2.592,0H27.6v-3.822h2.138Zm2.592,0H30.189v-3.822h2.138Zm2.592,0H32.781v-3.822h2.138Zm2.592,0H35.373v-3.822h2.138Zm2.566,0H37.939v-3.822h2.138Zm2.592,0H40.531v-3.822h2.138Z" transform="translate(-15.036 -223.976)" fill="#4f4f4f" opacity="0.1"/>
    <path id="Path_201" data-name="Path 201" d="M16.8,351.1v4.356h26V351.1Zm2.592,4.089H17.281v-3.795h2.138Zm2.592,0H19.847v-3.795h2.138Zm2.566,0H22.412v-3.795H24.55Zm2.592,0H25v-3.795h2.138Zm2.592,0H27.6v-3.795h2.138Zm2.592,0H30.189v-3.795h2.138Zm2.592,0H32.781v-3.795h2.138Zm2.592,0H35.373v-3.795h2.138Zm2.566,0H37.939v-3.795h2.138Zm2.592,0H40.531v-3.795h2.138Z" transform="translate(-15.036 -258.709)" fill="#4f4f4f" opacity="0.1"/>
    <path id="Path_202" data-name="Path 202" d="M16.8,398.5v4.356h26V398.5Zm2.592,4.062H17.281v-3.795h2.138Zm2.592,0H19.847v-3.795h2.138Zm2.566,0H22.412v-3.795H24.55Zm2.592,0H25v-3.795h2.138Zm2.592,0H27.6v-3.795h2.138Zm2.592,0H30.189v-3.795h2.138Zm2.592,0H32.781v-3.795h2.138Zm2.592,0H35.373v-3.795h2.138Zm2.566,0H37.939v-3.795h2.138Zm2.592,0H40.531v-3.795h2.138Z" transform="translate(-15.036 -293.441)" fill="#4f4f4f" opacity="0.1"/>
    <path id="Path_203" data-name="Path 203" d="M16.8,445.8v4.356h26V445.8Zm2.592,4.089H17.281v-3.795h2.138Zm2.592,0H19.847v-3.795h2.138Zm2.566,0H22.412v-3.795H24.55Zm2.592,0H25v-3.795h2.138Zm2.592,0H27.6v-3.795h2.138Zm2.592,0H30.189v-3.795h2.138Zm2.592,0H32.781v-3.795h2.138Zm2.592,0H35.373v-3.795h2.138Zm2.566,0H37.939v-3.795h2.138Zm2.592,0H40.531v-3.795h2.138Z" transform="translate(-15.036 -328.101)" fill="#4f4f4f" opacity="0.1"/>
    <path id="Path_204" data-name="Path 204" d="M17.2,493.2c.107.4.214.828.347,1.229v-.935h2.138v3.795H18.536c.027.08.08.187.107.267H43.1v-4.329H17.2Zm5.078,4.062H20.14v-3.795h2.138Zm2.592,0H22.732v-3.795H24.87Zm2.566,0H25.3v-3.795h2.138Zm2.592,0H27.89v-3.795h2.138Zm2.592,0H30.482v-3.795H32.62Zm2.592,0H33.074v-3.795h2.138Zm2.592,0H35.666v-3.795H37.8Zm2.592,0H38.259v-3.795H40.4Zm2.566,0H40.824v-3.795h2.138Z" transform="translate(-15.329 -362.834)" fill="#4f4f4f" opacity="0.1"/>
    <path id="Path_205" data-name="Path 205" d="M39.8,540.5c.08.08.134.187.214.267H41.43v1.817c.16.187.294.374.454.534V540.74h2.138v3.822h-.855a2.52,2.52,0,0,0,.267.267H59.683V540.5Zm6.788,4.089H44.45v-3.795h2.138Zm2.592,0H47.042v-3.795H49.18Zm2.592,0H49.634v-3.795h2.138Zm2.592,0H52.227v-3.795h2.138Zm2.566,0H54.792v-3.795H56.93Zm2.592,0H57.385v-3.795h2.138Z" transform="translate(-31.89 -397.493)" fill="#6c63ff" opacity="0.1"/>
    <path id="Path_206" data-name="Path 206" d="M93.2,587.9c.241.134.481.267.748.4v-.134h2.138v1.2l.454.214v-1.416h2.138v2.325c.053.027.08.027.134.053v-2.619Z" transform="translate(-71.019 -432.226)" fill="#6c63ff" opacity="0.1"/>
    <path id="Path_207" data-name="Path 207" d="M310.614,229.606ZM294.152,308.5ZM277,268.356c.053.16.08.347.134.508h0C277.075,268.7,277.048,268.517,277,268.356Zm33.619-38.75ZM149.2,189.6v1.149h11.946V189.6ZM294.152,308.5ZM277,268.356c.053.16.08.347.134.508h0C277.075,268.7,277.048,268.517,277,268.356Zm33.619-38.75Zm-16.462,78.863ZM277,268.356c.053.16.08.347.134.508h0C277.075,268.7,277.048,268.517,277,268.356Z" transform="translate(-112.053 -140.368)" fill="#4f4f4f" opacity="0.1"/>
    <path id="Path_208" data-name="Path 208" d="M832.9,397.8Z" transform="translate(-613.04 -292.929)" fill="#ffb0b1"/>
    <path id="Path_209" data-name="Path 209" d="M832.3,398.28l.08-.08Z" transform="translate(-612.601 -293.222)" fill="#ffb0b1"/>
  </g>
  <path id="Path_210" data-name="Path 210" d="M474.266,170.4h49.76a2.566,2.566,0,0,1,2.565,2.566v31.748a2.566,2.566,0,0,1-2.565,2.566h-49.76a2.566,2.566,0,0,1-2.566-2.566V172.966A2.566,2.566,0,0,1,474.266,170.4Z" transform="translate(-348.368 -126.299)" fill="#474059"/>
  <rect id="Rectangle_1331" data-name="Rectangle 1331" width="52.486" height="30.145" transform="translate(124.508 48.403)" fill="#fff"/>
  <ellipse id="Ellipse_15" data-name="Ellipse 15" cx="0.454" cy="0.508" rx="0.454" ry="0.508" transform="translate(150.27 46.346)" fill="#fff"/>
  <rect id="Rectangle_1332" data-name="Rectangle 1332" width="9.621" height="10.155" transform="translate(145.834 79.644)" fill="#474059"/>
  <path id="Path_211" data-name="Path 211" d="M548.5,338.4h11.759a1.608,1.608,0,0,1,1.6,1.6H546.9A1.608,1.608,0,0,1,548.5,338.4Z" transform="translate(-403.471 -249.403)" fill="#474059"/>
  <rect id="Rectangle_1333" data-name="Rectangle 1333" width="39.552" height="13.629" transform="translate(83.834 97.549)" fill="#fff"/>
  <rect id="Rectangle_1334" data-name="Rectangle 1334" width="39.552" height="0.802" transform="translate(83.834 97.549)" opacity="0.1"/>
  <rect id="Rectangle_1335" data-name="Rectangle 1335" width="39.552" height="13.629" transform="translate(83.834 110.644)" fill="#fff"/>
  <circle id="Ellipse_16" data-name="Ellipse 16" cx="2.405" cy="2.405" r="2.405" transform="translate(101.205 114.92)" fill="#0f88fc"/>
  <circle id="Ellipse_17" data-name="Ellipse 17" cx="2.405" cy="2.405" r="2.405" transform="translate(101.205 101.825)" fill="#0f88fc"/>
  <rect id="Rectangle_1336" data-name="Rectangle 1336" width="39.552" height="13.629" transform="translate(83.834 124.273)" fill="#fff"/>
  <circle id="Ellipse_18" data-name="Ellipse 18" cx="2.405" cy="2.405" r="2.405" transform="translate(101.205 128.282)" fill="#0f88fc"/>
  <rect id="Rectangle_1337" data-name="Rectangle 1337" width="39.552" height="13.629" transform="translate(83.834 137.903)" fill="#fff"/>
  <circle id="Ellipse_19" data-name="Ellipse 19" cx="2.405" cy="2.405" r="2.405" transform="translate(101.205 141.911)" fill="#0f88fc"/>
  <rect id="Rectangle_1338" data-name="Rectangle 1338" width="39.552" height="13.629" transform="translate(83.834 151.532)" fill="#fff"/>
  <circle id="Ellipse_20" data-name="Ellipse 20" cx="2.405" cy="2.405" r="2.405" transform="translate(101.205 155.541)" fill="#0f88fc"/>
  <rect id="Rectangle_1339" data-name="Rectangle 1339" width="39.552" height="1.069" transform="translate(83.834 123.471)" opacity="0.1"/>
  <rect id="Rectangle_1340" data-name="Rectangle 1340" width="39.552" height="1.069" transform="translate(83.834 110.109)" opacity="0.1"/>
  <rect id="Rectangle_1341" data-name="Rectangle 1341" width="39.552" height="1.069" transform="translate(83.834 137.101)" opacity="0.1"/>
  <rect id="Rectangle_1342" data-name="Rectangle 1342" width="39.552" height="1.069" transform="translate(83.834 150.73)" opacity="0.1"/>
  <path id="Path_212" data-name="Path 212" d="M170.5,379.256s-.882-26.136-15.019-40.888a39.486,39.486,0,0,1-10.85-22.582,66.3,66.3,0,0,1-.321-12.186" transform="translate(-108.363 -223.903)" fill="none" stroke="#535461" stroke-width="2"/>
  <path id="Path_213" data-name="Path 213" d="M110.726,248.655c.962,2.913,9.059,9.621,9.059,9.621s2.485-10.209,1.5-13.122a5.561,5.561,0,1,0-10.556,3.5Z" transform="translate(-83.655 -178.284)" fill="#1d8228"/>
  <path id="Path_214" data-name="Path 214" d="M93.119,312.817c2.405,1.924,12.828,3.153,12.828,3.153s-3.474-9.915-5.879-11.839a5.561,5.561,0,1,0-6.948,8.685Z" transform="translate(-69.415 -223.392)" fill="#1d8228"/>
  <path id="Path_215" data-name="Path 215" d="M121.589,412.442c3.047.454,12.667-3.741,12.667-3.741s-8.017-6.815-11.037-7.269a5.565,5.565,0,0,0-1.63,11.01Z" transform="translate(-88.344 -295.544)" fill="#1d8228"/>
  <path id="Path_216" data-name="Path 216" d="M168.581,484.816c2.913.962,13.122-1.55,13.122-1.55s-6.734-8.071-9.647-9.033a5.569,5.569,0,1,0-3.474,10.583Z" transform="translate(-123.444 -348.731)" fill="#1d8228"/>
  <path id="Path_217" data-name="Path 217" d="M159.716,317.793c-1.416,2.726-10.476,8.071-10.476,8.071s-.828-10.476.588-13.2a5.57,5.57,0,0,1,9.888,5.131Z" transform="translate(-111.906 -228.341)" fill="#1d8228"/>
  <path id="Path_218" data-name="Path 218" d="M206.1,398.669c-2.165,2.165-12.4,4.57-12.4,4.57s2.352-10.235,4.516-12.427a5.565,5.565,0,1,1,7.884,7.857Z" transform="translate(-144.661 -286.608)" fill="#1d8228"/>
  <path id="Path_219" data-name="Path 219" d="M246.965,489.223c-1.764,2.512-11.465,6.6-11.465,6.6s.588-10.476,2.352-13.015a5.559,5.559,0,1,1,9.3,6.093,3.413,3.413,0,0,1-.187.321Z" transform="translate(-175.29 -353.378)" fill="#1d8228"/>
  <path id="Path_220" data-name="Path 220" d="M231.1,432.8s8.017-11.652,6.6-22.635a21.477,21.477,0,0,1,2.539-13.335,36.378,36.378,0,0,1,3.768-5.425" transform="translate(-172.066 -288.239)" fill="none" stroke="#535461" stroke-width="2"/>
  <path id="Path_221" data-name="Path 221" d="M275.889,359.923c-.508,1.577.855,7.109.855,7.109s4.356-3.661,4.891-5.238A3.015,3.015,0,0,0,279.711,358a3.055,3.055,0,0,0-3.822,1.924Z" transform="translate(-204.803 -263.657)" fill="#6c63ff"/>
  <path id="Path_222" data-name="Path 222" d="M247.521,382.109c.428,1.6,4.57,5.505,4.57,5.505s1.684-5.425,1.256-7.055a3.014,3.014,0,0,0-5.826,1.55Z" transform="translate(-184.025 -278.654)" fill="#6c63ff"/>
  <path id="Path_223" data-name="Path 223" d="M227.845,434.667c1.176,1.176,6.734,2.432,6.734,2.432s-1.283-5.532-2.485-6.708a3.014,3.014,0,1,0-4.249,4.276Z" transform="translate(-169.025 -316.166)" fill="#6c63ff"/>
  <path id="Path_224" data-name="Path 224" d="M225.079,481.375c.962,1.363,6.227,3.554,6.227,3.554s-.347-5.692-1.309-7.028a3.01,3.01,0,1,0-4.917,3.474Z" transform="translate(-167.248 -350.688)" fill="#6c63ff"/>
  <path id="Path_225" data-name="Path 225" d="M267.362,405.9c-1.5.722-7.162.134-7.162.134s3.02-4.837,4.516-5.559a3.033,3.033,0,0,1,4.035,1.39,2.994,2.994,0,0,1-1.39,4.035Z" transform="translate(-193.389 -294.666)" fill="#6c63ff"/>
  <path id="Path_226" data-name="Path 226" d="M263.268,458.471c-1.657.241-6.868-2-6.868-2s4.3-3.715,5.959-3.955a3.014,3.014,0,0,1,.909,5.96Z" transform="translate(-190.605 -332.995)" fill="#6c63ff"/>
  <path id="Path_227" data-name="Path 227" d="M250.609,509.782c-1.577.534-7.109-.8-7.109-.8s3.634-4.383,5.211-4.917a3.013,3.013,0,1,1,1.9,5.719Z" transform="translate(-181.152 -370.677)" fill="#6c63ff"/>
  <path id="Path_228" data-name="Path 228" d="M275.889,359.923c-.508,1.577.855,7.109.855,7.109s4.356-3.661,4.891-5.238A3.015,3.015,0,0,0,279.711,358a3.055,3.055,0,0,0-3.822,1.924Z" transform="translate(-204.803 -263.657)" fill="#3ac468"/>
  <path id="Path_229" data-name="Path 229" d="M247.521,382.109c.428,1.6,4.57,5.505,4.57,5.505s1.684-5.425,1.256-7.055a3.014,3.014,0,0,0-5.826,1.55Z" transform="translate(-184.025 -278.654)" fill="#3ac468"/>
  <path id="Path_230" data-name="Path 230" d="M227.845,434.667c1.176,1.176,6.734,2.432,6.734,2.432s-1.283-5.532-2.485-6.708a3.014,3.014,0,1,0-4.249,4.276Z" transform="translate(-169.025 -316.166)" fill="#3ac468"/>
  <path id="Path_231" data-name="Path 231" d="M225.079,481.375c.962,1.363,6.227,3.554,6.227,3.554s-.347-5.692-1.309-7.028a3.01,3.01,0,1,0-4.917,3.474Z" transform="translate(-167.248 -350.688)" fill="#3ac468"/>
  <path id="Path_232" data-name="Path 232" d="M267.362,405.9c-1.5.722-7.162.134-7.162.134s3.02-4.837,4.516-5.559a3.033,3.033,0,0,1,4.035,1.39,2.994,2.994,0,0,1-1.39,4.035Z" transform="translate(-193.389 -294.666)" fill="#3ac468"/>
  <path id="Path_233" data-name="Path 233" d="M263.268,458.471c-1.657.241-6.868-2-6.868-2s4.3-3.715,5.959-3.955a3.014,3.014,0,0,1,.909,5.96Z" transform="translate(-190.605 -332.995)" fill="#3ac468"/>
  <path id="Path_234" data-name="Path 234" d="M250.609,509.782c-1.577.534-7.109-.8-7.109-.8s3.634-4.383,5.211-4.917a3.013,3.013,0,1,1,1.9,5.719Z" transform="translate(-181.152 -370.677)" fill="#3ac468"/>
  <path id="Path_235" data-name="Path 235" d="M208.415,569.268h-22.8L179.9,534.5h34.207Z" transform="translate(-134.549 -393.097)" fill="#eda537"/>
  <path id="Path_236" data-name="Path 236" d="M224.406,534.5,219.088,567H199.9l.374,2.272h22.8l5.692-34.768Z" transform="translate(-149.204 -393.097)" opacity="0.1"/>
  <rect id="Rectangle_1343" data-name="Rectangle 1343" width="171.836" height="8.017" transform="translate(83.032 89.799)" fill="#0f88fc"/>
  <rect id="Rectangle_1344" data-name="Rectangle 1344" width="24.586" height="25.976" transform="translate(125.791 50.488)" fill="#e8eaf1"/>
  <rect id="Rectangle_1345" data-name="Rectangle 1345" width="23.517" height="24.853" transform="translate(126.325 51.049)" fill="#fff"/>
  <rect id="Rectangle_1346" data-name="Rectangle 1346" width="19.241" height="0.802" transform="translate(155.455 52.118)" fill="#e8eaf1"/>
  <rect id="Rectangle_1347" data-name="Rectangle 1347" width="19.241" height="0.802" transform="translate(155.455 54.256)" fill="#e8eaf1"/>
  <rect id="Rectangle_1348" data-name="Rectangle 1348" width="19.241" height="0.802" transform="translate(155.455 56.394)" fill="#e8eaf1"/>
  <rect id="Rectangle_1349" data-name="Rectangle 1349" width="19.241" height="0.802" transform="translate(155.455 58.532)" fill="#e8eaf1"/>
  <rect id="Rectangle_1350" data-name="Rectangle 1350" width="19.241" height="0.802" transform="translate(155.455 60.67)" fill="#e8eaf1"/>
  <rect id="Rectangle_1351" data-name="Rectangle 1351" width="19.241" height="0.802" transform="translate(155.455 62.808)" fill="#e8eaf1"/>
  <rect id="Rectangle_1352" data-name="Rectangle 1352" width="19.241" height="0.802" transform="translate(155.455 64.946)" fill="#e8eaf1"/>
  <rect id="Rectangle_1353" data-name="Rectangle 1353" width="19.241" height="0.802" transform="translate(155.455 67.084)" fill="#e8eaf1"/>
  <rect id="Rectangle_1354" data-name="Rectangle 1354" width="19.241" height="0.802" transform="translate(155.455 69.221)" fill="#e8eaf1"/>
  <rect id="Rectangle_1355" data-name="Rectangle 1355" width="19.241" height="0.802" transform="translate(155.455 71.359)" fill="#e8eaf1"/>
  <rect id="Rectangle_1356" data-name="Rectangle 1356" width="19.241" height="0.802" transform="translate(155.455 73.497)" fill="#e8eaf1"/>
  <path id="Path_237" data-name="Path 237" d="M640.579,209.432a19.529,19.529,0,0,0,1.149-11.705,98.555,98.555,0,0,1-1.9-14.244A32.683,32.683,0,0,0,638.12,174h0s.267-6.227-3.955-9.487-14.084-8.418-14.084-8.418l.989-4.035h-.053a3.56,3.56,0,0,0,.855-.4,3.508,3.508,0,0,0,.748-.641c1.657-1.47,1.684-4.142,2.485-6.28a40.963,40.963,0,0,1,2.566-4.6,10.328,10.328,0,0,0,.454-9.193,8.143,8.143,0,0,0-7.937-4.57,13.988,13.988,0,0,0-3.1.828c-2.379.828-4.249-1.523-6.6-.695-1.2.428-5.639.882-6.6,2.084a1.171,1.171,0,0,0-.454.615c-.241,1.176,1.924,3.554,3.528,5.452a8.655,8.655,0,0,0-1.978,5.532v.267a8.653,8.653,0,0,0,2.672,6.253,39.4,39.4,0,0,1-.641,3.9h-.187s-1.122,4.891-4.784,4.891c-.989,0-2.325-.053-3.741-.134a38.932,38.932,0,0,0-12.774,1.47,4.922,4.922,0,0,1-4.3-.508c-3.154-2.272-6.521-8.044-7-8.846.347-2.352.294-6.628-4.57-7.429-5.719-.909-5.4,5.692-2.111,9.915a2.821,2.821,0,0,0-.16.641c-.267,3.528,3.1,10.022,3.955,10.85s.855,5.959,6.761,7.322,10.155,1.9,10.422,8.685,5.906,13.816,3.1,21.7c-1.684,4.73-1.256,7.189-.615,8.418l-.16.481a19.18,19.18,0,0,1-2.325,5.078,9.661,9.661,0,0,0-.588.855,37.436,37.436,0,0,0-5.612,4.169c-1.978,2.165-1.122,10.85,0,14.378s8.178,24.934,8.178,24.934h.267l.08.534.294,1.764c-.08-.053-.187-.107-.267-.16a.467.467,0,0,0-.641.107.1.1,0,0,0-.027.08l-1.363,3.073s-5.639-2.432-5.933,3.26v.641c0,3.02,1.657,4.142,3.073,4.57a11.479,11.479,0,0,1,3.661,1.71,7.152,7.152,0,0,0,5.772,1.416,5.287,5.287,0,0,1,1.443-.134,2.3,2.3,0,0,0,2.672-2.539v-.534a41.03,41.03,0,0,1-1.229-6.681,1.569,1.569,0,0,1,.107-.615,4.187,4.187,0,0,0,.241-1.9,17.244,17.244,0,0,0-.107-2.031.322.322,0,0,0-.347-.267.272.272,0,0,0-.214.134l-.054.053c-.187-.615-.4-1.31-.588-1.978l-.16-.535h.374s-2.245-13.309-1.416-14.378c.561-.722-.347-9.193-1.016-14.966,6.868.428,17.8-.775,25.281-1.149a9.481,9.481,0,0,0,4.089-1.149c-.668,5.478-1.924,16.435-1.31,17.264.855,1.1-1.416,14.378-1.416,14.378h.347l-.134.4h.053c-.214.695-.428,1.47-.641,2.111l-.053-.053a.307.307,0,0,0-.428-.08.272.272,0,0,0-.134.214,17.244,17.244,0,0,0-.107,2.031,5.189,5.189,0,0,0,.241,1.9,1.569,1.569,0,0,1,.107.615,44.287,44.287,0,0,1-1.229,6.681v.534a2.3,2.3,0,0,0,2.672,2.539,5.287,5.287,0,0,1,1.443.134,7.252,7.252,0,0,0,5.772-1.416,11.753,11.753,0,0,1,3.661-1.71c1.416-.4,3.1-1.523,3.073-4.57v-.641c-.294-5.692-5.933-3.26-5.933-3.26l-1.39-3.073a.449.449,0,0,0-.615-.214c-.027,0-.054.027-.08.027-.08.053-.187.107-.267.16l.374-2.325h.267s7.028-21.433,8.178-24.934c1.122-3.528,1.978-12.213,0-14.378a37.167,37.167,0,0,0-5.692-4.222,51.555,51.555,0,0,1,5.692,3.955Zm-12.159,2.7-.882-.535a4.26,4.26,0,0,0-.668-.882,9.585,9.585,0,0,1-.695-.775c-.561-1.657-2.592-8.552.134-12.106,1.978-2.592,2.111-7.59,1.951-10.877,1.336,6.547,3.207,15.767,3.394,17.665C631.84,206.974,629.435,210.715,628.419,212.132Z" transform="translate(-416.871 -94.005)" fill="url(#linear-gradient)"/>
  <path id="Path_238" data-name="Path 238" d="M777.883,608.6l-1.069,6.948-6.414-1.336s1.336-4.543,1.6-5.612.267,0,.267,0Z" transform="translate(-567.243 -447.044)" fill="#d6e6f9"/>
  <g id="Group_188" data-name="Group 188" transform="translate(107.591 31.193)">
    <g id="Group_59" data-name="Group 59">
      <g id="Group_58" data-name="Group 58" clip-path="url(#clip-path)">
        <path id="Path_239" data-name="Path 239" d="M571.329,180.666h-2.539V178.1h-2.352v2.566H563.9v2.325h2.539v2.566h2.352v-2.566h2.539Z" transform="translate(-523.52 -163.134)" fill="#d4e8ff" opacity="0.5"/>
      </g>
    </g>
    <g id="Group_61" data-name="Group 61">
      <g id="Group_60" data-name="Group 60" clip-path="url(#clip-path)">
        <path id="Path_240" data-name="Path 240" d="M567.256,282.937a3.74,3.74,0,0,0,1.069.294,5.55,5.55,0,0,0,2.3,0,7.863,7.863,0,0,0,5.078-3.1,2.746,2.746,0,0,0-1.256-4.2c-3.822-1.283-6.922,3.741-8.445,6.387" transform="translate(-525.059 -234.673)" fill="#d4e8ff"/>
        <path id="Path_241" data-name="Path 241" d="M577.16,281.3a46.773,46.773,0,0,1-9.46,5.078" transform="translate(-526.304 -238.755)" fill="#d4e8ff"/>
      </g>
    </g>
    <g id="Group_63" data-name="Group 63">
      <g id="Group_62" data-name="Group 62" clip-path="url(#clip-path)">
        <path id="Path_242" data-name="Path 242" d="M513.831,305.158l.748,5.265s2,3.875,8.578,4.249l.241-3.047L515.06,293.8H513.19l-7.59,17.558.107,2.779s7.189-.641,7.67-5.746" transform="translate(-480.8 -247.915)" fill="#9b9b9b" opacity="0.5"/>
      </g>
    </g>
    <g id="Group_65" data-name="Group 65">
      <g id="Group_64" data-name="Group 64" clip-path="url(#clip-path)">
        <path id="Path_243" data-name="Path 243" d="M526.859,181.31l-2.432-1.71-1.737.027-1.71,1.817-3.18,1.229,1.31,31.321,8.311-1.71,1.5-26.965Z" transform="translate(-489.74 -164.234)" fill="#375675"/>
      </g>
    </g>
    <g id="Group_67" data-name="Group 67">
      <g id="Group_66" data-name="Group 66" clip-path="url(#clip-path)">
        <path id="Path_244" data-name="Path 244" d="M508.021,205.837c.053-2.138-1.9-6.761-2.565-12.213a18.547,18.547,0,0,1-.374-4.7c.134-1.016.534-2.993,1.684-3.421a63.511,63.511,0,0,0-6.173,2.191l.053,7.91c-.187,1.443.107,7.83-.16,13.683-.4,9.22-1.871,19.936-2.085,22.1a9.5,9.5,0,0,0,5.452-.08c1.229-.4,3.394-2.432,3.635-8.338C507.86,215.191,508.021,205.837,508.021,205.837Z" transform="translate(-475.524 -168.557)" fill="#fff"/>
      </g>
    </g>
    <g id="Group_69" data-name="Group 69">
      <g id="Group_68" data-name="Group 68" clip-path="url(#clip-path)">
        <path id="Path_245" data-name="Path 245" d="M540.8,205.278c-.027-4.089,1.63-7.991,2.646-11.892.641-2.459,2.084-7-.347-9.086.909.775,4.864,1.844,6.147,2.646l-.267,8.846c-.134,2.031-.053,7.109.107,11.785.321,9.273,1.5,20.738,2.272,23.731a23.9,23.9,0,0,1-6.654-.321c-3.153-.641-3.822-4.917-3.795-9.434C540.853,221.553,540.8,205.278,540.8,205.278Z" transform="translate(-506.592 -167.678)" fill="#fff"/>
      </g>
    </g>
    <g id="Group_71" data-name="Group 71">
      <g id="Group_70" data-name="Group 70" clip-path="url(#clip-path)">
        <path id="Path_246" data-name="Path 246" d="M543.679,185.7s2.352,3.554,1.951,10.048l-1.817,4.436a12.583,12.583,0,0,0-1.39.4c.107.027,1.283.294,1.283.294l-2.806,4.329s.134-5,2.94-13.309A9.008,9.008,0,0,0,543.679,185.7Z" transform="translate(-506.666 -168.703)" fill="#c7daea"/>
      </g>
    </g>
    <g id="Group_73" data-name="Group 73">
      <g id="Group_72" data-name="Group 72" clip-path="url(#clip-path)">
        <path id="Path_247" data-name="Path 247" d="M527.115,274.208a.508.508,0,1,1-.508-.508A.507.507,0,0,1,527.115,274.208Z" transform="translate(-495.821 -233.186)" fill="#c7daea"/>
      </g>
    </g>
    <g id="Group_75" data-name="Group 75">
      <g id="Group_74" data-name="Group 74" clip-path="url(#clip-path)">
        <path id="Path_248" data-name="Path 248" d="M526.716,295.2a.508.508,0,0,1-1.016,0,.526.526,0,0,1,.508-.508A.491.491,0,0,1,526.716,295.2Z" transform="translate(-495.528 -248.568)" fill="#c7daea"/>
      </g>
    </g>
    <g id="Group_77" data-name="Group 77">
      <g id="Group_76" data-name="Group 76" clip-path="url(#clip-path)">
        <path id="Path_249" data-name="Path 249" d="M557.288,233.407a7.122,7.122,0,0,1,2.459,0,.152.152,0,0,1,.107.187c-.027.053-.053.107-.107.107a7.121,7.121,0,0,1-2.459,0,.152.152,0,0,1-.107-.187C557.181,233.46,557.234,233.434,557.288,233.407Z" transform="translate(-518.591 -203.583)" fill="#c7daea"/>
      </g>
    </g>
    <g id="Group_79" data-name="Group 79">
      <g id="Group_78" data-name="Group 78" clip-path="url(#clip-path)">
        <path id="Path_250" data-name="Path 250" d="M483.953,304.286c1.283,1.229.828,2.779.935,3.848.08.722.454,1.55-.16,1.283-1.069-.454-.828-2.245-.828-2.245a.624.624,0,0,0-.321.615c.027.775.241,1.577.615,1.523.08.855-1.309.722-2.165.4a7.2,7.2,0,0,1-1.069-4.276c.027-.561.08-2.138.08-2.138l3.207-1.9A15.244,15.244,0,0,0,483.953,304.286Z" transform="translate(-462.734 -253.483)" fill="#ffaf99"/>
      </g>
    </g>
    <g id="Group_81" data-name="Group 81">
      <g id="Group_80" data-name="Group 80" clip-path="url(#clip-path)">
        <path id="Path_251" data-name="Path 251" d="M487.791,193.3c-1.523.561-2.779,1.016-4.81,9.113a149.855,149.855,0,0,0-3.18,19.616c0,.214.347.615.347.8-.053,1.256-.107,2.138-.08,2.432.053.882,3.554-.08,3.608-.962,0-.267.107-1.016.241-2.058.027-.214.294-.321.347-.588.722-5.158,3.421-17.21,3.421-17.21" transform="translate(-461.895 -174.272)" fill="#fff"/>
      </g>
    </g>
    <g id="Group_83" data-name="Group 83">
      <g id="Group_82" data-name="Group 82" clip-path="url(#clip-path)">
        <path id="Path_252" data-name="Path 252" d="M520.006,187.9a7.324,7.324,0,0,0-1.791,2.485,25.282,25.282,0,0,0-1.016,7.082l1.684,4.57,1.015.187-.748.668,2.539,3.982s-2.619-11.518-2.859-14A7.3,7.3,0,0,1,520.006,187.9Z" transform="translate(-489.3 -170.315)" fill="#c7daea"/>
      </g>
    </g>
    <g id="Group_85" data-name="Group 85">
      <g id="Group_84" data-name="Group 84" clip-path="url(#clip-path)">
        <path id="Path_253" data-name="Path 253" d="M528.856,192.1l-1.416,3.26a3.793,3.793,0,0,1-1.176-3.234l.989,2.325Z" transform="translate(-495.931 -173.393)" fill="#9b9b9b" opacity="0.5"/>
      </g>
    </g>
    <g id="Group_87" data-name="Group 87">
      <g id="Group_86" data-name="Group 86" clip-path="url(#clip-path)">
        <path id="Path_254" data-name="Path 254" d="M528.888,187.823l-1.63,2.405a3.4,3.4,0,0,1-.962-2.566c.267-1.283.882-1.363.882-1.363S526.777,187.128,528.888,187.823Z" transform="translate(-495.937 -169.143)" fill="#4d708c"/>
      </g>
    </g>
    <g id="Group_89" data-name="Group 89">
      <g id="Group_88" data-name="Group 88" clip-path="url(#clip-path)">
        <path id="Path_255" data-name="Path 255" d="M541.8,191.26l1.844,3.581s1.55-2.459,1.149-3.741Z" transform="translate(-507.326 -172.66)" fill="#9b9b9b" opacity="0.5"/>
      </g>
    </g>
    <g id="Group_91" data-name="Group 91">
      <g id="Group_90" data-name="Group 90" clip-path="url(#clip-path)">
        <path id="Path_256" data-name="Path 256" d="M541.7,186.178l1.844,2.779s1.39-2.111,1.122-3.394-.962-1.363-.962-1.363S544.132,185.483,541.7,186.178Z" transform="translate(-507.253 -167.604)" fill="#4d708c"/>
      </g>
    </g>
    <g id="Group_93" data-name="Group 93">
      <g id="Group_92" data-name="Group 92" clip-path="url(#clip-path)">
        <path id="Path_257" data-name="Path 257" d="M523.893,190.3s-1.229,2.378.08,7.322c1.309,4.917,2.539,11.278,2.539,11.278l-.641,14.057s.347-12.908.187-14.164C525.924,207.537,521.167,194.977,523.893,190.3Z" transform="translate(-493.587 -172.074)" fill="#9b9b9b" opacity="0.5"/>
      </g>
    </g>
    <g id="Group_95" data-name="Group 95">
      <g id="Group_94" data-name="Group 94" clip-path="url(#clip-path)">
        <path id="Path_258" data-name="Path 258" d="M543.284,193.7s-.668,3.341-2.191,8.605a32.069,32.069,0,0,0-1.5,8.792c-.027.989.347,12.24.347,12.24s-.16-12.534.294-15.126c.454-2.566,1.871-8.1,2.272-9.273C542.91,197.789,543.632,195.3,543.284,193.7Z" transform="translate(-505.71 -174.566)" fill="#9b9b9b" opacity="0.5"/>
      </g>
    </g>
    <g id="Group_97" data-name="Group 97">
      <g id="Group_96" data-name="Group 96" clip-path="url(#clip-path)">
        <path id="Path_259" data-name="Path 259" d="M547.078,266.43c-.347.027-.695.053-.989.053-.722-.027-1.55-.347-1.256.214.534,1.042,2.3.695,2.3.695" transform="translate(-509.504 -227.814)" fill="#ffaf99"/>
      </g>
    </g>
    <g id="Group_101" data-name="Group 101">
      <g id="Group_100" data-name="Group 100" clip-path="url(#clip-path)">
        <g id="Group_98" data-name="Group 98" transform="translate(26.074 29.949)">
          <path id="Path_260" data-name="Path 260" d="M519.541,234.175a.562.562,0,0,1,.641.428l2.7,12.961a.562.562,0,0,1-.428.641L513.716,250a.562.562,0,0,1-.641-.428l-2.7-12.961a.562.562,0,0,1,.428-.641Z" transform="translate(-510.366 -234.166)" fill="#0e263f"/>
        </g>
        <g id="Group_99" data-name="Group 99" transform="translate(25.887 30.002)">
          <path id="Path_261" data-name="Path 261" d="M518.841,234.375a.562.562,0,0,1,.641.428l2.7,12.961a.562.562,0,0,1-.428.641l-8.739,1.791a.562.562,0,0,1-.641-.428l-2.7-12.961a.562.562,0,0,1,.428-.641Z" transform="translate(-509.666 -234.366)" fill="#17334c"/>
        </g>
        <line id="Line_1" data-name="Line 1" y1="0.508" x2="2.485" transform="translate(26.991 31.508)" fill="none" stroke="#c7daea" stroke-linecap="round" stroke-width="1"/>
        <line id="Line_2" data-name="Line 2" y1="0.508" x2="2.485" transform="translate(32.016 30.519)" fill="none" stroke="#c7daea" stroke-linecap="round" stroke-width="1"/>
      </g>
    </g>
    <g id="Group_103" data-name="Group 103">
      <g id="Group_102" data-name="Group 102" clip-path="url(#clip-path)">
        <path id="Path_262" data-name="Path 262" d="M539.8,274.807a7.343,7.343,0,0,0,3.02-.107" transform="translate(-505.86 -233.919)" fill="#f29a86"/>
      </g>
    </g>
    <g id="Group_105" data-name="Group 105">
      <g id="Group_104" data-name="Group 104" clip-path="url(#clip-path)">
        <path id="Path_263" data-name="Path 263" d="M540.8,277.927a7.124,7.124,0,0,0,2.779-.027" transform="translate(-506.593 -236.264)" fill="#f29a86"/>
      </g>
    </g>
    <g id="Group_107" data-name="Group 107">
      <g id="Group_106" data-name="Group 106" clip-path="url(#clip-path)">
        <path id="Path_264" data-name="Path 264" d="M542.4,281a7.174,7.174,0,0,0,2.432.027" transform="translate(-507.766 -238.535)" fill="#f29a86"/>
      </g>
    </g>
    <g id="Group_109" data-name="Group 109">
      <g id="Group_108" data-name="Group 108" clip-path="url(#clip-path)">
        <path id="Path_265" data-name="Path 265" d="M569.8,225.3l.4,8.258s-.08-6.975,0-7.91Z" transform="translate(-527.843 -197.721)" fill="#c7daea"/>
      </g>
    </g>
    <g id="Group_111" data-name="Group 111">
      <g id="Group_110" data-name="Group 110" clip-path="url(#clip-path)">
        <path id="Path_266" data-name="Path 266" d="M505.914,243.084l.347-1.684a92.632,92.632,0,0,1-.561,11.705S506.074,244.741,505.914,243.084Z" transform="translate(-480.873 -209.518)" fill="#d4e8ff"/>
      </g>
    </g>
    <g id="Group_113" data-name="Group 113">
      <g id="Group_112" data-name="Group 112" clip-path="url(#clip-path)">
        <path id="Path_267" data-name="Path 267" d="M514.2,251.4l2.111,10.476,8.739-1.737-1.1-5.478C523.928,254.687,519.491,256.21,514.2,251.4Z" transform="translate(-487.102 -216.846)" fill="#0e263f"/>
      </g>
    </g>
    <g id="Group_115" data-name="Group 115">
      <g id="Group_114" data-name="Group 114" clip-path="url(#clip-path)">
        <path id="Path_268" data-name="Path 268" d="M543.583,266.443a3.049,3.049,0,0,1-.828.321c-.668.16-1.924-.08-2.726,0-.855.08-.027,2.619,1.042,3.073,1.951.374,3.795-.695,4.623-.855.561-.107,1.978-.481,1.978-.481L548.9,265a12.827,12.827,0,0,1-2.806.882,4.116,4.116,0,0,0-2.726-.508" transform="translate(-505.768 -226.811)" fill="#ffaf99"/>
      </g>
    </g>
    <g id="Group_117" data-name="Group 117">
      <g id="Group_116" data-name="Group 116" clip-path="url(#clip-path)">
        <path id="Path_269" data-name="Path 269" d="M567.288,194.1c1.336.935,12,11.919,11.358,13.79-.508,1.443-3.047,4.3-7.242,6.868a26.386,26.386,0,0,1-5.158,2.432c-.882.08-1.042-3.367-.374-3.9.748-.588,6.253-5.238,7.456-6.2-.882-.534-7.3-5.184-7.3-5.184" transform="translate(-524.663 -174.859)" fill="#fff"/>
      </g>
    </g>
    <g id="Group_119" data-name="Group 119">
      <g id="Group_118" data-name="Group 118" clip-path="url(#clip-path)">
        <path id="Path_270" data-name="Path 270" d="M563.936,267.853s-.641.428-.347,3.047l.722-.187a8.358,8.358,0,0,1-.241-2.913Z" transform="translate(-523.235 -228.863)" fill="#f29a86"/>
      </g>
    </g>
    <g id="Group_121" data-name="Group 121">
      <g id="Group_120" data-name="Group 120" clip-path="url(#clip-path)">
        <path id="Path_271" data-name="Path 271" d="M555.493,219.391c-2.619-5.345,1.978-7.269,2.138-8.391.535.909,5.291,3.634,1.924,8.391" transform="translate(-516.77 -187.242)" fill="none" stroke="#0a1d35" stroke-width="2"/>
        <path id="Path_272" data-name="Path 272" d="M557.048,241.374a.374.374,0,1,1-.374-.374A.4.4,0,0,1,557.048,241.374Z" transform="translate(-517.951 -209.225)" fill="#0a1d35"/>
        <path id="Path_273" data-name="Path 273" d="M572.248,241.374a.374.374,0,1,1-.374-.374A.4.4,0,0,1,572.248,241.374Z" transform="translate(-529.089 -209.225)" fill="#0a1d35"/>
        <path id="Path_274" data-name="Path 274" d="M555.748,241.667a.268.268,0,0,1-.267.267h-.214a.268.268,0,0,1-.267-.267h0a.268.268,0,0,1,.267-.267h.214a.287.287,0,0,1,.267.267Z" transform="translate(-516.998 -209.518)" fill="#0a1d35"/>
        <path id="Path_275" data-name="Path 275" d="M573.448,241.667a.268.268,0,0,1-.267.267h-.214a.268.268,0,0,1-.267-.267h0a.268.268,0,0,1,.267-.267h.214a.287.287,0,0,1,.267.267Z" transform="translate(-529.968 -209.518)" fill="#0a1d35"/>
        <path id="Path_276" data-name="Path 276" d="M509.991,221.7a1.1,1.1,0,1,1-1.1-1.1A1.119,1.119,0,0,1,509.991,221.7Z" transform="translate(-482.412 -194.277)" fill="#4d708c"/>
        <path id="Path_277" data-name="Path 277" d="M510.829,223.015a.615.615,0,1,1-.615-.615A.6.6,0,0,1,510.829,223.015Z" transform="translate(-483.731 -195.596)" fill="#375675"/>
        <path id="Path_278" data-name="Path 278" d="M511.811,194.437c-.321-4.757,1.684-11.037,7.723-11.037,4.516,0,6.066,3.848,6.654,7.349" transform="translate(-485.327 -167.018)" fill="none" stroke="#0a1d35" stroke-linecap="round" stroke-linejoin="round" stroke-width="2"/>
      </g>
    </g>
    <g id="Group_123" data-name="Group 123">
      <g id="Group_122" data-name="Group 122" clip-path="url(#clip-path)">
        <path id="Path_279" data-name="Path 279" d="M519.748,154.586c.107.8.722,1.817,1.31,1.523a1.315,1.315,0,0,0,.775-1.47,1.356,1.356,0,0,0-1.149-1.309C519.988,153.17,519.641,153.784,519.748,154.586Z" transform="translate(-491.153 -144.965)" fill="#f29a86"/>
      </g>
    </g>
    <g id="Group_125" data-name="Group 125">
      <g id="Group_124" data-name="Group 124" clip-path="url(#clip-path)">
        <path id="Path_280" data-name="Path 280" d="M520.5,153.526a.674.674,0,0,1,1.016.347l-.08-.561a.813.813,0,0,0-.481-.053A.6.6,0,0,0,520.5,153.526Z" transform="translate(-491.718 -144.921)" fill="#ffaf99"/>
      </g>
    </g>
    <g id="Group_127" data-name="Group 127">
      <g id="Group_126" data-name="Group 126" clip-path="url(#clip-path)">
        <path id="Path_281" data-name="Path 281" d="M552.637,154.586c-.107.8-.721,1.817-1.309,1.523a1.315,1.315,0,0,1-.775-1.47,1.356,1.356,0,0,1,1.149-1.309C552.4,153.17,552.744,153.784,552.637,154.586Z" transform="translate(-513.726 -144.965)" fill="#f29a86"/>
      </g>
    </g>
    <g id="Group_129" data-name="Group 129">
      <g id="Group_128" data-name="Group 128" clip-path="url(#clip-path)">
        <path id="Path_282" data-name="Path 282" d="M554.916,153.526a.674.674,0,0,0-1.016.347l.08-.561a.813.813,0,0,1,.481-.053A.6.6,0,0,1,554.916,153.526Z" transform="translate(-516.192 -144.921)" fill="#ffaf99"/>
      </g>
    </g>
    <g id="Group_131" data-name="Group 131">
      <g id="Group_130" data-name="Group 130" clip-path="url(#clip-path)">
        <path id="Path_283" data-name="Path 283" d="M534.711,172a14.785,14.785,0,0,0,.16,3.715c.053.4-.588,1.2-2.031,1.5-.321.08-.882,2.539-.882,2.539s-.508-2.378-.748-2.405a2.215,2.215,0,0,1-1.71-1.149,13.254,13.254,0,0,0,.294-4.089Z" transform="translate(-498.313 -158.665)" fill="#ffaf99"/>
      </g>
    </g>
    <g id="Group_133" data-name="Group 133">
      <g id="Group_132" data-name="Group 132" clip-path="url(#clip-path)">
        <path id="Path_284" data-name="Path 284" d="M535.51,172.461a6.772,6.772,0,0,0,0,.828s-1.176,1.684-2.459,1.684c-1.256,0-2.325-1.577-2.325-1.577s.027-1.042-.027-1.5Z" transform="translate(-499.192 -158.591)" fill="#f29a86"/>
      </g>
    </g>
    <g id="Group_135" data-name="Group 135">
      <g id="Group_134" data-name="Group 134" clip-path="url(#clip-path)">
        <path id="Path_285" data-name="Path 285" d="M524,139.736a4.035,4.035,0,1,0,8.071,0c0-2.993-1.817-4.436-4.035-4.436S524,136.8,524,139.736Z" transform="translate(-494.283 -131.772)" fill="#ffaf99"/>
      </g>
    </g>
    <g id="Group_137" data-name="Group 137">
      <g id="Group_136" data-name="Group 136" clip-path="url(#clip-path)">
        <path id="Path_286" data-name="Path 286" d="M524,151.827c0,2.165,0,3.955.828,5.131a7.2,7.2,0,0,0,2.726,2.218,2.658,2.658,0,0,0,1.122-.053,6.975,6.975,0,0,0,2.592-2.191c.828-1.176.828-2.966.828-5.131" transform="translate(-494.283 -143.863)" fill="#ffaf99"/>
      </g>
    </g>
    <g id="Group_139" data-name="Group 139">
      <g id="Group_138" data-name="Group 138" clip-path="url(#clip-path)">
        <path id="Path_287" data-name="Path 287" d="M529.9,155.468c0,.374.214.668.481.668s.481-.294.481-.668-.214-.668-.481-.668C530.141,154.8,529.9,155.094,529.9,155.468Z" transform="translate(-498.606 -146.061)" fill="#0e263f"/>
      </g>
    </g>
    <g id="Group_141" data-name="Group 141">
      <g id="Group_140" data-name="Group 140" clip-path="url(#clip-path)">
        <path id="Path_288" data-name="Path 288" d="M544.2,155.468c0,.374.214.668.481.668s.481-.294.481-.668-.214-.668-.481-.668S544.2,155.094,544.2,155.468Z" transform="translate(-509.084 -146.061)" fill="#0e263f"/>
      </g>
    </g>
    <g id="Group_143" data-name="Group 143">
      <g id="Group_142" data-name="Group 142" clip-path="url(#clip-path)">
        <path id="Path_289" data-name="Path 289" d="M529.108,150.613c-.107.027-.241.053-.374.08a1.8,1.8,0,0,1-.374.053c-.134.027-.241.027-.374.053a2,2,0,0,1-.4,0h-.027a.282.282,0,0,1-.267-.321.33.33,0,0,1,.107-.214,1.678,1.678,0,0,1,.855-.321,1.3,1.3,0,0,1,.454,0,1.4,1.4,0,0,1,.454.107.276.276,0,0,1,.16.374.283.283,0,0,1-.187.16Z" transform="translate(-496.691 -142.489)" fill="#0e263f"/>
      </g>
    </g>
    <g id="Group_145" data-name="Group 145">
      <g id="Group_144" data-name="Group 144" clip-path="url(#clip-path)">
        <path id="Path_290" data-name="Path 290" d="M543.542,150.074a2.794,2.794,0,0,1,.454-.107,2.58,2.58,0,0,1,.454,0,1.678,1.678,0,0,1,.855.321.273.273,0,0,1,.053.4.243.243,0,0,1-.214.107h-.428a1.805,1.805,0,0,1-.374-.053c-.134-.027-.24-.027-.374-.053s-.267-.053-.374-.08l-.053-.027a.289.289,0,0,1-.187-.374A.48.48,0,0,1,543.542,150.074Z" transform="translate(-508.453 -142.511)" fill="#0e263f"/>
      </g>
    </g>
    <g id="Group_147" data-name="Group 147">
      <g id="Group_146" data-name="Group 146" clip-path="url(#clip-path)">
        <path id="Path_291" data-name="Path 291" d="M537.7,166.225a2.552,2.552,0,0,0-1.416,0c-.214.134.454.294.695.294C537.248,166.546,537.916,166.359,537.7,166.225Z" transform="translate(-503.255 -154.36)" fill="#f29a86"/>
      </g>
    </g>
    <g id="Group_149" data-name="Group 149">
      <g id="Group_148" data-name="Group 148" clip-path="url(#clip-path)">
        <path id="Path_292" data-name="Path 292" d="M553.834,157a.814.814,0,0,1,.267.748c-.053.187-.4.428-.4.428Z" transform="translate(-516.046 -147.673)" fill="#ffaf99"/>
      </g>
    </g>
    <g id="Group_151" data-name="Group 151">
      <g id="Group_150" data-name="Group 150" clip-path="url(#clip-path)">
        <path id="Path_293" data-name="Path 293" d="M523.216,157a.814.814,0,0,0-.267.748c.053.187.4.428.4.428Z" transform="translate(-493.499 -147.673)" fill="#ffaf99"/>
      </g>
    </g>
    <g id="Group_153" data-name="Group 153">
      <g id="Group_152" data-name="Group 152" clip-path="url(#clip-path)">
        <path id="Path_294" data-name="Path 294" d="M524.514,142c.107-.828.267-3.634.748-4.356a2.638,2.638,0,0,0,2.539.534,2.088,2.088,0,0,0,1.657-1.55s2.619-1.069,2.592,4.329l.347-3.9-1.764-1.256-2,.214-4.089,1.016-.241,2.646Z" transform="translate(-494.503 -132.139)" fill="#f29a86"/>
      </g>
    </g>
    <g id="Group_155" data-name="Group 155">
      <g id="Group_154" data-name="Group 154" clip-path="url(#clip-path)">
        <path id="Path_295" data-name="Path 295" d="M527.978,129.478c3.26-.775,2.646,4.035,2.726,5.879a.135.135,0,1,0,.267,0c.321-2.352,1.684-5.345-.054-7.509-1.363-1.684-5.265-2.3-6.547.16-1.684-.454-1.871,1.416-1.871,3.047,0,1.684.428,3.822.428,4.249,0,.241.267.214.267,0,0-.347.08-4.116.695-5.051A2.664,2.664,0,0,0,527.978,129.478Z" transform="translate(-493.184 -125.229)" fill="#0e263f"/>
      </g>
    </g>
    <g id="Group_157" data-name="Group 157">
      <g id="Group_156" data-name="Group 156" clip-path="url(#clip-path)">
        <path id="Path_296" data-name="Path 296" d="M536.524,169.785a8.117,8.117,0,0,1-2.779.053c-.08,0-.134.053-.053.134a2.609,2.609,0,0,0,1.416.722,2.668,2.668,0,0,0,1.443-.8C536.6,169.839,536.577,169.759,536.524,169.785Z" transform="translate(-501.355 -157.038)" fill="#fff"/>
      </g>
    </g>
    <g id="Group_159" data-name="Group 159">
      <g id="Group_158" data-name="Group 158" clip-path="url(#clip-path)">
        <path id="Path_297" data-name="Path 297" d="M533.3,169.653a1.783,1.783,0,0,0,1.6,1.069,1.85,1.85,0,0,0,1.523-1.122,2.371,2.371,0,0,1-1.523.828A2.725,2.725,0,0,1,533.3,169.653Z" transform="translate(-501.097 -156.906)" fill="#f29a86"/>
      </g>
    </g>
    <g id="Group_161" data-name="Group 161">
      <g id="Group_160" data-name="Group 160" clip-path="url(#clip-path)">
        <path id="Path_298" data-name="Path 298" d="M537.892,174.587a4.526,4.526,0,0,0-1.336-.027c-.214.027.267-.16.668-.16C537.571,174.4,538.106,174.614,537.892,174.587Z" transform="translate(-503.445 -160.423)" fill="#f29a86"/>
      </g>
    </g>
    <g id="Group_163" data-name="Group 163">
      <g id="Group_162" data-name="Group 162" clip-path="url(#clip-path)">
        <path id="Path_299" data-name="Path 299" d="M532.7,169.362c.16-.214,1.069-.187,1.71,0a3.259,3.259,0,0,1,1.71-.053,1.591,1.591,0,0,0-.187.08,5.224,5.224,0,0,1-1.523.267,5.432,5.432,0,0,1-1.47-.187A.371.371,0,0,0,532.7,169.362Z" transform="translate(-500.658 -156.614)" fill="#f29a86"/>
      </g>
    </g>
    <g id="Group_165" data-name="Group 165">
      <g id="Group_164" data-name="Group 164" clip-path="url(#clip-path)">
        <path id="Path_300" data-name="Path 300" d="M561.6,229.414a.2.2,0,0,0,.214.214.23.23,0,0,0,.214-.214.2.2,0,0,0-.214-.214A.211.211,0,0,0,561.6,229.414Z" transform="translate(-521.834 -200.578)" fill="#4d708c"/>
      </g>
    </g>
    <g id="Group_167" data-name="Group 167">
      <g id="Group_166" data-name="Group 166" clip-path="url(#clip-path)">
        <path id="Path_301" data-name="Path 301" d="M561.528,231.116v-.695a.368.368,0,0,0-.4-.321.407.407,0,0,0-.428.321v.695Z" transform="translate(-521.175 -201.238)" fill="#375675"/>
      </g>
    </g>
    <g id="Group_169" data-name="Group 169">
      <g id="Group_168" data-name="Group 168" clip-path="url(#clip-path)">
        <path id="Path_302" data-name="Path 302" d="M561.6,230.721l.053,2.646c0,.107.053.187.134.187.053,0,.107-.08.134-.187l.08-2.646c0-.16-.08-.321-.187-.321-.134,0-.214.107-.214.321Z" transform="translate(-521.834 -201.458)" fill="#4d708c"/>
      </g>
    </g>
    <g id="Group_171" data-name="Group 171">
      <g id="Group_170" data-name="Group 170" clip-path="url(#clip-path)">
        <path id="Path_303" data-name="Path 303" d="M539.8,275.2a7.366,7.366,0,0,0,3.5,0" transform="translate(-505.86 -234.285)" fill="#f29a86"/>
      </g>
    </g>
    <g id="Group_173" data-name="Group 173">
      <g id="Group_172" data-name="Group 172" clip-path="url(#clip-path)">
        <path id="Path_304" data-name="Path 304" d="M541,278.48a7,7,0,0,0,2.966-.08" transform="translate(-506.74 -236.63)" fill="#f29a86"/>
      </g>
    </g>
    <g id="Group_175" data-name="Group 175">
      <g id="Group_174" data-name="Group 174" clip-path="url(#clip-path)">
        <path id="Path_305" data-name="Path 305" d="M542.8,281.134a6.665,6.665,0,0,0,2.7-.134" transform="translate(-508.059 -238.535)" fill="#f29a86"/>
      </g>
    </g>
    <g id="Group_177" data-name="Group 177">
      <g id="Group_176" data-name="Group 176" clip-path="url(#clip-path)">
        <path id="Path_306" data-name="Path 306" d="M566.5,278.8s.187.454.508.454l.989-.347v.214s-.962.561-1.069.481A1.072,1.072,0,0,1,566.5,278.8Z" transform="translate(-525.425 -236.923)" fill="#c7daea"/>
      </g>
    </g>
    <g id="Group_179" data-name="Group 179">
      <g id="Group_178" data-name="Group 178" clip-path="url(#clip-path)">
        <path id="Path_307" data-name="Path 307" d="M481.1,312.735c.508.374,2.432-.08,2.966-.828l-.027-.107s-2.245.962-2.913.535Z" transform="translate(-462.847 -261.104)" fill="#f29a86"/>
      </g>
    </g>
    <g id="Group_181" data-name="Group 181">
      <g id="Group_180" data-name="Group 180" clip-path="url(#clip-path)">
        <path id="Path_308" data-name="Path 308" d="M492.037,167.957H490.38V166.3h-1.5v1.657H487.2v1.523h1.684v1.657h1.5V169.48h1.657Z" transform="translate(-467.317 -154.488)" fill="#d4e8ff" opacity="0.5"/>
      </g>
    </g>
    <g id="Group_183" data-name="Group 183">
      <g id="Group_182" data-name="Group 182" clip-path="url(#clip-path)">
        <path id="Path_309" data-name="Path 309" d="M505.387,186.949h-1.149V185.8h-1.016v1.149H502.1v1.016h1.122v1.122h1.016v-1.122h1.149Z" transform="translate(-478.235 -168.777)" fill="#d4e8ff" opacity="0.5"/>
      </g>
    </g>
    <g id="Group_185" data-name="Group 185">
      <g id="Group_184" data-name="Group 184" clip-path="url(#clip-path)">
        <path id="Path_310" data-name="Path 310" d="M618.624,265.71h-1.737V264h-1.55v1.71H613.6v1.577h1.737V269h1.55v-1.71h1.737Z" transform="translate(-559.938 -226.078)" fill="#d4e8ff" opacity="0.5"/>
      </g>
    </g>
    <g id="Group_187" data-name="Group 187">
      <g id="Group_186" data-name="Group 186" clip-path="url(#clip-path)">
        <path id="Path_311" data-name="Path 311" d="M481.684,288.264h-1.764V286.5h-1.63v1.764H476.5v1.63h1.79v1.79h1.63v-1.79h1.764Z" transform="translate(-459.477 -242.565)" fill="#d4e8ff" opacity="0.5"/>
      </g>
    </g>
  </g>
  <path id="Path_312" data-name="Path 312" d="M669.883,614.209l-6.414,1.336-.748-4.81L662.4,608.6h5.612s0-1.069.267,0c.107.374.321,1.229.588,2.138C669.348,612.365,669.883,614.209,669.883,614.209Z" transform="translate(-488.105 -447.044)" fill="#d6e6f9"/>
  <path id="Path_313" data-name="Path 313" d="M668.967,610.735h-6.147L662.5,608.6h5.612s0-1.069.267,0C668.459,609,668.7,609.827,668.967,610.735Z" transform="translate(-488.178 -447.044)" opacity="0.1"/>
  <path id="Path_314" data-name="Path 314" d="M774.2,610.235h6.147l.321-2.138h-5.612s0-1.069-.267,0C774.708,608.5,774.467,609.327,774.2,610.235Z" transform="translate(-570.027 -446.678)" opacity="0.1"/>
  <path id="Path_315" data-name="Path 315" d="M799.417,294.9s3.474.267,4.276,12.828a103.343,103.343,0,0,0,1.817,14.03,19.846,19.846,0,0,1-1.069,11.545l-3.421,8.365s-6.414-5.345-8.552-5.078c0,0,3.741-5.078,3.474-8.017s-4.543-24.052-4.543-24.052Z" transform="translate(-582.631 -217.528)" fill="#d6e6f9"/>
  <path id="Path_316" data-name="Path 316" d="M640.478,443.9s-8.284,5.078-10.155,7.216-1.069,10.69,0,14.164,7.75,24.586,7.75,24.586h6.681s-2.138-13.095-1.336-14.164-1.6-20.043-1.6-20.043Z" transform="translate(-463.778 -326.709)" fill="#5f546f"/>
  <path id="Path_317" data-name="Path 317" d="M777.676,443.9s8.285,5.078,10.155,7.216,1.069,10.69,0,14.164-7.75,24.586-7.75,24.586H773.4s2.138-13.095,1.336-14.164,1.6-20.043,1.6-20.043Z" transform="translate(-569.441 -326.709)" fill="#5f546f"/>
  <path id="Path_318" data-name="Path 318" d="M640.478,443.9s-8.284,5.078-10.155,7.216-1.069,10.69,0,14.164,7.75,24.586,7.75,24.586h6.681s-2.138-13.095-1.336-14.164-1.6-20.043-1.6-20.043Z" transform="translate(-463.778 -326.709)" fill="#032a30"/>
  <path id="Path_319" data-name="Path 319" d="M777.676,443.9s8.285,5.078,10.155,7.216,1.069,10.69,0,14.164-7.75,24.586-7.75,24.586H773.4s2.138-13.095,1.336-14.164,1.6-20.043,1.6-20.043Z" transform="translate(-569.441 -326.709)" fill="#032a30"/>
  <path id="Path_320" data-name="Path 320" d="M712.909,185.689s0,10.422-3.741,15.767,17.1.8,17.1.8a5.435,5.435,0,0,1-2-2.806c-1.1-3.928-1.523-10.823.134-13.763C726.805,181.413,712.909,185.689,712.909,185.689Z" transform="translate(-522.045 -136.11)" fill="#f4d8b3"/>
  <circle id="Ellipse_21" data-name="Ellipse 21" cx="8.819" cy="8.819" r="8.819" transform="translate(188.058 39.023)" opacity="0.1"/>
  <circle id="Ellipse_22" data-name="Ellipse 22" cx="8.819" cy="8.819" r="8.819" transform="translate(188.058 38.756)" fill="#f4d8b3"/>
  <path id="Path_321" data-name="Path 321" d="M687.3,470.162c-9.567.428-25.468,2.191-27.873-.428-3.875-4.249-2.512-8.1-.508-10.422a14.2,14.2,0,0,0,2.058-3.982c.187-.508.374-1.042.534-1.523a5.125,5.125,0,0,1,5-3.207H685.8a5.1,5.1,0,0,1,5,3.234,9.137,9.137,0,0,0,1.229,2.512,6.257,6.257,0,0,0,.989,1.069c.962.828,1.6,2.619,2,4.57C695.906,466.073,692.245,469.922,687.3,470.162Z" transform="translate(-484.117 -331.618)" fill="#5f546f"/>
  <path id="Path_322" data-name="Path 322" d="M687.3,470.162c-9.567.428-25.468,2.191-27.873-.428-3.875-4.249-2.512-8.1-.508-10.422a14.2,14.2,0,0,0,2.058-3.982c.187-.508.374-1.042.534-1.523a5.125,5.125,0,0,1,5-3.207H685.8a5.1,5.1,0,0,1,5,3.234,9.137,9.137,0,0,0,1.229,2.512,6.257,6.257,0,0,0,.989,1.069c.962.828,1.6,2.619,2,4.57C695.906,466.073,692.245,469.922,687.3,470.162Z" transform="translate(-484.117 -331.618)" fill="#032a30"/>
  <path id="Path_323" data-name="Path 323" d="M646.808,624.959a12.461,12.461,0,0,1-3.875-1.283.4.4,0,0,0-.588.107c-.027.027-.027.053-.053.08l-1.31,3.047s-5.345-2.405-5.612,3.207c-.16,3.287,1.5,4.463,2.913,4.864a10.875,10.875,0,0,1,3.5,1.684,6.6,6.6,0,0,0,5.478,1.416,4.724,4.724,0,0,1,1.363-.134c.989.027,2.726-.267,2.539-2.753,0,0-1.6-6.414-1.069-7.483a9.154,9.154,0,0,0,.134-3.608.317.317,0,0,0-.321-.267.33.33,0,0,0-.214.107,2.358,2.358,0,0,1-2.058,1.069A2.824,2.824,0,0,1,646.808,624.959Z" transform="translate(-468.291 -458.381)" opacity="0.1"/>
  <path id="Path_324" data-name="Path 324" d="M646.808,625.959a12.459,12.459,0,0,1-3.875-1.283.4.4,0,0,0-.588.107c-.027.027-.027.053-.053.08l-1.31,3.047s-5.345-2.405-5.612,3.207c-.16,3.287,1.5,4.463,2.913,4.864a10.875,10.875,0,0,1,3.5,1.684,6.6,6.6,0,0,0,5.478,1.416,4.724,4.724,0,0,1,1.363-.134c.989.027,2.726-.267,2.539-2.753,0,0-1.6-6.414-1.069-7.483a9.154,9.154,0,0,0,.134-3.608.317.317,0,0,0-.321-.267.33.33,0,0,0-.214.107,2.358,2.358,0,0,1-2.058,1.069A2.824,2.824,0,0,1,646.808,625.959Z" transform="translate(-468.291 -459.114)" fill="#211e21"/>
  <path id="Path_325" data-name="Path 325" d="M770.791,624.959a12.461,12.461,0,0,0,3.875-1.283.4.4,0,0,1,.588.107c.027.027.027.053.053.08l1.309,3.047s5.345-2.405,5.612,3.207c.16,3.287-1.5,4.463-2.913,4.864a10.485,10.485,0,0,0-3.474,1.684,6.6,6.6,0,0,1-5.478,1.416,4.724,4.724,0,0,0-1.363-.134c-.989.027-2.726-.267-2.539-2.753,0,0,1.6-6.414,1.069-7.483a9.155,9.155,0,0,1-.134-3.608.317.317,0,0,1,.321-.267.33.33,0,0,1,.214.107,2.358,2.358,0,0,0,2.058,1.069A2.762,2.762,0,0,0,770.791,624.959Z" transform="translate(-564.347 -458.381)" opacity="0.1"/>
  <path id="Path_326" data-name="Path 326" d="M770.791,625.959a12.46,12.46,0,0,0,3.875-1.283.4.4,0,0,1,.588.107c.027.027.027.053.053.08l1.309,3.047s5.345-2.405,5.612,3.207c.16,3.287-1.5,4.463-2.913,4.864a10.485,10.485,0,0,0-3.474,1.684,6.6,6.6,0,0,1-5.478,1.416,4.724,4.724,0,0,0-1.363-.134c-.989.027-2.726-.267-2.539-2.753,0,0,1.6-6.414,1.069-7.483a9.155,9.155,0,0,1-.134-3.608.317.317,0,0,1,.321-.267.33.33,0,0,1,.214.107,2.358,2.358,0,0,0,2.058,1.069A2.762,2.762,0,0,0,770.791,625.959Z" transform="translate(-564.347 -459.114)" fill="#211e21"/>
  <path id="Path_327" data-name="Path 327" d="M580.809,191.487s2.405-7.75-4.009-8.819-4.81,8.285,0,11.759S580.809,191.487,580.809,191.487Z" transform="translate(-422.282 -135.227)" fill="#f4d8b3"/>
  <path id="Path_328" data-name="Path 328" d="M697.219,420.352c-7.483,12.293-32.6-1.6-32.6-1.6a2.728,2.728,0,0,1-1.016-1.39c.214-.641.4-1.309.561-1.924a5.463,5.463,0,0,1,5.318-4.035h20.578a5.494,5.494,0,0,1,5.318,4.062,11.925,11.925,0,0,0,1.309,3.127C696.979,419.684,697.219,420.352,697.219,420.352Z" transform="translate(-488.984 -302.893)" opacity="0.1"/>
  <path id="Path_329" data-name="Path 329" d="M619.374,213.094h-1.6s-1.069,4.81-4.543,4.81c-.935,0-2.191-.053-3.554-.134a35.835,35.835,0,0,0-12.133,1.443,4.476,4.476,0,0,1-4.089-.508c-3.207-2.405-6.681-8.819-6.681-8.819s-6.147-.267-6.414,3.207,2.94,9.888,3.741,10.69.8,5.879,6.414,7.216,9.621,1.871,9.888,8.552,5.612,13.629,2.94,21.379.267,9.353.267,9.353,25.121,13.9,32.6,1.6c0,0-2.94-8.284,0-12.293s1.6-13.9,1.6-13.9l9.621-9.621s.267-6.147-3.741-9.353-13.362-8.285-13.362-8.285l.935-3.982Z" transform="translate(-427.976 -155.23)" fill="#d6e6f9"/>
  <path id="Path_330" data-name="Path 330" d="M713.381,149.209c-.214,2.512-.134,5.372,1.737,7.082a7.542,7.542,0,0,0,3.34,1.55,20.89,20.89,0,0,0,3.848.561,5.848,5.848,0,0,0,3.447-.641c2.031-1.309,2-4.249,2.806-6.547a43.7,43.7,0,0,1,2.432-4.543,10.572,10.572,0,0,0,.428-9.06,7.713,7.713,0,0,0-7.536-4.516,12.324,12.324,0,0,0-2.94.828c-2.245.828-4.009-1.5-6.28-.668-1.229.454-6.12.935-6.414,2.405-.347,1.737,4.383,6.066,4.891,7.59C713.835,145.253,713.381,147.2,713.381,149.209Z" transform="translate(-521.689 -98.935)" opacity="0.1"/>
  <path id="Path_331" data-name="Path 331" d="M714.381,148.209c-.214,2.512-.134,5.372,1.737,7.082a7.541,7.541,0,0,0,3.34,1.55,20.892,20.892,0,0,0,3.848.561,5.848,5.848,0,0,0,3.447-.641c2.031-1.309,2-4.249,2.806-6.547a43.7,43.7,0,0,1,2.432-4.543,10.571,10.571,0,0,0,.428-9.059,7.713,7.713,0,0,0-7.536-4.516,12.325,12.325,0,0,0-2.94.828c-2.245.828-4.009-1.5-6.28-.668-1.229.454-6.12.935-6.414,2.405-.347,1.737,4.383,6.066,4.891,7.59C714.835,144.253,714.381,146.2,714.381,148.209Z" transform="translate(-522.421 -98.202)" fill="#211e21"/>
  <path id="Path_332" data-name="Path 332" d="M713.9,234.9s1.6.668,6.147,2a13.5,13.5,0,0,0,8.017,0" transform="translate(-525.842 -173.562)" opacity="0.1"/>
  <path id="Path_333" data-name="Path 333" d="M668.9,377.8s7.483.428,9.888,3.634,3.207,4.276,6.147,4.276,12.293.534,13.629,1.069" transform="translate(-492.868 -278.273)" opacity="0.1"/>
  <rect id="Rectangle_1421" data-name="Rectangle 1421" width="4.463" height="5.104" transform="translate(191.719 180.528)" fill="#c0bccf"/>
  <rect id="Rectangle_1422" data-name="Rectangle 1422" width="3.501" height="25.842" transform="translate(219.806 117.646)" fill="#cb919b"/>
  <rect id="Rectangle_1423" data-name="Rectangle 1423" width="7.67" height="0.962" transform="translate(214.061 143.167)" fill="#cb919b"/>
  <rect id="Rectangle_1424" data-name="Rectangle 1424" width="3.501" height="25.842" transform="translate(164.888 117.646)" fill="#cb919b"/>
  <rect id="Rectangle_1425" data-name="Rectangle 1425" width="7.67" height="0.962" transform="translate(165.53 143.167)" fill="#cb919b"/>
  <rect id="Rectangle_1426" data-name="Rectangle 1426" width="7.349" height="31.267" transform="translate(190.757 144.771)" fill="#c0bccf"/>
  <path id="Path_334" data-name="Path 334" d="M682.171,351.419c19.776.695,20.417-6.895,20.417-6.895l-1.283-21.005c-.321-32.71-19.161-27.9-19.161-27.9s-18.841-4.81-19.161,27.9L661.7,344.524C661.753,344.551,662.395,352.114,682.171,351.419Z" transform="translate(-487.592 -217.872)" fill="#cb919b"/>
  <path id="Path_335" data-name="Path 335" d="M682.171,351.419c19.776.695,20.417-6.895,20.417-6.895l-1.283-21.005c-.321-32.71-19.161-27.9-19.161-27.9s-18.841-4.81-19.161,27.9L661.7,344.524C661.753,344.551,662.395,352.114,682.171,351.419Z" transform="translate(-487.592 -217.872)" fill="#4f4f4f" opacity="0.1"/>
  <path id="Path_336" data-name="Path 336" d="M682.955,353.728c18.867.668,19.455-6.574,19.455-6.574l-1.2-20.016c-.294-31.187-18.253-26.591-18.253-26.591S665,295.95,664.7,327.137l-1.2,20.016C663.5,347.18,664.088,354.4,682.955,353.728Z" transform="translate(-488.911 -221.491)" fill="#4f4f4f" opacity="0.1"/>
  <path id="Path_337" data-name="Path 337" d="M724.941,468.3h1.309a3.342,3.342,0,0,1,3.341,3.341V478.7a3.342,3.342,0,0,1-3.341,3.341h-1.309A3.342,3.342,0,0,1,721.6,478.7v-7.055A3.342,3.342,0,0,1,724.941,468.3Z" transform="translate(-531.484 -344.588)" fill="#c0bccf"/>
  <path id="Path_338" data-name="Path 338" d="M731.322,659.56v1.122H724V659.56l.641-.16h6.066Z" transform="translate(-533.243 -484.618)" opacity="0.1"/>
  <path id="Path_339" data-name="Path 339" d="M625.728,671.129s-3.207-2.539,26.831-10.529h6.066s25.842,6.387,26.163,10.529h-3.822s-14.03-4.142-20.417-4.142-25.522.641-31.267,4.142Z" transform="translate(-461.16 -485.497)" fill="#c0bccf"/>
  <path id="Path_340" data-name="Path 340" d="M621.174,431.2h1.336a3.467,3.467,0,0,1,3.474,3.474h0v1.63H617.7v-1.63a3.484,3.484,0,0,1,3.474-3.474Z" transform="translate(-455.351 -317.403)" fill="#cb919b"/>
  <path id="Path_341" data-name="Path 341" d="M826.574,431.2h1.336a3.467,3.467,0,0,1,3.474,3.474h0v1.63H823.1v-1.63a3.484,3.484,0,0,1,3.474-3.474Z" transform="translate(-605.859 -317.403)" fill="#cb919b"/>
  <circle id="Ellipse_23" data-name="Ellipse 23" cx="2.245" cy="2.245" r="2.245" transform="translate(163.926 185.605)" fill="#5a5773"/>
  <circle id="Ellipse_24" data-name="Ellipse 24" cx="2.245" cy="2.245" r="2.245" transform="translate(191.693 185.605)" fill="#5a5773"/>
  <circle id="Ellipse_25" data-name="Ellipse 25" cx="2.245" cy="2.245" r="2.245" transform="translate(219.78 185.605)" fill="#5a5773"/>
  <rect id="Rectangle_1427" data-name="Rectangle 1427" width="7.349" height="1.283" transform="translate(190.757 144.771)" opacity="0.1"/>
  <path id="Path_342" data-name="Path 342" d="M674.9,525.026h21.379l1.6-3.18c.962-5.425-2.539-5.746-2.539-5.746H654.48s-3.5.321-2.539,5.746l1.6,3.18Z" transform="translate(-480.319 -379.614)" fill="#cb919b"/>
  <path id="Path_343" data-name="Path 343" d="M674.9,525.026h21.379l1.6-3.18c.962-5.425-2.539-5.746-2.539-5.746H654.48s-3.5.321-2.539,5.746l1.6,3.18Z" transform="translate(-480.319 -379.614)" fill="#fff" opacity="0.1"/>
  <path id="Path_344" data-name="Path 344" d="M674.9,528.543h21.379l1.6-2.726c.962-4.65-2.539-4.917-2.539-4.917H654.48s-3.5.267-2.539,4.917l1.6,2.726Z" transform="translate(-480.319 -383.131)" fill="#cb919b"/>
  <path id="Path_345" data-name="Path 345" d="M888.233,311.229a3.03,3.03,0,0,0-3.608,1.336,3.86,3.86,0,0,0,.053,3.768,5.547,5.547,0,0,0,5.372,3.047c2.566-.134,3.394-2.085,3.635-3.9a4,4,0,0,0-3.474-4.463,4.314,4.314,0,0,0-1.844.187Z" transform="translate(-650.602 -229.313)" fill="#f45b5b"/>
  <path id="Path_346" data-name="Path 346" d="M885.113,316.174a3.931,3.931,0,0,1-.053-3.768,3.069,3.069,0,0,1,3.608-1.336l.134-.053a3.912,3.912,0,0,1,2.859.053,3.985,3.985,0,0,0-3.394-.321l-.134.053a3.03,3.03,0,0,0-3.608,1.336,3.86,3.86,0,0,0,.054,3.768,6.072,6.072,0,0,0,2.753,2.619A6.468,6.468,0,0,1,885.113,316.174Z" transform="translate(-650.529 -228.967)" fill="#fff" opacity="0.1"/>
  <path id="Path_347" data-name="Path 347" d="M894.7,315.8s.909.722,3.1,0" transform="translate(-658.325 -232.842)" opacity="0.2"/>
  <path id="Path_348" data-name="Path 348" d="M894,296.4s1.55,4.2,1.416,5.291l1.229-.134s-2.058-3.688-1.55-5.158Z" transform="translate(-657.812 -218.627)" fill="#6c63ff"/>
  <path id="Path_349" data-name="Path 349" d="M894,296.4s1.55,4.2,1.416,5.291l1.229-.134s-2.058-3.688-1.55-5.158Z" transform="translate(-657.812 -218.627)" fill="#0a586c"/>
  <path id="Path_350" data-name="Path 350" d="M904.584,295.98s-2.432-1.256-3.528-.214-1.256,3.661-1.256,3.661A4.243,4.243,0,0,0,904.584,295.98Z" transform="translate(-662.062 -217.859)" fill="#6c63ff"/>
  <path id="Path_351" data-name="Path 351" d="M904.584,295.98s-2.432-1.256-3.528-.214-1.256,3.661-1.256,3.661A4.243,4.243,0,0,0,904.584,295.98Z" transform="translate(-662.062 -217.859)" fill="#209e61"/>
  <path id="Path_352" data-name="Path 352" d="M899.7,301.147s.641-3.073,4.784-3.447" transform="translate(-661.988 -219.579)" fill="none" stroke="#6c63ff" stroke-width="1"/>
</svg>
