<svg id="Group_1132" data-name="Group 1132" xmlns="http://www.w3.org/2000/svg" width="294.436" height="193.476" viewBox="0 0 294.436 193.476">
  <g id="Group_189" data-name="Group 189" transform="translate(1.311 0)">
    <path id="Path_353" data-name="Path 353" d="M12.37,343.5h27.2v37.066H14.353c-.08.375-.134.75-.214,1.152H39.546v29.91c-.054,0-.08-.027-.134-.054-.724-.295-1.42-.59-2.144-.911l-.456-.214c-.724-.348-1.42-.7-2.144-1.072-.241-.134-.509-.268-.75-.4a44.328,44.328,0,0,1-10.694-8.362l-.268-.268c-.429-.482-.858-.938-1.286-1.447l-.456-.536c-.482-.59-.965-1.206-1.42-1.823-.08-.08-.134-.188-.214-.268a39.525,39.525,0,0,1-4.61-8.335c-.027-.08-.08-.188-.107-.268-.375-.938-.7-1.9-.992-2.868-.134-.4-.241-.8-.348-1.233-.027-.134-.08-.241-.107-.375-1.528-5.95-1.715-12.114-1.715-18.252V362.8q0-3.739.08-7.478c0-.643.027-1.286.054-1.93.027-1.635.08-3.3.161-4.931.027-.456.027-.911.054-1.367a7.08,7.08,0,0,1,.054-.777A24.4,24.4,0,0,0,12.37,343.5Z" transform="translate(-11.7 -252.853)" fill="#4f4f4f" opacity="0.1"/>
    <path id="Path_354" data-name="Path 354" d="M74.928,137.968H60a109.2,109.2,0,0,1,7.933-10.935c2.225-2.734,4.556-5.387,7-7.933v18.868Z" transform="translate(-47.055 -88.594)" fill="#4f4f4f" opacity="0.1"/>
    <path id="Path_355" data-name="Path 355" d="M41.623,193.8v39H14.5c0-.107.027-.241.027-.348.027-.295.054-.616.08-.911.027-.348.054-.724.107-1.072.027-.348.08-.777.107-1.179s.08-.777.134-1.179.08-.777.134-1.152.08-.777.134-1.152c.027-.322.08-.643.134-.965.054-.456.134-.911.188-1.367,0-.08.027-.134.027-.214a92.977,92.977,0,0,1,1.983-9.782,72.032,72.032,0,0,1,3.377-9.916A74.785,74.785,0,0,1,26,193.8Z" transform="translate(-13.75 -143.274)" fill="#4f4f4f" opacity="0.1"/>
    <path id="Path_356" data-name="Path 356" d="M139.9,95.926v37.066H198V95.926Zm0,38.218v31.84c.322.08.67.134.992.188.456.08.884.161,1.34.241.08,0,.188.027.268.027.188.027.348.054.536.08.456.054.884.107,1.34.161a5.209,5.209,0,0,0,.643.054l.509.054h0c.295.027.563.027.831.054.161,0,.348.027.509.027h1.9a6.059,6.059,0,0,0,.7-.027h.027a2.914,2.914,0,0,0,.482-.027h.134a2.029,2.029,0,0,0,.4-.027h.08l.911-.08.884-.08.616-.08a58.12,58.12,0,0,0,7.37-1.554c5.414-1.5,10.72-3.618,16.134-5.173,7-2.01,14.741-2.975,21.521-.536V134.171H139.9ZM198,54.652V5.284a73.423,73.423,0,0,0-18.868,2.224c-14.714,3.7-27.9,11.712-39.21,21.95V54.652h2.921V55.8h-2.921v39h58.1v-39h-43.2V54.652Zm74.614-16.67a24.253,24.253,0,0,1-10.533-3.055c-6.245-3.4-11.256-8.657-16.831-13.106A77.12,77.12,0,0,0,204.491,5.632V54.652h82.923l.214-.214Zm7.558-1.34,8.014,8.791v-11.1a31.276,31.276,0,0,0-8.014,2.3Zm8.014,137.249V134.144H271.118c-.054-.161-.08-.348-.134-.509.054.161.08.348.134.509H204.491V162.9c.643.482,1.26.965,1.876,1.474h0c.67.536,1.313,1.1,1.983,1.662l.67.563c.322.268.643.536.965.777.643.509,1.286,1.045,1.956,1.554.322.268.643.509.992.75a134.447,134.447,0,0,0,16.509,10.8c1.286.724,2.6,1.42,3.913,2.09.884.456,1.769.884,2.653,1.313,1.34.643,2.68,1.286,4.02,1.876h0a146.715,146.715,0,0,0,39.13,11.391c3,.456,6,.8,9.032,1.045V173.89h0ZM204.518,55.8v39h83.7v-39Zm0,40.121v37.066h83.7V95.926ZM294.7,34.283V46.665l10.238-11.23c-3.4-.536-6.807-.938-10.238-1.152Zm0,61.643v37.066h81.422V95.926Zm81.1,80.913.295-42.694H294.7v64.484a146.64,146.64,0,0,0,15.732-.188h.08c2.493-.161,4.985-.375,7.478-.7h.054a137.147,137.147,0,0,0,38.379-10.238M391.8,102.036c-.295-.724-.616-1.447-.938-2.144-.616-1.34-1.26-2.653-1.9-3.94h-6.352v37.066h16.054c0-10.506-2.68-21.227-6.861-30.982Zm-9.193,32.135v36.718a52.88,52.88,0,0,0,11.1-14.955,51.887,51.887,0,0,0,4.958-21.763Zm0-49.046v9.648h5.762a109.131,109.131,0,0,0-5.762-9.648ZM327.4,41.546l-1.286-.482a117.465,117.465,0,0,0-13.749-4.127l-15.652,17.18h0l-.295.322.214.214h55.693A120.26,120.26,0,0,0,327.4,41.546ZM353.934,55.8h-58.1l-1.152,1.045V94.773H376.1V76.414A113.929,113.929,0,0,0,353.934,55.8Z" transform="translate(-105.541 -5.278)" fill="#4f4f4f" opacity="0.1"/>
    <path id="Path_357" data-name="Path 357" d="M41.623,267.1v19.324H14.5c0-.107.027-.241.027-.348.027-.295.054-.616.08-.911.027-.348.054-.724.107-1.072.027-.348.08-.777.107-1.179s.08-.777.134-1.179.08-.777.134-1.152.08-.777.134-1.152c.027-.322.08-.643.134-.965.054-.456.134-.911.188-1.367,0-.08.027-.134.027-.214a92.977,92.977,0,0,1,1.983-9.782Z" transform="translate(-13.75 -196.929)" fill="#4f4f4f" opacity="0.1"/>
    <path id="Path_358" data-name="Path 358" d="M12.943,342.7h27.2v37.066H14.927c-.08.375-.134.75-.214,1.152H40.12v29.91c-.054,0-.08-.027-.134-.054-.724-.295-1.42-.59-2.144-.911l-.456-.214c-.724-.348-1.42-.7-2.144-1.072-.241-.134-.509-.268-.75-.4A44.328,44.328,0,0,1,23.8,399.813l-.268-.268c-.429-.482-.858-.938-1.286-1.447l-.456-.536c-.482-.59-.965-1.206-1.42-1.823-.08-.08-.134-.188-.214-.268a39.524,39.524,0,0,1-4.61-8.335c-.027-.08-.08-.188-.107-.268A27.727,27.727,0,0,1,14.471,384c-.134-.4-.241-.8-.348-1.233-.027-.134-.08-.241-.107-.375-1.528-5.95-1.715-12.114-1.715-18.252V362q0-3.739.08-7.477c0-.643.027-1.286.027-1.93.027-1.635.08-3.3.161-4.931.027-.456.027-.911.054-1.367,0-.268.027-.536.027-.777A19.243,19.243,0,0,0,12.943,342.7Z" transform="translate(-12.139 -252.267)" fill="#4f4f4f" opacity="0.1"/>
    <path id="Path_359" data-name="Path 359" d="M160.349,183.71V217.1H139.9V183.71h2.921V172.4H154.8v11.31Z" transform="translate(-105.541 -127.609)" fill="#4f4f4f" opacity="0.1"/>
    <rect id="Rectangle_1428" data-name="Rectangle 1428" width="20.449" height="37.066" transform="translate(34.359 90.647)" fill="#4f4f4f" opacity="0.1"/>
    <path id="Path_360" data-name="Path 360" d="M139.9,486.1h20.449v30.821a53.431,53.431,0,0,1-7.344,1.554l-.616.08-.884.08c-.295.027-.59.054-.911.08h-.08c-.134,0-.268.027-.4.027h-.134c-.161,0-.322.027-.482.027h0c-.241,0-.456.027-.7.027h-1.9l-.509-.027c-.268,0-.563-.027-.831-.054h0l-.509-.027-.643-.054c-.456-.054-.911-.08-1.34-.161l-.536-.08-.268-.027c-.456-.08-.884-.134-1.34-.241-.322-.054-.643-.134-.992-.188Z" transform="translate(-105.541 -357.234)" fill="#4f4f4f" opacity="0.1"/>
    <rect id="Rectangle_1429" data-name="Rectangle 1429" width="16.858" height="37.361" transform="translate(165.792 52.161)" fill="#4f4f4f" opacity="0.1"/>
    <path id="Path_361" data-name="Path 361" d="M464.7,343.5v37.066H381V364.592h44.57v9.434h22.245V343.5Z" transform="translate(-282.023 -252.853)" fill="#4f4f4f" opacity="0.1"/>
    <path id="Path_362" data-name="Path 362" d="M465.041,524.455h-.268v24.335c-3.029-.268-6.03-.616-9.032-1.045a147.948,147.948,0,0,1-39.156-11.417c-3.591-1.608-7.129-3.377-10.56-5.307a134.465,134.465,0,0,1-16.51-10.8c-1.313-1.018-2.626-2.037-3.886-3.082-.884-.724-1.769-1.474-2.653-2.224-.616-.509-1.233-.992-1.876-1.474V484.709h66.6c-.054-.161-.08-.348-.134-.509a3.566,3.566,0,0,1,.134.509h17.072v39.746Z" transform="translate(-282.096 -355.843)" fill="#4f4f4f" opacity="0.1"/>
    <path id="Path_363" data-name="Path 363" d="M827.388,152.388H816.4v-3.4h4.931V138.8l1.286.482v9.7h4.8v3.4Z" transform="translate(-600.731 -103.015)" fill="#4f4f4f" opacity="0.1"/>
    <path id="Path_364" data-name="Path 364" d="M781.448,232.769H717.5V195.435h2.841V223.04h12.945V206.691h10.694V193.8h10.989v12.891h10.694V223.04h15.759l.027,9.729Z" transform="translate(-528.337 -143.274)" fill="#4f4f4f" opacity="0.1"/>
    <path id="Path_365" data-name="Path 365" d="M717.5,343.5v37.066h63.948V343.5Zm81.315,80.725.08-29.347H781.448V381.745H717.5V446.2a146.666,146.666,0,0,0,15.732-.188h.08c2.492-.161,4.985-.375,7.477-.7h.054a137.148,137.148,0,0,0,38.379-10.238" transform="translate(-528.337 -252.853)" fill="#4f4f4f" opacity="0.1"/>
    <path id="Path_366" data-name="Path 366" d="M1046.625,486.1h14.928a51.483,51.483,0,0,1-4.958,21.763,52.136,52.136,0,0,1-11.1,14.955V499.233h1.126V486.1Z" transform="translate(-768.43 -357.234)" fill="#4f4f4f" opacity="0.1"/>
    <path id="Path_367" data-name="Path 367" d="M1064.628,397.182H1049.7V366.2h8.067C1061.948,375.982,1064.628,386.7,1064.628,397.182Z" transform="translate(-771.504 -269.469)" fill="#4f4f4f" opacity="0.1"/>
    <rect id="Rectangle_1430" data-name="Rectangle 1430" width="9.032" height="11.712" transform="translate(173.645 62.533)" fill="#4f4f4f" opacity="0.1"/>
    <rect id="Rectangle_1431" data-name="Rectangle 1431" width="9.032" height="2.707" transform="translate(173.645 86.815)" fill="#4f4f4f" opacity="0.1"/>
    <rect id="Rectangle_1432" data-name="Rectangle 1432" width="9.032" height="7.88" transform="translate(173.645 90.647)" fill="#4f4f4f" opacity="0.1"/>
    <rect id="Rectangle_1433" data-name="Rectangle 1433" width="9.032" height="11.712" transform="translate(173.645 111.07)" fill="#4f4f4f" opacity="0.1"/>
    <rect id="Rectangle_1434" data-name="Rectangle 1434" width="9.032" height="11.712" transform="translate(173.645 135.352)" fill="#4f4f4f" opacity="0.1"/>
    <path id="Path_368" data-name="Path 368" d="M668.632,609.878a.914.914,0,0,1,.268.027l-.268-.027v2.734H659.6V600.9h9.032Z" transform="translate(-485.955 -441.267)" fill="#4f4f4f" opacity="0.1"/>
    <path id="Path_369" data-name="Path 369" d="M668.632,691.4v9.059c-3.029-.268-6.03-.616-9.032-1.045V691.4Z" transform="translate(-485.955 -507.511)" fill="#4f4f4f" opacity="0.1"/>
    <rect id="Rectangle_1435" data-name="Rectangle 1435" width="38.728" height="0.858" transform="translate(98.977 126.856)" fill="#4f4f4f" opacity="0.1"/>
    <rect id="Rectangle_1436" data-name="Rectangle 1436" width="38.728" height="3.297" transform="translate(98.977 128.866)" fill="#4f4f4f" opacity="0.1"/>
    <rect id="Rectangle_1437" data-name="Rectangle 1437" width="38.728" height="5.307" transform="translate(98.977 142.963)" fill="#4f4f4f" opacity="0.1"/>
    <path id="Path_370" data-name="Path 370" d="M424.825,598.8v5.307H394.539c-1.313-.992-2.627-2.037-3.886-3.082-.884-.724-1.769-1.474-2.653-2.2Z" transform="translate(-287.147 -439.729)" fill="#4f4f4f" opacity="0.1"/>
    <path id="Path_371" data-name="Path 371" d="M487.849,658.9v5.307H484.66c-3.591-1.608-7.1-3.377-10.56-5.307Z" transform="translate(-350.171 -483.722)" fill="#4f4f4f" opacity="0.1"/>
    <rect id="Rectangle_1438" data-name="Rectangle 1438" width="7.612" height="7.612" transform="translate(204.895 94.239)" fill="#4f4f4f" opacity="0.1"/>
    <rect id="Rectangle_1439" data-name="Rectangle 1439" width="7.612" height="7.612" transform="translate(39.853 58.727)" fill="#4f4f4f" opacity="0.1"/>
    <rect id="Rectangle_1440" data-name="Rectangle 1440" width="7.612" height="7.612" transform="translate(39.853 76.443)" fill="#4f4f4f" opacity="0.1"/>
    <rect id="Rectangle_1441" data-name="Rectangle 1441" width="7.612" height="7.612" transform="translate(39.853 94.132)" fill="#4f4f4f" opacity="0.1"/>
    <rect id="Rectangle_1442" data-name="Rectangle 1442" width="7.612" height="7.612" transform="translate(39.853 111.847)" fill="#4f4f4f" opacity="0.1"/>
    <rect id="Rectangle_1443" data-name="Rectangle 1443" width="7.612" height="7.612" transform="translate(39.853 129.536)" fill="#4f4f4f" opacity="0.1"/>
    <rect id="Rectangle_1444" data-name="Rectangle 1444" width="7.612" height="7.612" transform="translate(39.853 147.251)" fill="#4f4f4f" opacity="0.1"/>
    <rect id="Rectangle_1445" data-name="Rectangle 1445" width="7.612" height="7.612" transform="translate(234.001 94.239)" fill="#4f4f4f" opacity="0.1"/>
    <rect id="Rectangle_1446" data-name="Rectangle 1446" width="7.612" height="7.612" transform="translate(204.895 113.053)" fill="#4f4f4f" opacity="0.1"/>
    <rect id="Rectangle_1447" data-name="Rectangle 1447" width="7.612" height="7.612" transform="translate(234.001 113.053)" fill="#4f4f4f" opacity="0.1"/>
    <rect id="Rectangle_1448" data-name="Rectangle 1448" width="7.612" height="7.612" transform="translate(204.895 131.841)" fill="#4f4f4f" opacity="0.1"/>
    <rect id="Rectangle_1449" data-name="Rectangle 1449" width="7.612" height="7.612" transform="translate(234.001 131.841)" fill="#4f4f4f" opacity="0.1"/>
    <rect id="Rectangle_1450" data-name="Rectangle 1450" width="7.612" height="7.612" transform="translate(204.895 150.628)" fill="#4f4f4f" opacity="0.1"/>
    <rect id="Rectangle_1451" data-name="Rectangle 1451" width="7.612" height="7.612" transform="translate(234.001 150.628)" fill="#4f4f4f" opacity="0.1"/>
    <rect id="Rectangle_1452" data-name="Rectangle 1452" width="7.612" height="7.612" transform="translate(204.895 169.443)" fill="#4f4f4f" opacity="0.1"/>
    <rect id="Rectangle_1453" data-name="Rectangle 1453" width="7.612" height="7.612" transform="translate(234.001 169.443)" fill="#4f4f4f" opacity="0.1"/>
    <path id="Path_372" data-name="Path 372" d="M776.2,712.531V707.6h7.612v4.235Z" transform="translate(-571.305 -519.37)" fill="#4f4f4f" opacity="0.1"/>
    <path id="Path_373" data-name="Path 373" d="M18.4,303.7v4.369H44.478V303.7Zm2.6,4.074H18.882v-3.833h2.144Zm2.6,0H21.455v-3.833H23.6Zm2.573,0H24.028v-3.833h2.144Zm2.6,0H26.628v-3.833h2.144Zm2.6,0H29.228v-3.833h2.144Zm2.6,0H31.827v-3.833h2.144Zm2.6,0H34.427v-3.833h2.144Zm2.6,0H37.027v-3.833h2.144Zm2.573,0H39.6v-3.833h2.144Zm2.6,0H42.2v-3.833h2.144Z" transform="translate(-16.604 -223.72)" fill="#4f4f4f" opacity="0.1"/>
    <path id="Path_374" data-name="Path 374" d="M18.4,351v4.369H44.478V351Zm2.6,4.1H18.882v-3.806h2.144Zm2.6,0H21.455v-3.806H23.6Zm2.573,0H24.028v-3.806h2.144Zm2.6,0H26.628v-3.806h2.144Zm2.6,0H29.228v-3.806h2.144Zm2.6,0H31.827v-3.806h2.144Zm2.6,0H34.427v-3.806h2.144Zm2.6,0H37.027v-3.806h2.144Zm2.573,0H39.6v-3.806h2.144Zm2.6,0H42.2v-3.806h2.144Z" transform="translate(-16.604 -258.343)" fill="#4f4f4f" opacity="0.1"/>
    <path id="Path_375" data-name="Path 375" d="M18.4,398.4v4.369H44.478V398.4Zm2.6,4.074H18.882v-3.806h2.144Zm2.6,0H21.455v-3.806H23.6Zm2.573,0H24.028v-3.806h2.144Zm2.6,0H26.628v-3.806h2.144Zm2.6,0H29.228v-3.806h2.144Zm2.6,0H31.827v-3.806h2.144Zm2.6,0H34.427v-3.806h2.144Zm2.6,0H37.027v-3.806h2.144Zm2.573,0H39.6v-3.806h2.144Zm2.6,0H42.2v-3.806h2.144Z" transform="translate(-16.604 -293.039)" fill="#4f4f4f" opacity="0.1"/>
    <path id="Path_376" data-name="Path 376" d="M18.4,445.7v4.369H44.478V445.7Zm2.6,4.1H18.882v-3.806h2.144Zm2.6,0H21.455v-3.806H23.6Zm2.573,0H24.028v-3.806h2.144Zm2.6,0H26.628v-3.806h2.144Zm2.6,0H29.228v-3.806h2.144Zm2.6,0H31.827v-3.806h2.144Zm2.6,0H34.427v-3.806h2.144Zm2.6,0H37.027v-3.806h2.144Zm2.573,0H39.6v-3.806h2.144Zm2.6,0H42.2v-3.806h2.144Z" transform="translate(-16.604 -327.662)" fill="#4f4f4f" opacity="0.1"/>
    <path id="Path_377" data-name="Path 377" d="M18.8,493.1c.107.4.214.831.348,1.233v-.938h2.144V497.2H20.14c.027.08.08.188.107.268H44.77v-4.342L18.8,493.1Zm5.092,4.074H21.748v-3.806h2.144Zm2.6,0H24.348v-3.806h2.144Zm2.6,0H26.948v-3.806h2.144Zm2.573,0H29.52v-3.806h2.144Zm2.6,0H32.12v-3.806h2.144Zm2.6,0H34.72v-3.806h2.144Zm2.6,0H37.32v-3.806h2.144Zm2.6,0H39.919v-3.806h2.144Zm2.6,0H42.519v-3.806h2.144Z" transform="translate(-16.897 -362.358)" fill="#4f4f4f" opacity="0.1"/>
    <path id="Path_378" data-name="Path 378" d="M41.4,540.4c.08.08.134.188.214.268h1.42v1.823c.161.188.295.375.456.536v-2.385h2.144v3.833h-.858a2.526,2.526,0,0,0,.268.268h16.3V540.4Zm6.807,4.1H46.063v-3.806h2.144Zm2.6,0H48.663v-3.806h2.144Zm2.6,0H51.263v-3.806h2.144Zm2.6,0H53.863v-3.806h2.144Zm2.573,0H56.435v-3.806H58.58Zm2.6,0H59.035v-3.806h2.144Z" transform="translate(-33.44 -396.981)" fill="#6c63ff" opacity="0.1"/>
    <path id="Path_379" data-name="Path 379" d="M94.8,587.8c.241.134.482.268.75.4v-.134h2.144v1.206l.456.214v-1.421h2.144V590.4c.054.027.08.027.134.054v-2.626Z" transform="translate(-72.528 -431.677)" fill="#6c63ff" opacity="0.1"/>
    <path id="Path_380" data-name="Path 380" d="M312.779,229.621Zm-16.51,79.117Zm-17.233-40.255c.054.161.08.348.134.509h0A3.569,3.569,0,0,0,279.036,268.483Zm33.743-38.862ZM150.9,189.5v1.152h11.98V189.5ZM296.269,308.738Zm-17.233-40.255c.054.161.08.348.134.509h0A3.569,3.569,0,0,0,279.036,268.483Zm33.743-38.862Zm-16.51,79.09Zm-17.233-40.229c.054.161.08.348.134.509h0A3.569,3.569,0,0,0,279.036,268.483Z" transform="translate(-113.593 -140.126)" fill="#4f4f4f" opacity="0.1"/>
    <path id="Path_381" data-name="Path 381" d="M834.5,397.7Z" transform="translate(-613.98 -292.526)" fill="#ffb0b1"/>
    <path id="Path_382" data-name="Path 382" d="M833.9,398.18l.08-.08Z" transform="translate(-613.541 -292.819)" fill="#ffb0b1"/>
  </g>
  <g id="Group_190" data-name="Group 190" transform="translate(176.265 96.115)">
    <rect id="Rectangle_1454" data-name="Rectangle 1454" width="2.975" height="7.531" transform="translate(2.551 0.161)" fill="#a2c8f8"/>
    <path id="Path_383" data-name="Path 383" d="M665.613,400.614h5.655a1.1,1.1,0,0,0,1.045-1.474l-2.332-6.539h-2.975l-2.466,6.513A1.142,1.142,0,0,0,665.613,400.614Z" transform="translate(-664.482 -384.908)" fill="#a2c8f8"/>
    <path id="Path_384" data-name="Path 384" d="M672.669,408.406h-4.663a.918.918,0,0,1-.858-1.233l1.126-2.948a2.567,2.567,0,0,1,1.581.241c.858.482,1.42.107,2.439-.134.08-.027.134-.027.188-.08l1.045,2.921A.917.917,0,0,1,672.669,408.406Z" transform="translate(-666.392 -393.398)" fill="#ff912b"/>
    <path id="Path_385" data-name="Path 385" d="M676.37,364.222h-3.109a.173.173,0,0,1-.161-.161h0a.173.173,0,0,1,.161-.161h3.109a.173.173,0,0,1,.161.161h0A.173.173,0,0,1,676.37,364.222Z" transform="translate(-670.79 -363.9)" fill="#74afec"/>
  </g>
  <path id="Path_386" data-name="Path 386" d="M508.248,330.644c-.563.268-2.841-2.841-3.216-3.27-.027-.054-2.332-1.34-2.332-1.34l.348-4.235s5.146,3.189,5.762,3.833C509.454,326.276,509.7,329.974,508.248,330.644Z" transform="translate(-369.795 -236.968)" fill="#f4d8b3"/>
  <path id="Path_387" data-name="Path 387" d="M432.778,254.36l-.375,2.546s-.161,0-.456-.027c-.938-.054-3.189-.188-5.735-.456a53.953,53.953,0,0,1-7.29-1.126A10.943,10.943,0,0,1,416,254.253c-2.761-1.688-7.29-6.834-10.238-12.007a2.679,2.679,0,0,1-.214-.375,24.672,24.672,0,0,1-2.251-5.146,9.733,9.733,0,0,1-.429-2.493,11.448,11.448,0,0,1,.348-3.457,8.44,8.44,0,0,1,1.555-3.109,1.2,1.2,0,0,1,.295-.348,7.376,7.376,0,0,1,2.01-1.715,1.241,1.241,0,0,1,1.286.322.711.711,0,0,1,.161.134h0l.188.188v.027a6.939,6.939,0,0,1,.509.616h0a10.007,10.007,0,0,1,.938,1.528l.054.054c.107.188.214.4.348.643.054.054.054.107.08.134.241.482.456.992.7,1.528,2.6,5.655,5.36,14.2,7.638,16.751a17.457,17.457,0,0,0,3.993,2.439h0c.027.027.08.027.107.054h0c1.581.8,3.377,1.608,4.985,2.332C430.661,253.529,432.778,254.36,432.778,254.36Z" transform="translate(-296.711 -166.5)" fill="#f4d8b3"/>
  <path id="Path_388" data-name="Path 388" d="M424.179,251.175a19.163,19.163,0,0,1-1.581,2.948,7.922,7.922,0,0,1-2.814,2.76c-.858-.429-2.439-1.045-3.082-1.447-2.385-1.474-5.816-5.6-8.6-10.05-.429-.67-.831-1.367-1.233-2.037a2.674,2.674,0,0,1-.214-.375,24.667,24.667,0,0,1-2.251-5.146l5.039-10.8V227a1.985,1.985,0,0,0,.134.161h0c.134.161.375.456.7.8h0a10,10,0,0,1,.938,1.528l.054.054c.107.188.214.4.348.643.054.054.054.107.08.134.241.482.456.992.7,1.528,2.6,5.655,5.36,14.2,7.638,16.751a17.456,17.456,0,0,0,3.993,2.439h0C424.126,251.121,424.152,251.175,424.179,251.175Z" transform="translate(-297.841 -167.576)" fill="#fff"/>
  <path id="Path_389" data-name="Path 389" d="M432.8,303.75a7.921,7.921,0,0,1-2.814,2.761c-.858-.429-2.439-1.045-3.082-1.447-2.385-1.474-5.816-5.6-8.6-10.05.107-1.394,7.424,5.789,8.335,7.076C427.359,303.106,430.977,303.589,432.8,303.75Z" transform="translate(-308.015 -217.23)" fill="#e0c886" opacity="0.1"/>
  <path id="Path_390" data-name="Path 390" d="M348.988,439.487l-2.787,1.045s-12.087-16.777-13.588-31.518a21.928,21.928,0,0,1,.4-7.531s-.107-.67-.322-1.876c-.107-.563-.214-1.233-.348-1.983-.4-2.251-.938-5.333-1.554-8.844-1.42-8.067-3.27-18.386-4.69-26l.75-.241,8.121-2.627,1.688-5.333L342.69,353s1.34,2.653,2.546,15.116c.214,1.635.429,3.431.59,5.387a106.3,106.3,0,0,1-.563,21.843c-.268,2.171-.616,4.4-1.072,6.7a29.651,29.651,0,0,0-.241,6.62C344.566,420.753,348.988,439.487,348.988,439.487Z" transform="translate(-240.526 -259.807)" fill="#3b474d"/>
  <path id="Path_392" data-name="Path 392" d="M306.969,347.979l-.295-2.6c-5.092,1.34-18.68-3.779-18.68-3.779s-4.931,4.342-4.288,14.714c.322,5.065.884,26.614,1.5,32.992.214,2.3.4,3.967.482,4.61h0a.864.864,0,0,1-.161.563,28.819,28.819,0,0,0-2.224,4.69c-5.923,15.759.911,35.19.911,35.19l1.769-.724s3.886-21.6,7.049-31.143a18.075,18.075,0,0,1,1.528-3.645,41.618,41.618,0,0,0,3.806-10.131,248.906,248.906,0,0,0,5.119-26.908C303.618,361.808,306.969,347.979,306.969,347.979Z" transform="translate(-207.431 -251.462)" fill="#3b474d"/>
  <path id="Path_393" data-name="Path 393" d="M373.895,197.215c-8.737.482-6.834-12.57-6.3-12.489,1.072-.563,3-3.27,4.1-7.826l.375.188,6.325,2.975s-.67,2.064-1.152,4.02c-.375,1.528-.67,3.029-.429,3.431.509.214.8.322.8.322h0C377.647,188,376.227,197.081,373.895,197.215Z" transform="translate(-270.498 -130.903)" fill="#f4d8b3"/>
  <path id="Path_394" data-name="Path 394" d="M368.734,102.29c-.027-.375-.295-4.476-6.539-4.69,0,0,3.055.375,3.591,1.715,0,0-2.09-1.662-3.779-1.126s-2.707,3.511-2.707,4.476c0,.992.938,4.127,2.01,4.4a3.1,3.1,0,0,0,1.313,0,13.014,13.014,0,0,0-.831,1.5c-2.493,5.092.08,10.077,2.171,9.541,1.34-.348,1.742,1.956,1.742,1.956l13.106-10.613S373.987,99.5,368.734,102.29Z" transform="translate(-264.828 -72.857)" fill="#211e21"/>
  <path id="Path_395" data-name="Path 395" d="M392.125,180.475s-.67,2.064-1.179,4.02c-3.7-1.018-4.8-4.9-5.146-7Z" transform="translate(-284.225 -131.343)" fill="#e8c59c"/>
  <path id="Path_396" data-name="Path 396" d="M391.5,152.814s-8.818-2.037-7.477-7.531c1.367-5.467,1.126-9.434,6.834-8.362,5.682,1.072,6.271,3.431,6.271,5.36C397.1,144.237,393.831,153.216,391.5,152.814Z" transform="translate(-282.822 -101.51)" fill="#f4d8b3"/>
  <path id="Path_397" data-name="Path 397" d="M391.547,136.525c-.938-1.983-2.064-1.876-2.761-1.528a6.351,6.351,0,0,0-8.228-.7,10.774,10.774,0,0,1-4.958,5.333s1.367,1.394,5.28,1.367a6.459,6.459,0,0,0,3.511-1.313,20.6,20.6,0,0,1-4.61,3.431c4.931-.938,8.228-6.647,8.55-7.236a7.148,7.148,0,0,1,1.286,3.029c.08,1.5-.429,4.422.429,4.529C390.073,143.413,392.967,139.5,391.547,136.525Z" transform="translate(-276.759 -98.837)" fill="#211e21"/>
  <path id="Path_398" data-name="Path 398" d="M293.2,671.506H279.179a7.473,7.473,0,0,1,.4-3.752c.7-1.555,1.8-2.251,1.528-4.154a4.981,4.981,0,0,0,4.369,1.662,15.734,15.734,0,0,0,2.439,3.163C288.828,669.094,292.928,668.853,293.2,671.506Z" transform="translate(-206.121 -487.162)" fill="#211e21"/>
  <path id="Path_399" data-name="Path 399" d="M405.3,673.336H391.284a5.7,5.7,0,0,1,.4-3.752,2.681,2.681,0,0,0-.107-3.216,5.3,5.3,0,0,0,2.359.456,5.133,5.133,0,0,0,2.09-.724,53.5,53.5,0,0,0,3.993,4.208C400.932,670.924,405.033,670.683,405.3,673.336Z" transform="translate(-288.128 -488.992)" fill="#211e21"/>
  <path id="Path_400" data-name="Path 400" d="M317.7,211.107l-2.3,30.875L314,260.877c-2.171.67-4.235,1.206-6.164,1.608a23.97,23.97,0,0,0-.643-3.484c.027.992-1.152,2.895-1.822,3.94C287.416,265.809,279,257.983,279,257.983c.7-6.941,3.725-20.959,7.344-32.7.75-2.439,1.528-4.8,2.332-6.968a93.818,93.818,0,0,1,3.913-9.488c1.849-3.779,10.077-3.538,10.077-3.538a20.111,20.111,0,0,0,5.95,9.273c2.332-1.367,4.047-6.164,4.047-6.164Z" transform="translate(-206.049 -151.683)" fill="#fff"/>
  <path id="Path_401" data-name="Path 401" d="M368.922,201.3s-1.5.107-1.823,1.045c0,0,1.957,7.853,5.95,9.273Z" transform="translate(-270.537 -148.764)" fill="#3b474d"/>
  <path id="Path_402" data-name="Path 402" d="M389.3,220.429s3.725-6.191,3.7-7.129c0,0,1.528.59,1.447,1.554C394.473,214.854,391.256,220,389.3,220.429Z" transform="translate(-286.787 -157.548)" fill="#3b474d"/>
  <path id="Path_403" data-name="Path 403" d="M351.2,229.4c.107.375,13.561,21.843,13.829,26.1.295,4.261-5.655,1.849-5.735,1.313C359.187,256.255,351.2,229.4,351.2,229.4Z" transform="translate(-258.899 -169.333)" fill="#e0c886" opacity="0.1"/>
  <path id="Path_404" data-name="Path 404" d="M355.582,267.83l-1.394,18.895C334.972,281.177,333.9,240.6,333.9,240.6l11.873,21.441,9.7,5.6A.859.859,0,0,1,355.582,267.83Z" transform="translate(-246.235 -177.531)" fill="#e0c886" opacity="0.1"/>
  <path id="Path_405" data-name="Path 405" d="M358.611,246.607l-.75,2.707s-.938-.161-2.412-.456a5.425,5.425,0,0,1-.7-.161c-1.179-.241-2.6-.536-4.127-.884H350.6c-2.627-.643-5.575-1.394-8.067-2.224l-.643-.241a20.487,20.487,0,0,1-3.645-1.688,2.045,2.045,0,0,1-.295-.214c-2.466-1.8-5.387-7.049-7.665-12.7-.322-.777-.616-1.554-.911-2.3a58.684,58.684,0,0,1-2.412-8.014,20.424,20.424,0,0,1-.563-3.806,7.334,7.334,0,0,1-.027-1.072c.054-6.111,4.369-6.754,4.931-6.057a18.477,18.477,0,0,1,2.251,3.993c1.206,2.707,2.466,6.245,3.645,9.729.643,1.93,1.286,3.833,1.93,5.6.348,1.072.724,2.09,1.045,3a25.894,25.894,0,0,0,1.769,4.1,10.181,10.181,0,0,0,2.6,2.332c.348.241.7.509,1.1.75,2.144,1.447,4.851,3.055,7.263,4.422,1.179.67,2.3,1.286,3.216,1.8C357.62,246.1,358.611,246.607,358.611,246.607Z" transform="translate(-240.715 -154.593)" fill="#f4d8b3"/>
  <path id="Path_406" data-name="Path 406" d="M345.74,239.049a8.647,8.647,0,0,1-4.61,7.558c-5.521-1.983-8.469-10.211-10.747-15.866-.322-.777-.616-1.554-.911-2.3a58.693,58.693,0,0,1-2.412-8.014,20.427,20.427,0,0,1-.563-3.806,7.334,7.334,0,0,1-.027-1.072c.054-6.111,4.369-6.754,4.931-6.057a18.481,18.481,0,0,1,2.251,3.993c1.206,2.707,2.466,6.245,3.645,9.729.643,1.93,1.286,3.833,1.93,5.6.348,1.072.724,2.09,1.045,3a25.9,25.9,0,0,0,1.769,4.1,10.182,10.182,0,0,0,2.6,2.332A10.468,10.468,0,0,0,345.74,239.049Z" transform="translate(-240.788 -154.593)" fill="#fff"/>
  <path id="Path_407" data-name="Path 407" d="M478.227,316.945a.026.026,0,0,1-.027.027.026.026,0,0,0,.027-.027C478.227,316.918,478.254,316.918,478.227,316.945Z" transform="translate(-351.861 -233.4)" fill="#9ddeda"/>
  <g id="Group_193" data-name="Group 193" transform="translate(124.325 67.974)">
    <g id="Group_191" data-name="Group 191">
      <rect id="Rectangle_1455" data-name="Rectangle 1455" width="5.307" height="12.784" transform="translate(4.533 0.295)" fill="#a2c8f8"/>
      <path id="Path_408" data-name="Path 408" d="M472.673,321.388H482.8a1.908,1.908,0,0,0,1.876-2.519L480.525,307.8h-5.307l-4.4,11.042A1.889,1.889,0,0,0,472.673,321.388Z" transform="translate(-470.686 -294.694)" fill="#a2c8f8"/>
      <path id="Path_409" data-name="Path 409" d="M485.3,334.567h-8.362a1.559,1.559,0,0,1-1.528-2.091l1.983-4.985a5.12,5.12,0,0,1,2.841.4c1.528.831,2.546.161,4.4-.214a1.328,1.328,0,0,0,.348-.107l1.876,4.958A1.552,1.552,0,0,1,485.3,334.567Z" transform="translate(-474.063 -309.079)" fill="#fff"/>
      <path id="Path_410" data-name="Path 410" d="M491.8,259.49h-5.6a.3.3,0,0,1-.295-.295h0a.3.3,0,0,1,.295-.295h5.6a.3.3,0,0,1,.295.295h0A.3.3,0,0,1,491.8,259.49Z" transform="translate(-481.822 -258.9)" fill="#74afec"/>
      <path id="Path_411" data-name="Path 411" d="M487.6,320.263a.59.59,0,1,1,.59.563A.572.572,0,0,1,487.6,320.263Z" transform="translate(-483.067 -303.405)" fill="#fff"/>
      <path id="Path_412" data-name="Path 412" d="M499.5,313.663a.59.59,0,1,1,.59.563A.556.556,0,0,1,499.5,313.663Z" transform="translate(-491.777 -298.574)" fill="#fff"/>
      <path id="Path_413" data-name="Path 413" d="M493.411,308.587a.537.537,0,0,1,.724.054.448.448,0,0,1-.054.67.537.537,0,0,1-.724-.054A.451.451,0,0,1,493.411,308.587Z" transform="translate(-487.189 -295.186)" fill="#fff"/>
      <path id="Path_414" data-name="Path 414" d="M500.011,299.587a.537.537,0,0,1,.724.054.448.448,0,0,1-.054.67.537.537,0,0,1-.724-.054A.451.451,0,0,1,500.011,299.587Z" transform="translate(-492.02 -288.598)" fill="#fff"/>
      <path id="Path_415" data-name="Path 415" d="M493.719,294.566a.415.415,0,0,1,.563.054.36.36,0,0,1-.054.536.415.415,0,0,1-.563-.054A.382.382,0,0,1,493.719,294.566Z" transform="translate(-487.444 -284.944)" fill="#fff"/>
      <path id="Path_416" data-name="Path 416" d="M497,322.031a.858.858,0,1,1,.858.831A.858.858,0,0,1,497,322.031Z" transform="translate(-489.947 -304.503)" fill="#fff"/>
    </g>
    <g id="Group_192" data-name="Group 192" transform="translate(12.225 1.126)">
      <rect id="Rectangle_1456" data-name="Rectangle 1456" width="0.858" height="42.989" transform="translate(7.451)" fill="#74afec"/>
      <rect id="Rectangle_1457" data-name="Rectangle 1457" width="15.143" height="0.536" transform="translate(0 40.925)" fill="#74afec"/>
      <rect id="Rectangle_1458" data-name="Rectangle 1458" width="0.59" height="2.064" transform="translate(0 40.925)" fill="#74afec"/>
      <rect id="Rectangle_1459" data-name="Rectangle 1459" width="0.59" height="2.064" transform="translate(14.553 40.925)" fill="#74afec"/>
    </g>
    <rect id="Rectangle_1460" data-name="Rectangle 1460" width="18.118" height="0.643" transform="translate(2.389 1.126)" fill="#74afec"/>
  </g>
  <path id="Path_417" data-name="Path 417" d="M444.407,342.935a13.519,13.519,0,0,1-4.047-.482s3.377-.054,2.653-1.126c-.134-.188-1.822-.054-3.7-.054a6.363,6.363,0,0,0-2.573,1.1c-1.367-.188-2.6-.456-3-.536a.319.319,0,0,1-.134-.054l-1.206,3.484s.241.054.7.134a43.315,43.315,0,0,1,5.575,1.715,5.589,5.589,0,0,0,6.271-1.34,3.556,3.556,0,0,0,1.126-2.2C446.042,342.908,445.1,342.935,444.407,342.935Z" transform="translate(-318.336 -251.189)" fill="#f4d8b3"/>
  <g id="Group_198" data-name="Group 198" transform="translate(24.735 112.088)">
    <g id="Group_195" data-name="Group 195" transform="translate(216.124 3.565)">
      <g id="Group_194" data-name="Group 194" transform="translate(0 0)">
        <path id="Path_418" data-name="Path 418" d="M918.15,504.58a.865.865,0,0,1-.858-.7l-4.154-23.558-5.977-33.9-1.662-9.488,4.261-.134.75,5.494,5.2,38.674,3.082,22.915A.665.665,0,0,1,918.15,504.58Z" transform="translate(-905.5 -436.8)" fill="#0f88fc"/>
      </g>
      <path id="Path_419" data-name="Path 419" d="M910.485,442.321a6.078,6.078,0,0,0-3.323,4.1l-1.662-9.488,4.261-.134Z" transform="translate(-905.5 -436.8)" fill="#0f88fc"/>
    </g>
    <g id="Group_197" data-name="Group 197" transform="translate(12.086 3.565)">
      <g id="Group_196" data-name="Group 196" transform="translate(0 0)">
        <path id="Path_420" data-name="Path 420" d="M144.839,504.58a.865.865,0,0,0,.858-.7l4.154-23.558,5.977-33.9,1.662-9.488-4.261-.134-.75,5.494-5.2,38.674L144.2,503.883A.648.648,0,0,0,144.839,504.58Z" transform="translate(-144.194 -436.8)" fill="#0f88fc"/>
      </g>
      <path id="Path_421" data-name="Path 421" d="M175.2,442.321a6.078,6.078,0,0,1,3.323,4.1l1.662-9.488-4.261-.134Z" transform="translate(-166.89 -436.8)" fill="#0f88fc"/>
    </g>
    <path id="Path_422" data-name="Path 422" d="M330.8,430.924H101.512a2.419,2.419,0,0,1-2.412-2.412v-2.6a2.419,2.419,0,0,1,2.412-2.412H330.8a2.419,2.419,0,0,1,2.412,2.412v2.6A2.4,2.4,0,0,1,330.8,430.924Z" transform="translate(-99.1 -423.5)" fill="#0f88fc"/>
  </g>
  <path id="Path_423" data-name="Path 423" d="M699.86,283.513a1.458,1.458,0,0,0-.59-.563,10.843,10.843,0,0,1-1.34-1.9c-.214-.536-.777-.08-.858.482-.027.188.348.7.4.884-1.126-.107-.348-.884-2.76-.268,0,0-.831,2.948.777,3.993s3.538,1.26,4.69.456l1.555-.322.161-2.707Z" transform="translate(-510.19 -206.963)" fill="#f4d8b3"/>
  <path id="Path_424" data-name="Path 424" d="M751.991,187.383s13.186,12.168-5.521,26.051c-5.039,3.752-28.168,5.173-28.168,5.173s-.8-2.841.67-4.1c0,0,16.3-5.735,19.377-6.406,1.715-.375.161-15.437,3.565-18.922S751.991,187.383,751.991,187.383Z" transform="translate(-527.453 -138.277)" fill="#fff"/>
  <path id="Path_425" data-name="Path 425" d="M853.99,662.535s-.429,6.754-1.715,6.861h-6.62l-8.255-.054a2.685,2.685,0,0,1,2.466-2.412c2.412-.429,6.432-2.117,7.906-5.307C849.273,658.3,853.99,662.535,853.99,662.535Z" transform="translate(-614.791 -484.784)" fill="#211e21"/>
  <path id="Path_426" data-name="Path 426" d="M824.727,442.405a17.163,17.163,0,0,1-4.449.831,16.475,16.475,0,0,1-4.154-.59,117.557,117.557,0,0,0-3.055-14.607c-1.367-5.28-3.3-12.034-6.057-20.449-7.638-23.263-9.97-36.878-10.185-38.165a.157.157,0,0,0-.027-.107h.027L820.331,359s-2.895,32.054.8,44.356a52.55,52.55,0,0,1,1.34,5.9C824.78,422.626,824.727,442.405,824.727,442.405Z" transform="translate(-585.073 -264.198)" fill="#3b474d"/>
  <path id="Path_428" data-name="Path 428" d="M785.49,662.535s-.429,6.754-1.715,6.861h-6.62l-8.255-.054a2.685,2.685,0,0,1,2.466-2.412c2.412-.429,6.432-2.117,7.906-5.307C780.773,658.3,785.49,662.535,785.49,662.535Z" transform="translate(-564.65 -484.784)" fill="#211e21"/>
  <path id="Path_429" data-name="Path 429" d="M780.984,361.8a336.045,336.045,0,0,0,3.3,46.286c3.591,25.515,2.385,36.342,2.385,36.342a24.251,24.251,0,0,0,3.457.884,15.567,15.567,0,0,0,5.146-.59s5.146-25.515,3.672-38.3c-1.474-12.757,7.049-43.82,7.049-43.82Z" transform="translate(-573.491 -266.248)" fill="#3b474d"/>
  <path id="Path_430" data-name="Path 430" d="M813.644,154.271l-2.895,4.663-6.539,1.688c-.134-.536-.67-2.707-1.179-4.717-.027-.107-.054-.241-.08-.348-.4-1.688-.75-3.163-.75-3.163l4.449-5.092,1.662-1.9c0,.027.643,1.8.724,2.064A15.688,15.688,0,0,0,813.644,154.271Z" transform="translate(-589.026 -107.846)" fill="#f4d8b3"/>
  <path id="Path_431" data-name="Path 431" d="M773.67,227.307c.107,10.962.831,36.61,1.367,37.146,5.709,5.521,30.848-1.5,32.161-7.585,1.34-6.084-5.065-77.884-14.821-80.752-2.037-.59-12.838,2.895-12.838,2.895a70.5,70.5,0,0,0-2.814,10.1c-.4,2.09-1.769,17.046-2.546,27.042-.214,2.653-.375,4.985-.482,6.593C773.67,223.447,773.643,225.082,773.67,227.307Z" transform="translate(-568.134 -130.281)" fill="#fff"/>
  <path id="Path_432" data-name="Path 432" d="M808.659,151.854c-.268,2.653-4.02,6.593-5.628,8.148-.027-.107-.054-.241-.08-.348-.4-1.688-.75-3.163-.75-3.163l4.449-5.092C807.882,150.835,808.766,150.755,808.659,151.854Z" transform="translate(-589.026 -111.941)" fill="#e8c59c"/>
  <path id="Path_433" data-name="Path 433" d="M779.175,124.218s10.345-1.394,9.38-7.826-.268-10.962-6.915-10.345-7.558,3.27-7.772,5.494S776.468,124.406,779.175,124.218Z" transform="translate(-568.279 -78.999)" fill="#f4d8b3"/>
  <path id="Path_434" data-name="Path 434" d="M768.486,100.131s3.645,6.325,4.878,5.387c1.233-.911,2.359-1.715,3.082.375s-.107,5.253,4.261,3.645,5.36-15.223,3.243-16.751C777.894,88.446,760.312,95.173,768.486,100.131Z" transform="translate(-562.789 -68.312)" fill="#211e21"/>
  <path id="Path_435" data-name="Path 435" d="M797.953,168.865c.134-.054,8.174-3.672,9.032-3.4.858.295,1.608,3.029,1.608,3.029L795.3,171.6A6.614,6.614,0,0,1,797.953,168.865Z" transform="translate(-583.975 -122.52)" fill="#3b474d"/>
  <path id="Path_436" data-name="Path 436" d="M775.9,260.352C799.726,244.218,797.8,222,797.8,222c-9.3,5.253-18.52,17.662-21.387,27.2-.214,2.653-.375,4.985-.482,6.593C775.9,256.466,775.9,258.1,775.9,260.352Z" transform="translate(-569.774 -163.916)" fill="#e0c886" opacity="0.1"/>
  <path id="Path_437" data-name="Path 437" d="M676.645,334.532a1.623,1.623,0,0,0-.724-.429,17.337,17.337,0,0,1-2.144-1.9v1.34a4.05,4.05,0,0,0,.268.456,8.875,8.875,0,0,0-3.484,1.045,1.906,1.906,0,0,0-1.045,1.313c-.107.563.027,1.206,1.045,1.42.7.161,1.179-.509,2.975.134s3.162.563,4.1-.482l1.447-.67-.456-2.68Z" transform="translate(-491.88 -244.581)" fill="#f4d8b3"/>
  <path id="Path_438" data-name="Path 438" d="M735.44,187.2s20.262,3.859-5.95,33.18C725.309,225.07,701.8,231.8,701.8,231.8s-1.447-2.573-.268-4.154c0,0,17.153-12.087,19.109-12.275,1.742-.161,5.9-18.922,8.416-23.076A11.147,11.147,0,0,1,735.44,187.2Z" transform="translate(-515.002 -138.443)" fill="#fff"/>
  <g id="Group_199" data-name="Group 199" transform="translate(184.283 72.423)">
    <path id="Path_439" data-name="Path 439" d="M695.9,286.488h0a1.5,1.5,0,0,1-1.5-1.5V275.5h3v9.488A1.5,1.5,0,0,1,695.9,286.488Z" transform="translate(-694.4 -275.5)" fill="#fff"/>
    <path id="Path_440" data-name="Path 440" d="M696.926,300.041h0a1.132,1.132,0,0,1-1.126-1.126V294.6h2.224v4.315A1.093,1.093,0,0,1,696.926,300.041Z" transform="translate(-695.425 -289.481)" fill="#e1393a"/>
  </g>
  <path id="Path_441" data-name="Path 441" d="M692.841,284.271a4.789,4.789,0,0,0-.563,2.037c.08.67,1.715,1.8,1.876,1.42a3.2,3.2,0,0,0,0-2.251C693.78,284.753,693,284.03,692.841,284.271Z" transform="translate(-508.559 -209.463)" fill="#f4d8b3"/>
  <g id="Group_204" data-name="Group 204" transform="translate(156.463 101.207)">
    <g id="Group_200" data-name="Group 200" transform="translate(3.806)">
      <path id="Path_442" data-name="Path 442" d="M606.22,393.218h0a1.43,1.43,0,0,1-1.42-1.42v-8.9h2.814v8.9A1.374,1.374,0,0,1,606.22,393.218Z" transform="translate(-604.8 -382.9)" fill="#fff"/>
      <path id="Path_443" data-name="Path 443" d="M607.245,408.408h0a1.03,1.03,0,0,1-1.045-1.045V404.2h2.09v3.163A1.03,1.03,0,0,1,607.245,408.408Z" transform="translate(-605.825 -398.491)" fill="#e1393a"/>
    </g>
    <g id="Group_201" data-name="Group 201" transform="translate(8.014)">
      <path id="Path_444" data-name="Path 444" d="M621.92,393.218h0a1.43,1.43,0,0,1-1.42-1.42v-8.9h2.814v8.9A1.39,1.39,0,0,1,621.92,393.218Z" transform="translate(-620.5 -382.9)" fill="#fff"/>
      <path id="Path_445" data-name="Path 445" d="M622.945,405.992h0a1.03,1.03,0,0,1-1.045-1.045V400.9h2.091v4.047A1.046,1.046,0,0,1,622.945,405.992Z" transform="translate(-621.525 -396.076)" fill="#e1393a"/>
    </g>
    <g id="Group_202" data-name="Group 202">
      <path id="Path_446" data-name="Path 446" d="M592.02,393.218h0a1.43,1.43,0,0,1-1.42-1.42v-8.9h2.814v8.9A1.374,1.374,0,0,1,592.02,393.218Z" transform="translate(-590.6 -382.9)" fill="#fff"/>
      <path id="Path_447" data-name="Path 447" d="M593.045,405.992h0A1.03,1.03,0,0,1,592,404.947V400.9h2.091v4.047A1.03,1.03,0,0,1,593.045,405.992Z" transform="translate(-591.625 -396.076)" fill="#e1393a"/>
    </g>
    <g id="Group_203" data-name="Group 203" transform="translate(0.241 8.63)">
      <rect id="Rectangle_1461" data-name="Rectangle 1461" width="0.804" height="2.359" fill="#fff"/>
      <rect id="Rectangle_1462" data-name="Rectangle 1462" width="0.804" height="2.359" transform="translate(13.535)" fill="#fff"/>
      <rect id="Rectangle_1463" data-name="Rectangle 1463" width="14.339" height="0.697" fill="#fff"/>
    </g>
  </g>
  <g id="Group_206" data-name="Group 206" transform="translate(5.291 145.49)">
    <path id="Path_448" data-name="Path 448" d="M50.952,558.814s4.422-5.146.268-8.416c0,0-3.029-1.822-5.494-1.688,0,0,3.484,5.869,2.359,6.432-1.126.59-3.431-6.807-3.431-6.807s-6.888-.67-9.086.4c0,0,5.869,4.824,4.637,5.092-1.233.295-7.585-4.449-7.585-4.449s-6.405,1.1-6.057,4.985c.348,3.913,2.546,5.119,3.511,5.012s6.647-2.278,6.754-1.474c.134.8-3.3,3.4-5.682,3.511,0,0,4.5,4.985,7.5,3.538s3.243-3.725,5.119-4.556c1.876-.858,3.457-.858,2.707.027-.777.884-4.154,1.715-5.226,3.618s-2.037,3.162,1.072,2.707,8.148-2.734,8.362-5.333Z" transform="translate(-26.549 -548.128)" fill="#3ac468"/>
    <g id="Group_205" data-name="Group 205" transform="translate(3.149 6.368)">
      <path id="Path_449" data-name="Path 449" d="M38.3,571.918s17.394-.67,21.227,4.315a12.631,12.631,0,0,0,3.457,4.851l.4,1.1s-3-3.189-4.1-3.377C59.312,578.806,61,572.641,38.3,571.918Z" transform="translate(-38.3 -571.888)" fill="#3ac468"/>
      <path id="Path_450" data-name="Path 450" d="M127.81,604.922a10.953,10.953,0,0,1,3.993,7.692l-.67.054s-1.179-5.092-3.35-7.1C125.613,603.609,127.81,604.922,127.81,604.922Z" transform="translate(-103.1 -595.753)" fill="#3ac468"/>
    </g>
  </g>
  <g id="Group_208" data-name="Group 208" transform="translate(40.484 131.555)">
    <path id="Path_451" data-name="Path 451" d="M162.482,514.3s-7.022-3.94-3.752-9.273c0,0,2.627-3.27,5.414-4.127,0,0-1.5,7.96,0,8.148s1.018-8.978,1.018-8.978,7.4-3.565,10.292-3.27c0,0-4.583,7.772-3.082,7.585s6.647-8.04,6.647-8.04,7.585-1.394,8.791,3.082c1.206,4.5-.75,6.727-1.876,7.022-1.126.268-8.335.188-8.148,1.126s5.039,2.439,7.772,1.581c0,0-3,7.4-6.915,7.022-3.94-.375-5.146-2.814-7.585-3s-4.208.456-3,1.126c1.206.643,5.333.214,7.29,1.876s3.565,2.707-.08,3.457-10.184.268-11.5-2.519Z" transform="translate(-157.861 -496.134)" fill="#3ac468"/>
    <g id="Group_207" data-name="Group 207" transform="translate(0.905 4.681)">
      <path id="Path_452" data-name="Path 452" d="M191.873,513.6s-19.645,6.352-21.9,13.481a15.1,15.1,0,0,1-1.876,6.834v1.394s2.064-4.771,3.189-5.414C171.289,529.868,166.894,523.7,191.873,513.6Z" transform="translate(-166.261 -513.6)" fill="#3ac468"/>
      <path id="Path_453" data-name="Path 453" d="M163.077,586.944a13.022,13.022,0,0,0-1.313,10.211l.777-.214s-.75-6.164.831-9.273C164.979,584.585,163.077,586.944,163.077,586.944Z" transform="translate(-161.237 -566.655)" fill="#3ac468"/>
    </g>
  </g>
  <g id="Group_210" data-name="Group 210" transform="translate(0 120.311)">
    <path id="Path_454" data-name="Path 454" d="M40.763,478.146s9.246-5.173,4.931-12.221c0,0-3.457-4.315-7.156-5.414,0,0,1.983,10.479,0,10.72s-1.367-11.846-1.367-11.846-9.756-4.69-13.561-4.315c0,0,6.03,10.238,4.074,10-1.983-.241-8.764-10.613-8.764-10.613s-10-1.849-11.6,4.074.992,8.871,2.466,9.246,10.988.241,10.72,1.474c-.241,1.233-6.647,3.216-10.238,2.09,0,0,3.94,9.756,9.139,9.246,5.173-.482,6.781-3.7,10-3.94s5.548.616,3.94,1.474-7.022.295-9.622,2.493-4.69,3.564.134,4.556c4.8.992,13.454.375,15.169-3.323S40.763,478.146,40.763,478.146Z" transform="translate(-6.808 -454.18)" fill="#1d8228"/>
    <g id="Group_209" data-name="Group 209" transform="translate(5.09 6.223)">
      <path id="Path_455" data-name="Path 455" d="M25.8,477.4s25.89,8.389,28.865,17.769a19.559,19.559,0,0,0,2.466,9.005v1.849s-2.707-6.3-4.181-7.156C52.923,498.841,58.712,490.72,25.8,477.4Z" transform="translate(-25.8 -477.4)" fill="#1d8228"/>
      <path id="Path_456" data-name="Path 456" d="M139.321,574.069a17.079,17.079,0,0,1,1.715,13.454l-1.018-.268s.992-8.121-1.1-12.221S139.321,574.069,139.321,574.069Z" transform="translate(-107.99 -547.321)" fill="#1d8228"/>
    </g>
  </g>
  <path id="Path_457" data-name="Path 457" d="M85.118,637.618A18.129,18.129,0,0,1,67,619.5h36.235A18.1,18.1,0,0,1,85.118,637.618Z" transform="translate(-50.868 -454.881)" fill="#eda537"/>
  <path id="Path_458" data-name="Path 458" d="M66.1,684.523h36.744a2.219,2.219,0,0,0-2.224-2.225H68.351a2.208,2.208,0,0,0-2.251,2.225Z" transform="translate(-50.209 -500.849)" fill="#eda537"/>
  <rect id="Rectangle_1464" data-name="Rectangle 1464" width="37.254" height="0.563" transform="translate(15.73 164.619)" opacity="0.1"/>
  <g id="Group_212" data-name="Group 212" transform="translate(42.156 80.591)">
    <rect id="Rectangle_1465" data-name="Rectangle 1465" width="4.717" height="17.099" transform="translate(13.688 3.85) rotate(-24.733)" fill="#0f88fc"/>
    <rect id="Rectangle_1466" data-name="Rectangle 1466" width="2.251" height="8.174" transform="translate(13.885 0.942) rotate(-24.733)" fill="#0f88fc"/>
    <g id="Group_211" data-name="Group 211" transform="translate(5.492 5.58)">
      <path id="Path_459" data-name="Path 459" d="M184.943,350.09l3.725-.59c0-.08-1.045-7.049.777-12.489,1.822-5.467,8.014-6.486,8.067-6.486l-.563-3.725c-.348.054-8.55,1.394-11.1,9.032C183.764,342.157,184.889,349.769,184.943,350.09Z" transform="translate(-184.593 -326.8)" fill="#0f88fc"/>
    </g>
    <path id="Path_460" data-name="Path 460" d="M164.1,412.188h16.161v-.911a3.38,3.38,0,0,0-3.377-3.377h-8.71a4.072,4.072,0,0,0-4.074,4.074Z" transform="translate(-164.1 -380.584)" fill="#0f88fc"/>
    <rect id="Rectangle_1467" data-name="Rectangle 1467" width="17.474" height="1.26" transform="translate(8.094 22.384)" fill="#0f88fc"/>
    <rect id="Rectangle_1468" data-name="Rectangle 1468" width="12.114" height="2.144" transform="translate(13.454 29.46)" fill="#0f88fc"/>
    <rect id="Rectangle_1469" data-name="Rectangle 1469" width="3.833" height="0.884" transform="translate(18.144 28.549)" fill="#0f88fc"/>
  </g>
</svg>
