<svg xmlns="http://www.w3.org/2000/svg" width="79.284" height="79.265" viewBox="0 0 79.284 79.265">
  <g id="Group_3510" data-name="Group 3510" transform="translate(-53.713 -397.09)">
    <g id="Ellipse_6_copy_2" data-name="Ellipse 6 copy 2" transform="translate(53.713 397.09)" fill="#fff" stroke="#ff65b4" stroke-width="0.667">
      <ellipse cx="39.642" cy="39.632" rx="39.642" ry="39.632" stroke="none"/>
      <ellipse cx="39.642" cy="39.632" rx="39.309" ry="39.299" fill="none"/>
    </g>
    <g id="_1790400-200" data-name="1790400-200" transform="translate(71.937 415.314)">
      <path id="Path_1565" data-name="Path 1565" d="M54.781-193.427c-1,.187-2.565.536-3.5.769l-1.679.42-.07,3.521-.07,3.544-.769.256c-2.868.933-2.774,5.176.14,5.759.466.093.676.3.793.863a11.062,11.062,0,0,0,3.73,5.526l1.236.956.07,1.772.07,1.8h.7c.7,0,.7-.023.769-1.352.07-1.189.117-1.352.466-1.212a6.225,6.225,0,0,0,4.756,0c.35-.14.4.023.466,1.212.07,1.329.07,1.352.769,1.352h.7l.117-1.819.117-1.819,1.1-.863a11.017,11.017,0,0,0,3.777-5.549c.117-.56.326-.769.793-.863a2.971,2.971,0,0,0,2.145-3.754,3.23,3.23,0,0,0-2.052-2.028l-.746-.256v-3.474c0-2.588-.07-3.521-.28-3.59-.163-.07-1.446-.4-2.868-.723A31.011,31.011,0,0,0,54.781-193.427Zm6.225,2.192a2.1,2.1,0,0,1,.723,1.889,2.06,2.06,0,0,1-.769,1.912,2.06,2.06,0,0,1-1.912.769,2.06,2.06,0,0,1-1.912-.769,2.04,2.04,0,0,1-.769-1.889A2.7,2.7,0,0,1,58-191.935,3.012,3.012,0,0,1,61.006-191.236Zm5.969,7.834v1.539l-1.049.443a18.177,18.177,0,0,1-13.383.14l-1.306-.513-.07-1.562-.07-1.562H66.974Z" transform="translate(-37.172 193.709)" fill="#ff65b4"/>
      <path id="Path_1566" data-name="Path 1566" d="M16.672-87.534a13.058,13.058,0,0,0-6.365,3.73c-3.217,3.171-4.22,5.992-4.127,11.494L6.251-69l8.813.07,8.79.047v-7.577l2.1-2.1c1.982-1.982,2.122-2.075,2.495-1.679.4.373.3.49-1.515,2.331l-1.912,1.912v7.111l12.427-.047L49.85-69l.07-3.311c.07-3.917-.233-5.549-1.492-8.044a16.51,16.51,0,0,0-5.852-5.969A16.171,16.171,0,0,0,36.234-88H34.928L31.5-84.573,28.05-81.122,24.6-84.573,21.172-88l-1.4.023A15.749,15.749,0,0,0,16.672-87.534Zm20.7,9.466v1.259h1.236c1.352,0,1.958.35,1.539.863a2.562,2.562,0,0,1-1.515.3H37.376v1.236c0,1.352-.35,1.958-.863,1.539a2.562,2.562,0,0,1-.3-1.515v-1.259H34.975c-1.282,0-1.842-.3-1.632-.839.093-.233.536-.326,1.492-.326H36.21v-1.376c0-.886.093-1.422.3-1.492C37.073-79.886,37.376-79.327,37.376-78.068Z" transform="translate(-6.175 112.646)" fill="#ff65b4"/>
    </g>
  </g>
</svg>
