<svg id="user_3_" data-name="user (3)" xmlns="http://www.w3.org/2000/svg" width="9.177" height="11" viewBox="0 0 9.177 11">
  <path id="Path_1159" data-name="Path 1159" d="M89.681,5.3a2.564,2.564,0,0,0,1.873-.776,2.563,2.563,0,0,0,.776-1.873A2.564,2.564,0,0,0,91.554.776a2.649,2.649,0,0,0-3.746,0,2.564,2.564,0,0,0-.776,1.873,2.563,2.563,0,0,0,.776,1.873A2.564,2.564,0,0,0,89.681,5.3Zm0,0" transform="translate(-85.162 0)" fill="#0f88fc"/>
  <path id="Path_1160" data-name="Path 1160" d="M9.155,250.461a6.544,6.544,0,0,0-.089-.7,5.477,5.477,0,0,0-.171-.7,3.452,3.452,0,0,0-.287-.652,2.46,2.46,0,0,0-.433-.565,1.91,1.91,0,0,0-.622-.391,2.15,2.15,0,0,0-.794-.144.806.806,0,0,0-.431.183l-.449.289a2.57,2.57,0,0,1-.58.256,2.254,2.254,0,0,1-1.42,0,2.565,2.565,0,0,1-.58-.256l-.449-.289a.805.805,0,0,0-.43-.183,2.148,2.148,0,0,0-.794.144,1.909,1.909,0,0,0-.622.391,2.46,2.46,0,0,0-.433.564,3.459,3.459,0,0,0-.287.652,5.491,5.491,0,0,0-.171.7,6.52,6.52,0,0,0-.089.7c-.015.21-.022.429-.022.65a1.827,1.827,0,0,0,.542,1.382,1.953,1.953,0,0,0,1.4.51h5.3a1.952,1.952,0,0,0,1.4-.51,1.826,1.826,0,0,0,.543-1.382c0-.222-.008-.44-.022-.65Zm0,0" transform="translate(0 -242.003)" fill="#0f88fc"/>
</svg>
