<svg id="user-image-with-black-background_1_" data-name="user-image-with-black-background (1)" xmlns="http://www.w3.org/2000/svg" width="245.592" height="204.078" viewBox="0 0 245.592 204.078">
  <g id="Group_213" data-name="Group 213">
    <path id="Path_467" data-name="Path 467" d="M122.8,26.331A122.793,122.793,0,0,0,27.838,226.982c2.683-21.486,24.144-39.658,54.236-48.264a58.639,58.639,0,0,0,80.687.743c30.352,9.358,51.351,28.592,52.042,50.949A122.766,122.766,0,0,0,122.8,26.331Zm0,154.3a43.866,43.866,0,0,1-21.784-5.884c-15.806-8.994-26.688-27.4-26.688-48.648,0-30.069,21.744-54.532,48.473-54.532s48.473,24.464,48.473,54.532c0,21.575-11.223,40.207-27.422,49.045A43.765,43.765,0,0,1,122.8,180.634Z" transform="translate(0 -26.331)" fill="#dbdbdb"/>
  </g>
</svg>
