<svg xmlns="http://www.w3.org/2000/svg" width="41" height="41" viewBox="0 0 41 41">
  <g id="Group_703" data-name="Group 703" transform="translate(-24 -399)">
    <circle id="Ellipse_133" data-name="Ellipse 133" cx="20.5" cy="20.5" r="20.5" transform="translate(24 399)" fill="#f2f6fe"/>
    <g id="XMLID_116_" transform="translate(35 407.281)">
      <path id="XMLID_346_" d="M10.784,17.544H6.143V16.393h4.6a4.231,4.231,0,0,1,3.879-3.778v-9.9H0v19.4H14.624V21.038A4.232,4.232,0,0,1,10.784,17.544Zm-7.01-4.223A.576.576,0,1,1,3.2,13.9.586.586,0,0,1,3.774,13.321ZM3.2,10.7a.576.576,0,1,1,.576.576A.582.582,0,0,1,3.2,10.7Zm.576,5.814a.576.576,0,1,1-.576.576A.586.586,0,0,1,3.774,16.516Zm0-8.434a.576.576,0,1,1,.576-.576A.586.586,0,0,1,3.774,8.083Zm7.544,6.328H6.143V13.26h5.176Zm0-3.133H6.143V10.126h5.176Zm0-3.133H6.143V6.993h5.176Z" fill="#0f88fc"/>
      <path id="XMLID_372_" d="M310.087,292.976l.72-.9,1.722,1.381,2.392-2a3.055,3.055,0,1,0,.518,1.068l-2.895,2.42Z" transform="translate(-297.519 -276.479)" fill="#eda537"/>
      <path id="XMLID_374_" d="M453.414,291.43a3.067,3.067,0,0,1,.518,1.068l1.689-1.412-.738-.884Z" transform="translate(-436.012 -276.45)" fill="#0f88fc"/>
    </g>
  </g>
</svg>
