<svg xmlns="http://www.w3.org/2000/svg" width="41" height="41" viewBox="0 0 41 41">
  <g id="Group_27909" data-name="Group 27909" transform="translate(-24 -328)">
    <circle id="Ellipse_129" data-name="Ellipse 129" cx="20.5" cy="20.5" r="20.5" transform="translate(24 328)" fill="#f2f6fe"/>
    <g id="Group_27908" data-name="Group 27908" transform="translate(-400 -344)">
      <path id="Path_8480" data-name="Path 8480" d="M450.511,697.312l.528.287.181.483s.09.3,0,.377-.256.317-.332.392a1.416,1.416,0,0,1-.543.091,3.082,3.082,0,0,1-.6-.272,6.122,6.122,0,0,1-.241-.664,3.479,3.479,0,0,1,.241-.407,3.949,3.949,0,0,1,.407-.287A.951.951,0,0,1,450.511,697.312Z" transform="translate(-0.502 -0.494)" fill="#eda537"/>
      <g id="box" transform="translate(435 683)">
        <path id="Path_8475" data-name="Path 8475" d="M.27-508.925a.691.691,0,0,0-.2.2c-.075.124-.075.2-.075,6.5s0,6.379.075,6.5a.69.69,0,0,0,.2.2c.12.075.2.075,4.465.075,4.1,0,4.341,0,4.36-.068.008-.034.038-.165.064-.289a6.045,6.045,0,0,1,.45-1.265,5.8,5.8,0,0,1,3.28-2.863,4.947,4.947,0,0,1,1.475-.27l.533-.023v-4.15c0-3.966,0-4.158-.071-4.3a.578.578,0,0,0-.2-.233C14.5-509,14.48-509,12.349-509H10.206v2.859c0,1.839-.015,2.923-.041,3.032a.55.55,0,0,1-.814.379c-.075-.041-.537-.338-1.021-.657l-.882-.582-.113.067c-.06.038-.514.33-1.006.657-.8.518-.916.585-1.054.585a.571.571,0,0,1-.5-.285l-.086-.146V-509H2.544C.465-509,.39-509,.27-508.925Z" transform="translate(0 509)" fill="#0f88fc"/>
        <path id="Path_8476" data-name="Path 8476" d="M155-506.636c0,1.3.008,2.364.015,2.364s.319-.2.687-.439a7.639,7.639,0,0,1,.788-.473c.191-.06.349.011,1.024.454.341.221.642.417.668.432a16.076,16.076,0,0,0,.045-2.334V-509H155Z" transform="translate(-149.184 509)" fill="#eda537"/>
      </g>
      <path id="Subtraction_1" data-name="Subtraction 1" d="M4.519,9.064h0a4.531,4.531,0,0,1-3.33-1.471A4.477,4.477,0,0,1,.018,4.141,4.264,4.264,0,0,1,.495,2.456,4.591,4.591,0,0,1,3.955.021,3.52,3.52,0,0,1,4.408,0a6.141,6.141,0,0,1,.868.051A4.559,4.559,0,0,1,8.952,3.466a4.475,4.475,0,0,1,.094.919,3.544,3.544,0,0,1-.06,1.009A4.082,4.082,0,0,1,8.559,6.61,4.488,4.488,0,0,1,5.005,9.038,4.636,4.636,0,0,1,4.519,9.064Zm0-6.168c-.043,0-.083,0-.135,0A3.232,3.232,0,0,0,2.058,4.219c-.169.21-.169.249,0,.461A3.218,3.218,0,0,0,4.388,6c.056,0,.106,0,.151,0A3.174,3.174,0,0,0,7.023,4.68c.168-.211.168-.249,0-.461A3.494,3.494,0,0,0,5.364,3.024a2.707,2.707,0,0,0-.61-.118C4.636,2.9,4.574,2.9,4.516,2.9ZM4.54,5.544A1.089,1.089,0,0,1,3.532,4.88a1.1,1.1,0,0,1-.005-.849,1.118,1.118,0,0,1,.606-.6,1.094,1.094,0,0,1,.4-.077,1.206,1.206,0,0,1,.22.021,1.1,1.1,0,0,1,.727.514A1.09,1.09,0,0,1,5.534,4.9a1.017,1.017,0,0,1-.213.307A1.082,1.082,0,0,1,4.54,5.544ZM4.533,3.861a.565.565,0,0,0-.1.007.611.611,0,0,0-.4.28.5.5,0,0,0-.081.3.5.5,0,0,0,.057.265.7.7,0,0,0,.263.262A.591.591,0,0,0,5.1,4.627a.64.64,0,0,0,0-.356.588.588,0,0,0-.538-.409Z" transform="translate(445.37 693.245)" fill="#0f88fc"/>
      <path id="Path_8479" data-name="Path 8479" d="M449.75,697.656" transform="translate(-0.51 -0.507)" fill="#fff"/>
    </g>
  </g>
</svg>
