<svg xmlns="http://www.w3.org/2000/svg" width="24.389" height="20.176" viewBox="0 0 24.389 20.176">
  <g id="vital-signs" transform="translate(-23.925 447.962)">
    <path id="Path_1908" data-name="Path 1908" d="M24.77-447.9a1.675,1.675,0,0,0-.778.8c-.089.315-.089,14.755,0,15.07a1.561,1.561,0,0,0,.809.809c.168.047,2.759.063,11.329.063,12.532,0,11.413.042,11.828-.42a1.436,1.436,0,0,0,.289-.462c.089-.3.089-14.75,0-15.049a1.436,1.436,0,0,0-.289-.462c-.415-.462.709-.42-11.86-.415C28.133-447.954,24.9-447.938,24.77-447.9Zm22.569.9.131.126v14.618l-.131.126-.126.131H25.027l-.126-.131-.131-.126v-14.618l.131-.126.126-.131H47.212Z" fill="#ffa02e"/>
    <path id="Path_1909" data-name="Path 1909" d="M56-414.319v1.681h1.823l.384-.977a5.169,5.169,0,0,1,.494-1.051.435.435,0,0,1,.5.021c.105.084.158.289.4,1.639.158.846.289,1.545.3,1.555s.278-.788.61-1.771c.625-1.881.652-1.939.967-1.939s.368.142.557,1.287c.095.578.184,1.093.194,1.14.026.084.116.095.967.095.814,0,.951.01,1.046.089a3.261,3.261,0,0,1,.368.857c.226.678.263.746.31.631.026-.074.315-.793.636-1.6a11.912,11.912,0,0,1,.7-1.566.477.477,0,0,1,.263-.089c.268,0,.368.168.562.956l.173.725h2.2V-416H56Z" transform="translate(-30.39 -30.283)" fill="#ffa02e"/>
    <path id="Path_1910" data-name="Path 1910" d="M328-409.274v6.726h6.726V-416H328Zm3.232-5.754.131.126v3.689l-.131.126c-.126.131-.137.131-1.13.131s-1,0-1.13-.131l-.131-.126V-414.9l.131-.126c.126-.131.137-.131,1.13-.131S331.105-415.159,331.232-415.028Zm2.233.289v.42H332.2v-.841h1.261Zm.42,1.681v.42H332.2v-.841h1.681Zm-.841,3.363v.42h-4.2v-.841h4.2Zm.841,1.681v.42h-5.044v-.841h5.044Zm-1.813,1.424a1.864,1.864,0,0,1,.814.809,1.325,1.325,0,0,1,.131.709,1.261,1.261,0,0,1-.179.778,1.529,1.529,0,0,1-.762.736,1.247,1.247,0,0,1-.715.137,1.281,1.281,0,0,1-.709-.126,1.688,1.688,0,0,1,.184-3.121A1.859,1.859,0,0,1,332.072-406.589Z" transform="translate(-288.097 -30.283)" fill="#ffa02e"/>
    <path id="Path_1911" data-name="Path 1911" d="M360-382.739v1.261h.841V-384H360Z" transform="translate(-318.415 -60.601)" fill="#ffa02e"/>
    <path id="Path_1912" data-name="Path 1912" d="M376.686-223.956a.832.832,0,0,0-.242,1.35.792.792,0,0,0,1.167,0A.833.833,0,0,0,376.686-223.956Z" transform="translate(-333.762 -212.164)" fill="#ffa02e"/>
    <path id="Path_1913" data-name="Path 1913" d="M60.734-356.724c-.625,1.871-.657,1.928-.967,1.928s-.357-.1-.662-1.813c-.158-.867-.294-1.6-.31-1.624s-.095.126-.179.342c-.231.594-.179.573-1.492.573H56v3.363H69.452v-3.363h-1.34c-1.34,0-1.345,0-1.466-.121a.761.761,0,0,1-.163-.347c-.021-.126-.058-.2-.079-.179s-.3.7-.631,1.513a11.289,11.289,0,0,1-.694,1.561.438.438,0,0,1-.252.095c-.278,0-.352-.126-.751-1.34l-.389-1.156-1-.026c-.857-.021-1.019-.042-1.1-.116a1.66,1.66,0,0,1-.173-.578l-.084-.489Z" transform="translate(-30.39 -84.761)" fill="#ffa02e"/>
    <path id="Path_1914" data-name="Path 1914" d="M56-253.478v2.522h.825l.026-.468a1.769,1.769,0,0,1,.189-.809,2.5,2.5,0,0,1,.736-.888c.11-.074.11-.084.032-.252a1.175,1.175,0,0,1,.263-1.392,1.155,1.155,0,0,1,1.745,0,1.175,1.175,0,0,1,.263,1.392c-.079.168-.079.179.032.252a2.5,2.5,0,0,1,.736.888,1.769,1.769,0,0,1,.189.809l.026.468h.825V-256H56Z" transform="translate(-30.39 -181.875)" fill="#ffa02e"/>
    <path id="Path_1915" data-name="Path 1915" d="M184-253.478v2.522h6.726V-256H184Zm2.811-1.55.131.126v2.848l-.131.126c-.126.131-.137.131-1.13.131s-1,0-1.13-.131l-.131-.126V-254.9l.131-.126c.126-.131.137-.131,1.13-.131S186.685-255.159,186.811-255.028Zm3.363,0,.131.126v2.848l-.131.126c-.126.131-.137.131-1.13.131s-1,0-1.13-.131l-.131-.126V-254.9l.131-.126c.126-.131.137-.131,1.13-.131S190.048-255.159,190.174-255.028Z" transform="translate(-151.664 -181.875)" fill="#ffa02e"/>
    <path id="Path_1916" data-name="Path 1916" d="M208-223.159v.841h.841V-224H208Z" transform="translate(-174.402 -212.194)" fill="#ffa02e"/>
    <path id="Path_1917" data-name="Path 1917" d="M272-223.159v.841h.841V-224H272Z" transform="translate(-235.04 -212.194)" fill="#ffa02e"/>
    <path id="Path_1918" data-name="Path 1918" d="M104.131-223.869a.41.41,0,0,0-.131.289.41.41,0,0,0,.131.289.41.41,0,0,0,.289.131.41.41,0,0,0,.289-.131.41.41,0,0,0,.131-.289.41.41,0,0,0-.131-.289.41.41,0,0,0-.289-.131A.41.41,0,0,0,104.131-223.869Z" transform="translate(-75.867 -212.194)" fill="#ffa02e"/>
    <path id="Path_1919" data-name="Path 1919" d="M88.841-191.879a1.675,1.675,0,0,0-.778.8,2.157,2.157,0,0,0-.063.515v.294h2.522v-.294a1.276,1.276,0,0,0-.352-.967A1.234,1.234,0,0,0,88.841-191.879Z" transform="translate(-60.708 -242.565)" fill="#ffa02e"/>
    <path id="Path_1920" data-name="Path 1920" d="M152-111.58v.42h.841V-112H152Z" transform="translate(-121.345 -318.309)" fill="#ffa02e"/>
    <path id="Path_1921" data-name="Path 1921" d="M184-111.58v.42h7.567V-112H184Z" transform="translate(-151.664 -318.309)" fill="#ffa02e"/>
    <path id="Path_1922" data-name="Path 1922" d="M344-111.58v.42h.841V-112H344Z" transform="translate(-303.256 -318.309)" fill="#ffa02e"/>
    <path id="Path_1923" data-name="Path 1923" d="M58.736-79.92a1.842,1.842,0,0,0-.736.688c0,.074,1,.084,10.4.084s10.4-.011,10.4-.084c0-.142-.531-.625-.767-.694C77.747-80.009,59.014-80.009,58.736-79.92Z" transform="translate(-32.284 -348.639)" fill="#ffa02e"/>
  </g>
</svg>
