<svg id="Group_847" data-name="Group 847" xmlns="http://www.w3.org/2000/svg" width="13.52" height="21.021" viewBox="0 0 13.52 21.021">
  <g id="Group_846" data-name="Group 846">
    <g id="training" transform="translate(0 0)">
      <path id="Path_1438" data-name="Path 1438" d="M12.171,52.8h1.452v.922h6.454V52.8h1.452A1.676,1.676,0,0,1,23.2,54.472V67.336a1.676,1.676,0,0,1-1.671,1.671H19.086l.721-.721.539-.539a2.091,2.091,0,0,0-2.957-2.957l-.539.539-.539-.539a2.091,2.091,0,0,0-2.957,2.957l1.259,1.259H12.171A1.676,1.676,0,0,1,10.5,67.336V54.472A1.676,1.676,0,0,1,12.171,52.8Zm0,0" transform="translate(-10.089 -50.633)" fill="#eceff1"/>
      <path id="Path_1439" data-name="Path 1439" d="M86.555,10.893h1.567V10h3.321v.893h1.567v1.786H86.555Zm0,0" transform="translate(-83.022 -9.589)" fill="#eda537"/>
      <path id="Path_1440" data-name="Path 1440" d="M65.768,330.588a2.1,2.1,0,0,1,2.957,0l.539.538.539-.538a2.091,2.091,0,1,1,2.957,2.957l-.539.539-2.957,2.957-3.5-3.5A2.1,2.1,0,0,1,65.768,330.588Zm0,0" transform="translate(-62.504 -316.431)" fill="#eda537"/>
      <path id="Path_1441" data-name="Path 1441" d="M67.477,121.426h2.632v2.632H67.477Zm0,0" transform="translate(-64.727 -116.441)" fill="#eceff1"/>
      <path id="Path_1442" data-name="Path 1442" d="M67.477,222.16h2.632v2.632H67.477Zm0,0" transform="translate(-64.727 -213.039)" fill="#eceff1"/>
      <path id="Path_1443" data-name="Path 1443" d="M.91,13.829a.411.411,0,0,0,.411-.411V3.838a1.262,1.262,0,0,1,1.26-1.26H3.622v.511a.411.411,0,0,0,.411.411h6.454a.411.411,0,0,0,.411-.411V2.578h1.041a1.262,1.262,0,0,1,1.26,1.26.411.411,0,0,0,.821,0,2.084,2.084,0,0,0-2.082-2.081H10.9V1.3a.411.411,0,0,0-.411-.411H9.331V.41A.411.411,0,0,0,8.92,0H5.6A.411.411,0,0,0,5.189.41V.893H4.033a.411.411,0,0,0-.411.411v.454H2.581A2.084,2.084,0,0,0,.5,3.838v9.58a.411.411,0,0,0,.411.411ZM4.443,1.714H5.6A.411.411,0,0,0,6.01,1.3V.821h2.5V1.3a.411.411,0,0,0,.411.411h1.156v.965H4.443Zm0,0" transform="translate(-0.5 0)" fill="#0f88fc"/>
      <path id="Path_1444" data-name="Path 1444" d="M13.61,163.5a.411.411,0,0,0-.411.411v9.58a1.262,1.262,0,0,1-1.26,1.26H10.488l.559-.558c.041-.042.081-.085.119-.128l.021-.024a2.5,2.5,0,0,0-3.677-3.385l-.248.248-.248-.248a2.5,2.5,0,0,0-3.678,3.384l.023.026c.038.043.077.086.118.128l.558.559H2.582a1.262,1.262,0,0,1-1.26-1.26.411.411,0,1,0-.821,0,2.084,2.084,0,0,0,2.082,2.082H4.854l2.116,2.116a.41.41,0,0,0,.581,0l2.116-2.116h2.272a2.084,2.084,0,0,0,2.082-2.082v-9.58a.411.411,0,0,0-.411-.411Zm-9.555,7.735a1.687,1.687,0,0,1,2.376,0l.539.539a.41.41,0,0,0,.581,0l.539-.539a1.68,1.68,0,0,1,2.573,2.14H9.173l-.548-1.019a.411.411,0,0,0-.723,0l-.648,1.205-.46-.857a.411.411,0,0,0-.723,0l-.36.671H3.859a1.683,1.683,0,0,1,.2-2.14Zm3.205,5.582L4.64,174.192H5.956a.411.411,0,0,0,.362-.216l.115-.214.46.857a.411.411,0,0,0,.723,0l.648-1.205.3.562a.411.411,0,0,0,.362.216h.954l-.675.675h0Zm0,0" transform="translate(-0.501 -156.784)" fill="#0f88fc"/>
      <path id="Path_1445" data-name="Path 1445" d="M60.929,111.837a.411.411,0,0,0-.411-.411H57.887a.411.411,0,0,0-.411.411v2.632a.411.411,0,0,0,.411.411h2.632a.411.411,0,0,0,.411-.411Zm-.821,2.221H58.3v-1.811h1.811Zm0,0" transform="translate(-55.137 -106.851)" fill="#0f88fc"/>
      <path id="Path_1446" data-name="Path 1446" d="M60.519,212.16H57.887a.411.411,0,0,0-.411.411V215.2a.411.411,0,0,0,.411.411h2.632a.411.411,0,0,0,.411-.411v-2.632A.411.411,0,0,0,60.519,212.16Zm-.411,2.632H58.3v-1.811h1.811Zm0,0" transform="translate(-55.137 -203.45)" fill="#0f88fc"/>
      <path id="Path_1447" data-name="Path 1447" d="M168.54,224.68h2.632a.411.411,0,0,0,0-.821H168.54a.411.411,0,1,0,0,.821Zm0,0" transform="translate(-161.247 -214.668)" fill="#0f88fc"/>
      <path id="Path_1448" data-name="Path 1448" d="M168.54,265.384h3.7a.411.411,0,1,0,0-.821h-3.7a.411.411,0,1,0,0,.821Zm0,0" transform="translate(-161.247 -253.701)" fill="#0f88fc"/>
      <path id="Path_1449" data-name="Path 1449" d="M172.237,163.828h-3.7a.411.411,0,0,0,0,.821h3.7a.411.411,0,1,0,0-.821Zm0,0" transform="translate(-161.247 -157.102)" fill="#0f88fc"/>
      <path id="Path_1450" data-name="Path 1450" d="M168.54,123.946h2.632a.411.411,0,0,0,0-.821H168.54a.411.411,0,1,0,0,.821Zm0,0" transform="translate(-161.247 -118.07)" fill="#0f88fc"/>
      <path id="Path_1451" data-name="Path 1451" d="M.911,357.653a.411.411,0,1,0-.411-.411A.411.411,0,0,0,.911,357.653Zm0,0" transform="translate(-0.5 -342.182)" fill="#0f88fc"/>
      <path id="Path_1452" data-name="Path 1452" d="M310.224,123.5a.411.411,0,1,0,.411.411A.411.411,0,0,0,310.224,123.5Zm0,0" transform="translate(-297.114 -118.426)" fill="#0f88fc"/>
    </g>
  </g>
</svg>
