<svg id="ekg-monitor" xmlns="http://www.w3.org/2000/svg" width="37.44" height="33.718" viewBox="0 0 37.44 33.718">
  <g id="Group_865" data-name="Group 865" transform="translate(0 0)">
    <rect id="Rectangle_1981" data-name="Rectangle 1981" width="3.84" height="1.92" rx="0.96" transform="translate(2.88 3.858)" fill="#eda537"/>
    <rect id="Rectangle_1982" data-name="Rectangle 1982" width="2.88" height="1.92" transform="translate(3.84 8.658)" fill="#eda537"/>
    <g id="Group_864" data-name="Group 864">
      <g id="Group_863" data-name="Group 863">
        <path id="Path_1467" data-name="Path 1467" d="M37.433,30.187q-.006-.112-.016-.222a5.008,5.008,0,0,0-3.786-4.375q-.21-.051-.427-.085a5.017,5.017,0,0,0-.76-.058H5a5.008,5.008,0,0,0-.76.058q-.217.033-.427.085A5.008,5.008,0,0,0,.023,29.965q-.011.11-.016.222Q0,30.315,0,30.444v16.9a5,5,0,0,0,5,5H15.121V57.7H11.273a.731.731,0,0,0,0,1.463H26.167a.731.731,0,1,0,0-1.463H22.319V52.343H32.444a5,5,0,0,0,5-5v-16.9Q37.44,30.315,37.433,30.187ZM20.856,57.7H16.584V52.343h4.272ZM35.978,47.347a3.537,3.537,0,0,1-3.533,3.533H5a3.537,3.537,0,0,1-3.533-3.533V45.082h3a.731.731,0,0,0,0-1.463h-3V30.444A3.537,3.537,0,0,1,5,26.911H32.444a3.537,3.537,0,0,1,3.533,3.533V43.62H10.312a.731.731,0,0,0,0,1.463H35.978Z" transform="translate(0 -25.448)" fill="#0f88fc"/>
        <path id="Path_1468" data-name="Path 1468" d="M225.877,308.253a2.377,2.377,0,1,0-2.377-2.377A2.379,2.379,0,0,0,225.877,308.253Zm0-3.291a.914.914,0,1,1-.914.914A.915.915,0,0,1,225.877,304.962Z" transform="translate(-207.157 -283.167)" fill="#0f88fc"/>
        <path id="Path_1469" data-name="Path 1469" d="M110.626,82.439l1.568-5.568,1.53,8.489a.731.731,0,0,0,1.385.173l1.686-3.705.335.721a.731.731,0,0,0,.663.423h2.679a.731.731,0,0,0,.7-.533l1.568-5.568,1.53,8.489a.731.731,0,0,0,1.385.173l1.686-3.705.335.721a.731.731,0,0,0,.663.423h2.679a.731.731,0,0,0,0-1.462h-2.213L128,79.769a.731.731,0,0,0-.663-.423h0a.731.731,0,0,0-.663.428L125.3,82.8l-1.678-9.309a.731.731,0,0,0-1.424-.068l-2.278,8.091H118.26l-.808-1.74a.731.731,0,0,0-.663-.423h0a.731.731,0,0,0-.663.428L114.748,82.8l-1.678-9.309a.731.731,0,0,0-1.424-.068l-2.278,8.091h-4.638a.731.731,0,0,0,0,1.463h5.191A.731.731,0,0,0,110.626,82.439Z" transform="translate(-96.395 -69.416)" fill="#0f88fc"/>
        <path id="Path_1470" data-name="Path 1470" d="M36.493,70.985h1.463a1.993,1.993,0,0,0,0-3.985H36.493a1.993,1.993,0,1,0,0,3.985Zm0-2.523h1.463a.53.53,0,1,1,0,1.06H36.493a.53.53,0,1,1,0-1.06Z" transform="translate(-31.977 -63.962)" fill="#0f88fc"/>
        <path id="Path_1471" data-name="Path 1471" d="M39.948,134.441a2,2,0,0,0-1.993-1.993H36.493a1.993,1.993,0,1,0,0,3.985h1.463A2,2,0,0,0,39.948,134.441Zm-1.993.53H36.493a.53.53,0,1,1,0-1.06h1.463a.53.53,0,1,1,0,1.06Z" transform="translate(-31.977 -124.624)" fill="#0f88fc"/>
        <path id="Path_1472" data-name="Path 1472" d="M92.426,274.4a.747.747,0,0,0-.067-.126.7.7,0,0,0-.091-.111.744.744,0,0,0-.111-.091.718.718,0,0,0-.126-.067.735.735,0,0,0-.137-.042.724.724,0,0,0-.286,0,.771.771,0,0,0-.137.042.726.726,0,0,0-.237.159.7.7,0,0,0-.091.111.741.741,0,0,0-.067.126.774.774,0,0,0-.042.137.734.734,0,0,0,.2.66.7.7,0,0,0,.111.091.744.744,0,0,0,.126.067.773.773,0,0,0,.137.042.729.729,0,0,0,.143.015.721.721,0,0,0,.143-.015.736.736,0,0,0,.137-.042.72.72,0,0,0,.126-.067.7.7,0,0,0,.111-.091.737.737,0,0,0,.214-.517.728.728,0,0,0-.015-.143A.786.786,0,0,0,92.426,274.4Z" transform="translate(-84.364 -255.774)" fill="#0f88fc"/>
      </g>
    </g>
  </g>
</svg>
